<?xml version="1.0" encoding="UTF-8"?>
<svg id="Capa_2" data-name="Capa 2" xmlns="http://www.w3.org/2000/svg" viewBox="0 0 167.98 135.55">
  <defs>
    <style>
      .cls-1 {
        fill: #db5617;
      }

      .cls-2 {
        fill: #380904;
      }

      .cls-3 {
        fill: #b53d0f;
      }

      .cls-4 {
        fill: #d14c14;
      }

      .cls-5 {
        fill: #db5013;
      }

      .cls-6 {
        fill: #b13b0e;
      }

      .cls-7 {
        fill: #310c02;
      }

      .cls-8 {
        fill: #fdfdfc;
      }

      .cls-9 {
        fill: #ea5c1b;
      }

      .cls-10 {
        fill: #a0360e;
      }

      .cls-11 {
        fill: #c94411;
      }

      .cls-12 {
        fill: #581b08;
      }

      .cls-13 {
        fill: #842806;
      }

      .cls-14 {
        fill: #d44d13;
      }

      .cls-15 {
        fill: #f97b39;
      }

      .cls-16 {
        fill: #b43d0f;
      }

      .cls-17 {
        fill: #b13b0f;
      }

      .cls-18 {
        fill: #5f1e0a;
      }

      .cls-19 {
        fill: #b23c0e;
      }

      .cls-20 {
        fill: #672109;
      }

      .cls-21 {
        fill: #751f03;
      }

      .cls-22 {
        fill: #d75110;
      }

      .cls-23 {
        fill: #100905;
      }

      .cls-24 {
        fill: #2d0b04;
      }

      .cls-25 {
        fill: #99300a;
      }

      .cls-26 {
        fill: #5d1c08;
      }

      .cls-27 {
        fill: #8e2d0b;
      }

      .cls-28 {
        fill: #99300c;
      }

      .cls-29 {
        fill: #aa390f;
      }

      .cls-30 {
        fill: #74240a;
      }

      .cls-31 {
        fill: #bd4412;
      }
    </style>
  </defs>
  <g id="Capa_1-2" data-name="Capa 1">
    <g id="hold_fragile">
      <path class="cls-23" d="M81.5.57c9.65,1.17,20.34,3.26,28.62,8.6,3.08,1.12,6.48,1.27,9.55,2.6,11.94,4.72,24.19,10.43,31.44,21.56,4.61,6.49,5.97,13.6,9.25,20.73,3.27,8.84,7.49,16.59,7.62,26.23-.32,11.78-6.17,23.2-14.2,31.62-2.81,2.99-6.35,4.25-9.83,6.18-2.8,2.61-4.41,6.05-7.84,8.13-7.31,4.88-18.02,5.45-26.45,6.76-7.09,1.66-14.23,2.22-21.5,2.57-11.45-.5-22.92-2.35-33.96-5.4-3.72-1.01-6.93-3.06-10.49-4.4-5.2.19-9.97.93-15.02-1.01-9.38-3.36-17.41-10.99-22.74-19.26C-.27,96.26-1.17,84.24,1.23,73.61c1.78-8.34,6.06-14.54,9.61-22.54,2.91-5.43,3.59-11.44,6.15-17,2.93-6.11,5.31-11.84,10.59-16.36,5.39-5.14,11.76-7.54,18.41-10.53,4.09-1.77,8.13-4.43,12.4-5.45,7.58-1.78,15.39-2.22,23.11-1.16Z"/>
      <path class="cls-9" d="M63.39,4.54c14.71-2.19,30.47,1.27,44.18,6.67-.83,1.5-1.62,3.01-2.33,4.57-9.54-2.67-18.36-6.74-28.09-7.35-10.82-.9-22.07,2.31-31.7,7.09l.81,1.08c-4.29,1.17-9.11,2.08-12.05,5.75-1.47,1.49-.65,4.31-.6,6.21l-.39-.14c-2.28-1.4-4.57-2.47-7.13-3.27,4.15-6.41,10.36-9.81,17.18-12.76,6.98-2.83,12.47-6.79,20.12-7.85Z"/>
      <path class="cls-6" d="M77.15,8.43c9.73.61,18.55,4.68,28.09,7.35-.08,3.21.17,6.44.16,9.69-.53,1.69-1.12,3.35-1.72,5.02-3.64,1.01-7.03,1.75-9.9,4.39-3.92,3.54-7.54,7.4-11.56,10.85-3.99-3.87-7.59-8.1-11.53-12-3.07-3.1-7.5-4.35-11.59-2.5-3.72,1.7-5.46,4.84-7.3,8.28-3.5.22-5.29-2.09-7.87-4.01-3.32-2.82-7.14-4.63-10.71-7.08l.39.14c5.4,2.99,12.68-.68,14.96-5.93,1.19-2.65-1.02-3.97-2.31-6.03l-.81-1.08c9.63-4.78,20.88-7.99,31.7-7.09Z"/>
      <path class="cls-13" d="M107.57,11.21c.45.98.89,1.98,1.28,2.99-.85,3.81-2.22,7.58-3.45,11.27.01-3.25-.24-6.48-.16-9.69.71-1.56,1.5-3.07,2.33-4.57Z"/>
      <path class="cls-2" d="M111.66,13.61c1.15.08,2.3.23,3.43.43-.78.16-1.55.33-2.33.53-.38.82-.76,1.64-1.13,2.47-2.01,4.67-3.87,9.41-5.74,14.13,3.65,3.35,7.22,5.95,8.1,11.18-.94-.89-1.93-1.72-2.91-2.57-2.64-2.27-5.18-5.87-8.93-6.02-3.59-.21-5.68,2.18-8.11,4.38-3.92,3.91-7.96,7.7-11.97,11.53-4.1-4.35-8.09-8.78-12.2-13.11-2.1-2.12-4.39-4.18-7.62-3.66-3.31.91-5.57,3.66-8.22,5.66-.74.34-1.48.65-2.23.95,1.84-3.44,3.58-6.58,7.3-8.28,4.09-1.85,8.52-.6,11.59,2.5,3.94,3.9,7.54,8.13,11.53,12,4.02-3.45,7.64-7.31,11.56-10.85,2.87-2.64,6.26-3.38,9.9-4.39.6-1.67,1.19-3.33,1.72-5.02,1.23-3.69,2.6-7.46,3.45-11.27.16.41.32.82.49,1.23.76-.62,1.54-1.22,2.32-1.82Z"/>
      <path class="cls-1" d="M112.76,14.57c.78-.2,1.55-.37,2.33-.53,7.92,3.09,16.14,6.36,23.25,11.06,4.32,3.29,9.62,8.14,10.41,13.78-2.73,3.89-4.38,8.23-6.67,12.36-2.21,2.4-5.03,5.42-8.27,6.29-2.21-.04-4.5-1.4-6.54-2.21,6.94-.87,12.41-5.52,15.64-11.53,1.21-2.13-.12-4.4-.66-6.53-1.84.05-3.67.09-5.5.13-.8-3.36-.92-6.52-3.78-8.88-5.94-5.19-14.23-8.1-21.34-11.47.37-.83.75-1.65,1.13-2.47Z"/>
      <path class="cls-15" d="M46.26,16.6c1.29,2.06,3.5,3.38,2.31,6.03-2.28,5.25-9.56,8.92-14.96,5.93-.05-1.9-.87-4.72.6-6.21,2.94-3.67,7.76-4.58,12.05-5.75Z"/>
      <path class="cls-16" d="M111.63,17.04c7.11,3.37,15.4,6.28,21.34,11.47,2.86,2.36,2.98,5.52,3.78,8.88,1.83-.04,3.66-.08,5.5-.13.54,2.13,1.87,4.4.66,6.53-3.23,6.01-8.7,10.66-15.64,11.53,2.04.81,4.33,2.17,6.54,2.21,3.24-.87,6.06-3.89,8.27-6.29-1.62,2.82-3.2,6.18-5.63,8.39-2.42.84-4.99-.52-7.11-1.6-5.42-3.01-10.69-6.29-16.02-9.47,2.96-1.27,5.94-2.5,8.93-3.7-2.47.49-4.94.97-7.42,1.42-.25-1.32-.53-2.63-.84-3.93-.88-5.23-4.45-7.83-8.1-11.18,1.87-4.72,3.73-9.46,5.74-14.13Z"/>
      <path class="cls-24" d="M26.09,25.15c2.56.8,4.85,1.87,7.13,3.27,3.57,2.45,7.39,4.26,10.71,7.08,2.58,1.92,4.37,4.23,7.87,4.01.75-.3,1.49-.61,2.23-.95-.06,1.82-.25,3.76.09,5.55.57,2.08,2.33,3.88,3.74,5.45,3.78,3.96,7.51,7.96,11.24,11.96-3.96,3.95-8.06,7.75-12.13,11.59-1.76,1.78-3.81,3.59-4.14,6.22-.54,4.89,3.81,9.39,8.38,10.25,3.23.36,5.29-1.79,7.45-3.8,4.05-4.05,8.27-7.91,12.43-11.85,3.82,4,7.6,8.03,11.33,12.11,2.03,1.99,3.6,4.24,6.77,4.05,3.54.37,6.11-1.98,8.4-4.35,1.86-2.22,2.76-5.11.76-7.59-4.45-5.7-9.86-10.69-14.66-16.11,4.5-3.9,8.79-8.03,13.14-12.1,1.33-1.29,2.81-2.64,3.78-4.22.71-1.79.4-4.04.47-5.94.98.85,1.97,1.68,2.91,2.57.31,1.3.59,2.61.84,3.93,2.48-.45,4.95-.93,7.42-1.42-2.99,1.2-5.97,2.43-8.93,3.7,5.33,3.18,10.6,6.46,16.02,9.47,2.12,1.08,4.69,2.44,7.11,1.6,2.43-2.21,4.01-5.57,5.63-8.39,2.29-4.13,3.94-8.47,6.67-12.36.76,1.29,1.53,2.57,2.31,3.84-3.29,3.23-5.2,7.17-7.39,11.15-2.41,4.53-5.64,7.63-5.26,13.15-.02,4.38-.07,8.76-.23,13.14-.87.53-1.73,1.05-2.6,1.57-.46-5.49.42-11.54-1.06-16.83-1.9-4.06-8.17-5.73-12.05-7.18-3.77-2.41-7.37-5.07-11.22-7.35-4.43,4.12-9.03,8-13.05,12.55,3.54,4.23,7.39,8.16,11.07,12.26,2.23,2.51,3.59,5.47,2.73,8.88-1.38,5.44-7.01,10.46-12.87,9.83-2.94-.02-5.37-1.13-7.5-3.11-3.54-3.32-6.76-6.95-10.41-10.17-4.62,3.22-8.39,7.33-12.7,10.9-3.76,2.95-9.64,2.91-13.15-.44-3.01-2.87-5.57-6.44-5.46-10.78,0-3.36,2.16-5.64,4.33-7.91,3.53-3.46,7.18-6.81,10.64-10.35-3.45-3.91-7.06-7.65-10.6-11.46-2-3.04-3.17-7.1-5.83-9.58-5.77-4.81-12.16-8.64-18.87-11.99-1.47-.83-2.9-1.74-4.36-2.59l.87-1.26Z"/>
      <path class="cls-5" d="M25.22,26.41c1.46.85,2.89,1.76,4.36,2.59-2.71,4.31-5.1,8.75-8.28,12.74-.71-.63-1.43-1.26-2.16-1.88,1.59-4.64,3.58-9.23,6.08-13.45Z"/>
      <path class="cls-19" d="M29.58,29c6.71,3.35,13.1,7.18,18.87,11.99,2.66,2.48,3.83,6.54,5.83,9.58-2.81,1.17-5.53,2.6-8.33,3.8-3.91.08-7.8-.17-11.68-.6-2.94-1.48-6.06-2.9-8.66-4.94-1.95-1.84-2.91-4.8-4.31-7.09,3.18-3.99,5.57-8.43,8.28-12.74Z"/>
      <path class="cls-8" d="M62.25,32.9c3.23-.52,5.52,1.54,7.62,3.66,4.11,4.33,8.1,8.76,12.2,13.11,4.01-3.83,8.05-7.62,11.97-11.53,2.43-2.2,4.52-4.59,8.11-4.38,3.75.15,6.29,3.75,8.93,6.02-.07,1.9.24,4.15-.47,5.94-.97,1.58-2.45,2.93-3.78,4.22-4.35,4.07-8.64,8.2-13.14,12.1,4.8,5.42,10.21,10.41,14.66,16.11,2,2.48,1.1,5.37-.76,7.59-2.29,2.37-4.86,4.72-8.4,4.35-3.17.19-4.74-2.06-6.77-4.05-3.73-4.08-7.51-8.11-11.33-12.11-4.16,3.94-8.38,7.8-12.43,11.85-2.16,2.01-4.22,4.16-7.45,3.8-4.57-.86-8.92-5.36-8.38-10.25.33-2.63,2.38-4.44,4.14-6.22,4.07-3.84,8.17-7.64,12.13-11.59-3.73-4-7.46-8-11.24-11.96-1.41-1.57-3.17-3.37-3.74-5.45-.34-1.79-.15-3.73-.09-5.55,2.65-2,4.91-4.75,8.22-5.66Z"/>
      <path class="cls-21" d="M19.14,39.86c.73.62,1.45,1.25,2.16,1.88,1.4,2.29,2.36,5.25,4.31,7.09,2.6,2.04,5.72,3.46,8.66,4.94-5.59.16-8.97-2.87-13.19-5.96-.97-.9-1.92-1.83-2.71-2.9-.12-1.68.35-3.44.77-5.05Z"/>
      <path class="cls-28" d="M151.06,42.72c1.07,1.71,2.05,3.47,2.87,5.31-.73.46-1.45.93-2.18,1.39,2.8,8.01,5.98,16.4,7.13,24.82-1.42.72-2.99,1.38-4.23,2.38-.79,2.47-.77,5.18-1.55,7.66-.61.53-1.32.8-2.14.84-3.47.21-6.96-.1-10.44-.04.07,1.78.14,3.57.22,5.36-2.67-7.2-1.65-15.81-2.33-23.42-.38-5.52,2.85-8.62,5.26-13.15,2.19-3.98,4.1-7.92,7.39-11.15Z"/>
      <path class="cls-7" d="M21.08,47.81c4.22,3.09,7.6,6.12,13.19,5.96,3.88.43,7.77.68,11.68.6,3.55.14,7.01.77,10.48,1.48-1.96.61-3.93,1.16-5.91,1.68-5.27-.36-10.41-.44-15.68-.02.01,1.95.04,3.9.2,5.84,2.45,12.04,6.93,24.33,14.96,33.8-.2.72-.39,1.44-.59,2.16-.8,2.18-1.76,4.26-2.8,6.34-.6,1.13-1.19,2.28-1.73,3.44.11-.65.22-1.3.33-1.95-.73-.13-1.46-.25-2.18-.38l.27-.65c.34-.77.67-1.54,1.01-2.31.97-2.54,2.01-4.71.76-7.39-2.56-5.66-5.36-11.25-8.1-16.83-.55.36-1.09.74-1.63,1.12.26-2.46.49-4.85.25-7.32-.98-3.25-2.16-6.44-3.11-9.7-.82-2.75-1.34-5.95-3.9-7.66-3.14-2.25-6.31-4.26-8.84-7.24l-.62-.75c.66-.09,1.31-.16,1.96-.22Z"/>
      <path class="cls-14" d="M16.44,48.49c.89-.17,1.79-.32,2.68-.46l.62.75c-.55,6.68-5.65,11.43-8.27,17.8-1.8,4.09-2.26,8.31-2.92,12.69-1.28-1.35-2.57-2.69-3.86-4.03,1.06-4.69,2.9-9.09,5.07-13.36,2.25-4.43,4.1-9.15,6.68-13.39Z"/>
      <path class="cls-3" d="M153.93,48.03c3.82,10.6,10.26,22.01,10.19,33.26-6.61,4.12-13.41,7.92-20.07,11.97-1.11-.93-2.23-1.85-3.31-2.82-.08-1.79-.15-3.58-.22-5.36,3.48-.06,6.97.25,10.44.04.82-.04,1.53-.31,2.14-.84.78-2.48.76-5.19,1.55-7.66,1.24-1,2.81-1.66,4.23-2.38-1.15-8.42-4.33-16.81-7.13-24.82.73-.46,1.45-.93,2.18-1.39Z"/>
      <path class="cls-17" d="M19.74,48.78c2.53,2.98,5.7,4.99,8.84,7.24,2.56,1.71,3.08,4.91,3.9,7.66-1.08,4.59-1.96,9.55-4.07,13.79-1.13,2.42-3.68,3.19-5.84,4.47-2.15,1.06-3.91,2.59-5.62,4.24,2.63.55,5.27,1.02,7.92,1.43-1.87.27-3.75.54-5.63.76-2.24.26-4.48.45-6.72.65-3.17-4.33-5.87-8.77-7.83-13.78,1.29,1.34,2.58,2.68,3.86,4.03.66-4.38,1.12-8.6,2.92-12.69,2.62-6.37,7.72-11.12,8.27-17.8Z"/>
      <path class="cls-29" d="M54.28,50.57c3.54,3.81,7.15,7.55,10.6,11.46-3.46,3.54-7.11,6.89-10.64,10.35-2.17,2.27-4.33,4.55-4.33,7.91-.11,4.34,2.45,7.91,5.46,10.78,3.51,3.35,9.39,3.39,13.15.44,4.31-3.57,8.08-7.68,12.7-10.9,3.65,3.22,6.87,6.85,10.41,10.17,2.13,1.98,4.56,3.09,7.5,3.11,5.86.63,11.49-4.39,12.87-9.83.86-3.41-.5-6.37-2.73-8.88-3.68-4.1-7.53-8.03-11.07-12.26,4.02-4.55,8.62-8.43,13.05-12.55,3.85,2.28,7.45,4.94,11.22,7.35-1.09.45-2.17.92-3.24,1.41,4.43,2.54,9.74,5.27,12.06,10.08,1.47,2.79-.97,6.59-1.84,9.31-2.12,4.07,2.71,7.34.48,11.39-2.81,6.25-9.35,8.7-15.35,10.88-6.27,2.33-12.9,2.55-19.18,4.77-4.95,1.61-10.14,4.16-15.27,4.85-5.1.68-10.83-1.23-15.86-2.2-4.07-.94-8.84-1.48-12.5-3.56-1.97-1.05-2.02-3.4-2.36-5.34.2-.72.39-1.44.59-2.16-8.03-9.47-12.51-21.76-14.96-33.8,5.12-2.05,10.26-4.05,15.48-5.82,1.98-.52,3.95-1.07,5.91-1.68-3.47-.71-6.93-1.34-10.48-1.48,2.8-1.2,5.52-2.63,8.33-3.8Z"/>
      <path class="cls-22" d="M50.52,57.53c-5.22,1.77-10.36,3.77-15.48,5.82-.16-1.94-.19-3.89-.2-5.84,5.27-.42,10.41-.34,15.68.02Z"/>
      <path class="cls-31" d="M122.47,57.72c3.88,1.45,10.15,3.12,12.05,7.18,1.48,5.29.6,11.34,1.06,16.83.29,6.05-.35,11.66,1.1,17.33-1.87,1.67-3.66,3.7-6.01,4.63-3.29,1.29-6.82,2.03-10.26,2.75-7.18,1.48-13.78.5-20.7,3.38-7.59,2.6-16,7.73-24.09,6.72-5.28-2.64-10.31-4.42-16.1-5.62-4.82-.97-8.86-2.43-12.91-5.27,1.04-2.08,2-4.16,2.8-6.34.34,1.94.39,4.29,2.36,5.34,3.66,2.08,8.43,2.62,12.5,3.56,5.03.97,10.76,2.88,15.86,2.2,5.13-.69,10.32-3.24,15.27-4.85,6.28-2.22,12.91-2.44,19.18-4.77,6-2.18,12.54-4.63,15.35-10.88,2.23-4.05-2.6-7.32-.48-11.39.87-2.72,3.31-6.52,1.84-9.31-2.32-4.81-7.63-7.54-12.06-10.08,1.07-.49,2.15-.96,3.24-1.41Z"/>
      <path class="cls-4" d="M32.48,63.68c.95,3.26,2.13,6.45,3.11,9.7-3.21,5.04-7.4,9.28-10.72,14.23-2.65-.41-5.29-.88-7.92-1.43,1.71-1.65,3.47-3.18,5.62-4.24,2.16-1.28,4.71-2.05,5.84-4.47,2.11-4.24,2.99-9.2,4.07-13.79Z"/>
      <path class="cls-12" d="M138.41,67.02c.68,7.61-.34,16.22,2.33,23.42,1.08.97,2.2,1.89,3.31,2.82,6.66-4.05,13.46-7.85,20.07-11.97-.74,6.06-2.95,11.77-5.83,17.12-3.6,6.28-7.92,11.83-14.96,14.39-1.36-5.93-2.49-11.9-3.98-17.81-1.24-4.87-1.37-9.83-1.17-14.83.16-4.38.21-8.76.23-13.14Z"/>
      <path class="cls-30" d="M35.59,73.38c.24,2.47.01,4.86-.25,7.32-2.25,1.64-4.38,3.45-6.36,5.41-1.75,2.21-2.52,3.64-1.04,6.33,2.86,4.98,8.69,9.61,14.05,11.62.77-.08,1.55-.17,2.32-.26-.34.77-.67,1.54-1.01,2.31-2.83.49-6.05,1.34-8.89.81-7.57-2.15-14.03-7.34-21.21-10.1-.32.56-.64,1.12-.95,1.68,4.87,4.95,7.58,10.95,10.16,17.29-8.48-5.5-14.81-13.71-17.37-23.55,2.5.79,5,1.6,7.48,2.44,2.26-2.08,4.5-4.18,6.72-6.31,1.88-.22,3.76-.49,5.63-.76,3.32-4.95,7.51-9.19,10.72-14.23Z"/>
      <path class="cls-25" d="M4.69,75.24c1.96,5.01,4.66,9.45,7.83,13.78,2.24-.2,4.48-.39,6.72-.65-2.22,2.13-4.46,4.23-6.72,6.31-2.48-.84-4.98-1.65-7.48-2.44-1.23-5.54-1.19-11.41-.35-17Z"/>
      <path class="cls-10" d="M36.97,79.58c2.74,5.58,5.54,11.17,8.1,16.83,1.25,2.68.21,4.85-.76,7.39-.77.09-1.55.18-2.32.26.59-1.01,1.17-2.02,1.75-3.02-3.32-1.54-7.14-3.04-9.91-5.46-2.62-2.27-3.59-6.34-4.85-9.47,1.98-1.96,4.11-3.77,6.36-5.41.54-.38,1.08-.76,1.63-1.12Z"/>
      <path class="cls-11" d="M28.98,86.11c1.26,3.13,2.23,7.2,4.85,9.47,2.77,2.42,6.59,3.92,9.91,5.46-.58,1-1.16,2.01-1.75,3.02-5.36-2.01-11.19-6.64-14.05-11.62-1.48-2.69-.71-4.12,1.04-6.33Z"/>
      <path class="cls-18" d="M13.2,96.82c7.18,2.76,13.64,7.95,21.21,10.1,2.84.53,6.06-.32,8.89-.81l-.27.65c-1.93,4.7-2.05,9.42-2.34,14.41-7.35.26-12.26-1.26-18.28-5.38-2.58-6.34-5.29-12.34-10.16-17.29.31-.56.63-1.12.95-1.68Z"/>
      <path class="cls-20" d="M136.68,99.06c1.23,4.07,2.37,7.99,2.28,12.29-.08,3.31-.38,6.4-2.99,8.74-5.24,4.69-11.84,5.97-18.63,6.54-6.72.49-13.22,2.16-19.89,2.93-3.05.08-6.2.12-9.22-.42-1.98-.32-3.74-2.08-5.31-3.26,2.78-1.72,5.42-3.55,7.76-5.85-2.1-.04-4.18.04-6.25.44-4.3.83-8.63.91-12.97,1.53.1-1.81.19-3.63.27-5.44,1.3-.02,2.6-.04,3.89-.02,8.09,1.01,16.5-4.12,24.09-6.72,6.92-2.88,13.52-1.9,20.7-3.38,3.44-.72,6.97-1.46,10.26-2.75,2.35-.93,4.14-2.96,6.01-4.63Z"/>
      <path class="cls-26" d="M46.61,105.65c4.05,2.84,8.09,4.3,12.91,5.27,5.79,1.2,10.82,2.98,16.1,5.62-1.29-.02-2.59,0-3.89.02-.08,1.81-.17,3.63-.27,5.44,4.34-.62,8.67-.7,12.97-1.53,2.07-.4,4.15-.48,6.25-.44-2.34,2.3-4.98,4.13-7.76,5.85,1.57,1.18,3.33,2.94,5.31,3.26,3.02.54,6.17.5,9.22.42-5.66.72-10.61,1.47-15.67-1.82-4.83,2.35-9.25,1.12-14.25.27-5.6-1.13-11.27-2.44-16.58-4.56-2.34-1.02-5.16-2.38-6.17-4.89-1.17-2.82-.38-6.55.1-9.47.54-1.16,1.13-2.31,1.73-3.44Z"/>
      <path class="cls-27" d="M134.61,107.89c-.13,2.34.31,4.6-1.27,6.53-4.06,5.23-9.98,6.86-16.37,6.75,1.98-4.53,4.25-8.7,8.3-11.73,2.41-1.88,6.45-1.38,9.34-1.55Z"/>
    </g>
  </g>
</svg>