<?xml version="1.0" encoding="UTF-8"?>
<svg id="Capa_2" data-name="Capa 2" xmlns="http://www.w3.org/2000/svg" viewBox="0 0 156.72 132.57">
  <defs>
    <style>
      .cls-1 {
        fill: #e58b01;
      }

      .cls-2 {
        fill: #fdb503;
      }

      .cls-3 {
        fill: #110b05;
      }

      .cls-4 {
        fill: #f39d03;
      }

      .cls-5 {
        fill: #be6701;
      }

      .cls-6 {
        fill: #fbb203;
      }

      .cls-7 {
        fill: #a85701;
      }

      .cls-8 {
        fill: #984f01;
      }

      .cls-9 {
        fill: #f6a100;
      }

      .cls-10 {
        fill: #c36d02;
      }

      .cls-11 {
        fill: #d98003;
      }

      .cls-12 {
        fill: #a35501;
      }

      .cls-13 {
        fill: #ae5c01;
      }

      .cls-14 {
        fill: #fcda30;
      }

      .cls-15 {
        fill: #fdd123;
      }

      .cls-16 {
        fill: #ca7101;
      }

      .cls-17 {
        fill: #fdc817;
      }

      .cls-18 {
        fill: #fdf49e;
      }

      .cls-19 {
        fill: #c77001;
      }

      .cls-20 {
        fill: #fdb805;
      }

      .cls-21 {
        fill: #c06801;
      }

      .cls-22 {
        fill: #ab5a03;
      }

      .cls-23 {
        fill: #fdcb1c;
      }

      .cls-24 {
        fill: #fdb806;
      }

      .cls-25 {
        fill: #ba6602;
      }

      .cls-26 {
        fill: #d98002;
      }

      .cls-27 {
        fill: #ee9602;
      }

      .cls-28 {
        fill: #e88e02;
      }

      .cls-29 {
        fill: #e18702;
      }

      .cls-30 {
        fill: #a35702;
      }

      .cls-31 {
        fill: #d07902;
      }
    </style>
  </defs>
  <g id="Capa_1-2" data-name="Capa 1">
    <g id="hold_normal">
      <path class="cls-3" d="M79.32,0c12.21.81,24.76,2.68,34.43,10.81,4.77,4.41,10.7,5.47,16.06,8.94,4.99,3.25,10.69,6.99,13.94,12.07,5.02,7.51,6.61,15.66,8.68,24.27,1.72,7.77,4.35,15.11,4.29,23.2,0,6.63-2.47,12.88-6.08,18.35-4.61,6.52-11.12,10.86-18.65,13.37-1.84,1.4-3.08,3.63-4.67,5.31-5.16,6.13-13.39,9.94-20.94,12.15-14.35,3.89-29.39,5.22-44.14,3.09-9.23-1.25-17.98-3.28-25.97-8.27-3.98-2.35-7.15-5.6-11.29-7.69-9.45-4.95-17.39-12.62-21.6-22.52C.25,85.35-.56,76.62.36,68.37c.86-7.91,2.04-16,4.55-23.58,1.65-4.97,4.6-8.99,7.95-12.94,7.33-8.52,16.53-15.54,26.71-20.3,5.23-2.5,10.09-5.4,15.5-7.51C62.6.91,71.25.12,79.32,0Z"/>
      <path class="cls-14" d="M84.27,4.24c8.66.84,18.07,3.04,25.37,7.98-1.39,2.17-2.79,4.34-4.23,6.49-5.4-3.17-10.25-6.49-16.39-8.16-10.27-3.28-22.04-2.03-32.11,1.35-6.03,2.4-12.45,4.94-17.56,9l.94.25c-3.9,1.82-7.38,4.23-11.02,6.49-5.42,2.91-9.92,7.21-10.61,13.59,1.51,6.15,6.09,12.37,12.32,14.37,4.04.24,8.06-.04,12.07-.58,4.06,1.77,7.43,4.39,10.95,7.02-1.9.3-3.81.61-5.71.96-7.37,1.2-14.7,1.75-22.18,1.42-6.15-4.33-9.82-9.01-13.16-15.72-1.05-1.93-2.11-3.85-3.23-5.74,3.98-8.04,10.76-14.06,17.61-19.63,7.09-5.89,16.15-9.28,24.32-13.69,9.55-5.45,21.87-6.37,32.62-5.4Z"/>
      <path class="cls-20" d="M89.02,10.55c6.14,1.67,10.99,4.99,16.39,8.16,1.44-2.15,2.84-4.32,4.23-6.49.58.41,1.16.84,1.73,1.27-2.77,3.94-4.91,8.21-6.69,12.67l-.32.73c-4.99,4.42-10.64,7.7-16.25,11.23-3.82,2.35-6.85,5.52-9.74,8.91-1.94,2.18-3.84,4.42-5.61,6.76-.48-1.12-.95-2.23-1.48-3.34-9.43,1.24-18.91,2.67-28.23,4.57-4.01.54-8.03.82-12.07.58-.57-5.06-.26-10.02.49-15.03,1.24-.39,2.48-.78,3.71-1.19,4.31-1.47,8.48-4.37,10.89-8.29,1.4-2.47,2.27-5.43.29-7.87-1.79-1.09-4.06-1.55-6.07-2.07l-.94-.25c5.11-4.06,11.53-6.6,17.56-9,10.07-3.38,21.84-4.63,32.11-1.35Z"/>
      <path class="cls-16" d="M111.37,13.49c1.9,1.49,3.68,3.14,5.62,4.59-2.8,4.9-6.33,9.93-7.97,15.32-1.15-2.58-2.65-4.98-4.34-7.24,1.78-4.46,3.92-8.73,6.69-12.67Z"/>
      <path class="cls-28" d="M116.99,18.08c.78.32,1.57.63,2.36.93-1.8,6.02-6.69,9.71-7.35,15.87-.83.17-1.66.34-2.48.51l-.5-1.99c1.64-5.39,5.17-10.42,7.97-15.32Z"/>
      <path class="cls-2" d="M119.35,19.01c.78.28,1.55.58,2.32.9,1.54,2.43,3.05,4.8,5.24,6.72,1.71,1.73,4.36,3.55,5.17,5.91.2,2.45-.77,5.08-1.41,7.44-5.48-1.34-10.59-2.77-16.31-2.54-6.49.26-13.07,2.39-19.06,4.79-6.29,2.48-11.04,7.24-17.2,10.09.43-.68.84-1.36,1.25-2.05,6.13-6.56,14.87-9.6,22.95-13.02,2.39-.67,4.79-1.33,7.22-1.86.82-.17,1.65-.34,2.48-.51.66-6.16,5.55-9.85,7.35-15.87Z"/>
      <path class="cls-15" d="M121.67,19.91c9,3.5,17.38,10.12,21.81,18.82-1.09.89-2.17,1.78-3.25,2.67-2.37.14-4.76.24-7.12.53-5.52.66-10.22,3.68-15.81,4.23-5.04.56-9.79,1.56-14.39,3.75-8.34,3.92-17.04,5.84-24.97,10.56,3.26,3.13,7.01,5.21,11.08,7.08,3.51,1.59,6.71,4.39,10.41,5.41,5.85.82,12.56-2.29,17.89-4.48-1.25,1.59-2.49,3.19-3.74,4.79.52.7,1.03,1.41,1.55,2.11-5.73,2.74-11.87,3.34-18.15,3.18-1.13-.13-2.26-.27-3.38-.43l-1.15-.78c-1.26-1.75-2.39-3.83-4.19-5.07-3.36-2.35-7.8-3.3-11.67-4.51-2.34-.95-4.49-2.15-6.7-3.36.61-5.19,4.77-8.59,8.21-12.09,6.16-2.85,10.91-7.61,17.2-10.09,5.99-2.4,12.57-4.53,19.06-4.79,5.72-.23,10.83,1.2,16.31,2.54.64-2.36,1.61-4.99,1.41-7.44-.81-2.36-3.46-4.18-5.17-5.91-2.19-1.92-3.7-4.29-5.24-6.72Z"/>
      <path class="cls-18" d="M40.29,21.15c2.01.52,4.28.98,6.07,2.07,1.98,2.44,1.11,5.4-.29,7.87-2.41,3.92-6.58,6.82-10.89,8.29-2.87,0-6.25.7-7.59-2.59-.91-2.78.92-6.45,1.68-9.15,3.64-2.26,7.12-4.67,11.02-6.49Z"/>
      <path class="cls-22" d="M104.68,26.16c1.69,2.26,3.19,4.66,4.34,7.24l.5,1.99c-2.43.53-4.83,1.19-7.22,1.86-.99.03-1.97.04-2.96.05,2.16-1.3,4.36-2.54,6.57-3.74-.51-2.23-1.05-4.45-1.55-6.67l.32-.73Z"/>
      <path class="cls-17" d="M29.27,27.64c-.76,2.7-2.59,6.37-1.68,9.15,1.34,3.29,4.72,2.59,7.59,2.59-1.23.41-2.47.8-3.71,1.19-.75,5.01-1.06,9.97-.49,15.03-6.23-2-10.81-8.22-12.32-14.37.69-6.38,5.19-10.68,10.61-13.59Z"/>
      <path class="cls-31" d="M104.36,26.89c.5,2.22,1.04,4.44,1.55,6.67-2.21,1.2-4.41,2.44-6.57,3.74.99,0,1.97-.02,2.96-.05-8.08,3.42-16.82,6.46-22.95,13.02-.3-1.09-.63-2.17-.98-3.24,2.89-3.39,5.92-6.56,9.74-8.91,5.61-3.53,11.26-6.81,16.25-11.23Z"/>
      <path class="cls-10" d="M143.48,38.73c.69,1.64,1.27,3.32,1.8,5.01-.87,2.34-1.76,4.41-1.02,6.94,1.42,5.45,2.44,11.83-.71,16.88-4.79,6.05-14.29,8.01-20.94,11.89.43,1.74.85,3.48,1.26,5.22-2.06-.61-4.12-1.01-6.23-1.43-.65-1.27-1.29-2.55-1.94-3.83-3.05.4-6.39,1.04-9.46.72-3.1-.34-6.16-1.12-9.26-1.57,6.28.16,12.42-.44,18.15-3.18,7.95-4.28,16.37-10.59,20.34-18.92,2.46-4.83,3.58-9.82,4.76-15.06,1.08-.89,2.16-1.78,3.25-2.67Z"/>
      <path class="cls-24" d="M133.11,41.93c2.36-.29,4.75-.39,7.12-.53-1.18,5.24-2.3,10.23-4.76,15.06-3.97,8.33-12.39,14.64-20.34,18.92-.52-.7-1.03-1.41-1.55-2.11,1.25-1.6,2.49-3.2,3.74-4.79-5.33,2.19-12.04,5.3-17.89,4.48-3.7-1.02-6.9-3.82-10.41-5.41-4.07-1.87-7.82-3.95-11.08-7.08,7.93-4.72,16.63-6.64,24.97-10.56,4.6-2.19,9.35-3.19,14.39-3.75,5.59-.55,10.29-3.57,15.81-4.23Z"/>
      <path class="cls-9" d="M9.72,42.96c1.12,1.89,2.18,3.81,3.23,5.74-1.3,1.82-2.87,3.84-3.51,6-.94,3.44-.33,7.32-1.1,10.76-.75,1.18-1.87,2.16-2.84,3.16-.24-1.53-.45-3.06-.63-4.59,1.16-6.97,1.83-14.64,4.85-21.07Z"/>
      <path class="cls-11" d="M145.28,43.74c2.16,6.63,3.53,13.44,5.37,20.18,1.5,6.35,3.08,12.99,1.71,19.51-4.88,1.81-9.81,3.92-14.91,5-4.4,1.05-9.45-2.4-13.58-3.76-.41-1.74-.83-3.48-1.26-5.22,6.65-3.88,16.15-5.84,20.94-11.89,3.15-5.05,2.13-11.43.71-16.88-.74-2.53.15-4.6,1.02-6.94Z"/>
      <path class="cls-7" d="M78.37,47.03c.35,1.07.68,2.15.98,3.24-.41.69-.82,1.37-1.25,2.05-3.44,3.5-7.6,6.9-8.21,12.09-.12,1.06-.2,2.11-.29,3.17-2.51-1.55-5.15-2.8-7.87-3.94l-.72-1.2c2.24-.19,4.47-.43,6.7-.68,1.56-2.74,3.18-5.43,5.05-7.97,1.77-2.34,3.67-4.58,5.61-6.76Z"/>
      <path class="cls-1" d="M12.95,48.7c3.34,6.71,7.01,11.39,13.16,15.72-.63.98-1.26,1.96-1.86,2.97-3.2,6.61-4.18,13.73-9.28,19.52-1.59,1.87-3.67,2.2-5.94,2.72l-2.19.08c-3.59-8.37-3.16-16.85-1.97-25.68.18,1.53.39,3.06.63,4.59.97-1,2.09-1.98,2.84-3.16.77-3.44.16-7.32,1.1-10.76.64-2.16,2.21-4.18,3.51-6Z"/>
      <path class="cls-23" d="M71.28,50.45c.53,1.11,1,2.22,1.48,3.34-1.87,2.54-3.49,5.23-5.05,7.97-2.23.25-4.46.49-6.7.68-4.24.34-8.47.39-12.72.56,1.9-.35,3.81-.66,5.71-.96-3.52-2.63-6.89-5.25-10.95-7.02,9.32-1.9,18.8-3.33,28.23-4.57Z"/>
      <path class="cls-4" d="M61.01,62.44l.72,1.2c2.21,5.12,4.66,10.12,7.04,15.17,1.79,3.79,3.81,7.38,6.66,10.49-.56,3.01-1.4,5.2-3.27,7.62-1.23-.79-2.45-1.57-3.68-2.36-1.42,1.08-2.85,2.16-4.27,3.23-1.51-.54-3.02-1.07-4.53-1.61-.99.83-1.98,1.66-2.97,2.49-3.74-2.85-6.74-5.77-11.74-5.9-5.76-.61-10.33,4.27-10.85,9.76-1.53-2.84-2.93-5.74-4.13-8.74-3.26-8.55-5.81-17.16-5.74-26.4.6-1.01,1.23-1.99,1.86-2.97,7.48.33,14.81-.22,22.18-1.42,4.25-.17,8.48-.22,12.72-.56Z"/>
      <path class="cls-29" d="M61.73,63.64c2.72,1.14,5.36,2.39,7.87,3.94.09-1.06.17-2.11.29-3.17,2.21,1.21,4.36,2.41,6.7,3.36.15.82.31,1.65.47,2.47l-1.51.33c7.06,8.71,17.59,11.14,28.03,13.42-5.24,2.84-10.26,6.79-15.91,8.71-4.36,1.48-8.71-1.06-12.24-3.4-2.85-3.11-4.87-6.7-6.66-10.49-2.38-5.05-4.83-10.05-7.04-15.17Z"/>
      <path class="cls-21" d="M24.25,67.39c-.07,9.24,2.48,17.85,5.74,26.4-1.23,1.35-2.42,2.73-3.6,4.12-6.39-3.05-10.53-7.54-17.36-8.28,2.27-.52,4.35-.85,5.94-2.72,5.1-5.79,6.08-12.91,9.28-19.52Z"/>
      <path class="cls-6" d="M76.59,67.77c3.87,1.21,8.31,2.16,11.67,4.51,1.8,1.24,2.93,3.32,4.19,5.07-5.27-2.1-10.18-4.9-15.39-7.11-.16-.82-.32-1.65-.47-2.47Z"/>
      <path class="cls-5" d="M75.55,70.57l1.51-.33c5.21,2.21,10.12,5.01,15.39,7.11l1.15.78c3.94,3.04,8.33,3.75,13,5.05-1.01.25-2.02.52-3.02.81-10.44-2.28-20.97-4.71-28.03-13.42Z"/>
      <path class="cls-8" d="M93.6,78.13c1.12.16,2.25.3,3.38.43,3.1.45,6.16,1.23,9.26,1.57,3.07.32,6.41-.32,9.46-.72.65,1.28,1.29,2.56,1.94,3.83,2.11.42,4.17.82,6.23,1.43,4.13,1.36,9.18,4.81,13.58,3.76,5.1-1.08,10.03-3.19,14.91-5-2.44,10.35-10.74,19.71-21.13,22.5-1.3-2.46-2.56-4.95-3.69-7.5.25,3.81.34,7.55-.67,11.27-1.39.44-2.78.87-4.16,1.3-.16-1.35-.6-2.86-.35-4.2,1.31-2.69,3.17-4.96,3.97-7.92-.13-3.1.14-6.93-2.67-8.98-3.13-2.39-7.22-3.71-10.91-4.96-2.04-.64-4.07-1.26-6.15-1.76-4.67-1.3-9.06-2.01-13-5.05Z"/>
      <path class="cls-26" d="M106.6,83.18c2.08.5,4.11,1.12,6.15,1.76.93,5.65,1.33,10.6-.72,16.08-3.9-1.44-7.8-2.84-11.74-4.16,2.75-3.9,3.09-8.23,3.29-12.87,1-.29,2.01-.56,3.02-.81Z"/>
      <path class="cls-27" d="M103.58,83.99c-.2,4.64-.54,8.97-3.29,12.87-4.49,4.48-8.88,9.07-13.49,13.43-1.64,1.59-3.18,3.28-4.56,5.1-.56.81-1.11,1.62-1.65,2.44-3.28-1.32-6.51-2.8-9.84-3.97-4.22-1.46-8.37-1.76-12.66-2.75-2.9-.7-5.75-1.76-8.76-1.57-3.67.22-7.3.9-10.98,1.17-.37-.76-.74-1.52-1.11-2.28-.98-2-2.04-3.95-3.12-5.9.52-5.49,5.09-10.37,10.85-9.76,5,.13,8,3.05,11.74,5.9.99-.83,1.98-1.66,2.97-2.49,1.51.54,3.02,1.07,4.53,1.61,1.42-1.07,2.85-2.15,4.27-3.23,1.23.79,2.45,1.57,3.68,2.36,1.87-2.42,2.71-4.61,3.27-7.62,3.53,2.34,7.88,4.88,12.24,3.4,5.65-1.92,10.67-5.87,15.91-8.71Z"/>
      <path class="cls-25" d="M112.75,84.94c3.69,1.25,7.78,2.57,10.91,4.96,2.81,2.05,2.54,5.88,2.67,8.98-3.63,3.35-6.15,7.49-9.5,11.09-2.37-.93-4.9-2.83-7.52-1.71-5.48,1.88-9.91,5.56-16.05,5.32-2.48,0-4.52-1.94-6.46-3.29,4.61-4.36,9-8.95,13.49-13.43,3.94,1.32,7.84,2.72,11.74,4.16,2.05-5.48,1.65-10.43.72-16.08Z"/>
      <path class="cls-12" d="M6.84,89.71l2.19-.08c6.83.74,10.97,5.23,17.36,8.28,1.18-1.39,2.37-2.77,3.6-4.12,1.2,3,2.6,5.9,4.13,8.74,1.08,1.95,2.14,3.9,3.12,5.9-2.52,1.18-4.7,2.82-6.73,4.7-3.35-2.09-6.99-3.46-10.16-5.91-5.94-4.64-10.86-10.37-13.51-17.51Z"/>
      <path class="cls-30" d="M126.33,98.88c-.8,2.96-2.66,5.23-3.97,7.92-.25,1.34.19,2.85.35,4.2,1.38-.43,2.77-.86,4.16-1.3-7.57,11.85-23.1,15.34-36.14,16.76-2.64-.66-5.24-1.44-7.87-2.16-.27-2.97-.48-5.94-.62-8.91,1.38-1.82,2.92-3.51,4.56-5.1,1.94,1.35,3.98,3.29,6.46,3.29,6.14.24,10.57-3.44,16.05-5.32,2.62-1.12,5.15.78,7.52,1.71,3.35-3.6,5.87-7.74,9.5-11.09Z"/>
      <path class="cls-13" d="M37.24,108.43c.37.76.74,1.52,1.11,2.28,1.88,4.75,6.46,6.94,11.38,6.01,3.61-.77,5.86-3.1,8.36-5.61,4.29.99,8.44,1.29,12.66,2.75,3.33,1.17,6.56,2.65,9.84,3.97.54-.82,1.09-1.63,1.65-2.44.14,2.97.35,5.94.62,8.91,2.63.72,5.23,1.5,7.87,2.16-17.07,2.57-34.63.8-50.51-6.12-3.86-1.69-6.61-4.48-9.71-7.21,2.03-1.88,4.21-3.52,6.73-4.7Z"/>
      <path class="cls-19" d="M49.33,109.54c3.01-.19,5.86.87,8.76,1.57-2.5,2.51-4.75,4.84-8.36,5.61-4.92.93-9.5-1.26-11.38-6.01,3.68-.27,7.31-.95,10.98-1.17Z"/>
    </g>
  </g>
</svg>