<?xml version="1.0" encoding="UTF-8"?>
<svg id="Capa_2" data-name="Capa 2" xmlns="http://www.w3.org/2000/svg" viewBox="0 0 174.88 135.09">
  <defs>
    <style>
      .cls-1 {
        fill: #fb2f12;
      }

      .cls-2 {
        fill: #a29f9e;
      }

      .cls-3 {
        fill: #721814;
      }

      .cls-4 {
        fill: #100a07;
      }

      .cls-5 {
        fill: #554e59;
      }

      .cls-6 {
        fill: #9b999a;
      }

      .cls-7 {
        fill: #a4a1a2;
      }

      .cls-8 {
        fill: #433e48;
      }

      .cls-9 {
        fill: #908f90;
      }

      .cls-10 {
        fill: #7c2520;
      }

      .cls-11 {
        fill: #635e67;
      }

      .cls-12 {
        fill: #fe6b3b;
      }

      .cls-13 {
        fill: #5e5a62;
      }

      .cls-14 {
        fill: #ddd8d2;
      }

      .cls-15 {
        fill: #b4b1b0;
      }

      .cls-16 {
        fill: #8b8a8e;
      }

      .cls-17 {
        fill: #af0e06;
      }

      .cls-18 {
        fill: #878588;
      }

      .cls-19 {
        fill: #f97036;
      }

      .cls-20 {
        fill: #7b787e;
      }

      .cls-21 {
        fill: #0c0705;
      }

      .cls-22 {
        fill: #524d58;
      }

      .cls-23 {
        fill: #b8b4b1;
      }

      .cls-24 {
        fill: #858287;
      }

      .cls-25 {
        fill: #fcfaf6;
      }

      .cls-26 {
        fill: #969496;
      }

      .cls-27 {
        fill: #cfc6bc;
      }

      .cls-28 {
        fill: #f97331;
      }

      .cls-29 {
        fill: #6f6a72;
      }

      .cls-30 {
        fill: #3c3741;
      }

      .cls-31 {
        fill: #fcfbf6;
      }

      .cls-32 {
        fill: #868488;
      }

      .cls-33 {
        fill: #cbc7c2;
      }
    </style>
  </defs>
  <g id="Capa_1-2" data-name="Capa 1">
    <g id="hold_magnet">
      <path class="cls-4" d="M95.77.47c15.55,1.43,32.86,2.74,46.64,10.66,9.03,4.73,15.98,12.44,20.48,21.52,3.22,6.08,4.56,12.4,6.15,19.03,2.57,11.35,4.93,22.53,5.78,34.17.61,11.86-3.79,24.18-13.02,31.92-9.3,8.11-20.79,10.73-32.66,12.54-13.77,4.25-29.03,4.94-43.35,4.75-18.89-.62-37.69-3.39-54.24-13.07-4.79-3-10.18-5.01-14.64-8.38-7.87-6.35-13.87-14.81-15.98-24.81-2.37-11.93,0-23.41,4.48-34.51,2.74-6.39,6.8-12.55,10.45-18.47,4.49-7.04,8.22-13.8,14.45-19.54,8.21-7.39,18.19-11.67,28.82-14.24C70.85-.64,83.8-.11,95.77.47Z"/>
      <path class="cls-15" d="M71.99,3.94c8.92-.58,18.03,0,26.92.72,11.2,1.16,22.46,2.08,33.11,5.92,6.24,2.13,12.05,5.25,16.93,9.73-1.56.78-3.08,1.62-4.64,2.41-3.86.09-9.45,1.17-12.01-2.44-2-2.09-3.65-4.44-6.3-5.76-4.62-2.32-10.44-2.85-15.51-3.55-5.18-.63-10.49-1.72-15.68-1.14-3.06.27-6.21,1.15-9.27.99-3.28-.44-6.31-1.9-9.69-2.08-7.71-.38-15.79,1.61-23.09,3.99-3.08.99-5.72,2.7-8.28,4.63-1.82-.88-3.56-1.89-5.29-2.93,9.83-6.4,21.16-9.67,32.8-10.49Z"/>
      <path class="cls-2" d="M75.85,8.74c3.38.18,6.41,1.64,9.69,2.08,3.06.16,6.21-.72,9.27-.99,5.19-.58,10.5.51,15.68,1.14,5.07.7,10.89,1.23,15.51,3.55,2.65,1.32,4.3,3.67,6.3,5.76,2.56,3.61,8.15,2.53,12.01,2.44l.59.69c-4.38,1.69-8.45,1.99-13.09,1.63-2.59-2.89-5.48-6.59-9.09-8.2-3.93-1.58-8.62-1.57-12.76-2.5-3.22-.58-6.49-2.03-9.76-2.07-3.57.27-7.03,1.63-10.6,2.04-5.18.61-10.35-.08-15.54.76-6.9,1.11-13.77,2.62-20.42,4.78,2.7.82,5.38,1.7,8.1,2.47-3.24-.22-6.48-.45-9.72-.68-2.36-1.7-4.91-3.04-7.54-4.28,2.56-1.93,5.2-3.64,8.28-4.63,7.3-2.38,15.38-4.37,23.09-3.99Z"/>
      <path class="cls-9" d="M100.2,12.27c3.27.04,6.54,1.49,9.76,2.07,4.14.93,8.83.92,12.76,2.5,3.61,1.61,6.5,5.31,9.09,8.2-1.8-.05-3.6-.07-5.4-.08-.28.87-.55,1.74-.83,2.61-5.62-.4-11.24-1.03-16.87-1.18-1.76,0-4.48.16-5.28,2.04-1.28,3.22-1.26,7.03-1.71,10.45-.51,6.42-1.46,12.79-1.98,19.21-.4-2.4-.94-4.8-1.49-7.16-2.73-.75-4.66-1.68-6.63-3.79-1.97-2.14-4.42-3.23-7.11-4.2.17-.78.33-1.57.5-2.36-1.74.31-3.49.62-5.23.95,1.88-2.53,4.7-4.82,3.34-8.32-1.12-1.14-2.63-2-4.01-2.81-.98,1.4-1.91,2.84-2.77,4.31.12-3.41,1.08-7.98-2.33-10.17-3.61-1.79-8.32-1.58-12.27-2.22-2.72-.77-5.4-1.65-8.1-2.47,6.65-2.16,13.52-3.67,20.42-4.78,5.19-.84,10.36-.15,15.54-.76,3.57-.41,7.03-1.77,10.6-2.04Z"/>
      <path class="cls-33" d="M39.19,14.43c1.73,1.04,3.47,2.05,5.29,2.93,2.63,1.24,5.18,2.58,7.54,4.28-1.53.45-3.26.92-4.58,1.84-1.51,1.54-1.91,4.26-2.33,6.3-3.35,1.46-7.21,3.78-10.93,3.83-1.62-1.03-2.09-3.69-2.84-5.35,2.35-2.52,4.24-5.35,6.11-8.23-1.33-.43-2.65-.86-4-1.25,1.87-1.52,3.75-3.01,5.74-4.35Z"/>
      <path class="cls-7" d="M33.45,18.78c1.35.39,2.67.82,4,1.25-1.87,2.88-3.76,5.71-6.11,8.23-6.32,6.11-10.36,14.71-13.73,22.72,1.68.44,3.36.88,5.05,1.31-1.09,3-2.54,6.17-2.85,9.35-.15,3.55.61,7.18,1.05,10.69-1.03.88-2.07,1.75-3.11,2.63-1.26-4.47-2.14-9.07-3.65-13.46-.77-2.8-3.37-3.24-5.62-4.59,3.1-8.31,8.44-15.74,13.09-23.37,3.35-5.53,6.84-10.61,11.88-14.76Z"/>
      <path class="cls-6" d="M148.95,20.31c4.6,4.09,8.61,9.2,10.95,14.92-.77,1.05-1.52,2.12-2.22,3.22-.89,3.3-.94,6.91-1.05,10.32-.16,5.95-.49,11.89-.96,17.83-.56,3.41-1.8,6.61-3.31,9.71-.03-3.96.98-7.98.64-11.9-2.09-4.58-5.92-7.3-6.39-12.8-.8-4.89,4.64-9.53,4.9-13.78-.63-5.21-3.44-10.31-6.61-14.42l-.59-.69c1.56-.79,3.08-1.63,4.64-2.41Z"/>
      <path class="cls-21" d="M52.02,21.64c3.24.23,6.48.46,9.72.68,3.95.64,8.66.43,12.27,2.22,3.41,2.19,2.45,6.76,2.33,10.17-1.23,8.09-2.23,16.23-3.01,24.38-.33,4.54-.67,9.03,2.21,12.89,2.59,3.43,7.23,4.22,11.27,4.12,4.01-.12,7.86-1.85,9.96-5.37,2.12-3.68,2.67-8.47,2.97-12.64.52-6.42,1.47-12.79,1.98-19.21.45-3.42.43-7.23,1.71-10.45.8-1.88,3.52-2.03,5.28-2.04,5.63.15,11.25.78,16.87,1.18,3.36.79,6.52,1.28,6.85,5.39.47,8.14-.23,16.44-.85,24.56-1.49,9.76-1.89,20.95-6.25,29.78-4.5,9.91-14.44,17.3-24.76,20.22-11.09,2.57-23.38,2.44-34.17-1.38-7.27-2.51-13.23-7.07-18.65-12.41-1.57-2.95-3.1-5.94-4.36-9.04-3.01-7.98-3.36-16.26-2.66-24.68,1.21-10.12,3.07-20.13,4.38-30.23.42-2.04.82-4.76,2.33-6.3,1.32-.92,3.05-1.39,4.58-1.84Z"/>
      <path class="cls-32" d="M144.9,23.41c3.17,4.11,5.98,9.21,6.61,14.42-.26,4.25-5.7,8.89-4.9,13.78.47,5.5,4.3,8.22,6.39,12.8.34,3.92-.67,7.94-.64,11.9,1.51-3.1,2.75-6.3,3.31-9.71-.41,6.02-.43,11.59-2.71,17.31-3.02,7.75-9.15,14.64-14.78,20.66-5.16,4.45-10.96,8.74-17.3,11.32-.99.02-1.97.03-2.95.04,3.09-3.4,6.42-6.54,9.74-9.72-2.94-1.7-5.83-3.4-8.91-4.82,4.96-5.49,9.02-11.57,10.77-18.85,2.15-8.32,1.94-16.52,2.05-25.02.62-8.12,1.32-16.42.85-24.56-.33-4.11-3.49-4.6-6.85-5.39.28-.87.55-1.74.83-2.61,1.8.01,3.6.03,5.4.08,4.64.36,8.71.06,13.09-1.63Z"/>
      <path class="cls-25" d="M53.75,24.61c5,.34,10.03.84,15.01,1.44,1.87.34,3.52.22,4.52,2.13.1,1.24-.06,2.52-.16,3.76-.61-1.08-1.26-2.12-1.93-3.16-.91,5.77-1.46,11.58-2.49,17.34-7.26-.89-14.66-1.48-21.97-1.78l-.15-1.72c.72-5.19,1.28-10.49,2.55-15.58.31-2.35,2.71-2.49,4.62-2.43Z"/>
      <path class="cls-26" d="M31.34,28.26c.75,1.66,1.22,4.32,2.84,5.35,3.72-.05,7.58-2.37,10.93-3.83-1.31,10.1-3.17,20.11-4.38,30.23-.44-2.14-.97-4.28-1.48-6.41-3.99-1.36-7.43-2.83-11.65-1.16-3.77,1.13-5.41,4.65-5.81,8.3-.07,2.96.88,5.78.68,8.79-.21,3.56-.7,7.03-.33,10.61,1.99,2.7,4.41,4.93,7.02,7.03-1.27,2.79-2.69,5.4-4.36,7.97l-.83-1.24c-2.74-6.02-4.5-12.56-6.22-18.94,1.04-.88,2.08-1.75,3.11-2.63-.44-3.51-1.2-7.14-1.05-10.69.31-3.18,1.76-6.35,2.85-9.35-1.69-.43-3.37-.87-5.05-1.31,3.37-8.01,7.41-16.61,13.73-22.72Z"/>
      <path class="cls-27" d="M71.19,28.78c.67,1.04,1.32,2.08,1.93,3.16-.48,4.87-1.24,9.72-1.83,14.58-.87-.14-1.73-.27-2.59-.4,1.03-5.76,1.58-11.57,2.49-17.34Z"/>
      <path class="cls-31" d="M107.79,29.27c6.64.12,13.66.8,20.21,1.99-1.48,6-1.52,12.32-2.4,18.49-1.02.19-2.05.37-3.07.53-6.25-.53-12.4-1.38-18.7-1.25.38-5.39,1.21-10.73,1.57-16.13.08-1.48.5-3.69,2.39-3.63Z"/>
      <path class="cls-18" d="M79.11,30.4c1.38.81,2.89,1.67,4.01,2.81,1.36,3.5-1.46,5.79-3.34,8.32,1.74-.33,3.49-.64,5.23-.95-.17.79-.33,1.58-.5,2.36,2.69.97,5.14,2.06,7.11,4.2,1.97,2.11,3.9,3.04,6.63,3.79.55,2.36,1.09,4.76,1.49,7.16-.3,4.17-.85,8.96-2.97,12.64-2.1,3.52-5.95,5.25-9.96,5.37-4.04.1-8.68-.69-11.27-4.12-2.88-3.86-2.54-8.35-2.21-12.89.78-8.15,1.78-16.29,3.01-24.38.86-1.47,1.79-2.91,2.77-4.31Z"/>
      <path class="cls-14" d="M128,31.26c1.97,1.37,1.33,3.36,1.41,5.42-.27,4.63-.06,9.49-1.04,13.97-1.95-.1-3.9-.22-5.84-.37,1.02-.16,2.05-.34,3.07-.53.88-6.17.92-12.49,2.4-18.49Z"/>
      <path class="cls-29" d="M159.9,35.23c5.31,13.65,8.08,28.78,10.23,43.24,1,6.55.97,13.08-1.03,19.45-1.3.81-2.6,1.64-3.88,2.47-1.31-4.57,1.59-7.7,1.5-12.55-.12-5.25-.94-10.49-1.46-15.71-.87-8.49-3.62-16.55-4.15-25.09-.18-3.3-1.58-5.94-3.43-8.59.7-1.1,1.45-2.17,2.22-3.22Z"/>
      <path class="cls-23" d="M33.05,37.28c1.32.03,2.67.33,3.96.58-1.45,4.55-4.97,6.58-8.79,8.95-.19-4.08,1-7.61,4.83-9.53Z"/>
      <path class="cls-13" d="M157.68,38.45c1.85,2.65,3.25,5.29,3.43,8.59.53,8.54,3.28,16.6,4.15,25.09.52,5.22,1.34,10.46,1.46,15.71.09,4.85-2.81,7.98-1.5,12.55-3.03,2.03-6.02,4.02-9.37,5.52-6.14,1.85-11.7.35-17.67-1.34,5.63-6.02,11.76-12.91,14.78-20.66,2.28-5.72,2.3-11.29,2.71-17.31.47-5.94.8-11.88.96-17.83.11-3.41.16-7.02,1.05-10.32Z"/>
      <path class="cls-10" d="M46.58,42.62l.15,1.72c7.31.3,14.71.89,21.97,1.78.86.13,1.72.26,2.59.4-.11.76-.21,1.53-.31,2.29-7.06-1.35-14.19-1.85-21.35-2.17-1.18-.05-2.35-.1-3.52-.14.16-1.3.31-2.59.47-3.88Z"/>
      <path class="cls-28" d="M46.11,46.5c1.17.04,2.34.09,3.52.14-1.43,9.55-2.65,19.02-1.95,28.71-1.01-.67-2.01-1.35-3.04-2l-.13,1.45c-1.16-9.61.12-18.83,1.6-28.3Z"/>
      <path class="cls-1" d="M49.63,46.64c7.16.32,14.29.82,21.35,2.17-.78,7.98-3.07,14.82-.1,22.63-.82-.03-1.65-.05-2.47-.08,1.6,3.08,2.76,6.01,5.88,7.89,7.49,4.48,18.64,4.47,25.12-1.89,4.86-4.61,5.99-11.16,6.78-17.51.21-3.38,1.04-6.35-1.41-9.14,6.82.76,13.67,1.36,20.52,1.81.1,9.69-.59,20.29-4.47,29.28-3.6,9.1-12.67,15.82-22.14,17.7-10.4,2.43-21.28,2.13-31.45-1.19-7.15-2.28-11.64-8.09-18.67-10.69-2.04-4.05-3.54-8.3-4.06-12.82l.13-1.45c1.03.65,2.03,1.33,3.04,2-.7-9.69.52-19.16,1.95-28.71Z"/>
      <path class="cls-3" d="M103.83,49.03c6.3-.13,12.45.72,18.7,1.25,1.94.15,3.89.27,5.84.37-.29.69-.59,1.39-.89,2.07l-2.18-.2c-6.85-.45-13.7-1.05-20.52-1.81l-1.05-.14.1-1.54Z"/>
      <path class="cls-16" d="M39.25,53.6c.51,2.13,1.04,4.27,1.48,6.41-.7,8.42-.35,16.7,2.66,24.68-4.02-.54-8.83-.77-12.04-3.48-2.56-2.09-5.08-4.17-7.94-5.87-.42,1.6-.85,3.2-1.27,4.8-.37-3.58.12-7.05.33-10.61.2-3.01-.75-5.83-.68-8.79.4-3.65,2.04-7.17,5.81-8.3,4.22-1.67,7.66-.2,11.65,1.16Z"/>
      <path class="cls-19" d="M103.73,50.57l1.05.14c2.45,2.79,1.62,5.76,1.41,9.14-.79,6.35-1.92,12.9-6.78,17.51-6.48,6.36-17.63,6.37-25.12,1.89-3.12-1.88-4.28-4.81-5.88-7.89.82.03,1.65.05,2.47.08,5.88,8.95,19.86,10.73,27.16,2.56,5.27-5.7,4.9-16.11,5.69-23.43Z"/>
      <path class="cls-17" d="M125.3,52.52l2.18.2c.93,5.53.14,10.63-.47,16.12-1.15,9-3.18,17.77-9.46,24.66-6.85,7.91-16.58,11.24-26.75,12.2-6.49.4-13.1-.22-19.47-1.53-9.46-2.07-18.38-7.68-22.76-16.55,7.03,2.6,11.52,8.41,18.67,10.69,10.17,3.32,21.05,3.62,31.45,1.19,9.47-1.88,18.54-8.6,22.14-17.7,3.88-8.99,4.57-19.59,4.47-29.28Z"/>
      <path class="cls-11" d="M8.48,56.91c2.25,1.35,4.85,1.79,5.62,4.59,1.51,4.39,2.39,8.99,3.65,13.46,1.72,6.38,3.48,12.92,6.22,18.94-2.52.36-6.08,1.61-8.37.1-3.92-2.23-6.24-6.78-9.25-10.03-.63-.15-1.25-.28-1.88-.41-1.15-8.86.92-18.35,4.01-26.65Z"/>
      <path class="cls-5" d="M131.58,57.52c-.11,8.5.1,16.7-2.05,25.02-1.75,7.28-5.81,13.36-10.77,18.85-5.68,4.39-11.37,8.27-18.51,9.84-12.15,3.11-24.37,1.52-36.12-2.4-6.84-3.89-13.18-7.49-16.38-15.1,5.42,5.34,11.38,9.9,18.65,12.41,10.79,3.82,23.08,3.95,34.17,1.38,10.32-2.92,20.26-10.31,24.76-20.22,4.36-8.83,4.76-20.02,6.25-29.78Z"/>
      <path class="cls-24" d="M23.41,75.34c2.86,1.7,5.38,3.78,7.94,5.87,3.21,2.71,8.02,2.94,12.04,3.48,1.26,3.1,2.79,6.09,4.36,9.04,3.2,7.61,9.54,11.21,16.38,15.1-2.19.32-4.68.62-6.62,1.73-2.01,1.58-3.43,4.07-4.88,6.15-4.6.32-6.33-2.74-9.19-5.62-5.65-6.44-13.66-8.61-18.64-15.95,1.67-2.57,3.09-5.18,4.36-7.97-2.61-2.1-5.03-4.33-7.02-7.03.42-1.6.85-3.2,1.27-4.8Z"/>
      <path class="cls-22" d="M6.35,83.97c3.01,3.25,5.33,7.8,9.25,10.03,2.29,1.51,5.85.26,8.37-.1l.83,1.24c4.98,7.34,12.99,9.51,18.64,15.95,2.86,2.88,4.59,5.94,9.19,5.62,10.82-.77,20.98,2.44,31.74,2.5,11.69.27,25.47,1.02,36.51-3.32,6.34-2.58,12.14-6.87,17.3-11.32,5.97,1.69,11.53,3.19,17.67,1.34-3.21,1.49-6.57,2.67-9.75,4.24-3.96,1.95-6.91,5.57-10.66,8.16-3.41,2.35-6.59,4.79-9.72,7.5-11.12,2.88-22.47,3.93-33.93,3.89-9.32-.04-18.78-.36-27.98-1.92-11.57-2.2-22.44-4.8-32.18-11.75-2.51-2.82-5.25-5.6-7.27-8.8-1.79-3.3-1.91-7.67-2.58-11.33-3.03,2.48-6.14,4.68-9.75,6.26-3.99-5.47-6.45-11.94-7.56-18.6.63.13,1.25.26,1.88.41Z"/>
      <path class="cls-12" d="M94.96,90c4.66-.06,9.45,1.13,13.98,2.12-3.67,3.07-8.13,6.39-12.96,3.44-2.47-1.72-2.41-3.08-1.02-5.56Z"/>
      <path class="cls-30" d="M21.78,95.9c.67,3.66.79,8.03,2.58,11.33,2.02,3.2,4.76,5.98,7.27,8.8-7.55-3.29-14.31-7.46-19.6-13.87,3.61-1.58,6.72-3.78,9.75-6.26Z"/>
      <path class="cls-8" d="M169.1,97.92c-1.96,6.69-5.53,12.76-11.18,16.97-9.24,7.08-20.95,9.33-32.2,10.92,3.13-2.71,6.31-5.15,9.72-7.5,3.75-2.59,6.7-6.21,10.66-8.16,3.18-1.57,6.54-2.75,9.75-4.24,3.35-1.5,6.34-3.49,9.37-5.52,1.28-.83,2.58-1.66,3.88-2.47Z"/>
      <path class="cls-20" d="M118.76,101.39c3.08,1.42,5.97,3.12,8.91,4.82-3.32,3.18-6.65,6.32-9.74,9.72.98-.01,1.96-.02,2.95-.04-11.04,4.34-24.82,3.59-36.51,3.32-10.76-.06-20.92-3.27-31.74-2.5,1.45-2.08,2.87-4.57,4.88-6.15,1.94-1.11,4.43-1.41,6.62-1.73,11.75,3.92,23.97,5.51,36.12,2.4,7.14-1.57,12.83-5.45,18.51-9.84Z"/>
    </g>
  </g>
</svg>