<?xml version="1.0" encoding="UTF-8"?>
<svg id="Capa_2" data-name="Capa 2" xmlns="http://www.w3.org/2000/svg" viewBox="0 0 169.33 130.92">
  <defs>
    <style>
      .cls-1 {
        fill: #ebfcfd;
      }

      .cls-2 {
        fill: #83ddfa;
      }

      .cls-3 {
        fill: #7fe2fd;
      }

      .cls-4 {
        fill: #2b7ebb;
      }

      .cls-5 {
        fill: #0e0c09;
      }

      .cls-6 {
        fill: #35abe7;
      }

      .cls-7 {
        fill: #63d4fc;
      }

      .cls-8 {
        fill: #69d7fc;
      }

      .cls-9 {
        fill: #338dca;
      }

      .cls-10 {
        fill: #dff8fd;
      }

      .cls-11 {
        fill: #3394d3;
      }

      .cls-12 {
        fill: #124576;
      }

      .cls-13 {
        fill: #6edbfd;
      }

      .cls-14 {
        fill: #1c6dae;
      }

      .cls-15 {
        fill: #cdf6fe;
      }

      .cls-16 {
        fill: #56c3f0;
      }

      .cls-17 {
        fill: #71dbfc;
      }

      .cls-18 {
        fill: #7be2fa;
      }

      .cls-19 {
        fill: #36aaea;
      }

      .cls-20 {
        fill: #10477a;
      }

      .cls-21 {
        fill: #eef9fd;
      }

      .cls-22 {
        fill: #2d84c2;
      }

      .cls-23 {
        fill: #cdf8fe;
      }

      .cls-24 {
        fill: #17619d;
      }

      .cls-25 {
        fill: #bceafa;
      }

      .cls-26 {
        fill: #267cbd;
      }

      .cls-27 {
        fill: #5ad0fc;
      }

      .cls-28 {
        fill: #88e2fd;
      }

      .cls-29 {
        fill: #1f6cab;
      }

      .cls-30 {
        fill: #35a8e5;
      }

      .cls-31 {
        fill: #e3fcfd;
      }

      .cls-32 {
        fill: #94e5fa;
      }

      .cls-33 {
        fill: #3087c5;
      }

      .cls-34 {
        fill: #81e4fd;
      }

      .cls-35 {
        fill: #328fcd;
      }

      .cls-36 {
        fill: #57cafb;
      }

      .cls-37 {
        fill: #fdfefe;
      }

      .cls-38 {
        fill: #135e9d;
      }
    </style>
  </defs>
  <g id="Capa_1-2" data-name="Capa 1">
    <g id="hold_slippery">
      <path class="cls-5" d="M107.38,3.76c10.82,2.74,21.82,5.55,31.29,11.76,10.19,6.48,18.16,16.53,21.95,28.01,3.41,9.88,5.96,20.07,7.91,30.33,1.4,7.05.97,14.65-1.48,21.43-2.73,6.86-7.82,13.11-14.19,16.9-3.78,2.31-7.63,2.27-10.76,5.23-4.99,4.62-11.03,6.83-17.48,8.58-12.79,3.21-26.05,4.7-39.22,4.92-12.83-.71-27.24-1.86-39.09-7.12-3.72-1.52-6.46-4.54-9.98-6.27-3.45-.42-6.83-.44-10.16-1.6C13.06,111.43,2.28,99.62.37,85.71c-1.11-7.43.39-14.37,2.6-21.43,2.18-6.66,3.05-13.86,5.78-20.18,2.47-5.69,6.38-9.99,10.19-14.83,5.43-6.6,11.82-13.43,19.31-17.68,8.07-4.39,17.41-7.19,26.26-9.61,13.96-3.3,29.16-2.31,42.87,1.78Z"/>
      <path class="cls-18" d="M106.01,7.22c8.84,2.57,17.54,3.98,25.62,8.33,9.48,4.86,17.96,12.58,22.51,22.32-4.21-3.58-8.55-6.16-13.67-8.25-4.36-3.28-8.81-6.45-13.29-9.57-5.15-3.61-11.17-5.14-17.18-7.73.3-.51.59-1.02.89-1.53-2.74.3-5.48.58-8.23.8-11.06-2.94-22.11-4.4-33.45-2.02-8.03,1.56-15.54,3.95-22.7,7.94-4.89,2.13-9.05,5.21-13.08,8.65-3.54,2.77-6.61,6.01-9,9.83-2.14-.02-4.29-.07-6.44.01,5.84-7.04,12.07-14.97,19.84-19.83,8.07-5.22,16.7-7.05,25.83-10.27,13.73-3.71,28.79-2.66,42.35,1.32Z"/>
      <path class="cls-8" d="M102.66,11.59c-5,.68-9.96,1.68-14.94,2.52-7.16,1.15-14,3.49-21.21,4.42-.44-.58-.89-1.15-1.33-1.72,2.62-2.09,5.14-4.28,7.49-6.67-1.16-.2-2.31-.39-3.46-.57,11.34-2.38,22.39-.92,33.45,2.02Z"/>
      <path class="cls-36" d="M69.21,9.57c1.15.18,2.3.37,3.46.57-2.35,2.39-4.87,4.58-7.49,6.67.44.57.89,1.14,1.33,1.72,7.21-.93,14.05-3.27,21.21-4.42,4.98-.84,9.94-1.84,14.94-2.52,2.75-.22,5.49-.5,8.23-.8-.3.51-.59,1.02-.89,1.53,6.01,2.59,12.03,4.12,17.18,7.73,4.48,3.12,8.93,6.29,13.29,9.57,2.24,4.78,5.16,10.01,5.76,15.29.36,4.38-.52,9.46-2.2,13.52-.66,1.81-3,2.75-4.54,3.75-1,2.36-1.81,4.34-4.22,5.58-.21-1.01-.41-2.02-.61-3.03-.14-.9-.25-1.79-.33-2.7-.2-2.06-.14-4.36-.84-6.32-1.18-.88-2.55-1.55-3.84-2.25-1.05,1.75-2.04,3.53-2.9,5.39l-.18.84c-1.11,6.1-3.15,12.17-3.51,18.35l-.05,1.69c-.47-.41-.94-.8-1.42-1.19-6.93-.02-13.79,5.48-19.89,8.43-6.06,3.26-12.55,3.72-19.31,3.52-7.46-.1-15.2-2.67-22.39-4.69-2.24-1.13-4.44-2.45-6.6-3.73-2.11-3.22-4.19-7.51-7.4-9.75-4.07-2.2-8.91-2.51-12.92-5.1-3.42-1.93-5.66-4.88-7.6-8.21,1.92-3.01,3.55-6.11,4.99-9.39-2.51,1.3-4.99,2.65-7.46,4.02-1.37-6.3-1-11.68,1.42-17.65,2.39-3.82,5.46-7.06,9-9.83-.55,2.5-1.7,5.4-1.33,7.98,1.03,3.06,4.22,3.85,7.12,3.42,4.84-.77,9.4-3.78,12.48-7.53,2.02-2.48,3.66-6.46,2.07-9.53-1.26-2.42-4.89-2.58-7.26-2.99,7.16-3.99,14.67-6.38,22.7-7.94Z"/>
      <path class="cls-31" d="M46.51,17.51c2.37.41,6,.57,7.26,2.99,1.59,3.07-.05,7.05-2.07,9.53-3.08,3.75-7.64,6.76-12.48,7.53-2.9.43-6.09-.36-7.12-3.42-.37-2.58.78-5.48,1.33-7.98,4.03-3.44,8.19-6.52,13.08-8.65Z"/>
      <path class="cls-38" d="M81.94,27.39c2.88-1.06,5.31,3.23,6.7,5.14,5.59,9.11,13.07,19.62,14.69,30.32.53,4.85.35,11.7-3.76,15.1-4.57,4.1-10.79,7.59-17.09,7.47-4.39.04-9.02-.26-12.52-3.21-4.24-3.61-7.56-8.73-8-14.38-.58-7.09,2.05-13.97,5.53-20.01,2.92-5,6-9.99,9.15-14.84,1.4-1.98,3.06-4.52,5.3-5.59Z"/>
      <path class="cls-37" d="M83.3,29.39c2.72,2.31,4.49,5.91,6.42,8.88-.63.48-1.25.96-1.87,1.45,1.75,7.88,5.63,15.69,4.58,23.99-.56,4.36-3.45,7.97-7.6,9.43-6.22,2.23-13.3-.47-17.76-4.98-2.44-2.39-2.07-5.46-2.09-8.6,1.82-6.69,5.57-13.11,9.23-18.97,1.9-3.05,3.69-6.29,5.93-9.09.77-.71,1.98-2.79,3.16-2.11Z"/>
      <path class="cls-7" d="M140.47,29.62c5.12,2.09,9.46,4.67,13.67,8.25.62,1.15,1.17,2.33,1.71,3.52-1.27.8-2.52,1.64-3.77,2.47.38,5.59.89,11.41.6,17-1.5,4.22-3.73,7.69-6.86,10.88-1.47-1.4-2.93-2.79-4.49-4.09-6.12,3.4-12.11,7.04-18.27,10.39,1.56-3.72,3.27-7.55,5.56-10.89,2.37.86,4.17,1.1,6.65.61,2.41-1.24,3.22-3.22,4.22-5.58,1.54-1,3.88-1.94,4.54-3.75,1.68-4.06,2.56-9.14,2.2-13.52-.6-5.28-3.52-10.51-5.76-15.29Z"/>
      <path class="cls-13" d="M17.99,36c2.15-.08,4.3-.03,6.44-.01-2.42,5.97-2.79,11.35-1.42,17.65,2.47-1.37,4.95-2.72,7.46-4.02-1.44,3.28-3.07,6.38-4.99,9.39,1.94,3.33,4.18,6.28,7.6,8.21,4.01,2.59,8.85,2.9,12.92,5.1,3.21,2.24,5.29,6.53,7.4,9.75-3.86-1.78-7.37-4.02-10.98-6.23-2.55-1.59-5.11-1.35-7.96-1.36-.21,2.61-.59,5.2-.92,7.8-.51-2.83-.95-5.57-1.82-8.3l-1.98.24c-4.53-.41-7.53-3.69-10.43-6.85-2.33-7.68-2.72-14.97-7.23-21.89,1.61-3.35,3.65-6.55,5.91-9.48Z"/>
      <path class="cls-28" d="M37.34,38.9c-.19,1.43-.02,3.57-1.07,4.68-1.37,1.23-3.43,1.79-5.1,2.5.29-1.79.38-3.8,1.12-5.48,1.02-1.77,3.31-1.43,5.05-1.7Z"/>
      <path class="cls-25" d="M87.85,39.72c.62-.49,1.24-.97,1.87-1.45,4.07,6.93,9.2,14.65,10.65,22.63,1.18,5.98-.74,12.4-5.35,16.46-7.89,7.09-22.09,5.84-28.07-3.14-3.04-4.44-2.79-9.57-1.97-14.66.02,3.14-.35,6.21,2.09,8.6,4.46,4.51,11.54,7.21,17.76,4.98,4.15-1.46,7.04-5.07,7.6-9.43,1.05-8.3-2.83-16.11-4.58-23.99Z"/>
      <path class="cls-30" d="M155.85,41.39c.74,1.69,1.35,3.42,1.91,5.18-1.56,4.82-3.19,9.59-5.08,14.29.29-5.59-.22-11.41-.6-17,1.25-.83,2.5-1.67,3.77-2.47Z"/>
      <path class="cls-6" d="M12.08,45.48c4.51,6.92,4.9,14.21,7.23,21.89-1.43-.51-4.33-.79-4.89-2.41-.73-3.18-.51-6.63-.71-9.88-2.91,9.44-6.65,18.77-6.47,28.47-.16,2.89-.57,5.74-.85,8.62-1.28-3.35-2.25-6.76-2.44-10.36-.53-6.95,1.98-14.13,3.68-20.85,1.48-5.14,2.5-10.51,4.45-15.48Z"/>
      <path class="cls-4" d="M157.76,46.57c.26.91.52,1.83.75,2.75-.72,9.05,1,17.65,3.16,26.38,1.26,5.08.27,9.69-.58,14.72.84.61,1.68,1.22,2.53,1.83-1.99,6.03-5.2,10.61-10.48,14.19,1.15-5.71,5.44-9.26,8.28-14.74-3.95.86-7.99,2.29-12.02,2.49-3.15.06-5.23-2.33-6.68-4.84-2.13-3.72-1.98-7.72-2.24-11.86,1.76-1.93,3.54-3.85,5.34-5.75,3.13-3.19,5.36-6.66,6.86-10.88,1.89-4.7,3.52-9.47,5.08-14.29Z"/>
      <path class="cls-11" d="M158.51,49.32c1.62,4.72,2.97,9.44,4.09,14.3,2.36,9.75,4.43,18.78,1.02,28.63-.85-.61-1.69-1.22-2.53-1.83.85-5.03,1.84-9.64.58-14.72-2.16-8.73-3.88-17.33-3.16-26.38Z"/>
      <path class="cls-2" d="M133.49,55.71c.7,1.96.64,4.26.84,6.32-3.24.06-5.21-.19-7.76-2.34l.18-.84c1.73.33,3.45.67,5.18.99.09-3-.2-4.1-2.28-6.38,1.29.7,2.66,1.37,3.84,2.25Z"/>
      <path class="cls-10" d="M129.65,53.46c2.08,2.28,2.37,3.38,2.28,6.38-1.73-.32-3.45-.66-5.18-.99.86-1.86,1.85-3.64,2.9-5.39Z"/>
      <path class="cls-35" d="M13.71,55.08c.2,3.25-.02,6.7.71,9.88.56,1.62,3.46,1.9,4.89,2.41,2.9,3.16,5.9,6.44,10.43,6.85-1.66,4.45,1.02,8.58,2.29,12.79-2.9-.67-5.72-1.57-8.51-2.64-1.56,1.28-3.12,2.56-4.68,3.85,1.16.64,2.32,1.29,3.48,1.93-1.78,1.48-3.68,3.28-5.83,4.17-4-2.12-6.43-7.32-9.25-10.77-.18-9.7,3.56-19.03,6.47-28.47Z"/>
      <path class="cls-19" d="M126.57,59.69c2.55,2.15,4.52,2.4,7.76,2.34.08.91.19,1.8.33,2.7-2.34.38-4.24.73-6.04,2.42-2.29,3.34-4,7.17-5.56,10.89.36-6.18,2.4-12.25,3.51-18.35Z"/>
      <path class="cls-15" d="M48.02,64.7c-.91,1.31-1.82,2.68-2.89,3.86-1.88-.56-3.26-1.74-4.85-2.85,3-1.55,4.47-1.63,7.74-1.01Z"/>
      <path class="cls-21" d="M134.66,64.73c.2,1.01.4,2.02.61,3.03-2.48.49-4.28.25-6.65-.61,1.8-1.69,3.7-2.04,6.04-2.42Z"/>
      <path class="cls-34" d="M141.33,67.65c1.56,1.3,3.02,2.69,4.49,4.09-1.8,1.9-3.58,3.82-5.34,5.75l-.51.55c-4.78,1.73-9.69,2.62-14.64,3.66-.79-.64-1.56-1.3-2.32-1.97l.05-1.69c6.16-3.35,12.15-6.99,18.27-10.39Z"/>
      <path class="cls-14" d="M31.72,73.98c.87,2.73,1.31,5.47,1.82,8.3.41,4.19,2.18,7.64,6.39,9.03,3.91,1.38,7.23-2.46,9.84-4.79.8.57,1.6,1.14,2.41,1.7l.51.34c-2.78,1.61-5.25,3.86-8.13,5.25-2.44.94-5.5.52-8.08.52-.01,1.08-.02,2.17-.01,3.25-.02,2.42-.08,4.86-.02,7.27-.73-1.11-1.51-2.19-2.31-3.25-.04,3.39,0,6.78.02,10.17-1.31.14-2.64.25-3.96.35-5.01-.73-9.83-3.58-13.66-6.81-1.35-3-2.39-6.17-3.47-9.28,6.2,2.5,11.09,5.95,18.11,5.42,1.37-5.07,3.2-9.29.85-14.44-1.27-4.21-3.95-8.34-2.29-12.79l1.98-.24Z"/>
      <path class="cls-3" d="M42.42,75.84c3.61,2.21,7.12,4.45,10.98,6.23,2.16,1.28,4.36,2.6,6.6,3.73-2.57.93-5.18,1.71-7.82,2.42-.81-.56-1.61-1.13-2.41-1.7-2.61,2.33-5.93,6.17-9.84,4.79-4.21-1.39-5.98-4.84-6.39-9.03.33-2.6.71-5.19.92-7.8,2.85,0,5.41-.23,7.96,1.36Z"/>
      <path class="cls-17" d="M121.59,78.54c-1.11,2.15-2.24,4.29-3.5,6.34-4.27,4.92-9.78,10.08-16.78,9.72-1.15-.14-2.29-.26-3.44-.35-7.2-.71-14.27.69-21.47-.18-8.02-.63-15.48-2.92-23.15-5.16l-.56-.35-.51-.34c2.64-.71,5.25-1.49,7.82-2.42,7.19,2.02,14.93,4.59,22.39,4.69,6.76.2,13.25-.26,19.31-3.52,6.1-2.95,12.96-8.45,19.89-8.43Z"/>
      <path class="cls-16" d="M139.97,78.04c-1.4,1.55-2.87,3.69-4.8,4.56-3.36,1.23-6.66.45-9.84-.9,4.95-1.04,9.86-1.93,14.64-3.66Z"/>
      <path class="cls-29" d="M139.97,78.04l.51-.55c.26,4.14.11,8.14,2.24,11.86,1.45,2.51,3.53,4.9,6.68,4.84,4.03-.2,8.07-1.63,12.02-2.49-2.84,5.48-7.13,9.03-8.28,14.74-2.21,1.6-4.68,2.72-7.25,3.62-.1-2.64,0-5.56-.78-8.1-.67-1.65-2.04-3.07-3.15-4.45-.34,4.83-.67,9.66-1.18,14.47-2.19,1.99-3.97,4.06-6.54,5.61-3.33,2.02-7.27,3.13-11.04,4-7.42,1.67-14.85,3.01-22.46,3.43-8.51-1.88-17.08-1.99-25.73-2.57-7.27-.42-14.12-2.6-21.34-3.46-2.69-.22-4.29-1.57-6.2-3.34,6.96-2,13.26-.41,20.21.48,4.67.78,9.73-.35,14.05-2.1,1.95-.66,2.84-3.34,3.79-5.01,2.34,2.98,4.5,6.14,8.34,7.22,4.54,1.19,9.7.68,14.32.21,8.02-.99,16.92-2.74,23.83-7.13,4.13-2.54,6.3-6.99,7.46-11.55,1.09-4.16-1.08-8.59-2.42-12.47-4.75-.35-9.44-1.2-14.17-1.61-1.27.85-2.5,1.8-3.73,2.72-.35-.51-.71-1.02-1.06-1.53,1.26-2.05,2.39-4.19,3.5-6.34.48.39.95.78,1.42,1.19.76.67,1.53,1.33,2.32,1.97,3.18,1.35,6.48,2.13,9.84.9,1.93-.87,3.4-3.01,4.8-4.56Z"/>
      <path class="cls-23" d="M34.76,78.89c3.01,3.24,6.31,6.07,9.73,8.85-1.95-.21-4.28-.08-6.08-.92-2.6-1.42-2.89-5.36-3.65-7.93Z"/>
      <path class="cls-33" d="M122.88,83.69c4.73.41,9.42,1.26,14.17,1.61,1.34,3.88,3.51,8.31,2.42,12.47-1.16,4.56-3.33,9.01-7.46,11.55-6.91,4.39-15.81,6.14-23.83,7.13-4.62.47-9.78.98-14.32-.21-3.84-1.08-6-4.24-8.34-7.22.28-.58.57-1.16.85-1.74,1.69.51,3.37,1.02,5.05,1.53,5.11-4.21,7.78-9.97,13.73-13.28-1.28-.32-2.56-.64-3.84-.93,7,.36,12.51-4.8,16.78-9.72.35.51.71,1.02,1.06,1.53,1.23-.92,2.46-1.87,3.73-2.72Z"/>
      <path class="cls-22" d="M7.24,83.55c2.82,3.45,5.25,8.65,9.25,10.77,2.15-.89,4.05-2.69,5.83-4.17-1.16-.64-2.32-1.29-3.48-1.93,1.56-1.29,3.12-2.57,4.68-3.85,2.79,1.07,5.61,1.97,8.51,2.64,2.35,5.15.52,9.37-.85,14.44-7.02.53-11.91-2.92-18.11-5.42,1.08,3.11,2.12,6.28,3.47,9.28-4.45-3.57-8.21-7.68-10.15-13.14.28-2.88.69-5.73.85-8.62Z"/>
      <path class="cls-1" d="M121.72,87.88c1.94-.72,4.47-.03,6.46.27-.61,2.41-.56,6.24-2.49,8.02-2.41,2.19-5.57.37-8.21-.28-.11-.98-.23-1.96-.36-2.94,1.4-1.69,2.73-3.87,4.6-5.07Z"/>
      <path class="cls-9" d="M52.69,88.56l.56.35c3.77,4.74,8.96,8.53,13.66,12.37,5.37,4.17,12.02,5.39,18.69,4.73-2.15.3-4.35.48-6.52.66.84,1.54,1.67,3.1,2.49,4.66-9.2,2.7-19.69,3.6-28.79.05-3.91-1.49-8.09-3.04-11.52-5.5-2.7-1.98-3.83-5.23-4.79-8.3,0-1.08,0-2.17.01-3.25,2.58,0,5.64.42,8.08-.52,2.88-1.39,5.35-3.64,8.13-5.25Z"/>
      <path class="cls-27" d="M53.25,88.91c7.67,2.24,15.13,4.53,23.15,5.16,7.2.87,14.27-.53,21.47.18-3.19,5.33-5.62,10.34-12.27,11.76-6.67.66-13.32-.56-18.69-4.73-4.7-3.84-9.89-7.63-13.66-12.37Z"/>
      <path class="cls-32" d="M128.18,88.15l1.41.72c1.6,3.4,3.11,6.55,1.18,10.23-2.38,4.67-9.33,4.62-12.4.74-.61-1.18-.69-2.66-.89-3.95,2.64.65,5.8,2.47,8.21.28,1.93-1.78,1.88-5.61,2.49-8.02Z"/>
      <path class="cls-24" d="M129.59,88.87c3.86,1.67,4.62,5.76,4.37,9.55-.41,3.84-3.95,6.46-7.41,7.49-4.23,1.29-9.05-1.77-10.41-5.83-1.13-3.1-.29-6.4.32-9.5.23.79.45,1.58.66,2.37.13.98.25,1.96.36,2.94.2,1.29.28,2.77.89,3.95,3.07,3.88,10.02,3.93,12.4-.74,1.93-3.68.42-6.83-1.18-10.23Z"/>
      <path class="cls-26" d="M97.87,94.25c1.15.09,2.29.21,3.44.35,1.28.29,2.56.61,3.84.93-5.95,3.31-8.62,9.07-13.73,13.28-1.68-.51-3.36-1.02-5.05-1.53-.28.58-.57,1.16-.85,1.74-.95,1.67-1.84,4.35-3.79,5.01-4.32,1.75-9.38,2.88-14.05,2.1-6.95-.89-13.25-2.48-20.21-.48,1.91,1.77,3.51,3.12,6.2,3.34,7.22.86,14.07,3.04,21.34,3.46,8.65.58,17.22.69,25.73,2.57-15.27,2.17-30.54.5-45.45-3.11-6.08-1.64-11.91-3.84-15.97-8.9-1.04-2.69-1.93-5.43-2.87-8.16-.06-2.41,0-4.85.02-7.27.96,3.07,2.09,6.32,4.79,8.3,3.43,2.46,7.61,4.01,11.52,5.5,9.1,3.55,19.59,2.65,28.79-.05-.82-1.56-1.65-3.12-2.49-4.66,2.17-.18,4.37-.36,6.52-.66,6.65-1.42,9.08-6.43,12.27-11.76Z"/>
      <path class="cls-20" d="M141.96,97.51c1.11,1.38,2.48,2.8,3.15,4.45.78,2.54.68,5.46.78,8.1-1.72.61-3.43,1.18-5.11,1.92.51-4.81.84-9.64,1.18-14.47Z"/>
      <path class="cls-12" d="M34.14,101.6c.8,1.06,1.58,2.14,2.31,3.25.94,2.73,1.83,5.47,2.87,8.16-3.05-.19-6.09-.41-9.12-.89,1.32-.1,2.65-.21,3.96-.35,0-3.39-.06-6.78-.02-10.17Z"/>
    </g>
  </g>
</svg>