<?xml version="1.0" encoding="UTF-8"?>
<svg id="Capa_2" data-name="Capa 2" xmlns="http://www.w3.org/2000/svg" viewBox="0 0 173.57 135.22">
  <defs>
    <style>
      .cls-1 {
        fill: #fc5782;
      }

      .cls-2 {
        fill: #fdaac1;
      }

      .cls-3 {
        fill: #b62147;
      }

      .cls-4 {
        fill: #fc668c;
      }

      .cls-5 {
        fill: #6f0e22;
      }

      .cls-6 {
        fill: #ec3664;
      }

      .cls-7 {
        fill: #c72350;
      }

      .cls-8 {
        fill: #fc6890;
      }

      .cls-9 {
        fill: #fd698f;
      }

      .cls-10 {
        fill: #fd6e95;
      }

      .cls-11 {
        fill: #fa7da4;
      }

      .cls-12 {
        fill: #fc4471;
      }

      .cls-13 {
        fill: #fa4270;
      }

      .cls-14 {
        fill: #e1335d;
      }

      .cls-15 {
        fill: #590d1f;
      }

      .cls-16 {
        fill: #dd315b;
      }

      .cls-17 {
        fill: #fc5882;
      }

      .cls-18 {
        fill: #c4244d;
      }

      .cls-19 {
        fill: #500814;
      }

      .cls-20 {
        fill: #9c1c3b;
      }

      .cls-21 {
        fill: #c2264c;
      }

      .cls-22 {
        fill: #fc6690;
      }

      .cls-23 {
        fill: #fcfcfc;
      }

      .cls-24 {
        fill: #f03665;
      }

      .cls-25 {
        fill: #fc5e85;
      }

      .cls-26 {
        fill: #d42c56;
      }

      .cls-27 {
        fill: #ab1c41;
      }

      .cls-28 {
        fill: #0f0907;
      }

      .cls-29 {
        fill: #e12f5c;
      }
    </style>
  </defs>
  <g id="Capa_1-2" data-name="Capa 1">
    <g id="hold_bouncy">
      <path class="cls-28" d="M80.79.14c7.8-.5,15.3.45,23.03,1.35,15.11,1.84,30.9,7.3,42.33,17.66,5.44,4.76,10.21,10.11,13.31,16.71,5.18,9.75,7.48,19.72,10.86,30.1,2.33,7.37,3.8,14.74,3.05,22.51-.69,7.51-3.67,14.41-7.99,20.53-5.34,7.73-12.58,13.98-21.93,16.08-3.98,1.22-8.01.52-12,1.12-3.29,1.77-6.17,3.95-9.83,5.02-15.45,4.42-31.18,4.31-47.11,3.68-8.56-1.05-17.4-2.51-25.41-5.8-3.7-1.46-6.46-4.05-9.72-6.18-4.28-.32-8.44-.01-12.62-1.26C13.02,117.37,2.96,105.06.4,91.04c-1.3-11.04.68-21.55,3.93-32.05,2.02-6.26,5.53-11.43,9.28-16.73,6.02-8.62,9.76-17.15,17.81-24.2,7.8-6.88,16.86-9.85,26.32-13.73,7.5-3.03,15.08-3.55,23.05-4.19Z"/>
      <path class="cls-11" d="M111.65,6.72c8.29,1.43,15.84,4.69,23.15,8.77,12.42,6.98,21.97,18.84,25.72,32.64-3.03-3.83-6.21-7.25-8.56-11.58-2.01-3.54-3.19-6.98-6.87-9.17-1.22.66-2.41,1.35-3.61,2.05-.46-.5-.94-1-1.42-1.49-3.06-2.94-6.09-6.1-9.57-8.55-4.21-2.62-8.72-4.73-13.51-6.04-5.92-1.96-11.9-3.53-18.15-3.92-8.01-.51-16.69-1.72-24.57-.43-5.92.93-11.85,2.29-17.48,4.35-3.31,1.16-6.57,2.89-9.74,4.42.6.41,1.2.83,1.79,1.25-2.64.48-5.91.74-8.17,2.28-2.34,1.6-4.35,3.85-6.28,5.92-5.54,5.82-9.4,11.93-12.64,19.27-1.69,2.71-3.65,5.62-6.21,7.58-1.32,1.09-3.72.38-5.31.4,3.69-7.14,8.71-13.76,13.13-20.48,3.9-5.9,7.56-11.43,13.45-15.57,7.1-4.97,15.71-8.04,23.71-11.27,16.5-5.48,34.37-3.42,51.14-.43Z"/>
      <path class="cls-4" d="M74.26,9c7.88-1.29,16.56-.08,24.57.43,6.25.39,12.23,1.96,18.15,3.92-2.8.09-5.78.48-8.54-.01-3.56-.61-6.73-1.8-10.42-1.79-6.43.07-13.3,2.62-19.53,3.33-7.04.68-14.62-1.19-21.71-1.53,5.63-2.06,11.56-3.42,17.48-4.35Z"/>
      <path class="cls-12" d="M98.02,11.55c3.69-.01,6.86,1.18,10.42,1.79,2.76.49,5.74.1,8.54.01,4.79,1.31,9.3,3.42,13.51,6.04-.13,5.59-3.26,9.11-6.34,13.4,5.99-.24,10.74-1.96,15.91-4.85.48.49.96.99,1.42,1.49,3.66,4.24,7.19,9.82,6.7,15.66-.43,5.04-1.56,10.08-2.9,14.96-1.29,4.74-4.63,7.55-7.98,10.88-1.6,1.45-3.23,3.17-5.16,4.16-2.16.19-4.9-1.54-6.7-.04-4.47,3.1-8.51,6.75-13.15,9.64.46.98.92,1.97,1.38,2.96-1.33,0-2.65-.01-3.97-.04-2.17-1.19-5.29-2.27-6.58-4.48,3.84-2.75,10.4-4.82,11.32-10.05,1.16-5.23-1.77-9.93-6.87-11.39-5.68-1.33-12.1-.32-17.87.13,3.29-1.65,7.17-3,9.94-5.45,1.61-2.49,1.58-6.28,2.05-9.17,3.12-.2,6.65-.1,9.6-1.2,1.8-2.15,2.33-5.42.93-7.92-2.07-3.68-5.34-6.77-8-10.05-3.08-3.47-5.89-7.55-9.55-10.41-2.01-1.54-4.44-.92-6.45.24-4.22,2.57-7.84,6.22-11.7,9.3-2.97,2.55-6.49,5-8.8,8.19-1.81,2.42-1.65,6.52.88,8.38,2.88,1.52,6.68,1.48,9.84,2.02-.42,1.86.27,4.55-1.84,5.4-6.48,3.79-14.36,6.17-20.36,10.75-3.55,2.71-3.83,7.07-2.96,11.13.72,2.74,3.21,4.25,5.46,5.66,3.09,1.13,6.3,1.98,9.51,2.73-2.19.9-4.28,2.01-6.34,3.19-4.28,1.21-8.54,1.64-12.9,2.41,1.16-2.5,2.35-4.99,3.57-7.46-3-.51-6.17-.86-9.02-1.93-1.99-.94-3.47-3.12-4.92-4.73-1.42,1.05-2.84,2.11-4.26,3.16-1.22-1.14-2.58-2.32-3.5-3.72,1.31-4.52,5.58-8.42,6.66-13.17.74-2.85-1.15-6.18-1.11-8.9.59-1.53,2.19-2.74,3.43-3.75,3.16-2.36,6.43-4.56,9.47-7.1-1.46-1.16-2.94-2.7-4.7-3.38-3.01-.47-6.43,1.29-8.98,2.71-2.16,2.24-3.92,4.75-4.89,7.73-1.74,4.9-2.22,10.13-3.88,15.03-1.04,2.97-3.4,4.85-5.45,7.13-1.35,1.62-2.17,3.62-3.03,5.53-2.54-1.92-5.61-3.27-8.55-4.47-1.64,5.15-1.58,10.34-2.09,15.64-.17,2.45-1.6,4.02-3.03,5.89-1.41-6.33-.79-13.07.54-19.37,4.87-1.92,4.99-7.26,6.75-11.58,1.85,3.72,3.61,7.48,5.36,11.24,3.95-8.21,2.92-16.34,4.36-25.03,3.24-7.34,7.1-13.45,12.64-19.27.09,2.35-1.22,6.06,1.4,7.36,2.21,1.38,5.36.41,7.54-.58,4.02-1.88,8.03-5.96,8.41-10.57.37-2.15-1.56-3.1-2.9-4.41-.59-.42-1.19-.84-1.79-1.25,3.17-1.53,6.43-3.26,9.74-4.42,7.09.34,14.67,2.21,21.71,1.53,6.23-.71,13.1-3.26,19.53-3.33Z"/>
      <path class="cls-5" d="M94.67,17.62c3.66,2.86,6.47,6.94,9.55,10.41,2.66,3.28,5.93,6.37,8,10.05,1.4,2.5.87,5.77-.93,7.92-2.95,1.1-6.48,1-9.6,1.2-.47,2.89-.44,6.68-2.05,9.17-2.77,2.45-6.65,3.8-9.94,5.45,5.77-.45,12.19-1.46,17.87-.13,5.1,1.46,8.03,6.16,6.87,11.39-.92,5.23-7.48,7.3-11.32,10.05,1.29,2.21,4.41,3.29,6.58,4.48,1.09,1.18,2.11,2.42,3.13,3.65-.13,2.11.03,4.51-.72,6.51-1.92,2.32-5.09,3.75-7.68,5.23-.95-.62-1.9-1.24-2.84-1.86,2.81-1.63,6.45-3.24,8.35-5.95,1.1-1.95-.37-3.8-1.82-5.04-3.21-2.44-7.07-4.19-10.71-5.89-.34,1.46-.67,2.93-1,4.39-5.12.15-10.18.31-15.28-.37,8.56-4.61,18.11-7.34,26.78-11.71,4.84-2.05,5.03-10.19.05-12.17-3.43-1.13-7.56-.45-11.14-.55-7.25-.17-14.34,1.33-21.58,1.06,6.09-3.67,12.98-5.5,19.14-8.95,1.58-1.01,3.4-1.91,3.7-3.97.44-2.98.33-6.07.47-9.08,3.48.18,8.48,1.85,11.54-.24,1.36-3.62-1.3-5.59-3.25-8.2-4.24-4.8-8.11-9.93-12.42-14.65-1.38-1.59-2.98-1.61-4.69-.52-3.54,2.37-6.7,5.35-10,8.04-3.36,2.94-7.16,5.65-10.04,9.06-1.35,1.75-.76,4.22,1.41,4.96,3.01.92,6.59.4,9.73.47-.16,3.37-.26,6.74-.28,10.11-6.34,3.09-12.76,6.01-19.01,9.24-2.33,1.28-4.98,2.75-5.84,5.45-.56,2.37-.31,5.76,1.89,7.27,1.75,1.31,3.69,1.37,5.77,1.37,9.71-.32,19.34-2.13,29.03-2.55-8.17,4.99-17.58,8-26.19,12.15-2.2,1.14-4.65,2.9-4.81,5.61-.3,2.59,1.45,4.7,2.92,6.64,2.55,3.28,8.96,2.6,12.75,3.23-4.85-.03-9.67-.1-14.52-.42-1.21-1.46-2.6-3.08-3.26-4.89-.57-2.29-.23-4.88-.17-7.22.93-1.07,1.85-2.16,2.8-3.21,2.06-1.18,4.15-2.29,6.34-3.19,3.25-1.08,6.25-2.45,9.22-4.14-6.41-.65-12.42.49-18.73,1.41-2.25-1.41-4.74-2.92-5.46-5.66-.87-4.06-.59-8.42,2.96-11.13,6-4.58,13.88-6.96,20.36-10.75,2.11-.85,1.42-3.54,1.84-5.4-3.16-.54-6.96-.5-9.84-2.02-2.53-1.86-2.69-5.96-.88-8.38,2.31-3.19,5.83-5.64,8.8-8.19,3.86-3.08,7.48-6.73,11.7-9.3,2.01-1.16,4.44-1.78,6.45-.24Z"/>
      <path class="cls-23" d="M94.42,19.82c4.31,4.72,8.18,9.85,12.42,14.65,1.95,2.61,4.61,4.58,3.25,8.2-3.06,2.09-8.06.42-11.54.24-.14,3.01-.03,6.1-.47,9.08-.3,2.06-2.12,2.96-3.7,3.97-6.16,3.45-13.05,5.28-19.14,8.95,7.24.27,14.33-1.23,21.58-1.06,3.58.1,7.71-.58,11.14.55,4.98,1.98,4.79,10.12-.05,12.17-8.67,4.37-18.22,7.1-26.78,11.71,5.1.68,10.16.52,15.28.37.33-1.46.66-2.93,1-4.39,3.64,1.7,7.5,3.45,10.71,5.89,1.45,1.24,2.92,3.09,1.82,5.04-1.9,2.71-5.54,4.32-8.35,5.95-1.64.66-3.32,1.14-5.02,1.62-.13-1.76-.23-3.53-.31-5.29-10.59.03-21.44,1.01-31.95-.35-1.47-1.94-3.22-4.05-2.92-6.64.16-2.71,2.61-4.47,4.81-5.61,8.61-4.15,18.02-7.16,26.19-12.15-9.69.42-19.32,2.23-29.03,2.55-2.08,0-4.02-.06-5.77-1.37-2.2-1.51-2.45-4.9-1.89-7.27.86-2.7,3.51-4.17,5.84-5.45,6.25-3.23,12.67-6.15,19.01-9.24.02-3.37.12-6.74.28-10.11-3.14-.07-6.72.45-9.73-.47-2.17-.74-2.76-3.21-1.41-4.96,2.88-3.41,6.68-6.12,10.04-9.06,3.3-2.69,6.46-5.67,10-8.04,1.71-1.09,3.31-1.07,4.69.52Z"/>
      <path class="cls-2" d="M48.83,19.02c1.34,1.31,3.27,2.26,2.9,4.41-.38,4.61-4.39,8.69-8.41,10.57-2.18.99-5.33,1.96-7.54.58-2.62-1.3-1.31-5.01-1.4-7.36,1.93-2.07,3.94-4.32,6.28-5.92,2.26-1.54,5.53-1.8,8.17-2.28Z"/>
      <path class="cls-25" d="M130.49,19.39c3.48,2.45,6.51,5.61,9.57,8.55-5.17,2.89-9.92,4.61-15.91,4.85,3.08-4.29,6.21-7.81,6.34-13.4Z"/>
      <path class="cls-8" d="M145.09,27.38c3.68,2.19,4.86,5.63,6.87,9.17,2.35,4.33,5.53,7.75,8.56,11.58.54,1.51,1.06,3.03,1.55,4.57-.87.22-1.74.46-2.61.71-1.66,4.32-2.62,8.66-4.89,12.76-3.33,6.27-8.17,10.6-13.1,15.55-2.87,2.63-5.5,5.6-9.62,6-5.99.65-12.15-.16-18.18-.07-.46-.99-.92-1.98-1.38-2.96,4.64-2.89,8.68-6.54,13.15-9.64,1.8-1.5,4.54.23,6.7.04,1.93-.99,3.56-2.71,5.16-4.16,3.35-3.33,6.69-6.14,7.98-10.88,1.34-4.88,2.47-9.92,2.9-14.96.49-5.84-3.04-11.42-6.7-15.66,1.2-.7,2.39-1.39,3.61-2.05Z"/>
      <path class="cls-1" d="M44.63,36.04c1.76.68,3.24,2.22,4.7,3.38-3.04,2.54-6.31,4.74-9.47,7.1-1.24,1.01-2.84,2.22-3.43,3.75-.04,2.72,1.85,6.05,1.11,8.9-1.08,4.75-5.35,8.65-6.66,13.17.92,1.4,2.28,2.58,3.5,3.72,1.42-1.05,2.84-2.11,4.26-3.16,1.45,1.61,2.93,3.79,4.92,4.73,2.85,1.07,6.02,1.42,9.02,1.93-1.22,2.47-2.41,4.96-3.57,7.46-1.36.25-2.7.55-4.05.84-.65-.78-1.3-1.56-1.96-2.33,1.58-.79,3.15-1.58,4.73-2.37-4.76-1.57-9.81-3-14.26-5.32-4.59-2.42-7.58-6.21-12.04-9.2,2.05-2.28,4.41-4.16,5.45-7.13,1.66-4.9,2.14-10.13,3.88-15.03-.51,3.34-.66,6.65-.79,10.02,2.12-2.88,4-5.94,6.14-8.8,2.64-3.62,7.07-5.51,10.85-7.78-.86-.56-1.72-1.13-2.61-1.65l-.58-.04c-2.71.09-5.42.38-8.12.52,2.55-1.42,5.97-3.18,8.98-2.71Z"/>
      <path class="cls-9" d="M43.77,38.23l.58.04c.89.52,1.75,1.09,2.61,1.65-3.78,2.27-8.21,4.16-10.85,7.78-2.14,2.86-4.02,5.92-6.14,8.8.13-3.37.28-6.68.79-10.02.97-2.98,2.73-5.49,4.89-7.73,2.7-.14,5.41-.43,8.12-.52Z"/>
      <path class="cls-22" d="M21.74,46.49c-1.44,8.69-.41,16.82-4.36,25.03-1.75-3.76-3.51-7.52-5.36-11.24-1.76,4.32-1.88,9.66-6.75,11.58,1.12-5.96,2.14-11.94,4.95-17.39,1.59-.02,3.99.69,5.31-.4,2.56-1.96,4.52-4.87,6.21-7.58Z"/>
      <path class="cls-26" d="M159.46,53.41c.87-.25,1.74-.49,2.61-.71.65,2.03,1.23,4.08,1.75,6.15-2.65,8.73,2.07,14.92,2.09,23.62.13,4.5-1.77,7.95-3.25,12.02l1.22.17c-3.8,2.16-8.08,4.68-12.61,4.28-3.9-.34-8.23-1.52-11.77-3.2-2.81-1.3-4.1-3.8-5.96-6.12,3.96,2.11,7.54,3.65,12.14,3.31-1.58-3.69-2.96-7.4-4.21-11.21,4.93-4.95,9.77-9.28,13.1-15.55,2.27-4.1,3.23-8.44,4.89-12.76Z"/>
      <path class="cls-24" d="M163.82,58.85c3.79,10.97,7.52,20.9,5.04,32.74-1.64,1.05-3.29,2.12-4.98,3.07l-1.22-.17c1.48-4.07,3.38-7.52,3.25-12.02-.02-8.7-4.74-14.89-2.09-23.62Z"/>
      <path class="cls-10" d="M21.43,68.64c4.46,2.99,7.45,6.78,12.04,9.2,4.45,2.32,9.5,3.75,14.26,5.32-1.58.79-3.15,1.58-4.73,2.37.66.77,1.31,1.55,1.96,2.33-1.01.22-2.02.42-3.03.61-4.7.67-9.86.73-13.81-2.29-3.94-3-6.57-8.17-9.72-12.01.86-1.91,1.68-3.91,3.03-5.53Z"/>
      <path class="cls-16" d="M9.85,69.7c2.94,1.2,6.01,2.55,8.55,4.47,3.15,3.84,5.78,9.01,9.72,12.01,3.95,3.02,9.11,2.96,13.81,2.29-4.38.72-8.55,1.76-12.53,3.78-3.55,1.59-7.66,3.17-11.59,3.18-2.77-.23-5.46-2.26-7.96-3.4-1.38,1.02-2.7,2.16-4,3.27-.43-1.34-.8-2.7-1.12-4.07,1.43-1.87,2.86-3.44,3.03-5.89.51-5.3.45-10.49,2.09-15.64Z"/>
      <path class="cls-21" d="M77.47,77.28c-2.97,1.69-5.97,3.06-9.22,4.14-3.21-.75-6.42-1.6-9.51-2.73,6.31-.92,12.32-2.06,18.73-1.41Z"/>
      <path class="cls-6" d="M141.47,81.72c1.25,3.81,2.63,7.52,4.21,11.21-4.6.34-8.18-1.2-12.14-3.31-5.43-2.73-13.09-1.4-18.95-.88,1.73.5,3.45.99,5.21,1.37-2.32.4-4.64.78-6.97,1.15-1.02-1.23-2.04-2.47-3.13-3.65,1.32.03,2.64.04,3.97.04,6.03-.09,12.19.72,18.18.07,4.12-.4,6.75-3.37,9.62-6Z"/>
      <path class="cls-20" d="M61.91,84.61c-.95,1.05-1.87,2.14-2.8,3.21-6.14-.28-12.03,2.64-17.02,5.95-2.98,1.78-1.43,5.18-1.6,8.03,0,3.98-.18,7.95-.18,11.93-.3-.75-.61-1.49-.93-2.23-.61,2.04-1.18,4.09-1.73,6.14-1.35.01-2.69-.01-4.03-.04-.94-6.45,1.53-11.91,2.22-18.13.56-3.27-4.26-3.67-6.4-4.8-.01-.81-.03-1.61-.04-2.42,3.98-2.02,8.15-3.06,12.53-3.78,1.01-.19,2.02-.39,3.03-.61,1.35-.29,2.69-.59,4.05-.84,4.36-.77,8.62-1.2,12.9-2.41Z"/>
      <path class="cls-13" d="M59.11,87.82c-.06,2.34-.4,4.93.17,7.22.66,1.81,2.05,3.43,3.26,4.89,2.97,2.2,6.4,2.84,10.02,2.99,7.18.3,14.38-.11,21.56.1.93,1,1.82,2,2.85,2.9,2.59-.37,5.15-1.74,7.46-2.92,2.59-1.48,5.76-2.91,7.68-5.23.75-2,.59-4.4.72-6.51,2.33-.37,4.65-.75,6.97-1.15,2.92,3.79,6.15,7.18,8.3,11.52-.77-.72-1.55-1.44-2.33-2.14-2.28,2.32-4.51,4.94-7.57,6.21-3.66,1.5-7.53,2.46-11.22,3.89-4.96,1.87-9.78,3.6-15.12,3.93-10.35.85-20.08-2.33-29.98-5-3.72-1.16-8.76-2.63-11.12-5.96-1.83-2.96-2.3-6.91-3.26-10.24-2.88,2.54-4.95,5.21-6.64,8.66l-.37.82c.17-2.85-1.38-6.25,1.6-8.03,4.99-3.31,10.88-6.23,17.02-5.95Z"/>
      <path class="cls-27" d="M114.59,88.74c5.86-.52,13.52-1.85,18.95.88,1.86,2.32,3.15,4.82,5.96,6.12,3.54,1.68,7.87,2.86,11.77,3.2,4.53.4,8.81-2.12,12.61-4.28,1.69-.95,3.34-2.02,4.98-3.07-2.89,10.24-9.58,20.65-19.13,25.78-5,2.86-10.44,3.73-16.13,3.55-1.24-4.47-2.04-8.84-2.49-13.45-1.06,4.58-2.02,9.18-3.01,13.77l-.91.95c-2.46.8-5.04,1.38-7.56,1.96.43-1.39.85-2.78,1.36-4.15,1.49-2.17,3.42-4.15,4.65-6.47.8-1.9.85-4.15,1.2-6.17.5-1.67,1.08-3.31,1.76-4.92,1.5-3.17,2.77-6.33,3.51-9.77-4.03-1.26-8.14-1.95-12.31-2.56-1.76-.38-3.48-.87-5.21-1.37Z"/>
      <path class="cls-29" d="M119.8,90.11c4.17.61,8.28,1.3,12.31,2.56-.74,3.44-2.01,6.6-3.51,9.77l-.5-.81c-2.15-4.34-5.38-7.73-8.3-11.52Z"/>
      <path class="cls-3" d="M9.85,92.03c2.5,1.14,5.19,3.17,7.96,3.4,3.93,0,8.04-1.59,11.59-3.18.01.81.03,1.61.04,2.42,2.14,1.13,6.96,1.53,6.4,4.8-.69,6.22-3.16,11.68-2.22,18.13-6.48-.71-12.67-2.97-17.61-7.31-4.71-3.98-8.07-9.21-10.16-14.99,1.3-1.11,2.62-2.25,4-3.27Z"/>
      <path class="cls-17" d="M47.5,92.32c.96,3.33,1.43,7.28,3.26,10.24,2.36,3.33,7.4,4.8,11.12,5.96,9.9,2.67,19.63,5.85,29.98,5,5.34-.33,10.16-2.06,15.12-3.93,3.69-1.43,7.56-2.39,11.22-3.89,3.06-1.27,5.29-3.89,7.57-6.21.78.7,1.56,1.42,2.33,2.14l.5.81c-.68,1.61-1.26,3.25-1.76,4.92-.41,1.26-.84,2.52-1.26,3.77-7.16.33-13.66,2.08-20.38,4.45-15.28,3.01-31.44,2.11-46.4-2.19-4.27-1.29-8.54-1.3-12.94-.93-1.9-3.73-3.47-7.59-5-11.48,1.69-3.45,3.76-6.12,6.64-8.66Z"/>
      <path class="cls-19" d="M64.31,97.12c10.51,1.36,21.36.38,31.95.35.08,1.76.18,3.53.31,5.29,1.7-.48,3.38-.96,5.02-1.62.94.62,1.89,1.24,2.84,1.86-2.31,1.18-4.87,2.55-7.46,2.92-1.03-.9-1.92-1.9-2.85-2.9-1.07-1.04-1.71-2.16-3.37-2.17-4.55-.37-9.13-.2-13.69-.5-3.79-.63-10.2.05-12.75-3.23Z"/>
      <path class="cls-7" d="M62.54,99.93c4.85.32,9.67.39,14.52.42,4.56.3,9.14.13,13.69.5,1.66.01,2.3,1.13,3.37,2.17-7.18-.21-14.38.2-21.56-.1-3.62-.15-7.05-.79-10.02-2.99Z"/>
      <path class="cls-18" d="M40.49,101.8l.37-.82c1.53,3.89,3.1,7.75,5,11.48,4.4-.37,8.67-.36,12.94.93,14.96,4.3,31.12,5.2,46.4,2.19,4.73,3.83,9.91,4.47,15.79,4.42-.51,1.37-.93,2.76-1.36,4.15,2.52-.58,5.1-1.16,7.56-1.96-2.43,2.65-5.42,3.99-8.89,4.71-17.89,3.66-36.09,4.57-54.11,1.25-7.24-1.34-14.37-3.08-20.16-7.9-2.09-1.71-2.75-4.11-3.72-6.52,0-3.98.18-7.95.18-11.93Z"/>
      <path class="cls-14" d="M126.84,107.36c-.35,2.02-.4,4.27-1.2,6.17-1.23,2.32-3.16,4.3-4.65,6.47-5.88.05-11.06-.59-15.79-4.42,6.72-2.37,13.22-4.12,20.38-4.45.42-1.25.85-2.51,1.26-3.77Z"/>
      <path class="cls-15" d="M131.11,107.47c.45,4.61,1.25,8.98,2.49,13.45-1.83.05-3.67.17-5.5.32.99-4.59,1.95-9.19,3.01-13.77Z"/>
    </g>
  </g>
</svg>