<?xml version="1.0" encoding="UTF-8"?>
<svg id="Capa_2" data-name="Capa 2" xmlns="http://www.w3.org/2000/svg" viewBox="0 0 165.48 133.43">
  <defs>
    <style>
      .cls-1 {
        fill: #d8c8b7;
      }

      .cls-2 {
        fill: #110b05;
      }

      .cls-3 {
        fill: #643001;
      }

      .cls-4 {
        fill: #2c1305;
      }

      .cls-5 {
        fill: #d87c0d;
      }

      .cls-6 {
        fill: #844201;
      }

      .cls-7 {
        fill: #d8c8b6;
      }

      .cls-8 {
        fill: #dccebe;
      }

      .cls-9 {
        fill: #713901;
      }

      .cls-10 {
        fill: #fbac39;
      }

      .cls-11 {
        fill: #eadece;
      }

      .cls-12 {
        fill: #703601;
      }

      .cls-13 {
        fill: #7d3f01;
      }

      .cls-14 {
        fill: #954c02;
      }

      .cls-15 {
        fill: #fcf8f0;
      }

      .cls-16 {
        fill: #b25f04;
      }

      .cls-17 {
        fill: #b96406;
      }

      .cls-18 {
        fill: #6d3701;
      }

      .cls-19 {
        fill: #c9700b;
      }

      .cls-20 {
        fill: #fdf9f1;
      }

      .cls-21 {
        fill: #5d2e01;
      }

      .cls-22 {
        fill: #5a2c01;
      }

      .cls-23 {
        fill: #b25d03;
      }

      .cls-24 {
        fill: #9a5001;
      }
    </style>
  </defs>
  <g id="Capa_1-2" data-name="Capa 1">
    <g id="hold_sticky">
      <path class="cls-2" d="M87.79.3c5.75.57,11.46,2.02,17.03,3.53,10.2,3.05,19.95,5.72,29.43,10.57,7.19,3.64,13.5,9.35,17.89,16.09,3.85,6.43,6,14.08,7.49,21.38,2.19,9.92,5.74,20.76,5.85,30.94.25,10.84-4.73,21.68-12.97,28.69-3.38,2.91-7.44,4.16-10.51,7.46-2.75,2.86-5.99,5.04-9.84,6.12-3.8,1.12-7.31.38-11.1.63-3.16,1.77-5.99,3.84-9.58,4.77-11.58,3.29-24.62,3.24-36.56,2.64-7.42-.77-15.7-1.77-22.51-4.96-3.22-1.47-5.82-3.7-8.77-5.58-1.88-.38-3.91-.02-5.82-.07-6.37.21-12.18-2.94-17.35-6.34-7.2-4.79-14.24-11.23-17.6-19.38-4-8.7-3.35-19.61-.87-28.66,2.43-8.53,4.51-17.24,7.47-25.61,3.54-9.97,9.9-18.35,17.7-25.39,8.23-7.07,17.94-10.61,28.09-14C65.98-.23,76.67-.32,87.79.3Z"/>
      <path class="cls-5" d="M98.28,5.92c-3.77.95-7.51,1.67-11.42,1.58-7.65-.09-15.21.04-22.73,1.7-8.27,2.01-15.93,2.39-22.89,7.86.84.48,1.67.97,2.5,1.47-2.5.33-5.27.41-7.44,1.79-2.68,1.69-5.08,3.87-7.5,5.91-5.72,4.77-7.48,11.86-12.92,17-.45-1.18-.9-2.36-1.36-3.53,3.8-8.5,10.18-16,17.46-21.74,5.08-4.11,11.81-6.71,17.83-9.17,15.37-6.2,32.47-7.01,48.47-2.87Z"/>
      <path class="cls-17" d="M98.28,5.92c4.38.76,8.54,2.2,12.68,3.79-2.78,2.58-5.71,5.4-7.6,8.72-1.07,1.81-.3,4.55-.3,6.57.25,2.56-.64,4.67-1.32,7.08-.18-2.46-.25-5.07-.96-7.45-.54-1.7-2.6-2.83-4.04-3.7-3.69-2.02-7.45-3.96-11.2-5.87-2.2-.97-4.44-2.27-6.88-1.36-4.41,1.57-8.5,4.12-12.64,6.28-2.41,1.57-5.35,2.41-5.36,5.8-.34,5.53-.06,11.03-.84,16.54-6.11,2.11-11.44,5.32-17.12,8.33-1.81,1.06-3.97,2.15-5.29,3.8-1.05,2.16-.97,4.99-1.07,7.35,0,4.13-.17,8.18-.52,12.29-.42-1-.85-2-1.28-3-2.41.53-5.23.77-7.38,2.02-1.67,1.92-2.63,4.61-3.68,6.91-4.38-5.13-4.93-13.37-4.15-19.78.41-4.36,4.79-5.69,7.97-7.75-2.69-.44-5.38-.89-8.08-1.33-1.19-2.61-2.33-5.24-3.34-7.93,5.44-5.14,7.2-12.23,12.92-17-.44,2.55-1.26,5.55-.64,8.1,3.67,2.45,7.75,1.27,11.09-1.08,3.17-2.27,6.32-5.82,7.06-9.74.46-2.34-1.18-3.42-2.57-4.98-.83-.5-1.66-.99-2.5-1.47,6.96-5.47,14.62-5.85,22.89-7.86,7.52-1.66,15.08-1.79,22.73-1.7,3.91.09,7.65-.63,11.42-1.58Z"/>
      <path class="cls-16" d="M110.96,9.71c.67.23,1.33.47,1.99.71,2.96,3.7,5.89,6.13,10.3,7.97,6.55,2.77,12.28,6.79,15.97,12.99,1.41,2.45,1.56,5.36,1.87,8.1.84-1.53,1.62-3.35,2.91-4.56,1.48-1.09,3.32-1.78,5-2.51.33.61.64,1.23.95,1.85-1.73,2.79-2.96,5.78-3.95,8.9-1.5,4.73-3.43,8.81-3.13,13.93.49,4.26,1.35,8.14.74,12.48-.66,4.84-3.18,9.45-5.76,13.53-2.42,1.56-4.93,2.89-7.65,3.84-3-.09-5.55-.87-8.25.86-5.79,3.42-8.89,11.08-13.36,16.13-7.52,1.35-14.21,5.61-21.58,5.48-4.69-.05-9.38-.49-14.04-.89-9.55-1.33-17.93-5.53-25.82-10.87,1.23-1.89,2.46-3.77,3.7-5.64-3.66,2.27-8.58,5.74-13.08,5.11-3.71-.96-7.12-3.86-9.32-6.94-1.81-2.57-1.79-5.3-1.93-8.3-.81-.49-1.62-.98-2.44-1.46l-.6-.4c1.05-2.3,2.01-4.99,3.68-6.91,2.15-1.25,4.97-1.49,7.38-2.02.43,1,.86,2,1.28,3,1.57,5.9,6.28,6.98,10.96,9.8,3.46,1.76,7.16,4.52,11.04,5.08,3.89-.67,7.6-3.28,11.11-5.04,3.25-1.83,7.27-3.35,9.9-6.04.78-1.81.7-4.07.81-6.02.06-6.13.09-12.07-.71-18.15.71.07,1.43.13,2.15.2-.44,5.97-.64,11.96-.58,17.94.1,2.02.12,4.4,1.03,6.25,2.24,2.42,5.71,3.88,8.58,5.43,3.61,1.74,7.13,3.96,10.94,5.21,2.01.74,3.82-.33,5.64-1.11,3.71-1.89,7.25-4.09,10.95-6,1.96-1.13,4.57-2.32,5.82-4.27,1.06-3.61.51-7.82.58-11.56-.16-3.71.29-7.84-.77-11.41-1.27-1.39-3.16-2.35-4.8-3.25-5.75-2.96-11.02-6.38-17.31-8.2,0-3.63.13-7.26.58-10.87.68-2.41,1.57-4.52,1.32-7.08,0-2.02-.77-4.76.3-6.57,1.89-3.32,4.82-6.14,7.6-8.72Z"/>
      <path class="cls-19" d="M112.95,10.42c5.01,1.11,9.9,2.53,14.57,4.69,8.35,3.74,16.88,9.13,21.48,17.3-1.68.73-3.52,1.42-5,2.51-1.29,1.21-2.07,3.03-2.91,4.56-.31-2.74-.46-5.65-1.87-8.1-3.69-6.2-9.42-10.22-15.97-12.99-4.41-1.84-7.34-4.27-10.3-7.97Z"/>
      <path class="cls-4" d="M85.54,15.06c3.75,1.91,7.51,3.85,11.2,5.87,1.44.87,3.5,2,4.04,3.7.71,2.38.78,4.99.96,7.45-.45,3.61-.57,7.24-.58,10.87,6.29,1.82,11.56,5.24,17.31,8.2,1.64.9,3.53,1.86,4.8,3.25,1.06,3.57.61,7.7.77,11.41-.07,3.74.48,7.95-.58,11.56-1.25,1.95-3.86,3.14-5.82,4.27-3.7,1.91-7.24,4.11-10.95,6-1.82.78-3.63,1.85-5.64,1.11-3.81-1.25-7.33-3.47-10.94-5.21-2.87-1.55-6.34-3.01-8.58-5.43-.91-1.85-.93-4.23-1.03-6.25-.06-5.98.14-11.97.58-17.94-.72-.07-1.44-.13-2.15-.2.8,6.08.77,12.02.71,18.15-.11,1.95-.03,4.21-.81,6.02-2.63,2.69-6.65,4.21-9.9,6.04-3.51,1.76-7.22,4.37-11.11,5.04-3.88-.56-7.58-3.32-11.04-5.08-4.68-2.82-9.39-3.9-10.96-9.8.35-4.11.52-8.16.52-12.29.1-2.36.02-5.19,1.07-7.35,1.32-1.65,3.48-2.74,5.29-3.8,5.68-3.01,11.01-6.22,17.12-8.33.78-5.51.5-11.01.84-16.54,0-3.39,2.95-4.23,5.36-5.8,4.14-2.16,8.23-4.71,12.64-6.28,2.44-.91,4.68.39,6.88,1.36Z"/>
      <path class="cls-20" d="M82.06,15.54c5.5,2.69,11.04,5.52,16.36,8.54.04,6.09.21,12.19,0,18.27-.94-5.66-.7-11.34-1.33-17.03-2.68,4.24-2.06,8.52-2.48,13.34-3.9,2.15-8.08,3.77-11.94,5.99-2.38,1.27-3.08,4.13-4.17,6.41-5.34-3.13-10.92-5.79-16.16-9.11.26-5.83-.35-12.04.69-17.76,3.87-3,8.69-4.86,12.94-7.3,1.95-.84,3.95-2.64,6.1-1.35Z"/>
      <path class="cls-10" d="M43.74,18.53c1.39,1.56,3.03,2.64,2.57,4.98-.74,3.92-3.89,7.47-7.06,9.74-3.34,2.35-7.42,3.53-11.09,1.08-.62-2.55.2-5.55.64-8.1,2.42-2.04,4.82-4.22,7.5-5.91,2.17-1.38,4.94-1.46,7.44-1.79Z"/>
      <path class="cls-7" d="M97.08,25.32c.63,5.69.39,11.37,1.33,17.03-6.01,3.34-12.01,6.94-18.4,9.52l-1.52-.81c1.09-2.28,1.79-5.14,4.17-6.41,3.86-2.22,8.04-3.84,11.94-5.99.42-4.82-.2-9.1,2.48-13.34Z"/>
      <path class="cls-12" d="M149.95,34.26c.98,2.04,1.83,4.14,2.61,6.27-2.15,4.99-1.85,9.52-.53,14.64-3.07.58-6.11,1.25-9.16,1.92-.3-5.12,1.63-9.2,3.13-13.93.99-3.12,2.22-6.11,3.95-8.9Z"/>
      <path class="cls-14" d="M14.52,39.7c.46,1.17.91,2.35,1.36,3.53,1.01,2.69,2.15,5.32,3.34,7.93,2.7.44,5.39.89,8.08,1.33-3.18,2.06-7.56,3.39-7.97,7.75-.78,6.41-.23,14.65,4.15,19.78l.6.4c-5.98-.98-8.01,3.4-12.52,6.13-1.93,1.57-4.96.1-7.13-.25-.51-3.92-.48-7.8.06-11.72.13,2.13.37,4.24.62,6.36,4.25-7.96,6.09-17.4,8.59-26.17.87-2.77-.53-4.45-1.96-6.68.92-2.79,1.69-5.68,2.78-8.39Z"/>
      <path class="cls-3" d="M140.92,40.93c-.5,1.95-.96,4.14-2,5.89-2.7,1.29-6,1.61-8.93,2.09,3.44-2.95,6.97-5.75,10.93-7.98Z"/>
      <path class="cls-6" d="M152.56,40.53c2.98,7.65,4.13,15.43,6.23,23.31,1.81,7.47,3.58,15.58,2.51,23.27-3.57,1.17-7.6,2.99-11.39,2.87-4.44-.48-8.48-4.44-12.06-6.88,2.58-4.08,5.1-8.69,5.76-13.53.61-4.34-.25-8.22-.74-12.48,3.05-.67,6.09-1.34,9.16-1.92-1.32-5.12-1.62-9.65.53-14.64Z"/>
      <path class="cls-15" d="M59.31,45.41c4.94,2.13,9.56,5.04,14.26,7.63,1.45,1.02,3.59,1.67,3.54,3.77.27,6.44.08,12.97-.19,19.4-1.2-6.9-.54-13.8-1.43-20.73-2.56,5.49-2.38,10.96-3.08,16.84-4.91,2.7-9.93,5.15-14.97,7.6-5.89-2.7-11.03-6.07-17.54-7.16-.46-1.7-.92-3.4-1.3-5.13-.11-4.22.15-8.42.53-12.62,5.13-2.9,10.37-5.59,15.52-8.43,1.36-.57,3.19-1.93,4.66-1.17Z"/>
      <path class="cls-20" d="M101.92,45.12c6.67,2.91,13.09,6.52,19.42,10.12.06,6.96.13,13.94-.1,20.9-.51-7.02.44-13.52-1.41-20.42-2.3,4.63-1.91,9.3-2.53,14.25-.14,2.29-2.96,3.56-4.62,4.7-3.32,1.84-7.03,4.27-10.84,4.76-4.73-.61-9.01-4.37-13.66-5.45-1.81-.26-3.83.47-5.59.84.19-6.59-.11-13.13.52-19.7,6.06-3.68,12.43-6.92,18.81-10Z"/>
      <path class="cls-23" d="M11.74,48.09c1.43,2.23,2.83,3.91,1.96,6.68-2.5,8.77-4.34,18.21-8.59,26.17-.25-2.12-.49-4.23-.62-6.36,1.71-8.93,4.48-17.83,7.25-26.49Z"/>
      <path class="cls-1" d="M75.49,55.48c.89,6.93.23,13.83,1.43,20.73-6.06,3.64-12.47,6.6-18.54,10.21-.3-2.17-.61-4.34-.94-6.5,5.04-2.45,10.06-4.9,14.97-7.6.7-5.88.52-11.35,3.08-16.84Z"/>
      <path class="cls-8" d="M119.83,55.72c1.85,6.9.9,13.4,1.41,20.42-4.63,2.83-9.43,5.29-14.17,7.91-1.63.83-3.38,1.9-5.19,2.18-3.83-1.27-7.3-3.73-10.92-5.53-2.92-1.67-6.57-2.91-8.37-5.88,1.76-.37,3.78-1.1,5.59-.84,4.65,1.08,8.93,4.84,13.66,5.45,3.81-.49,7.52-2.92,10.84-4.76,1.66-1.14,4.48-2.41,4.62-4.7.62-4.95.23-9.62,2.53-14.25Z"/>
      <path class="cls-11" d="M38.6,67.63c.38,1.73.84,3.43,1.3,5.13,6.51,1.09,11.65,4.46,17.54,7.16.33,2.16.64,4.33.94,6.5-6.74-2.59-12.91-6.72-19.29-10.08-.35-2.9-.48-5.79-.49-8.71Z"/>
      <path class="cls-13" d="M24.08,80.42c.82.48,1.63.97,2.44,1.46.14,3,.12,5.73,1.93,8.3,2.2,3.08,5.61,5.98,9.32,6.94,4.5.63,9.42-2.84,13.08-5.11-1.24,1.87-2.47,3.75-3.7,5.64,7.89,5.34,16.27,9.54,25.82,10.87-.75-.06-1.5-.13-2.25-.19.69,2.02,1.36,4.04,2.02,6.06-2.06-.05-4.39-.32-6.38.26-3.1.87-6.39,2.65-9.59,2.9-1.67.17-2.66-.83-3.86-1.8-2.28-2.06-4.34-4.39-6.32-6.74-1.32-3.21-1.76-6.56-2.08-9.98-1.59,2.56-3.37,5.89-6.03,7.43-2.41,1.29-5.53,1.85-8.18,1.03-2.87-2.96-3.57-8.09-7.31-10.78-4.66-3.31-9.93-6.11-15.48-7.58-.61.93-1.21,1.88-1.8,2.83-.51-1.87-.94-3.76-1.28-5.66,2.17.35,5.2,1.82,7.13.25,4.51-2.73,6.54-7.11,12.52-6.13Z"/>
      <path class="cls-22" d="M137.85,83.1c3.58,2.44,7.62,6.4,12.06,6.88,3.79.12,7.82-1.7,11.39-2.87-.61,3.97-1.81,7.78-3.93,11.22-2.4,3.93-5.35,8.24-9.24,10.83-1.85,1.31-4.51.96-6.69.98-1.45,2.88-2.97,5.65-5.2,8.01-1.46-.65-2.92-1.29-4.39-1.93.82-3.11,1.89-6.14,3-9.16,1.52-4.49,2.53-9.47,2.14-14.21-.18-2-1.12-3.88-3.33-4.09-3.2-.26-6.55.41-9.73.81,2.09-.88,4.17-1.78,6.27-2.63,2.72-.95,5.23-2.28,7.65-3.84Z"/>
      <path class="cls-24" d="M130.2,86.94c-2.1.85-4.18,1.75-6.27,2.63,3.18-.4,6.53-1.07,9.73-.81,2.21.21,3.15,2.09,3.33,4.09.39,4.74-.62,9.72-2.14,14.21-1.93,1.22-4.07,2.81-6.31,3.33-2.73.47-5.77-.08-8.5-.44-1.74-2-3.65-3.43-6.01-4.61-1.78-.57-3.6-1.05-5.44-1.41,4.47-5.05,7.57-12.71,13.36-16.13,2.7-1.73,5.25-.95,8.25-.86Z"/>
      <path class="cls-21" d="M7.51,89.13c5.55,1.47,10.82,4.27,15.48,7.58,3.74,2.69,4.44,7.82,7.31,10.78,2.65.82,5.77.26,8.18-1.03,2.66-1.54,4.44-4.87,6.03-7.43.32,3.42.76,6.77,2.08,9.98,1.14,2.75,1.94,6.07,3.81,8.42,3.99,2.57,9.33,1.73,13.72.86,5.2-1.13,10.43-1.77,15.73-2.21,6.89-.58,13.27-2.68,20.23-2.73,5.04-.16,11,.15,15.31-2.89.55-1.74-2.11-3.09-3.07-4.28.57-.28,1.14-.56,1.71-.84,2.36,1.18,4.27,2.61,6.01,4.61,2.41,3.34,3.86,7.09,5.12,10.99-1.56-.25-3.1-.56-4.65-.86-.37-1.32-.75-2.65-1.12-3.97-.65,2.11-.9,5.11-2.83,6.46-3.15,2.49-7.57,3.68-11.44,4.49-11.2,2.16-22.86,2.14-34.15.63-5.64-.83-11.62-1.85-16.87-4.16-4.75-2.11-8.19-5.43-11.89-8.97-.59,1.13-1.18,2.26-1.78,3.39-4.85.05-9.24-.75-13.43-3.3-9.25-5.67-17.79-11.91-21.29-22.69.59-.95,1.19-1.9,1.8-2.83Z"/>
      <path class="cls-18" d="M108.59,103.93c1.84.36,3.66.84,5.44,1.41-.57.28-1.14.56-1.71.84.96,1.19,3.62,2.54,3.07,4.28-4.31,3.04-10.27,2.73-15.31,2.89-6.96.05-13.34,2.15-20.23,2.73-5.3.44-10.53,1.08-15.73,2.21-4.39.87-9.73,1.71-13.72-.86-1.87-2.35-2.67-5.67-3.81-8.42,1.98,2.35,4.04,4.68,6.32,6.74,1.2.97,2.19,1.97,3.86,1.8,3.2-.25,6.49-2.03,9.59-2.9,1.99-.58,4.32-.31,6.38-.26-.66-2.02-1.33-4.04-2.02-6.06.75.06,1.5.13,2.25.19,4.66.4,9.35.84,14.04.89,7.37.13,14.06-4.13,21.58-5.48Z"/>
      <path class="cls-9" d="M134.85,107.06c-1.11,3.02-2.18,6.05-3,9.16,1.47.64,2.93,1.28,4.39,1.93-3.45,2.09-7,3.27-11.08,2.79-1.26-3.9-2.71-7.65-5.12-10.99,2.73.36,5.77.91,8.5.44,2.24-.52,4.38-2.11,6.31-3.33Z"/>
    </g>
  </g>
</svg>