<?xml version="1.0" encoding="UTF-8"?>
<svg id="Capa_2" data-name="Capa 2" xmlns="http://www.w3.org/2000/svg" viewBox="0 0 166.3 130.85">
  <defs>
    <style>
      .cls-1 {
        fill: #8159b6;
      }

      .cls-2 {
        fill: #2e1e55;
      }

      .cls-3 {
        fill: #8c64c5;
      }

      .cls-4 {
        fill: #0f0a08;
      }

      .cls-5 {
        fill: #7c56b3;
      }

      .cls-6 {
        fill: #49307a;
      }

      .cls-7 {
        fill: #7450ab;
      }

      .cls-8 {
        fill: #7751ae;
      }

      .cls-9 {
        fill: #3c236e;
      }

      .cls-10 {
        fill: #372563;
      }

      .cls-11 {
        fill: #9e75d5;
      }

      .cls-12 {
        fill: #5f3e95;
      }

      .cls-13 {
        fill: #815ab8;
      }

      .cls-14 {
        fill: #bd92e8;
      }

      .cls-15 {
        fill: #946cc9;
      }

      .cls-16 {
        fill: #261747;
      }

      .cls-17 {
        fill: #483078;
      }

      .cls-18 {
        fill: #fdfdfd;
      }
    </style>
  </defs>
  <g id="Capa_1-2" data-name="Capa 1">
    <g id="hold_moving">
      <path class="cls-4" d="M81.37.02c13.8.05,25.84,3.9,38.95,7.53,12.12,3.71,22.94,10.06,30.48,20.44,6.71,9.38,8.55,21.49,11.51,32.49,2.44,10.24,5.43,19.74,3.23,30.34-1.81,9.21-8.6,17.56-16.67,22.15-3.59,2.16-7.24,1.96-10.13,4.83-6.58,6.26-16.69,8.7-25.34,10.57-12.46,2.27-25.46,3.3-38.06,1.73-7.81-.76-16.04-2.15-23.22-5.44-3.71-1.68-6.43-4.5-9.81-6.62-3.46-.28-6.73.2-10.21-.57-6.67-1.3-12.92-5.43-18.08-9.72-6.36-5.8-11.79-12.89-13.2-21.61-2.07-9.32.16-18.64,2.69-27.63,1.9-6.96,5.89-12.2,9.91-18.03,3.95-5.25,6.46-11.26,10.64-16.37,4.58-5.57,9.67-10.52,16.2-13.75C52.8,3.82,67.15-.29,81.37.02Z"/>
      <path class="cls-11" d="M82.36,3.69c8.07.64,15.88,1.29,23.56,4.04-1.22.8-2.4,1.99-3.81,2.42-3.12.22-6.42-.61-9.53-.97-15.64-2.21-31.71-.26-46.02,6.56,1.23.5,2.46.99,3.68,1.53-3.97-.12-7.83.55-11.15,2.83-2.79,1.85-4.22,4.6-5.92,7.36l-.26-1.7c-3.83,4.39-7.31,8.85-9.28,14.41-1.98.14-3.96.3-5.94.4,3.59-5.27,6.16-10.63,10.3-15.53,4.6-5.58,10.33-10.1,16.96-13.04,12.03-5.2,24.12-8.98,37.41-8.31Z"/>
      <path class="cls-8" d="M105.92,7.73c1.87.45,3.73.93,5.6,1.38-1.08.15-2.16.3-3.24.47,6.17,5.5,13.52,7.24,20.37,11.58,3.5,2.09,6.49,4.85,9.9,7.06,3.06,1.96,6.68,2.64,10.18,3.39,3.24,5.23,5.03,10.94,6.45,16.88,2.33,8.52,4.53,17.06,6.31,25.71,1.03,5.28.92,10.57-.43,15.79-1.44-6.55-1.63-13.21-3.34-19.69-1.48-5.95-3.56-11.28-4.28-17.42-.38-2.7-.44-5.58-1.18-8.2-.55-1.89-2.27-3.52-3.59-4.93-1.8,1.96-3.47,4-5.15,6.06.26.7.51,1.41.75,2.13-3.27-.74-6.59-1.1-9.93-1.42-5.62-.45-10.66-3-16.28-3.63-3.89-2.41-7.46-5.63-11.62-7.52-1.81-.81-3.61-.48-4.96.99-1.12,2.4-1.22,5.35-1.62,7.94-10.64.2-21.34.47-31.96-.22-.79-3.01-1.69-5.98-2.47-8.99.48-2.39,1.5-4.61,3.28-6.33,2.97-2.89,6.75-3.44,9.38-6.63,2.35-2.75,4.73-5.45,7.42-7.88-.66-1.38-1.31-2.76-1.97-4.14,3-.45,6-.84,9.04-.93,3.11.36,6.41,1.19,9.53.97,1.41-.43,2.59-1.62,3.81-2.42Z"/>
      <path class="cls-5" d="M92.58,9.18c-3.04.09-6.04.48-9.04.93.66,1.38,1.31,2.76,1.97,4.14-2.69,2.43-5.07,5.13-7.42,7.88-2.63,3.19-6.41,3.74-9.38,6.63-1.78,1.72-2.8,3.94-3.28,6.33-4.19.29-7.28,1.16-10.61,3.76-4.41,3.28-9.08,6.24-13.32,9.73-2.18,1.92-4.5,4.29-3.74,7.47.81,2.93,3.68,5.37,5.92,7.27-5.33,2.31-10.89,3.2-16.57,4.17,1.05,3.89,1.64,7.49,5.01,10.12,5.02,3.78,11.63,5.23,17.14,8.34-1.27,1.3-2.53,2.62-3.84,3.87-3.56.55-7,1.69-10.45.13-5.59-2.32-9.39-7.88-12.73-12.68-3.62-6.54-6.77-13.33-10.69-19.72-1.05,4.02-2.01,8.06-3,12.09-1.34,5.34-1.35,10.57-1.75,16.03-.85-1.12-1.7-2.23-2.5-3.38-1.03-9.53,1.36-19.71,4.67-28.63,3.51,3.52,6.6,6.98,11.59,8.4-.21-7.57.08-14.81,3.07-21.89,1.97-5.56,5.45-10.02,9.28-14.41l.26,1.7c.35,1.56.48,3.49,1.41,4.82,2.07,1.72,5.49,1.04,7.79.17,4.37-1.69,9.01-5.39,10.11-10.15.5-2.16-.08-4.14-2.24-5.03-1.22-.54-2.45-1.03-3.68-1.53,14.31-6.82,30.38-8.77,46.02-6.56Z"/>
      <path class="cls-3" d="M108.28,9.58c1.08-.17,2.16-.32,3.24-.47,4.97,1.2,9.96,2.54,14.72,4.43,9.09,3.78,17.16,9.67,22.49,18.07-3.5-.75-7.12-1.43-10.18-3.39-3.41-2.21-6.4-4.97-9.9-7.06-6.85-4.34-14.2-6.08-20.37-11.58Z"/>
      <path class="cls-14" d="M50.24,17.27c2.16.89,2.74,2.87,2.24,5.03-1.1,4.76-5.74,8.46-10.11,10.15-2.3.87-5.72,1.55-7.79-.17-.93-1.33-1.06-3.26-1.41-4.82,1.7-2.76,3.13-5.51,5.92-7.36,3.32-2.28,7.18-2.95,11.15-2.83Z"/>
      <path class="cls-9" d="M106.44,35.37c4.16,1.89,7.73,5.11,11.62,7.52,3.28,2.72,6.5,5.42,10.25,7.49.32,2.76,1.49,6.08-.56,8.45-2.59,3.27-6.34,5.78-9.56,8.42-3.54,2.71-7.13,6.1-11.25,7.86-1.9.82-3.83.59-5.37-.81-1.15-2.3-1.35-5.17-1.81-7.67-10.8-.64-21.76-.72-32.55.18-.49,2.52-.82,5.31-1.92,7.65-2.36,2.37-5.76.51-8.09-.89-4.67-3.19-8.95-6.92-13.52-10.25-2.24-1.9-5.11-4.34-5.92-7.27-.76-3.18,1.56-5.55,3.74-7.47,4.24-3.49,8.91-6.45,13.32-9.73,3.33-2.6,6.42-3.47,10.61-3.76.78,3.01,1.68,5.98,2.47,8.99,10.62.69,21.32.42,31.96.22.4-2.59.5-5.54,1.62-7.94,1.35-1.47,3.15-1.8,4.96-.99Z"/>
      <path class="cls-18" d="M62.32,36.9l1.63.65c.49,3.02.31,6.2.37,9.25,12.75.04,25.52.14,38.28-.04.07-3.27.12-6.54.33-9.81,4.7.31,7.26,3.45,10.9,6,3.89,3.13,8.34,5.74,11.89,9.25,1.28,1.23,1.13,3.18.01,4.46-2.56,2.79-5.76,5.04-8.7,7.42-4.58,3.33-8.23,6.86-13.67,8.66-.72-3.46-.77-6.94-.88-10.45-12.71-.19-25.45-.11-38.16-.02-.14,3.52-.21,7-1.03,10.45-6.44-2.26-12.1-7.61-17.5-11.73-2.35-2.03-5.92-4.02-5.94-7.51,1.5-2.93,5.26-4.8,7.84-6.74,4.88-3.19,9.39-7.28,14.63-9.84Z"/>
      <path class="cls-15" d="M23.63,40.17c-2.99,7.08-3.28,14.32-3.07,21.89-4.99-1.42-8.08-4.88-11.59-8.4,2.31-4.85,5.67-8.74,8.72-13.09,1.98-.1,3.96-.26,5.94-.4Z"/>
      <path class="cls-17" d="M148.67,39.75c1.32,1.41,3.04,3.04,3.59,4.93.74,2.62.8,5.5,1.18,8.2.72,6.14,2.8,11.47,4.28,17.42,1.71,6.48,1.9,13.14,3.34,19.69-.16.7-.34,1.4-.54,2.09-6.03.37-12.01,4.89-17.57,2.73-4.41-1.34-6.98-4.39-10.13-7.49,4.84-3.88,9.03-8.25,11.33-14.13,3.32-7.76,2.51-17.34.12-25.25-.24-.72-.49-1.43-.75-2.13,1.68-2.06,3.35-4.1,5.15-6.06Z"/>
      <path class="cls-13" d="M134.34,46.52c3.34.32,6.66.68,9.93,1.42,2.39,7.91,3.2,17.49-.12,25.25-2.3,5.88-6.49,10.25-11.33,14.13-3.94,1.15-7.82,2.45-11.68,3.86-1.52-1.34-2.93-2.76-4.29-4.26,3.91-1.7,7.79-3.27,11.29-5.74,3.44-2.46,7.01-4.01,9.17-7.86,2.91-5.07,4.99-10.99,5.07-16.88.03-2.48-.68-4.79-2.93-6.1-3.35-2.03-7.59-.71-11.14.04-3.75-2.07-6.97-4.77-10.25-7.49,5.62.63,10.66,3.18,16.28,3.63Z"/>
      <path class="cls-7" d="M139.45,50.34c2.25,1.31,2.96,3.62,2.93,6.1-.08,5.89-2.16,11.81-5.07,16.88-2.16,3.85-5.73,5.4-9.17,7.86-3.5,2.47-7.38,4.04-11.29,5.74,1.36,1.5,2.77,2.92,4.29,4.26-.7.25-1.39.49-2.09.73l-1.17-.41c-2.57-1.08-5.08-2.31-7.62-3.47-3.63,7.87-11.49,11.68-19.73,12.73-6.38.65-12.94-.03-19.22-1.25-4.74-1.07-9.82-2.45-13.94-5.1-2.37-1.46-3.33-4.72-4.58-7.1-1.54.74-3.04,1.57-4.55,2.36-.94.04-1.88.09-2.82.15,1.31-1.25,2.57-2.57,3.84-3.87-5.51-3.11-12.12-4.56-17.14-8.34-3.37-2.63-3.96-6.23-5.01-10.12,5.68-.97,11.24-1.86,16.57-4.17,4.57,3.33,8.85,7.06,13.52,10.25,2.33,1.4,5.73,3.26,8.09.89,1.1-2.34,1.43-5.13,1.92-7.65,10.79-.9,21.75-.82,32.55-.18.46,2.5.66,5.37,1.81,7.67,1.54,1.4,3.47,1.63,5.37.81,4.12-1.76,7.71-5.15,11.25-7.86,3.22-2.64,6.97-5.15,9.56-8.42,2.05-2.37.88-5.69.56-8.45,3.55-.75,7.79-2.07,11.14-.04Z"/>
      <path class="cls-12" d="M11.55,57.55c3.92,6.39,7.07,13.18,10.69,19.72-2.23,1.91-4.28,4.21-6.73,5.82-3.02,1.86-6.88,2.7-10.27,3.65-.37-1.47-.68-2.95-.94-4.45.8,1.15,1.65,2.26,2.5,3.38.4-5.46.41-10.69,1.75-16.03.99-4.03,1.95-8.07,3-12.09Z"/>
      <path class="cls-6" d="M22.24,77.27c3.34,4.8,7.14,10.36,12.73,12.68,3.45,1.56,6.89.42,10.45-.13.94-.06,1.88-.11,2.82-.15-.3.99-.6,1.97-.9,2.96,8.63,8.25,19.66,11.23,31.24,12.46,5.89.42,11.88.68,17.77.14,5.1-.46,9.49-3.38,13.61-6.19,3.07-2.07,5.62-4.66,7.92-7.54l1.17.41c4.06,1.49,10.58,1.09,12.11,5.94,2.55,6.23-2.33,13.06-8.14,15.24-5.38,2.3-9.84.16-15.04-1.28-6.7-2.16-14.14-.48-21.12-.06-9.09.63-18.44,3.07-27.51,2.71-4.71,0-8.46-4.45-11.45-7.61-3.29-3.42-3.84-7.48-4.94-11.88-3.88,1.83-6.29,4.95-9.42,7.7-2.29,2.05-5.85-.21-8.09-1.34-6.34-3.32-10.54-8.49-15.75-13.16-.91,1.19-1.81,2.37-2.71,3.55-.67-1.62-1.26-3.28-1.75-4.98,3.39-.95,7.25-1.79,10.27-3.65,2.45-1.61,4.5-3.91,6.73-5.82Z"/>
      <path class="cls-1" d="M52.79,87.31c1.25,2.38,2.21,5.64,4.58,7.1,4.12,2.65,9.2,4.03,13.94,5.1,6.28,1.22,12.84,1.9,19.22,1.25,8.24-1.05,16.1-4.86,19.73-12.73,2.54,1.16,5.05,2.39,7.62,3.47-2.3,2.88-4.85,5.47-7.92,7.54-4.12,2.81-8.51,5.73-13.61,6.19-5.89.54-11.88.28-17.77-.14-11.58-1.23-22.61-4.21-31.24-12.46.3-.99.6-1.97.9-2.96,1.51-.79,3.01-1.62,4.55-2.36Z"/>
      <path class="cls-10" d="M132.82,87.32c3.15,3.1,5.72,6.15,10.13,7.49,5.56,2.16,11.54-2.36,17.57-2.73-1.76,5.44-4.62,9.78-8.92,13.54-2.03-1.01-4.16-1.98-6.06-3.24-2.58-1.77-4.24-4.3-6.36-6.48-1.55-1.7-4.14-2.34-6.25-3.12,1.46,2.47,3.5,5.15,4.04,7.98.66,3.63.61,7.41.84,11.08-5.53,6.93-13.12,8.71-21.31,10.77-17.85,4.01-36.83,4.42-54.7.37-5.79-1.64-13.1-3.81-16.12-9.51-1.59-5.06-2.47-10.33-3.93-15.44-3.65,4.55-2.4,9.18-2.35,14.54-2.08.09-4.15.18-6.23.16-2.83-.33-5.64-1.65-8.12-3-7.68-4.4-14.43-9.67-18.06-18.01.9-1.18,1.8-2.36,2.71-3.55,5.21,4.67,9.41,9.84,15.75,13.16,2.24,1.13,5.8,3.39,8.09,1.34,3.13-2.75,5.54-5.87,9.42-7.7,1.1,4.4,1.65,8.46,4.94,11.88,2.99,3.16,6.74,7.61,11.45,7.61,9.07.36,18.42-2.08,27.51-2.71,6.98-.42,14.42-2.1,21.12.06,5.2,1.44,9.66,3.58,15.04,1.28,5.81-2.18,10.69-9.01,8.14-15.24-1.53-4.85-8.05-4.45-12.11-5.94.7-.24,1.39-.48,2.09-.73,3.86-1.41,7.74-2.71,11.68-3.86Z"/>
      <path class="cls-2" d="M132.93,92.78c2.11.78,4.7,1.42,6.25,3.12,2.12,2.18,3.78,4.71,6.36,6.48,1.9,1.26,4.03,2.23,6.06,3.24-4.11,3.27-8.85,4.71-13.79,6.22-.23-3.67-.18-7.45-.84-11.08-.54-2.83-2.58-5.51-4.04-7.98Z"/>
      <path class="cls-16" d="M41.75,98.03c1.46,5.11,2.34,10.38,3.93,15.44-4.17-.33-8.36-.29-12.51-.74,2.08.02,4.15-.07,6.23-.16-.05-5.36-1.3-9.99,2.35-14.54Z"/>
    </g>
  </g>
</svg>