<?xml version="1.0" encoding="UTF-8"?>
<svg id="Capa_2" data-name="Capa 2" xmlns="http://www.w3.org/2000/svg" viewBox="0 0 77.69 145.16">
  <defs>
    <style>
      .cls-1 {
        fill: #e48945;
      }

      .cls-2 {
        fill: #0d0a06;
      }

      .cls-3 {
        fill: #fdedc6;
      }

      .cls-4 {
        fill: #fdb063;
      }

      .cls-5 {
        fill: #d57b3d;
      }
    </style>
  </defs>
  <g id="Capa_1-2" data-name="Capa 1">
    <g id="arm_upper">
      <path class="cls-2" d="M36.37.03c10.15.75,19.85,6.41,25.18,15.14,5.39,7.98,7.75,17.87,9.71,27.23,3.5,18.83,5.62,37.87,6.37,57.01.2,10.72.22,21.33-5.41,30.87-4.53,8.31-13.19,13.1-22.32,14.56-10.61,1.49-21.58-2.33-29.13-9.87-8.09-7.85-11.71-17.74-14.53-28.41-3.42-14.3-5.18-29.13-5.69-43.81-.77-8.09-.75-16.3.15-24.37.65-10.7,4.81-22.38,12.88-29.73C19.61,3,28.08-.38,36.37.03Z"/>
      <path class="cls-4" d="M44.07,5.65c7.48,2.49,12.83,8.33,16.35,15.19-2.02,4.89-1.49,9.5-.31,14.49,2.1,8.65,1.83,17.38,3.22,26.13,1.84,11.86,2.58,23.95,2.35,35.95-.23,8-1.39,17.38-6.47,23.9-6.87,8.47-20.65,8.87-28.73,1.94-2.97-2.56-5.47-5.74-8.2-8.57-3.14-8.56-6.91-16.51-8.53-25.58-1.64-9.14-2.27-18.49-3.02-27.74-.78-9.74.61-19.03-1.27-28.3-1.37.44-2.73.93-4.09,1.42.78-4.6,1.83-9.05,3.69-13.35,2.1-4.77,5.87-8.89,10.01-11.98,7.19-5.22,16.66-6.63,25-3.5Z"/>
      <path class="cls-3" d="M22.83,13.84c2.26-.76,5.28-.52,6.41,1.91,1.77,4.74-2.07,10.16-6.99,10.6-1.94.14-3.86-.47-4.72-2.35-1.61-4.1,1.28-8.85,5.3-10.16Z"/>
      <path class="cls-5" d="M60.42,20.84c2.62,4.97,4.27,10.55,5.47,16.03,4.29,20.97,7.1,42.13,7.64,63.54.11,9.05-.12,19.29-4.91,27.28-5.61,9.2-16.43,13.89-27.02,12.45-7.44-.88-14.44-5.09-19.51-10.49-6.24-7.05-9.97-16.55-11.79-25.69.94-5.71-.3-11.07-.67-16.75,3.1,7.21,3.57,14.98,6.92,21.98,1.22,2.72,3.48,3.78,5.73,5.49,2.73,2.83,5.23,6.01,8.2,8.57,8.08,6.93,21.86,6.53,28.73-1.94,5.08-6.52,6.24-15.9,6.47-23.9.23-12-.51-24.09-2.35-35.95-1.39-8.75-1.12-17.48-3.22-26.13-1.18-4.99-1.71-9.6.31-14.49Z"/>
      <path class="cls-1" d="M9.46,33.06c1.88,9.27.49,18.56,1.27,28.3.75,9.25,1.38,18.6,3.02,27.74,1.62,9.07,5.39,17.02,8.53,25.58-2.25-1.71-4.51-2.77-5.73-5.49-3.35-7-3.82-14.77-6.92-21.98.37,5.68,1.61,11.04.67,16.75-3.6-14.89-5.29-30.35-5.74-45.65-.59-7.96-.38-15.93.81-23.83,1.36-.49,2.72-.98,4.09-1.42Z"/>
    </g>
  </g>
</svg>