<?xml version="1.0" encoding="UTF-8"?>
<svg id="Capa_2" data-name="Capa 2" xmlns="http://www.w3.org/2000/svg" viewBox="0 0 71.81 143.7">
  <defs>
    <style>
      .cls-1 {
        fill: #e38844;
      }

      .cls-2 {
        fill: #e48a48;
      }

      .cls-3 {
        fill: #0c0906;
      }

      .cls-4 {
        fill: #feebba;
      }

      .cls-5 {
        fill: #fdb062;
      }

      .cls-6 {
        fill: #d47a3d;
      }
    </style>
  </defs>
  <g id="Capa_1-2" data-name="Capa 1">
    <g id="arm_lower">
      <path class="cls-3" d="M30.03,0c7.39.22,14.69,3.1,19.95,8.37,7.59,6.91,10.87,16.91,13.19,26.61,4.52,20.53,7.47,41.3,8.58,62.29.31,10.87-.49,23.88-6.46,33.31-6.9,11.27-21.84,15.9-34.12,11.45-7.3-2.62-13.19-8.65-15.92-15.88-3.78-9.38-4.87-18.87-6.54-28.75-.85-5.93-1.79-11.84-2.49-17.79-1.71-12.97-4.12-25.83-5.8-38.8-1.3-9.77.25-20.67,6.53-28.58C12.19,4.91,21.07.33,30.03,0Z"/>
      <path class="cls-5" d="M32.05,4.08c7.03.73,13.83,4.54,18.18,10.12-.96.52-1.92,1.05-2.86,1.59,1.87,8.65,4.57,17.1,6.57,25.72,1.82,9.6,3,19.3,4.75,28.91,1.38,7.66.97,15.05,1.05,22.88-.01,7.68-.13,15.05-3.61,22.1-3.02,6.04-9.11,11.08-16.1,11.18-7.21.22-13.64-4.17-16.66-10.62-3.48-7.43-4.7-16.06-6.27-24.06-.64-4.86-1.12-9.73-2.06-14.55-1.94-10.08-3.26-20.19-4.66-30.37-.96-6.54-.88-12.63-2.82-18.99-.72,2.16-1.38,4.34-2.03,6.52-.5.03-1,.07-1.5.1-.01-7.39,1.66-15.02,6.51-20.8,5.11-6.36,13.38-10.07,21.51-9.73Z"/>
      <path class="cls-4" d="M19.4,13.65c3.35-.92,6.23,2.09,5.47,5.41-.79,4.11-5.62,9.07-9.97,6.43-4.14-3.86-.15-10.61,4.5-11.84Z"/>
      <path class="cls-2" d="M50.23,14.2c2.1,2.57,3.69,5.73,5.06,8.75-1.66,6.1-1.73,12.3-1.35,18.56-2-8.62-4.7-17.07-6.57-25.72.94-.54,1.9-1.07,2.86-1.59Z"/>
      <path class="cls-6" d="M55.29,22.95c3.47,7.94,4.87,17.13,6.5,25.6,2.08,10.78,3.26,21.64,4.5,32.53,1.16,12.28,2.28,23.8-.44,35.99-1.31,6.82-4.76,13.46-10.56,17.48-5.78,4.07-13.28,4.83-20.09,3.62-5.7-1.14-10.3-4.81-13.52-9.53-4.86-7.35-6.37-17.32-7.57-25.9.37-2.95.75-5.9.97-8.86.67-.66,1.35-1.32,2.02-1.98,1.57,8,2.79,16.63,6.27,24.06,3.02,6.45,9.45,10.84,16.66,10.62,6.99-.1,13.08-5.14,16.1-11.18,3.48-7.05,3.6-14.42,3.61-22.1-.08-7.83.33-15.22-1.05-22.88-1.75-9.61-2.93-19.31-4.75-28.91-.38-6.26-.31-12.46,1.35-18.56Z"/>
      <path class="cls-1" d="M7.56,27.99c1.94,6.36,1.86,12.45,2.82,18.99,1.4,10.18,2.72,20.29,4.66,30.37.94,4.82,1.42,9.69,2.06,14.55-.67.66-1.35,1.32-2.02,1.98-.22,2.96-.6,5.91-.97,8.86-1.54-8.13-2.72-16.3-3.84-24.49-1.18-8.69-2.78-17.31-3.99-25.99-.83-5.8-2.13-11.8-2.25-17.65.5-.03,1-.07,1.5-.1.65-2.18,1.31-4.36,2.03-6.52Z"/>
    </g>
  </g>
</svg>