<?xml version="1.0" encoding="UTF-8"?>
<svg id="Capa_2" data-name="Capa 2" xmlns="http://www.w3.org/2000/svg" viewBox="0 0 146.4 130.31">
  <defs>
    <style>
      .cls-1 {
        fill: #284f06;
      }

      .cls-2 {
        fill: #433b3b;
      }

      .cls-3 {
        fill: #58a212;
      }

      .cls-4 {
        fill: #e2c3ba;
      }

      .cls-5 {
        fill: #2d5807;
      }

      .cls-6 {
        fill: #2a2727;
      }

      .cls-7 {
        fill: #f9faf7;
      }

      .cls-8 {
        fill: #467f0e;
      }

      .cls-9 {
        fill: #64b214;
      }

      .cls-10 {
        fill: #ead1c8;
      }

      .cls-11 {
        fill: #a90d0b;
      }

      .cls-12 {
        fill: #fdfbfb;
      }

      .cls-13 {
        fill: #fc4427;
      }

      .cls-14 {
        fill: #234206;
      }

      .cls-15 {
        fill: #f43d20;
      }

      .cls-16 {
        fill: #d9ccc0;
      }

      .cls-17 {
        fill: #e8cec9;
      }

      .cls-18 {
        fill: #302c2d;
      }

      .cls-19 {
        fill: #b00c06;
      }

      .cls-20 {
        fill: #417c0f;
      }

      .cls-21 {
        fill: #ed2e19;
      }

      .cls-22 {
        fill: #fcf9f8;
      }

      .cls-23 {
        fill: #172b02;
      }

      .cls-24 {
        fill: #fc5433;
      }

      .cls-25 {
        fill: #ab170e;
      }

      .cls-26 {
        fill: #544c4b;
      }

      .cls-27 {
        fill: #5d5655;
      }

      .cls-28 {
        fill: #3c3636;
      }

      .cls-29 {
        fill: #e22816;
      }

      .cls-30 {
        fill: #0e0a06;
      }

      .cls-31 {
        fill: #fdfcfb;
      }
    </style>
  </defs>
  <g id="Capa_1-2" data-name="Capa 1">
    <g id="foot_left">
      <path class="cls-30" d="M91.52.06c9.74-.29,19.37.43,28.44,4.27,4.75,2.15,8.77,5.6,9.78,10.94,1.16,7.44-.31,15.56,1.36,22.91,1.88,2.19,4.04,3.94,5.47,6.51,4.02,6.94,5.98,15.17,5.86,23.17-.31,4.34,2.91,6.78,3.58,11.11,1.21,7.15-.37,15.31-6.14,20.18-4.87,4.05-11.07,6.78-17.32,7.75-3.17.48-6.44-.15-9.59.32-2.62,1.51-4.73,4.04-7.06,5.96-8.96,7.67-19.83,12.37-31.34,14.69-17.49,3.58-36.76,3.55-53.76-2.31-6.14-2.05-11.87-4.88-16.03-10.01C.49,110.47-.93,103.34.58,96.93c.65-2.83,2.85-5.3,2.68-8.14-.08-8.34,3.43-16.13,9.01-22.22,7.31-7.97,17.26-13.09,27.27-16.83,3.08-.97,4.05-3.54,6.3-5.63,3.2-3.15,7.03-4.31,11.16-5.69-.07-4.54.32-9.07.27-13.61.01-3.2-.09-6.58.55-9.72,1.02-4.6,4.58-8.32,8.78-10.24C74.35,1.19,83.03.09,91.52.06Z"/>
      <path class="cls-3" d="M91.52,3.56c10.06-.07,20.79.56,29.82,5.46,2.79,1.44,3.75,3.91,4.45,6.81-4.2,2.94-8.29,5.69-13.41,6.75-2.92.47-5.85.8-8.77,1.23,1.05-1.44,2.08-2.89,3.09-4.37,4.44-.87,8.58-2.42,12.01-5.46l-.88-1.08c-2.25-2.22-4.46-3.27-7.56-3.82-12.02-2.2-25.23-2.42-37.03,1.06-1.71,1.33-3.08,2.86-4.29,4.66-.91,1.32-1.72,2.74-2.53,4.12-1.88-1.43-3.32-3.23-4.73-5.1,1.6-2.44,3.51-4.46,6.23-5.61,7.35-3.21,15.62-4.55,23.6-4.65Z"/>
      <path class="cls-14" d="M110.27,9.08c3.1.55,5.31,1.6,7.56,3.82-7.45,2.44-15.63,2.91-23.43,3.04-6.93-.23-13.23,1.28-20.08-.26-.34-1.85-.7-3.69-1.08-5.54,11.8-3.48,25.01-3.26,37.03-1.06Z"/>
      <path class="cls-23" d="M73.24,10.14c.38,1.85.74,3.69,1.08,5.54,6.85,1.54,13.15.03,20.08.26,7.8-.13,15.98-.6,23.43-3.04l.88,1.08c-3.43,3.04-7.57,4.59-12.01,5.46-11.93,1.07-27.22,2.05-37.75-4.64,1.21-1.8,2.58-3.33,4.29-4.66Z"/>
      <path class="cls-8" d="M61.69,13.82c1.41,1.87,2.85,3.67,4.73,5.1,3.57,2.14,6.88,4.4,11.15,4.65,8.88.52,17.18,1.89,26.04.24,2.92-.43,5.85-.76,8.77-1.23.37,3.24.59,6.49.98,9.72l.08.46c-14.25,2.55-28.56,2.83-42.54-1.35-3.72-1.08-6.83-3.12-9.8-5.54.21-4.02.27-8.04.59-12.05Z"/>
      <path class="cls-9" d="M68.95,14.8c10.53,6.69,25.82,5.71,37.75,4.64-1.01,1.48-2.04,2.93-3.09,4.37-8.86,1.65-17.16.28-26.04-.24-4.27-.25-7.58-2.51-11.15-4.65.81-1.38,1.62-2.8,2.53-4.12Z"/>
      <path class="cls-5" d="M125.79,15.83c.49,3.54.47,7.22.5,10.79-4.2,2.83-7.99,4.5-12.93,5.68-.39-3.23-.61-6.48-.98-9.72,5.12-1.06,9.21-3.81,13.41-6.75Z"/>
      <path class="cls-7" d="M61.1,25.87c2.97,2.42,6.08,4.46,9.8,5.54,13.98,4.18,28.29,3.9,42.54,1.35.48,1.83,1.17,3.56,1.87,5.31-.61.17-1.22.33-1.84.49-8.75,2.15-17.93,2.09-26.91,1.77-9.23-.52-17.43-3.08-25.45-7.63,0-2.28-.09-4.55,0-6.83Z"/>
      <path class="cls-16" d="M126.29,26.62c0,2.1.02,4.2.1,6.29-3.47,2.2-7.12,4.02-11.08,5.16-.7-1.75-1.39-3.48-1.87-5.31l-.08-.46c4.94-1.18,8.73-2.85,12.93-5.68Z"/>
      <path class="cls-20" d="M61.11,32.7c8.02,4.55,16.22,7.11,25.45,7.63,8.98.32,18.16.38,26.91-1.77-.12,3.43.48,8.52-1.83,11.35-2.2,2.53-6.87,4.71-10.21,4.76-3.7-.21-7.41-1.74-10.85-3-8.93-6.72-18.48-11.09-29.63-12.49.04-2.16.1-4.32.16-6.48Z"/>
      <path class="cls-1" d="M126.39,32.91c.13,5.11.9,10.66-.09,15.69-.55,2.5-2.61,4.04-4.66,5.33-6.4,3.67-14.69,5.67-21.96,3.86-3.94-.93-6.24-3.52-9.1-6.12,3.44,1.26,7.15,2.79,10.85,3,3.34-.05,8.01-2.23,10.21-4.76,2.31-2.83,1.71-7.92,1.83-11.35.62-.16,1.23-.32,1.84-.49,3.96-1.14,7.61-2.96,11.08-5.16Z"/>
      <path class="cls-15" d="M80.16,48.17c7.29,3.21,11.44,10.12,18.87,12.09,6.1,1.78,12.54,1.37,18.5-.71.73.88,1.45,1.76,2.18,2.63-7.18,3.44-14.79,2.72-22.22.58-3.82-1.17-6.57-4.59-10-6.75-2.94-1.84-6.08-3.48-9.23-4.92-3.85-1.85-7.92-1.21-12.06-1.17-1.78-1.83-3.29-3.64-5.82-4.41-2.16-.52-4.31-1.04-6.47-1.55,8.15-3.36,18.74.59,26.25,4.21Z"/>
      <path class="cls-22" d="M53.17,44.19l.74-.23c2.16.51,4.31,1.03,6.47,1.55,1.49,1.88,2.76,3.84,3.63,6.08-1.24,1.3-2.45,2.82-3.95,3.82-3.55.54-7.59.39-10.88-1.21-1.69-.68-2.41-2.98-3.35-4.43,2.05-2.96,3.87-4.55,7.34-5.58Z"/>
      <path class="cls-29" d="M131.18,43.43c4.66,5.41,5.82,11.77,7.11,18.57.99,5.7.44,11.41-2.84,16.3-.24-8.61.43-16.57-2.98-24.76-2.07,1.63-4.38,3.28-5.34,5.84-1.98,5.3-2,10.74-5.53,15.51-3.52,4.82-10.28,7.6-15.28,10.71-8.33,5.12-16.72,9.76-26.26,12.22-2.07-6.28-2.94-12.11-8.36-16.54,1.75,5.84,4.12,11.34,4.95,17.43-12.63,4.91-27.14,5.51-40.44,3.46-5.65-.88-11.68-2.45-16.6-5.45-4.07-2.41-6.19-7.17-8.6-11.07-.61,3.21-1.13,6.44-1.67,9.66-2.28-4.49-2.42-8.92-1.35-13.77.6,1.13,1.2,2.27,1.8,3.4,1.86-4.06,3.9-7.98,6.58-11.56.27,1.38.53,2.77.77,4.16-1.49,1.39-2.88,2.83-4.14,4.44,5.61,3.07,10.8,6.41,16.93,8.44,7.33,2.36,13.58,5.77,21.5,3.57,4.85-1.52,10.78-3.13,13.71-7.52,2.74-3.63,6.43-6.26,9.21-9.84,2.2-2.81,4.44-5.06,7.32-7.17.19-.86.38-1.72.56-2.58.67-3.65,1.79-6.75-.29-10.2-2.75-2.41-6.02-4.94-9.68-5.65-3.15-.6-5.39,1.41-7.93,2.88-.09-.78-.2-1.55-.32-2.32-.87-2.24-2.14-4.2-3.63-6.08,2.53.77,4.04,2.58,5.82,4.41,4.14-.04,8.21-.68,12.06,1.17,3.15,1.44,6.29,3.08,9.23,4.92,3.43,2.16,6.18,5.58,10,6.75,7.43,2.14,15.04,2.86,22.22-.58-.73-.87-1.45-1.75-2.18-2.63,3.77-1.47,7.58-3.37,10.12-6.63,2.07-2.61,2.63-6.34,3.53-9.49Z"/>
      <path class="cls-11" d="M45.83,49.77c.94,1.45,1.66,3.75,3.35,4.43,3.29,1.6,7.33,1.75,10.88,1.21,1.5-1,2.71-2.52,3.95-3.82.12.77.23,1.54.32,2.32-.05,1.65-.15,3.29-.24,4.94,3.54,4.01,8.58,7.31,14.15,5.89,2.53-.68,3.34-2.35,3.99-4.7-.09-1.12-.19-2.24-.29-3.36,2.08,3.45.96,6.55.29,10.2-4.47.5-8.51,1.1-12.68-1.06-3.73-1.73-5.39-4.83-7.46-8.15-3.8.16-8.16.54-11.82-.55-2.53-.67-4.3-3.41-6.08-5.19.54-.73,1.09-1.45,1.64-2.16Z"/>
      <path class="cls-12" d="M72.26,51.03c3.66.71,6.93,3.24,9.68,5.65.1,1.12.2,2.24.29,3.36-2.09.97-4.38,2.44-6.71,2.66-3.91-.48-7.68-2.64-11.43-3.85.09-1.65.19-3.29.24-4.94,2.54-1.47,4.78-3.48,7.93-2.88Z"/>
      <path class="cls-21" d="M44.19,51.93c1.78,1.78,3.55,4.52,6.08,5.19,3.66,1.09,8.02.71,11.82.55,2.07,3.32,3.73,6.42,7.46,8.15,4.17,2.16,8.21,1.56,12.68,1.06-.18.86-.37,1.72-.56,2.58-2.88,2.11-5.12,4.36-7.32,7.17-2.78,3.58-6.47,6.21-9.21,9.84-2.93,4.39-8.86,6-13.71,7.52-7.92,2.2-14.17-1.21-21.5-3.57-6.13-2.03-11.32-5.37-16.93-8.44,1.26-1.61,2.65-3.05,4.14-4.44-.24-1.39-.5-2.78-.77-4.16-2.68,3.58-4.72,7.5-6.58,11.56-.6-1.13-1.2-2.27-1.8-3.4,1.81-6.54,5.64-12.11,10.83-16.43,7.36-5.99,16.46-10.08,25.37-13.18Z"/>
      <path class="cls-25" d="M132.47,53.54c3.41,8.19,2.74,16.15,2.98,24.76-8.31,8.28-20.82,8.89-30.38,15.06-6.37,3.98-12.96,7.47-20.09,9.89-15.56,5.05-31.98,7-48.21,4.39-10.22-1.5-20.36-4.28-27.43-12.33.54-3.22,1.06-6.45,1.67-9.66,2.41,3.9,4.53,8.66,8.6,11.07,4.92,3,10.95,4.57,16.6,5.45,13.3,2.05,27.81,1.45,40.44-3.46-.83-6.09-3.2-11.59-4.95-17.43,5.42,4.43,6.29,10.26,8.36,16.54,9.54-2.46,17.93-7.1,26.26-12.22,5-3.11,11.76-5.89,15.28-10.71,3.53-4.77,3.55-10.21,5.53-15.51.96-2.56,3.27-4.21,5.34-5.84Z"/>
      <path class="cls-31" d="M40.51,57.34c3.44,0,6.33,1.5,8.82,3.76.31,1.35.61,2.71.9,4.07-5.79,1.79-11.38,1.13-17.3.75-.47-1.7-.78-3.44-1.08-5.19,2.77-1.68,5.24-3.59,8.66-3.39Z"/>
      <path class="cls-10" d="M64.09,58.85c3.75,1.21,7.52,3.37,11.43,3.85,2.33-.22,4.62-1.69,6.71-2.66-.65,2.35-1.46,4.02-3.99,4.7-5.57,1.42-10.61-1.88-14.15-5.89Z"/>
      <path class="cls-19" d="M31.85,60.73c.3,1.75.61,3.49,1.08,5.19,3.96,2.27,8.67,3.68,13.21,2.56,1.62-.44,2.91-2.18,4.09-3.31-.29-1.36-.59-2.72-.9-4.07,1.09,1.04,2.13,2.13,3.17,3.23-2.13,2.87-4.58,4.83-2.12,8.51,3.86,4.3,8.91,6.37,14.63,4.57,2.3-2.08,2.42-4.39,2.73-7.28,1.13,1.99,2.32,3.78,1.32,6.13-1.3,3.51-6.09,3.98-9.2,4.95-2.18-1.01-4.53-1.93-6.51-3.3-2.43-1.76-3.99-4.59-6.32-6.4-2.75-.66-5.81-.29-8.62-.45-2.61-1.31-5.12-2.79-7.73-4.07.18-2.15.37-4.24,1.17-6.26Z"/>
      <path class="cls-12" d="M59.74,64.6c2.98,1.16,5.61,3.46,8,5.53-.31,2.89-.43,5.2-2.73,7.28-4.85-1.59-9.77-3-14.63-4.57-2.46-3.68-.01-5.64,2.12-8.51,2.29-.12,5.07-.61,7.24.27Z"/>
      <path class="cls-4" d="M50.23,65.17c-1.18,1.13-2.47,2.87-4.09,3.31-4.54,1.12-9.25-.29-13.21-2.56,5.92.38,11.51,1.04,17.3-.75Z"/>
      <path class="cls-24" d="M30.68,66.99c2.61,1.28,5.12,2.76,7.73,4.07,3.7,2.17,7.9,3.93,11.19,6.7,2.94,2.38.98,6.33.4,9.34-9.4,1.84-20.35,1.39-28.36-4.41-4.22-2.93-4.61-9.25-1.01-12.8,2.52-2.35,6.75-2.77,10.05-2.9Z"/>
      <path class="cls-13" d="M38.41,71.06c2.81.16,5.87-.21,8.62.45,2.33,1.81,3.89,4.64,6.32,6.4,1.98,1.37,4.33,2.29,6.51,3.3.16.65.32,1.3.48,1.94-3.32,1.65-6.71,3.1-10.34,3.95.58-3.01,2.54-6.96-.4-9.34-3.29-2.77-7.49-4.53-11.19-6.7Z"/>
      <path class="cls-17" d="M50.38,72.84c4.86,1.57,9.78,2.98,14.63,4.57-5.72,1.8-10.77-.27-14.63-4.57Z"/>
      <path class="cls-26" d="M141.03,75.66c1.42,4.27,1.64,8.02.86,12.46-.9-1.5-1.8-3-2.73-4.48-1.13,2.22-2.14,4.5-3.14,6.78-.93-.89-1.86-1.77-2.78-2.66-6.09,2.72-12.33,4.91-18.56,7.25-10.62,5.01-21.63,13.31-33.24,16.02-.98.24-1.97.46-2.96.66-1.99.37-3.98.68-5.98.99.95-1,1.9-2,2.83-3.01l-2-.07c7.48-2.11,15.2-4.37,22.2-7.77,6.28-3.02,11.71-7.09,18.15-9.83,6.26-2.77,13.33-4.22,18.99-8.05,3.43-2.29,5.61-5.3,8.36-8.29Z"/>
      <path class="cls-28" d="M139.16,83.64c.93,1.48,1.83,2.98,2.73,4.48-2.53,6.01-6.85,9.58-12.83,11.92-.36-.93-.72-1.86-1.09-2.78-3.46-.11-7.31-.51-10.69.29-2.13.44-3.8,2.41-5.36,3.81-.47.46-.96.91-1.44,1.35-2.92.48-6.58.21-9.21,1.61-1.7,2.26-2.75,5.54-4.97,7.28-3.97,3.08-8.93,4.8-13.66,6.28-.41-2.28-.81-4.56-1.2-6.85,11.61-2.71,22.62-11.01,33.24-16.02,6.23-2.34,12.47-4.53,18.56-7.25.92.89,1.85,1.77,2.78,2.66,1-2.28,2.01-4.56,3.14-6.78Z"/>
      <path class="cls-27" d="M5.18,94.65c2.73,2.95,4.87,5.94,8.29,8.19,4.25,2.78,9.22,4.59,14.09,5.92,15.12,3.82,30.49,3.52,45.77.84l2,.07c-.93,1.01-1.88,2.01-2.83,3.01-5.68.83-11.17,1.84-16.93,2.02-3.3.17-6.7.03-9.96.57-2.87.61-5.39,2.98-8.12,4.1-3.37-1.01-5.22-5.58-8.63-6.83-4.03-1.5-8.43-1.89-12.46-3.61-3.86-1.61-7.14-4.48-10.66-6.77-.43,1.25-.83,2.52-1.19,3.79-.88-4.12-.77-7.33.63-11.3Z"/>
      <path class="cls-6" d="M127.97,97.26c.37.92.73,1.85,1.09,2.78-5.66,2.31-11.17,2.47-17.14,1.32,1.56-1.4,3.23-3.37,5.36-3.81,3.38-.8,7.23-.4,10.69-.29Z"/>
      <path class="cls-2" d="M5.74,102.16c3.52,2.29,6.8,5.16,10.66,6.77,4.03,1.72,8.43,2.11,12.46,3.61,3.41,1.25,5.26,5.82,8.63,6.83,2.73-1.12,5.25-3.49,8.12-4.1,3.26-.54,6.66-.4,9.96-.57,5.76-.18,11.25-1.19,16.93-2.02,2-.31,3.99-.62,5.98-.99-.3,2.37-.62,4.74-.94,7.11-15.51,4.86-31.87,4.96-47.71,1.66-7.98-2.07-15.46-4.93-21.19-11.11-.47.94-.95,1.87-1.44,2.8-1.14-1.94-2.19-3.98-2.65-6.2.36-1.27.76-2.54,1.19-3.79Z"/>
      <path class="cls-18" d="M110.48,102.71c-5.07,4.84-9.65,9.8-15.94,13.11-8.34,4.34-17.68,7.01-27,8.15-14.84,2.11-30.85,1.72-45.18-2.97-5.73-1.96-11.05-4.22-15.16-8.85.49-.93.97-1.86,1.44-2.8,5.73,6.18,13.21,9.04,21.19,11.11,15.84,3.3,32.2,3.2,47.71-1.66.32-2.37.64-4.74.94-7.11.99-.2,1.98-.42,2.96-.66.39,2.29.79,4.57,1.2,6.85,4.73-1.48,9.69-3.2,13.66-6.28,2.22-1.74,3.27-5.02,4.97-7.28,2.63-1.4,6.29-1.13,9.21-1.61Z"/>
    </g>
  </g>
</svg>