<?xml version="1.0" encoding="UTF-8"?>
<svg id="Capa_2" data-name="Capa 2" xmlns="http://www.w3.org/2000/svg" viewBox="0 0 144.85 130.17">
  <defs>
    <style>
      .cls-1 {
        fill: #db7801;
      }

      .cls-2 {
        fill: #fcab03;
      }

      .cls-3 {
        fill: #fefbf7;
      }

      .cls-4 {
        fill: #ef9201;
      }

      .cls-5 {
        fill: #f5f0e9;
      }

      .cls-6 {
        fill: #fdfafa;
      }

      .cls-7 {
        fill: #ea2b15;
      }

      .cls-8 {
        fill: #443d3c;
      }

      .cls-9 {
        fill: #8e4502;
      }

      .cls-10 {
        fill: #302b2c;
      }

      .cls-11 {
        fill: #950906;
      }

      .cls-12 {
        fill: #332e2e;
      }

      .cls-13 {
        fill: #ae160d;
      }

      .cls-14 {
        fill: #be6601;
      }

      .cls-15 {
        fill: #f39801;
      }

      .cls-16 {
        fill: #fc4c2d;
      }

      .cls-17 {
        fill: #fdfbfb;
      }

      .cls-18 {
        fill: #100a05;
      }

      .cls-19 {
        fill: #f1e2dd;
      }

      .cls-20 {
        fill: #ab140f;
      }

      .cls-21 {
        fill: #fbfaf9;
      }

      .cls-22 {
        fill: #f9a402;
      }

      .cls-23 {
        fill: #e3ccbe;
      }

      .cls-24 {
        fill: #cd7502;
      }

      .cls-25 {
        fill: #f6a601;
      }

      .cls-26 {
        fill: #c11c10;
      }

      .cls-27 {
        fill: #e1c5be;
      }

      .cls-28 {
        fill: #fbd51b;
      }

      .cls-29 {
        fill: #df2614;
      }

      .cls-30 {
        fill: #da7e01;
      }

      .cls-31 {
        fill: #5d5655;
      }

      .cls-32 {
        fill: #fe6035;
      }
    </style>
  </defs>
  <g id="Capa_1-2" data-name="Capa 1">
    <g id="foot_right">
      <path class="cls-18" d="M67.47.98c4.91.91,10.12,2.04,14.56,4.38,3.93,2.34,7.54,5.79,8,10.6.6,7.48.21,15.05.57,22.54,2.18,2.1,6.35,2.46,8.99,4.28,4.25,2.15,5.26,6.63,9.92,8.04,7.89,2.91,15.17,6.95,21.35,12.7,5.88,5.49,10.37,13.2,11.03,21.31.4,3.09-.25,5.74,1.1,8.62,3.01,6.35,2.23,13.93-1.3,19.89-3.52,5.65-8.95,8.69-14.95,11.16-13.6,5.5-29.42,6.48-43.9,5.14-15.05-1.61-31.92-6.36-43.31-16.8-2.28-1.93-4.42-4.5-7.06-5.9-4.45-.31-8.75.25-13.12-1.06-6.51-1.81-13.82-5.5-17.21-11.62-2.61-4.39-2.26-9.74-1.86-14.64.36-3.63,2.45-5.98,3.72-9.2.48-4.28.14-8.47,1.32-12.68,2.35-8.29,5.54-16.09,13.3-20.68.77-7.32.45-15.38,2.29-22.5,1.44-5.56,6.82-9.1,11.92-10.95C43.82-.22,56.02-.83,67.47.98Z"/>
      <path class="cls-28" d="M81.32,9.05c3.14,1.66,4.29,3.82,4.75,7.27-1.4.88-2.79,1.77-4.22,2.61-2.32,1.33-4.71,2.54-7.23,3.48-12.08,2.83-25.81,3.83-37.78.04-3.23-1.22-6.32-2.66-9.65-3.64-1.38,2.41-2.57,4.92-3.61,7.5l-.24.64c.44-4.65.13-11.09,2.96-15,4.83-5.03,13.49-6.78,20.16-7.66,11.73-.98,24.19-.81,34.86,4.76Z"/>
      <path class="cls-14" d="M60.79,7.93c6.69.57,12.9.61,18.13,5.41-3.52,1.87-6.99,3.28-11.04,3.44-6.32.28-13,2.15-19.05.85-5.71-1.17-11.18-2.03-16.24-5.12,8.62-5.09,18.51-5.1,28.2-4.58Z"/>
      <path class="cls-9" d="M32.59,12.51c5.06,3.09,10.53,3.95,16.24,5.12,6.05,1.3,12.73-.57,19.05-.85,4.05-.16,7.52-1.57,11.04-3.44-1.49,2.5-2.95,3.56-5.72,4.5-8.27,2.72-17.35,3.31-25.96,2.25-5.71-.69-11.06-1.58-15.52-5.52.29-.69.58-1.38.87-2.06Z"/>
      <path class="cls-15" d="M86.07,16.32c.24,3.63.3,7.27.4,10.9-.85.54-1.7,1.08-2.55,1.62-.64-3.31-1.31-6.62-2.07-9.91,1.43-.84,2.82-1.73,4.22-2.61Z"/>
      <path class="cls-4" d="M27.19,18.81c3.33.98,6.42,2.42,9.65,3.64-.72,3.39-1.13,6.75-1.59,10.18-4.59-1.27-8.07-3.22-11.67-6.32,1.04-2.58,2.23-5.09,3.61-7.5Z"/>
      <path class="cls-1" d="M81.85,18.93c.76,3.29,1.43,6.6,2.07,9.91l-1.52.88c-2.5,1.02-5.03,1.98-7.6,2.81-.1-3.38-.15-6.75-.18-10.12,2.52-.94,4.91-2.15,7.23-3.48Z"/>
      <path class="cls-2" d="M36.84,22.45c11.97,3.79,25.7,2.79,37.78-.04.03,3.37.08,6.74.18,10.12-.62.19-1.24.36-1.87.53-11.71,3.05-24.62,3.02-36.32-.06l-1.36-.37c.46-3.43.87-6.79,1.59-10.18Z"/>
      <path class="cls-19" d="M23.34,26.95l.24-.64c3.6,3.1,7.08,5.05,11.67,6.32l1.36.37c-.61,1.86-1,3.77-1.34,5.69l-.65-.19c-2.37-.75-4.66-1.67-6.93-2.67-1.58-.79-3.11-1.67-4.65-2.53.14-2.12.17-4.24.3-6.35Z"/>
      <path class="cls-5" d="M86.47,27.22c.05,2.14.08,4.29.13,6.43-.73.45-1.46.88-2.2,1.31-.66-1.74-1.31-3.5-2-5.24l1.52-.88c.85-.54,1.7-1.08,2.55-1.62Z"/>
      <path class="cls-23" d="M82.4,29.72c.69,1.74,1.34,3.5,2,5.24-2.83,1.56-5.94,2.71-9.04,3.59-.57-1.97-1.13-3.85-2.43-5.49.63-.17,1.25-.34,1.87-.53,2.57-.83,5.1-1.79,7.6-2.81Z"/>
      <path class="cls-25" d="M23.04,33.3c1.54.86,3.07,1.74,4.65,2.53-2.4,5.23-1.28,10.41-5,15.09-.95-5.71-.06-11.86.35-17.62Z"/>
      <path class="cls-3" d="M36.61,33c11.7,3.08,24.61,3.11,36.32.06,1.3,1.64,1.86,3.52,2.43,5.49-1.08.28-2.17.54-3.27.79-11.91,2.67-25.03,2.64-36.82-.65.34-1.92.73-3.83,1.34-5.69Z"/>
      <path class="cls-24" d="M86.6,33.65c.07,2.24.11,4.48.13,6.72-3.67.67-7.5,1.28-11.08,2.31-1.18-1.13-2.36-2.24-3.56-3.34,1.1-.25,2.19-.51,3.27-.79,3.1-.88,6.21-2.03,9.04-3.59.74-.43,1.47-.86,2.2-1.31Z"/>
      <path class="cls-30" d="M27.69,35.83c2.27,1,4.56,1.92,6.93,2.67.31,4-.25,9.02,1.59,12.66,3.04,4.16,9.95,5.63,14.4,2.97,3.47-1.79,6.76-3.1,10.59-3.88-3.18,2.99-5.77,6.13-10.08,7.5-5.71,1.78-12.31,1.12-18-.44-4.05-1.09-7.55-3.36-10.43-6.39,3.72-4.68,2.6-9.86,5-15.09Z"/>
      <path class="cls-22" d="M34.62,38.5l.65.19c11.79,3.29,24.91,3.32,36.82.65,1.2,1.1,2.38,2.21,3.56,3.34-5.17,1.85-9.91,4.52-14.45,7.57-3.83.78-7.12,2.09-10.59,3.88-4.45,2.66-11.36,1.19-14.4-2.97-1.84-3.64-1.28-8.66-1.59-12.66Z"/>
      <path class="cls-7" d="M18.34,41.95c.04,2.79-.5,6.02.36,8.71,1.26,3.04,4.28,5.36,7.07,6.94,7.82,4.44,17.63,5.68,26.25,3.02,4.76-1.49,7.22-5.02,11.07-7.87,6.71-5.14,14.59-7.89,22.88-9.2,3.67-.63,6.15-.18,9.41,1.53-2.42.76-5.24,1.22-7.4,2.58-1.85,1.2-2.62,3.62-3.39,5.58l-.26,1.37c-2.06-.86-4.32-2.01-6.55-2.25-4.4.06-7.89,2.92-11.03,5.68l-.81.74c-.68,2.99-1.21,6.01,1.31,8.32,3.75,3.41,8.98,1.89,12.9-.34,3.3-1.81,4.96-4.69,6.89-7.77,3.22.17,6.89.58,10.01-.28,3.47-1,6.2-3.47,8.96-5.66,7.86,3.31,16.12,7.01,22.38,12.95,4.18,4.02,7.59,9.31,8.88,15.01.9,5.69,1.06,11.29-3.03,15.83,1.28-4.85,1.94-9.72.85-14.68-1.14-2.89-2.63-5.65-4.34-8.24-1.3,1.85-2.47,3.7-3.82,5.46-.04-1.93-.08-3.85-.13-5.78-3.04-1.73-6.1-3.5-9.39-4.73-.09-2.65.26-4.96-1.58-7.13-4.34-3.99-12.72-4.59-16.53.33-1.65,1.75-.48,4.23-.26,6.3l-.64-.28c-2.83-1.27-5.08-2.85-8.36-2.32-4.09.54-6.78,2.96-9.69,5.63-1.57,2.43-1.4,4.79-1,7.54-1.13.21-2.25.47-3.38.73.34,1.31.67,2.63,1.01,3.94,1.34-1.24,2.67-2.5,3.98-3.77,3.06,1.73,6.4,2.04,9.86,1.9-1.61.75-3.22,1.49-4.83,2.24,4.7,2.42,9.5,4.35,14.84,4.7,7.42.66,14.41-1.38,21.07-4.47.24,2.53.39,5.05.44,7.6-3.79-.65-7.38-1.08-11.09.27-7.08,2.52-14.96,3.23-22.43,3.46-4.06.11-6.88-3.28-10.77-3.51-2.57-.22-5.12-.42-7.64-1.06,1.03-2.95,2.23-5.84,3.24-8.79-4.1,4.44-6.21,9.79-8.35,15.34-3.64-.61-7.18-1.3-10.53-2.94-6.77-3.13-11.92-8.24-18.79-11.16-4.13-1.74-8.12-3.78-12.2-5.64-1.67-4.27-3.66-8.08-4.06-12.72-.31-2.47-.16-5.22-.97-7.59-.91-1.62-2.48-2.94-3.82-4.2-1.28,3.19-2.3,6.47-2.89,9.87-.78,4.97-.57,9.8-.94,14.8-3.67-5.28-3.42-11.35-2.42-17.42,1.52-7.2,3.58-13.91,9.66-18.57Z"/>
      <path class="cls-21" d="M95.38,45.08c3.88,1.67,5.34,2.71,7.19,6.63-1.12,1.27-2.12,3.06-3.62,3.89-2.76,1.2-6.08,1.66-9.05,1.22-1.99-.48-3.75-2.3-5.31-3.58.77-1.96,1.54-4.38,3.39-5.58,2.16-1.36,4.98-1.82,7.4-2.58Z"/>
      <path class="cls-11" d="M102.57,51.71c1.17.4,2.31.86,3.44,1.34-2.76,2.19-5.49,4.66-8.96,5.66-3.12.86-6.79.45-10.01.28-1.93,3.08-3.59,5.96-6.89,7.77-3.92,2.23-9.15,3.75-12.9.34-2.52-2.31-1.99-5.33-1.31-8.32l.81-.74c-.08,1.24-.16,2.49-.22,3.73.72,1.99,1.62,3.69,3.72,4.47,3.97,1.62,7.77-.46,10.96-2.73,1.24-.93,2.34-2.16,2.98-3.58.34-1.71.12-3.57.14-5.32l.26-1.37c1.56,1.28,3.32,3.1,5.31,3.58,2.97.44,6.29-.02,9.05-1.22,1.5-.83,2.5-2.62,3.62-3.89Z"/>
      <path class="cls-17" d="M77.78,52.36c2.23.24,4.49,1.39,6.55,2.25-.02,1.75.2,3.61-.14,5.32-.64,1.42-1.74,2.65-2.98,3.58-2.44.42-4.94.73-7.42.7-2.6.03-4.94-1.41-7.26-2.44.06-1.24.14-2.49.22-3.73,3.14-2.76,6.63-5.62,11.03-5.68Z"/>
      <path class="cls-26" d="M14.93,53.27c1.34,1.26,2.91,2.58,3.82,4.2.81,2.37.66,5.12.97,7.59.4,4.64,2.39,8.45,4.06,12.72-2.84-1.35-7.38-2.26-9.17-5-.61-2.44-.3-5.16-.45-7.66-.69-.67-1.4-1.33-2.12-1.98.59-3.4,1.61-6.68,2.89-9.87Z"/>
      <path class="cls-6" d="M115.83,61.74c-.37,1.9.04,4.85-1.76,6.02-4.36,3.11-10.35,3-15.03.61-.22-2.07-1.39-4.55.26-6.3,3.81-4.92,12.19-4.32,16.53-.33Z"/>
      <path class="cls-27" d="M66.53,61.77c2.32,1.03,4.66,2.47,7.26,2.44,2.48.03,4.98-.28,7.42-.7-3.19,2.27-6.99,4.35-10.96,2.73-2.1-.78-3-2.48-3.72-4.47Z"/>
      <path class="cls-20" d="M115.83,61.74c1.84,2.17,1.49,4.48,1.58,7.13-3.67,1.68-6.77,3.72-10.95,3.92-2.11.38-5.05-.09-6.48,1.73-2.75,2.93-5.32,5.7-9.16,7.22-3.46.14-6.8-.17-9.86-1.9l-1.61-.9c-.4-2.75-.57-5.11,1-7.54.41,2.55-.07,5.66,2.65,7.01,5.2,2.49,12.11-.36,15.12-5.03.4-1.7.26-3.56.28-5.29l.64.28c4.68,2.39,10.67,2.5,15.03-.61,1.8-1.17,1.39-4.12,1.76-6.02Z"/>
      <path class="cls-13" d="M12.04,63.14c.72.65,1.43,1.31,2.12,1.98.15,2.5-.16,5.22.45,7.66,1.79,2.74,6.33,3.65,9.17,5,4.08,1.86,8.07,3.9,12.2,5.64,6.87,2.92,12.02,8.03,18.79,11.16,3.35,1.64,6.89,2.33,10.53,2.94,2.14-5.55,4.25-10.9,8.35-15.34-1.01,2.95-2.21,5.84-3.24,8.79-.76,2.66-1.1,5.31-1.47,8.04,14.72,4.67,30.08,5.02,45.1,1.61,4.5-1.16,9.31-3.01,12.85-6.1,3.31-2.91,4.71-8.17,6.21-12.19.66-.06,1.33-.12,1.99-.17,1.09,4.96.43,9.83-.85,14.68-3.13,3.73-8.08,5.92-12.59,7.47-20.73,7.05-44.7,5.14-64.99-2.58-9.22-3.43-16.67-9.69-25.82-13.17-7.21-2.87-14.12-4.92-19.74-10.62.37-5,.16-9.83.94-14.8Z"/>
      <path class="cls-17" d="M90.04,65.77c3.28-.53,5.53,1.05,8.36,2.32-.02,1.73.12,3.59-.28,5.29-3.01,4.67-9.92,7.52-15.12,5.03-2.72-1.35-2.24-4.46-2.65-7.01,2.91-2.67,5.6-5.09,9.69-5.63Z"/>
      <path class="cls-16" d="M117.41,68.87c3.29,1.23,6.35,3,9.39,4.73.05,1.93.09,3.85.13,5.78-1.55,1.73-3.23,3.36-5.03,4.83-6.66,3.09-13.65,5.13-21.07,4.47-5.34-.35-10.14-2.28-14.84-4.7,1.61-.75,3.22-1.49,4.83-2.24,3.84-1.52,6.41-4.29,9.16-7.22,1.43-1.82,4.37-1.35,6.48-1.73,4.18-.2,7.28-2.24,10.95-3.92Z"/>
      <path class="cls-29" d="M130.75,73.92c1.71,2.59,3.2,5.35,4.34,8.24-.66.05-1.33.11-1.99.17-1.5,4.02-2.9,9.28-6.21,12.19-3.54,3.09-8.35,4.94-12.85,6.1-15.02,3.41-30.38,3.06-45.1-1.61.37-2.73.71-5.38,1.47-8.04,2.52.64,5.07.84,7.64,1.06,3.89.23,6.71,3.62,10.77,3.51,7.47-.23,15.35-.94,22.43-3.46,3.71-1.35,7.3-.92,11.09-.27-.05-2.55-.2-5.07-.44-7.6,1.8-1.47,3.48-3.1,5.03-4.83,1.35-1.76,2.52-3.61,3.82-5.46Z"/>
      <path class="cls-31" d="M5.62,75.52c2.86,3.03,5.09,6.25,8.66,8.58,7.45,5.1,15.73,6.02,23.43,10.56,5.76,3.41,11.11,7.16,17.4,9.62,13.49,5.36,28.32,7.59,42.79,7.12,10.66-.32,22.04-2.32,31.58-7.27,4.24-2.13,7.29-5.39,10.55-8.75.33,2.25.65,4.49.79,6.76-3.43,1.42-6.55,3.32-9.7,5.26-10.46,4.23-21.91,7.47-33.26,7.43-6.47.06-13.01-.03-19.44-.81-7.66-.88-15.41-4-22.72-6.54-8.07-2.87-14.66-7.65-21.88-12.04-4.4-2.7-9.14-3.61-13.99-5.11-4.75-1.44-8.56-4.08-12.89-6.35-.78,1.92-1.47,3.87-2.18,5.81-1.56-4.91-1.58-9.65.86-14.27Z"/>
      <path class="cls-32" d="M79.35,78.94l1.61.9c-1.31,1.27-2.64,2.53-3.98,3.77-.34-1.31-.67-2.63-1.01-3.94,1.13-.26,2.25-.52,3.38-.73Z"/>
      <path class="cls-8" d="M6.94,83.98c4.33,2.27,8.14,4.91,12.89,6.35,4.85,1.5,9.59,2.41,13.99,5.11,7.22,4.39,13.81,9.17,21.88,12.04,7.31,2.54,15.06,5.66,22.72,6.54,6.43.78,12.97.87,19.44.81,11.35.04,22.8-3.2,33.26-7.43-.65,3.06-.52,6.06-3.43,7.93-4.53,3-10.78,3.87-16.02,4.98-14.68,2.61-30.43,3.86-44.54-1.95-.56-2.31-1.14-4.62-1.72-6.92-.61,2.19-1.21,4.39-1.81,6.59-3.97-1.67-7.76-3.07-12.17-2.56-3.97-1.99-7.34-4.31-10.48-7.48.04-2.03,1.04-4.28-.78-5.79-4.03-3.68-9.63-5.5-15.07-5.18-2.53-.07-5.86.54-8.15-.67-3.42-2.37-5.95-6.11-8.93-9.02-.62,1.82-1.18,3.64-1.75,5.47-.55-.99-1.05-1.99-1.51-3.01.71-1.94,1.4-3.89,2.18-5.81Z"/>
      <path class="cls-12" d="M8.02,87.33c2.98,2.91,5.51,6.65,8.93,9.02,2.29,1.21,5.62.6,8.15.67,5.44-.32,11.04,1.5,15.07,5.18,1.82,1.51.82,3.76.78,5.79-2.3-2.06-4.79-4.63-7.69-5.8-3.93-.9-8.16.1-12.15-.82-5.67-1.33-11.09-3.99-14.84-8.57.57-1.83,1.13-3.65,1.75-5.47Z"/>
      <path class="cls-10" d="M140.82,102.14c-.29,3.88-1.17,7.54-3.82,10.51-3.36,3.76-8.48,6.2-13.16,7.89-13.33,4.46-28.02,5.23-41.94,3.99-10.28-1.48-21.46-3.68-30.47-9.06,4.41-.51,8.2.89,12.17,2.56.6-2.2,1.2-4.4,1.81-6.59.58,2.3,1.16,4.61,1.72,6.92,14.11,5.81,29.86,4.56,44.54,1.95,5.24-1.11,11.49-1.98,16.02-4.98,2.91-1.87,2.78-4.87,3.43-7.93,3.15-1.94,6.27-3.84,9.7-5.26Z"/>
    </g>
  </g>
</svg>