<?xml version="1.0" encoding="UTF-8"?>
<svg id="Capa_2" data-name="Capa 2" xmlns="http://www.w3.org/2000/svg" viewBox="0 0 101.86 121.71">
  <defs>
    <style>
      .cls-1 {
        fill: #cebbb8;
      }

      .cls-2 {
        fill: #ad1a03;
      }

      .cls-3 {
        fill: #b71b03;
      }

      .cls-4 {
        fill: #d42b03;
      }

      .cls-5 {
        fill: #f95c07;
      }

      .cls-6 {
        fill: #fcac5f;
      }

      .cls-7 {
        fill: #e23104;
      }

      .cls-8 {
        fill: #fee8b8;
      }

      .cls-9 {
        fill: #ede6e3;
      }

      .cls-10 {
        fill: #f33b03;
      }

      .cls-11 {
        fill: #0d0905;
      }

      .cls-12 {
        fill: #da7a39;
      }

      .cls-13 {
        fill: #e2803a;
      }

      .cls-14 {
        fill: #d2783b;
      }

      .cls-15 {
        fill: #dc8144;
      }

      .cls-16 {
        fill: #c06835;
      }

      .cls-17 {
        fill: #face80;
      }

      .cls-18 {
        fill: #f84908;
      }

      .cls-19 {
        fill: #f19651;
      }

      .cls-20 {
        fill: #eb3306;
      }

      .cls-21 {
        fill: #fdb063;
      }

      .cls-22 {
        fill: #fdf9f8;
      }

      .cls-23 {
        fill: #eb934d;
      }
    </style>
  </defs>
  <g id="Capa_1-2" data-name="Capa 1">
    <g id="hand_left">
      <path class="cls-11" d="M82.4,5.52c9.41,5.03,15.34,14.63,15.84,25.27.38,5.31-1.3,10.01-3.42,14.77,2.75,2.14,5.27,4.05,6.11,7.64,1.72,7.11.84,15.07-1.02,22.08-.59,2.07.7,4.5,1,6.57,1.79,8.5-.28,18-6.31,24.41-2.52,2.53-5.54,3.05-8.64,4.49-1.72,1.83-2.87,4.29-4.82,6.03-3.83,3.35-8.99,4.72-14,4.06-2.94-.28-5.3-1.36-8.21-.42-3.53,1.01-7.06,1.64-10.74,1.07-2.79-.29-5.19-1.66-7.86-2.25-2.41-.02-4.79.41-7.2.36-5.21,0-10.37-2.03-14.05-5.75-3.1-3.27-7.45-4.17-10.53-7.47-6.18-6.24-8.27-15.06-7.7-23.63.13-3.3,1.4-6.44,1.67-9.68C1.5,70.2-.1,68,0,64.79c.17-6.25,1.88-12.76,4.93-18.23,1.49-2.71,4.07-3.94,5.98-6.16.67-2.16.86-4.46,1.41-6.66,3.02-11.81,11.13-22.11,21.77-28,14.76-7.32,33.58-7.91,48.31-.22Z"/>
      <path class="cls-17" d="M69.42,5.01c-4.4.61-8.76.9-13.21,1.02-5.51.13-9.93,2.39-15.03,4.24l1.07.92c-3.76,1.39-7.2,3.32-10.74,5.16-2.04,1.11-4.28,2.11-5.75,3.97-2,2.36-3.1,4.86-6.25,5.9,3.44-6.5,8.56-12.39,15-16.05,10.2-6.22,23.38-7.44,34.91-5.16Z"/>
      <path class="cls-21" d="M69.42,5.01c6.73,1.16,12.96,4.47,17.82,9.23-3.38,6.05,1.73,10.85-.53,17.07-1.68,4.83-6.49,8.72-9.54,12.84-4.42.86-8.63,2.12-13.16,2.3-6.56.31-13.11-.17-19.66.28.9.68,1.79,1.35,2.69,2.03-.75.12-1.49.24-2.24.35-3.67-.55-7.32-1.22-10.93-2.06-.5-2.86-1.01-5.71-1.6-8.55-1.34,2.41-2.26,4.73-2.88,7.43-1.36-.35-2.72-.71-4.08-1.08-2.14-2.52-4.41-4.92-6.98-7.03-.99,1.3-1.94,2.64-2.9,3.97.15-5.48,1.43-10.75,4.08-15.57,3.15-1.04,4.25-3.54,6.25-5.9,1.47-1.86,3.71-2.86,5.75-3.97.38,1.97.71,4.02,1.33,5.94,4.51,2.01,11.19-1.93,12.24-6.6.59-2.08-1.59-3.22-2.83-4.5l-1.07-.92c5.1-1.85,9.52-4.11,15.03-4.24,4.45-.12,8.81-.41,13.21-1.02Z"/>
      <path class="cls-8" d="M42.25,11.19c1.24,1.28,3.42,2.42,2.83,4.5-1.05,4.67-7.73,8.61-12.24,6.6-.62-1.92-.95-3.97-1.33-5.94,3.54-1.84,6.98-3.77,10.74-5.16Z"/>
      <path class="cls-23" d="M87.24,14.24c3.43,3.65,5.26,8.35,6.52,13.12-.39.83-.77,1.66-1.16,2.49-.27-1.35-.54-2.7-.8-4.05-1.45,4.13-2.86,8.72-5.27,12.38-1.61,2.47-3.83,4.04-6.16,5.75-1.07.06-2.14.13-3.2.22,3.05-4.12,7.86-8.01,9.54-12.84,2.26-6.22-2.85-11.02.53-17.07Z"/>
      <path class="cls-16" d="M91.8,25.8c.26,1.35.53,2.7.8,4.05.39-.83.77-1.66,1.16-2.49.91,6.47-.6,14.09-4.92,19.15-3.48,3.89-10.83,3.37-15.61,3.93,2.17-2.43,4.5-4.6,7.14-6.51,2.33-1.71,4.55-3.28,6.16-5.75,2.41-3.66,3.82-8.25,5.27-12.38Z"/>
      <path class="cls-13" d="M18.33,37.82c2.57,2.11,4.84,4.51,6.98,7.03-3.34-.86-6.62-1.94-9.88-3.06.96-1.33,1.91-2.67,2.9-3.97Z"/>
      <path class="cls-15" d="M32.27,38.5c.59,2.84,1.1,5.69,1.6,8.55-1.5-.36-2.99-.75-4.48-1.12.62-2.7,1.54-5.02,2.88-7.43Z"/>
      <path class="cls-12" d="M77.17,44.15c1.06-.09,2.13-.16,3.2-.22-2.64,1.91-4.97,4.08-7.14,6.51-9.42,1.11-19.11.32-28.43-1.33.75-.11,1.49-.23,2.24-.35-.9-.68-1.79-1.35-2.69-2.03,6.55-.45,13.1.03,19.66-.28,4.53-.18,8.74-1.44,13.16-2.3Z"/>
      <path class="cls-5" d="M17.85,46.08c9.86,4.15,20.79,6.08,31.36,7.38,10.98,1.34,22.01,1.68,32.99.21-2.82,3.75-6.45,3.91-10.82,4.11-5.48.19-10.92-.21-16.37-.73-6.8-.65-13.24-.78-19.94-2.24-5.63-1.16-10.96-3.14-16.48-4.65-1.59-.37-3.44-.92-5.07-.63-2.16,1.07-4.02,2.77-6.05,4.07l-1.2.73c1.06-2.94,2.22-6.75,4.64-8.86,1.89-1.76,4.87-.02,6.94.61Z"/>
      <path class="cls-10" d="M13.52,49.53c1.63-.29,3.48.26,5.07.63,5.52,1.51,10.85,3.49,16.48,4.65,6.7,1.46,13.14,1.59,19.94,2.24,5.45.52,10.89.92,16.37.73-1.08,2.52-2.17,5.03-3.26,7.55-15.73.29-31.41-1.82-46.6-5.87-5.05-1.31-9.55-3.21-14.05-5.86,2.03-1.3,3.89-3,6.05-4.07Z"/>
      <path class="cls-7" d="M93.17,49.8c4.33.6,4.02,6.8,4.28,10.02-.72.35-1.44.7-2.16,1.05-.48-2.38-.97-4.76-1.46-7.13-3.81.89-7.42,2.12-11.02,3.65-.17,2.25-.34,4.5-.51,6.74-.8.14-1.61.27-2.41.38-3.92.45-7.83.81-11.77.82,1.09-2.52,2.18-5.03,3.26-7.55,4.37-.2,8-.36,10.82-4.11,3.83-.85,7.24-2.8,10.97-3.87Z"/>
      <path class="cls-22" d="M6.27,54.33l1.2-.73c4.5,2.65,9,4.55,14.05,5.86,15.19,4.05,30.87,6.16,46.6,5.87,3.94-.01,7.85-.37,11.77-.82.94,0,1.88.01,2.82.03-.35,1.75-.7,3.51-1.12,5.24l-.17.63c-6.78.01-13.47,1.16-20.28.89-15.36-.33-30.41-2.25-44.92-7.51-2.08-.75-4.12-1.58-6.15-2.46-1.67-.86-3.3-1.83-4.94-2.75.31-1.44.66-2.86,1.14-4.25Z"/>
      <path class="cls-2" d="M93.83,53.74c.49,2.37.98,4.75,1.46,7.13l-1.49.69c-3.69,1.22-7.68,1.9-11.5,2.57.17-2.24.34-4.49.51-6.74,3.6-1.53,7.21-2.76,11.02-3.65Z"/>
      <path class="cls-18" d="M5.13,58.58c1.64.92,3.27,1.89,4.94,2.75-1.34,2.93-2.34,5.96-3.37,9.01-2.58-3.74-2.38-7.48-1.57-11.76Z"/>
      <path class="cls-9" d="M97.45,59.82c.06,2.05.02,4.12-.1,6.17-1.1.39-2.2.78-3.3,1.17-.08-1.87-.16-3.74-.25-5.6l1.49-.69c.72-.35,1.44-.7,2.16-1.05Z"/>
      <path class="cls-4" d="M10.07,61.33c2.03.88,4.07,1.71,6.15,2.46-.37,2.58-.62,5.16-.88,7.76,8.31,5.27,16.73,5.06,26.13,6.98-1.59.52-3.16,1.11-4.74,1.64-10.25-1.3-21.32-4.08-30.03-9.83,1.03-3.05,2.03-6.08,3.37-9.01Z"/>
      <path class="cls-1" d="M93.8,61.56c.09,1.86.17,3.73.25,5.6-4.06,1.43-8.16,2.35-12.46,2.62.42-1.73.77-3.49,1.12-5.24-.94-.02-1.88-.03-2.82-.03.8-.11,1.61-.24,2.41-.38,3.82-.67,7.81-1.35,11.5-2.57Z"/>
      <path class="cls-20" d="M16.22,63.79c14.51,5.26,29.56,7.18,44.92,7.51,6.81.27,13.5-.88,20.28-.89-.66,1.93-1.27,4.46-2.79,5.91-1.79,1.39-4.51,1.76-6.7,2.04-10.14.9-20.31,1.06-30.46.17-9.4-1.92-17.82-1.71-26.13-6.98.26-2.6.51-5.18.88-7.76Z"/>
      <path class="cls-3" d="M97.35,65.99c-.34,3.03-.73,6.87-2.64,9.36-2.23,2.73-6.49,3.59-9.76,4.3-15.82,3.11-32.36,3.47-48.22.52,1.58-.53,3.15-1.12,4.74-1.64,10.15.89,20.32.73,30.46-.17,2.19-.28,4.91-.65,6.7-2.04,1.52-1.45,2.13-3.98,2.79-5.91l.17-.63c4.3-.27,8.4-1.19,12.46-2.62,1.1-.39,2.2-.78,3.3-1.17Z"/>
      <path class="cls-14" d="M13.66,78.22c12.67,4.9,26.93,6.73,40.44,7.44,14.58.35,28.87.25,42.27-6.28,1.88,6.87,1.31,14.16-2.26,20.38-1.67,2.83-4.24,4.14-7.01,5.68-.19-4.59.12-8.91-1.72-13.24-1.51,4.84-1.63,9.95-3.08,14.78-1.58,4.94-6.07,8.37-11.17,9-3.99.6-7.18-1.1-10.9-1.51-3.5.81-6.29,2.61-10.09,2.45-3.97.03-6.7-2.14-10.29-3.14-3.18.14-6.08,1.15-9.36.67-4.2-.56-7.37-2.82-10.5-5.51-2.52-2.26-5.52-3.78-8.14-5.9-3.06-2.54-4.85-6.18-6-9.92.57-.99,1.15-1.99,1.72-2.99,1.44,1.51,2.91,4.25,5.16,4.44.76.15,1.53.29,2.3.4,2.33,3.18,4.48,7.06,8.07,8.93,3.4,1.91,7.41.99,11.12,1.11,4.29-.06,7.85,2.45,11.93,2.84,3.35-.07,6.76-1.46,10.12-1.69,3.94-.17,8.31,1.59,12.3,1.13,4.15-.53,8.35-2.86,10.48-6.56,1.4-2.42,2.26-5.3,3.15-7.94,1.01-1.53,2.1-2.96,3.21-4.42,1.62,1.94,3.21,3.92,4.77,5.92.83-3.17,1.54-6.34,2.15-9.56-3.06.81-6.08,1.78-9.14,2.57-7.82,1.48-15.95,1.85-23.9,2-13.54-.48-26.69-1.75-39.63-5.97-5.09-1.46-9.61-3.54-13.72-6.93,2.83-.72,5.07.93,7.72,1.82Z"/>
      <path class="cls-6" d="M5.94,76.4c4.11,3.39,8.63,5.47,13.72,6.93,12.94,4.22,26.09,5.49,39.63,5.97,7.95-.15,16.08-.52,23.9-2-.29,1.84-.59,3.67-.99,5.49-.89,2.64-1.75,5.52-3.15,7.94-2.13,3.7-6.33,6.03-10.48,6.56-3.99.46-8.36-1.3-12.3-1.13-3.36.23-6.77,1.62-10.12,1.69-4.08-.39-7.64-2.9-11.93-2.84-3.71-.12-7.72.8-11.12-1.11-3.59-1.87-5.74-5.75-8.07-8.93-.77-.11-1.54-.25-2.3-.4-2.25-.19-3.72-2.93-5.16-4.44-.57,1-1.15,2-1.72,2.99-1.06-5.55-.86-11.17.09-16.72Z"/>
      <path class="cls-19" d="M92.33,84.73c-.61,3.22-1.32,6.39-2.15,9.56-1.56-2-3.15-3.98-4.77-5.92-1.11,1.46-2.2,2.89-3.21,4.42.4-1.82.7-3.65.99-5.49,3.06-.79,6.08-1.76,9.14-2.57Z"/>
    </g>
  </g>
</svg>