<?xml version="1.0" encoding="UTF-8"?>
<svg id="Capa_2" data-name="Capa 2" xmlns="http://www.w3.org/2000/svg" viewBox="0 0 97.84 122.3">
  <defs>
    <style>
      .cls-1 {
        fill: #fdd293;
      }

      .cls-2 {
        fill: #feebbe;
      }

      .cls-3 {
        fill: #f29950;
      }

      .cls-4 {
        fill: #f9fbfd;
      }

      .cls-5 {
        fill: #d57c3e;
      }

      .cls-6 {
        fill: #064492;
      }

      .cls-7 {
        fill: #168deb;
      }

      .cls-8 {
        fill: #d27639;
      }

      .cls-9 {
        fill: #f59c4b;
      }

      .cls-10 {
        fill: #0d0a06;
      }

      .cls-11 {
        fill: #0d62bf;
      }

      .cls-12 {
        fill: #facb7e;
      }

      .cls-13 {
        fill: #cb7034;
      }

      .cls-14 {
        fill: #04499e;
      }

      .cls-15 {
        fill: #fdb062;
      }

      .cls-16 {
        fill: #1170cf;
      }

      .cls-17 {
        fill: #b15320;
      }

      .cls-18 {
        fill: #de8243;
      }

      .cls-19 {
        fill: #fcad5f;
      }

      .cls-20 {
        fill: #c2c1cb;
      }

      .cls-21 {
        fill: #ed8f46;
      }

      .cls-22 {
        fill: #0f6bcc;
      }
    </style>
  </defs>
  <g id="Capa_1-2" data-name="Capa 1">
    <g id="hand_right">
      <path class="cls-10" d="M59.62.03c9.57-.17,19.29,2.99,26.88,8.84,7.25,5.72,11.26,14.62,11.34,23.8-.41,6.23-2.47,12.33-6.32,17.29,3.89,6.3,2.82,12.6,2.51,19.64-.18,3.22-1.89,6.39-.66,9.36,3.16,8.74,2.33,20.33-4.26,27.34-2.9,3.41-7.41,3.54-9.63,7.31-3.75,5.94-10.71,9.29-17.69,7.95-2.12-.21-4.56-1.59-6.64-1.01-4.77,1.53-9.43,2.47-14.38,1.06-3.75-.85-6.45-3.76-10.2-3.86-4.68-.3-8.74-1.6-12.5-4.45-3.29-2.62-7.26-3.88-10.21-6.8C1.02,99.74-1,90.13.43,80.82c.5-4.17,2.68-7.13,1.71-11.36-1.16-6.3,1.11-13.21,3.22-19.12,1.25-3.72,4.09-5.47,6.63-8.17.73-3.06.93-6.23,1.78-9.27,3.09-11.32,10.76-21.19,20.87-27.11C42.26,1.5,50.91-.26,59.62.03Z"/>
      <path class="cls-12" d="M66.95,4.84c-3.44.77-6.85,1.39-10.36,1.71-6.48.62-12.92,2.58-19.02,4.81l2.23.22c-2.17,1.37-4.31,2.79-6.54,4.04-5.99,2.7-8.28,8.06-13.15,12.06,3.33-7.93,9.39-14.36,16.86-18.55,8.66-5.25,20.21-5.72,29.98-4.29Z"/>
      <path class="cls-15" d="M66.95,4.84c8.42,1.04,16.68,5.36,21.8,12.21-3.8,4.73-.55,9.97-2.19,15.81-1.56,5.97-6,9.65-11.41,12.14-6.13,1.78-12.04,2.2-18.39,1.62-3.09-.27-6.28-.38-9.31-1.08-2.47-.32-3.54-3.86-4.81-5.65-1.87,2.86-3.36,5.75-4.48,8.98-4.39-.65-8.64-1.62-12.88-2.96-1.97-5.01-2.61-10.22-3.25-15.52-1.02,3.15-2.11,6.18-4.17,8.83-.24-1.21-.46-2.43-.66-3.65.57-2.76,1.65-5.38,2.91-7.89,4.87-4,7.16-9.36,13.15-12.06-.04,2.19-.67,5.1.66,6.98,4.39,1.32,9.37-1.17,11.55-5.05.91-1.58.38-3.92.33-5.67-2-.11-4-.22-6-.3l-2.23-.22c6.1-2.23,12.54-4.19,19.02-4.81,3.51-.32,6.92-.94,10.36-1.71Z"/>
      <path class="cls-2" d="M39.8,11.58c2,.08,4,.19,6,.3.05,1.75.58,4.09-.33,5.67-2.18,3.88-7.16,6.37-11.55,5.05-1.33-1.88-.7-4.79-.66-6.98,2.23-1.25,4.37-2.67,6.54-4.04Z"/>
      <path class="cls-18" d="M88.75,17.05c1.37,1.93,2.46,4.04,3.36,6.23-1.29,4.66-2.18,9.13-4.6,13.4-1.95,3.4-3.87,6.95-6.37,9.98-2.03-.14-4.09-.97-5.99-1.66,5.41-2.49,9.85-6.17,11.41-12.14,1.64-5.84-1.61-11.08,2.19-15.81Z"/>
      <path class="cls-13" d="M92.11,23.28c2.94,8.01,1.49,17.34-4.32,23.69-1.55,1.69-3.54,2.47-5.67,3.16-2.41-1.39-4.85-2.69-7.42-3.75-.85,1.73-1.61,3.5-2.37,5.27-5.66.46-11.3.21-16.95-.31,1.37-.1,2.74-.22,4.11-.35-2.34-1.45-4.69-2.87-7.02-4.33,1.43-.04,2.86-.05,4.29-.04,6.35.58,12.26.16,18.39-1.62,1.9.69,3.96,1.52,5.99,1.66,2.5-3.03,4.42-6.58,6.37-9.98,2.42-4.27,3.31-8.74,4.6-13.4Z"/>
      <path class="cls-1" d="M30.87,24.82c2.92.06,3.74,1.8,5.32,3.88-2.2.94-4.4,1.72-6.7,2.38.28-2.23.25-4.27,1.38-6.26Z"/>
      <path class="cls-21" d="M22.03,30.39c.64,5.3,1.28,10.51,3.25,15.52-3.07-.99-6.09-2.13-9.11-3.24.27-2.38.55-4.75,1.03-7.1.2,1.22.42,2.44.66,3.65,2.06-2.65,3.15-5.68,4.17-8.83Z"/>
      <path class="cls-9" d="M42.64,39.89c1.27,1.79,2.34,5.33,4.81,5.65,3.03.7,6.22.81,9.31,1.08-1.43,0-2.86,0-4.29.04,2.33,1.46,4.68,2.88,7.02,4.33-1.37.13-2.74.25-4.11.35-5.82-.32-11.48-1.47-17.22-2.47,1.12-3.23,2.61-6.12,4.48-8.98Z"/>
      <path class="cls-7" d="M16.65,46.67c18.66,6.91,39.19,9.91,59.04,8.51-.14.87-.28,1.74-.41,2.61-1.56.27-3.11.54-4.68.74-7.32.06-14.69-.35-22-.9-11.64-.96-23.51-4.44-34.7-7.64-.55,2.22-1.09,4.45-1.61,6.68-1.38-.66-2.75-1.33-4.14-1.97.95-2.67,2.03-6.24,4.35-8.04,1.38-1.14,2.63-.34,4.15.01Z"/>
      <path class="cls-17" d="M74.7,46.38c2.57,1.06,5.01,2.36,7.42,3.75-3.21.83-6.49,1.25-9.79,1.52.76-1.77,1.52-3.54,2.37-5.27Z"/>
      <path class="cls-16" d="M48.6,57.63c7.31.55,14.68.96,22,.9.71,2.35,1.44,4.69,2.16,7.04-6.11.55-12.24.71-18.36.33-14.05-1.4-29.15-3.39-42.11-9.23.52-2.23,1.06-4.46,1.61-6.68,11.19,3.2,23.06,6.68,34.7,7.64Z"/>
      <path class="cls-11" d="M87.52,52.88c2.94,1.26,2.72,6.31,2.9,8.95-.94.38-1.88.75-2.83,1.12-.41-2.22-.82-4.45-1.32-6.66-3.18.59-6.22,1.54-9.31,2.47.17,2.15.34,4.29.5,6.44-1.56.14-3.13.25-4.7.37-.72-2.35-1.45-4.69-2.16-7.04,1.57-.2,3.12-.47,4.68-.74.13-.87.27-1.74.41-2.61,3.98-.52,7.84-1.94,11.83-2.3Z"/>
      <path class="cls-4" d="M8.15,54.7c1.39.64,2.76,1.31,4.14,1.97,12.96,5.84,28.06,7.83,42.11,9.23,7.58.75,15.16.55,22.75-.16-.12,1.81-.24,3.61-.35,5.42-1.11.14-2.22.27-3.33.38-22.28,1.64-46.66-.98-66.83-11.17.46-1.89.91-3.82,1.51-5.67Z"/>
      <path class="cls-6" d="M86.27,56.29c.5,2.21.91,4.44,1.32,6.66-3.25,1.28-6.66,1.92-10.13,2.25-.16-2.15-.33-4.29-.5-6.44,3.09-.93,6.13-1.88,9.31-2.47Z"/>
      <path class="cls-22" d="M6.64,60.37c20.17,10.19,44.55,12.81,66.83,11.17l1.96.53c-.67,2.39-.91,4.92-3.46,6.07-3.66,1.73-8.39,1.67-12.37,1.78-11.09,0-23.09-.34-33.82-3.35-5.71-1.51-9.81-4.64-15.98-3.72-1.52-1.09-3.41-2.54-3.88-4.44-.52-2.57.12-5.52.72-8.04Z"/>
      <path class="cls-20" d="M90.42,61.83c-.02,2.28-.19,4.56-.48,6.82-4.42.68-8.7,1.91-13.14,2.51.11-1.81.23-3.61.35-5.42-7.59.71-15.17.91-22.75.16,6.12.38,12.25.22,18.36-.33,1.57-.12,3.14-.23,4.7-.37,3.47-.33,6.88-.97,10.13-2.25.95-.37,1.89-.74,2.83-1.12Z"/>
      <path class="cls-14" d="M89.94,68.65c-.44,2.71-.71,6.62-2.87,8.58-2.65,2.3-6.83,3.11-10.19,3.84-14.63,2.78-30.26,1.69-44.88-.75-7.55-1.48-15.55-3.47-22.2-7.47,6.17-.92,10.27,2.21,15.98,3.72,10.73,3.01,22.73,3.35,33.82,3.35,3.98-.11,8.71-.05,12.37-1.78,2.55-1.15,2.79-3.68,3.46-6.07l-1.96-.53c1.11-.11,2.22-.24,3.33-.38,4.44-.6,8.72-1.83,13.14-2.51Z"/>
      <path class="cls-8" d="M5.78,75.78c4.95,1.39,9.45,4.04,14.46,5.32,17.99,5.11,37.21,6.26,55.73,3.89,4.88-.67,9.29-2.51,13.75-4.48,3.02,9.36,1.01,20.13-7.71,25.63-.53-4.87.44-9.28-2.98-13.24.01-.99.02-1.99.01-2.99,2.05,1.09,4.02,2.47,5.96,3.76.56-2.83,1.1-5.67,1.61-8.51-4.03,1.14-8.07,2.43-12.17,3.29-19.52,2.43-39.37.82-58.03-5.49-4.06-1.36-7.6-3.63-10.88-6.35l.25-.83Z"/>
      <path class="cls-19" d="M5.53,76.61c3.28,2.72,6.82,4.99,10.88,6.35,18.66,6.31,38.51,7.92,58.03,5.49,1.56.41,3.09.89,4.6,1.46.01,1,0,2-.01,2.99-.08,1.16-.17,2.31-.27,3.46-4.56,3.77-8.15,10.67-14.26,11.38-4.88,1.1-8.38-1.27-12.92-1.88-3.36.29-7.38,2.6-10.98,2.11-3.01-.42-5.86-2.23-8.66-3.37-3.53-1.48-8.09-.95-11.51-2.65-3.25-1.66-5.59-5.03-8.22-7.5-2.19-2.09-5.21-3.43-7.94-4.65-.32-4.46-.04-8.89,1.26-13.19Z"/>
      <path class="cls-3" d="M86.61,85.16c-.51,2.84-1.05,5.68-1.61,8.51-1.94-1.29-3.91-2.67-5.96-3.76-1.51-.57-3.04-1.05-4.6-1.46,4.1-.86,8.14-2.15,12.17-3.29Z"/>
      <path class="cls-5" d="M4.27,89.8c2.73,1.22,5.75,2.56,7.94,4.65,2.63,2.47,4.97,5.84,8.22,7.5,3.42,1.7,7.98,1.17,11.51,2.65,2.8,1.14,5.65,2.95,8.66,3.37,3.6.49,7.62-1.82,10.98-2.11,4.54.61,8.04,2.98,12.92,1.88,6.11-.71,9.7-7.61,14.26-11.38-.54,5.74-.42,12.38-4.82,16.76-5.97,5.81-15.91,4.98-20.98-1.63.14,1.49.25,2.98.36,4.47-3.2.92-6.17,1.85-9.56,1.45-2.94-.26-5.25-1.6-7.78-2.97-3.17-2.01-6.84-1.38-10.65-2.48-5.04-1.29-7.99-4.77-12.41-7.52-5.01-3.15-7.95-8.87-8.65-14.64Z"/>
    </g>
  </g>
</svg>