<?xml version="1.0" encoding="UTF-8"?>
<svg id="Capa_2" data-name="Capa 2" xmlns="http://www.w3.org/2000/svg" viewBox="0 0 152.97 148.05">
  <defs>
    <style>
      .cls-1 {
        fill: #431d12;
      }

      .cls-2 {
        fill: #cf763c;
      }

      .cls-3 {
        fill: #3f1b10;
      }

      .cls-4 {
        fill: #3f1b11;
      }

      .cls-5 {
        fill: #f6a359;
      }

      .cls-6 {
        fill: #fc6755;
      }

      .cls-7 {
        fill: #fe9884;
      }

      .cls-8 {
        fill: #0e0703;
      }

      .cls-9 {
        fill: #0e0701;
      }

      .cls-10 {
        fill: #d8793b;
      }

      .cls-11 {
        fill: #d3773c;
      }

      .cls-12 {
        fill: #b25e3a;
      }

      .cls-13 {
        fill: #b86440;
      }

      .cls-14 {
        fill: #502315;
      }

      .cls-15 {
        fill: #0a0808;
      }

      .cls-16 {
        fill: #0a0807;
      }

      .cls-17 {
        fill: #94482b;
      }

      .cls-18 {
        fill: #7c3a24;
      }

      .cls-19 {
        fill: #fe9986;
      }

      .cls-20 {
        fill: #32150d;
      }

      .cls-21 {
        fill: #98642c;
      }

      .cls-22 {
        fill: #fcaf64;
      }

      .cls-23 {
        fill: #c67049;
      }

      .cls-24 {
        fill: #fbfbfb;
      }

      .cls-25 {
        fill: #3e1a10;
      }

      .cls-26 {
        fill: #e78b48;
      }

      .cls-27 {
        fill: #050503;
      }

      .cls-28 {
        fill: #eee;
      }

      .cls-29 {
        fill: #cf2622;
      }

      .cls-30 {
        fill: #0e0b08;
      }

      .cls-31 {
        fill: #dc8245;
      }
    </style>
  </defs>
  <g id="Capa_1-2" data-name="Capa 1">
    <g id="head_scared">
      <path class="cls-8" d="M77.51,0c17.15.38,34.66,4.44,48.68,14.73,9.26,6.47,16.52,15.25,21.66,25.27,3.46,7.53,5.62,16.19,5.01,24.5-.24,3.52-2.08,6.02-3.66,9.02.32,5.91,1.63,12.49-.22,18.58-.71,2.43-2.26,4.29-3.21,6.54-.26,3.6.22,7.18-.33,10.8-.74,6.18-3.2,12.01-6.87,17.02-5.97,8.55-16.28,13.99-26.11,16.78-15.76,4.5-32.7,5.61-48.99,4.29-14.83-1.65-30.57-4.78-42.01-15.07-7.22-6.16-12.15-14.7-13.66-24.08-.67-4.36,1.09-8.23-1.69-11.63-4.95-6.98-2.79-16.2-2.59-24.09C1.85,68.94-.05,65.7,0,61.45-.18,44.54,9.22,29.35,21.87,18.76,37.27,5.53,57.47-.07,77.51,0Z"/>
      <path class="cls-12" d="M78.81,4.49c-1.87.85-3.68,1.82-5.55,2.67-5.47.58-10.9,1.3-16.22,2.77-6.81,1.8-12.95,4.63-19.37,7.42-1.14-.77-2.31-1.51-3.49-2.22,13.5-8.04,29.01-11.21,44.63-10.64Z"/>
      <path class="cls-18" d="M78.81,4.49c3.44-.04,6.79.46,10.19.88-5.21,1.92-10.26,2.04-15.74,1.79,1.87-.85,3.68-1.82,5.55-2.67Z"/>
      <path class="cls-14" d="M89,5.37c8.76.5,16.68,3.37,24.58,6.98,5.53,2.56,10.45,6.07,15.13,9.94-.72.27-1.44.56-2.14.87,2.07,6.53,4.87,11.88,3.51,19.02-.7,5.97-5.72,10.51-11.61,11.06-1.72-.08-3.45-.9-5.05-1.49-.23-2.83-.44-5.66-.69-8.48-6.76,4.59-11.98,10.24-20.08,12.17-7.14,1.61-14.76,2.79-22.08,2.17,2.79-5.22,5.63-10.3,7.17-16.07-7.36,4.63-14.5,10.72-23.03,13.13-3.82,1.17-8.16-1.51-12.04-1.58-3.85,1.19-7.23,3.49-11.24,4.38.37-6.02,3.43-10.47,5.16-16.11-4.01,3.51-7.3,7.65-11.02,11.44-2.02-.1-4.81.29-6.54-.93-2.86-1.92-5.14-5.06-7.26-7.74-1.56.46-3.11.92-4.67,1.38,1.16-2.71,2.51-5.33,4.03-7.85,5.15-.23,6.17-4.27,9.44-7.46,1.01-.94,2.07-1.82,3.12-2.71.79,1.78,1.51,3.74,2.62,5.33,5.83,2.08,14.02-3.2,15.71-8.91,1.13-3.65-2.04-4.66-4.35-6.56,6.42-2.79,12.56-5.62,19.37-7.42,5.32-1.47,10.75-2.19,16.22-2.77,5.48.25,10.53.13,15.74-1.79Z"/>
      <path class="cls-23" d="M34.18,15.13c1.18.71,2.35,1.45,3.49,2.22,2.31,1.9,5.48,2.91,4.35,6.56-1.69,5.71-9.88,10.99-15.71,8.91-1.11-1.59-1.83-3.55-2.62-5.33-1.05.89-2.11,1.77-3.12,2.71-1.13-.37-2.26-.72-3.4-1.05,4.81-5.65,10.52-10.41,17.01-14.02Z"/>
      <path class="cls-20" d="M126.57,23.16c.7-.31,1.42-.6,2.14-.87,6.39,5.11,11.29,11.72,14.75,19.11-.45,1.08-.88,2.17-1.31,3.25-1.58-.29-3.15-.58-4.72-.87.36,3.92-.09,8.93,2.75,11.99,2.53,2.92,4.65,5.88,6.34,9.36.64-.2,1.28-.41,1.92-.61-.33,1.01-.68,2.02-1.05,3.02-5.65-2.42-11.03-5.21-15.83-9.1,1.09-3.26,2.09-6.54,3.03-9.85-3.28,2.6-6.32,5.47-10.44,6.63-3.46,1.09-6.86.79-10.38.3-.12-1.26-.24-2.52-.35-3.77,1.6.59,3.33,1.41,5.05,1.49,5.89-.55,10.91-5.09,11.61-11.06,1.36-7.14-1.44-12.49-3.51-19.02Z"/>
      <path class="cls-13" d="M53.77,23.19c-.46,1.6-.68,3.52-1.61,4.91-1.65,2.07-4.59,2.03-6.97,2.5.61-1.98.94-4.5,2.6-5.9,1.42-1.48,4.08-1.23,5.98-1.51Z"/>
      <path class="cls-17" d="M17.17,29.15c1.14.33,2.27.68,3.4,1.05-3.27,3.19-4.29,7.23-9.44,7.46,1.77-3.02,3.67-5.93,6.04-8.51Z"/>
      <path class="cls-1" d="M143.46,41.4c3.56,7.31,5.96,14.87,4.98,23.12-.64.2-1.28.41-1.92.61-1.69-3.48-3.81-6.44-6.34-9.36-2.84-3.06-2.39-8.07-2.75-11.99,1.57.29,3.14.58,4.72.87.43-1.08.86-2.17,1.31-3.25Z"/>
      <path class="cls-25" d="M11.77,44.13c2.12,2.68,4.4,5.82,7.26,7.74,1.73,1.22,4.52.83,6.54.93-3.11,2.65-6.69,4.45-10.43,6.02.17-2.3.35-4.6.52-6.9-3.45,4.68-5.97,9.73-10.18,13.84-1.87-7.43-1.29-13.24,1.62-20.25,1.56-.46,3.11-.92,4.67-1.38Z"/>
      <path class="cls-21" d="M109.91,52.97c.16,1.16.32,2.32.47,3.48-1.69-.05-3.39-.1-5.08-.17,1.52-1.12,3.06-2.23,4.61-3.31Z"/>
      <path class="cls-10" d="M66.24,55.94c.17,1.83.3,3.66.45,5.49,8.63,3.01,18.03,1.93,26.72-.25,4.35-1.14,8.72-.3,13.21-1.02-9.99,2.93-21.43,6.78-31.91,6-4.36-.21-7.01-2.69-10.46-4.92-6.06,1.13-11.59,3.5-17.86,3.83-5.9.58-11.55-.45-17.39-.91-2.91-.55-5.02,3.39-6.51,5.33-1.38.3-2.77.6-4.15.9.28-1.93.48-4.01,1.2-5.83,2.23-1.96,4.99-3.35,7.49-4.94,2.37,1.34,4.68,2.58,7.44,2.88,10.95,1.34,22.11-1.44,31.77-6.56Z"/>
      <path class="cls-11" d="M116.86,61.03c3.58,1.11,6.71-.25,10.22,0,2.59,1.6,6.15,4.1,6.65,7.31,1.56,7.17,1.81,14.69,3.05,21.9l-2.37.39c-.98-6.11-2.18-12.26-3.92-18.21-.85-2.58-1.95-5.85-4.11-7.63-2.97-.84-6.23-.41-9.23-1.23-3.28-.94-6.37-2.5-9.63-3.52,3.36-.74,6.14,0,9.34.98Z"/>
      <path class="cls-22" d="M64.25,61.24c3.45,2.23,6.1,4.71,10.46,4.92,10.48.78,21.92-3.07,31.91-6l.9-.11c3.26,1.02,6.35,2.58,9.63,3.52,3,.82,6.26.39,9.23,1.23,2.16,1.78,3.26,5.05,4.11,7.63,1.74,5.95,2.94,12.1,3.92,18.21.21,1.53.39,3.05.57,4.58-1.73,1.26-3.45,2.54-5.17,3.81-3.68-.38-7.34-.78-11.05-.89l-.18-.75c3.46-4.75,5.36-10.05,4.12-15.98-1.49-8.19-9.02-13.91-17.2-14.12-7.92-.44-15.3,5.71-16.57,13.49-1.4,7.32,1.65,15.17,8.24,18.94,4.67,2.81,9.96,2.88,15.1,1.46l-.34.79c-.66,2.42-1.98,6.1-.36,8.36,1.92,2.88,6.4,3.75,9.52,4.56-1.13,2.25-2.44,5.07-4.68,6.38-2.28,1.28-4.9,2-7.28,3.11-2.98,1.32-5.82,3.18-9.14,3.44-2.4.2-4.89.05-7.21-.62-1.85-.6-3.41-2.36-4.84-3.64,3.32-6.47,2.99-14.22-1.58-20-4.28-5.35-13.01-6.05-18.03-1.34-6.48,5.93-6.75,17.01-1.29,23.67,3.52,3.89,8.22,4.59,13.23,4.05-3.49,1.85-7.23,2.71-11.12,3.2-.92-1.09-1.84-2.17-2.76-3.25-2.91,1.14-6.44,2.95-9.6,2.31-5.28-.97-10.21-4.21-15.44-5.65-4.37-1.25-8.63-1.05-13.1-.85-3.63-3.01-6.32-6.76-8.61-10.86-3.34-7.75-2.86-15.25-3.24-23.48l.27-.67c4.85-6.25,3.28-13.3,5.82-21.2,1.49-1.94,3.6-5.88,6.51-5.33,5.84.46,11.49,1.49,17.39.91,6.27-.33,11.8-2.7,17.86-3.83Z"/>
      <path class="cls-4" d="M13.38,64.94c.42,6.85-.06,13.76-.6,20.6-.22,3.24-1.59,5.97-3.2,8.73-1.6-3.42-2.95-6.77-2.67-10.63.53-6.91,1.55-13.45,6.47-18.7Z"/>
      <path class="cls-27" d="M60.18,73.76c3.91,4.59,4.77,11.45,2.67,17.03-3.23,8.8-14.03,14.02-22.82,10.18-1.8-.83-3.55-1.78-5.2-2.89-1.85-1.92-3.5-3.93-4.57-6.41-3.88-8.65,1.04-20.21,10.1-23.21,6.89-2.74,15.19-.42,19.82,5.3Z"/>
      <path class="cls-30" d="M105.5,67.29c8.18.21,15.71,5.93,17.2,14.12,1.24,5.93-.66,11.23-4.12,15.98-2.06,1.33-4.17,2.58-6.31,3.79-5.14,1.42-10.43,1.35-15.1-1.46-6.59-3.77-9.64-11.62-8.24-18.94,1.27-7.78,8.65-13.93,16.57-13.49Z"/>
      <path class="cls-26" d="M22.49,69.49c-2.54,7.9-.97,14.95-5.82,21.2.24-6.78.98-13.55,1.67-20.3,1.38-.3,2.77-.6,4.15-.9Z"/>
      <path class="cls-24" d="M102.99,69.95c5.81-.99,12.01,1.95,15.05,6.98,3.58,6.03,3.29,14.04-1.99,19.02-5.54,5.53-14.46,5.15-20.14.08-5.96-4.94-6.71-14.32-2.24-20.45,2.21-3.07,5.63-4.98,9.32-5.63Z"/>
      <path class="cls-24" d="M41.82,70.66c8.04-2.99,18.08,2.32,19.56,10.93,2.09,8.66-4.92,18.04-13.83,18.35-7.64.64-15.11-4.85-15.81-12.68-.97-7.36,3.2-14,10.08-16.6Z"/>
      <path class="cls-3" d="M142.47,70.14c1.23,2.08,2.34,4.15,2.74,6.57.89,6.24,1.24,12.2-2.6,17.59-2.18-6-3.51-12.52-3.35-18.92-.05-2.23,1.88-3.69,3.21-5.24Z"/>
      <path class="cls-15" d="M50.07,80.19c2.73-1.33,6.62.53,7.32,3.5,1.17,3.95-.79,8.1-5.03,8.82-4.45.61-7.22-3.74-6.5-7.81.07-2.57,2.24-3.47,4.21-4.51Z"/>
      <path class="cls-16" d="M99.96,79.35c2.76.66,5.51,1.02,6.61,4.06,2.01,4.38-1.77,10.29-6.81,8.91-4.32-1.13-4.74-5.02-4.78-8.85,1.45.83,2.89,1.67,4.35,2.48.81-.66,1.61-1.32,2.41-1.99-.58-1.54-1.23-3.05-1.78-4.61Z"/>
      <path class="cls-28" d="M52.37,81.04c1.76,1.96.99,3.72-1.14,4.75-1.74.89-3.17-1.86-4.46-2.71,2.01-1.25,3.05-3.57,5.6-2.04Z"/>
      <path class="cls-5" d="M134.41,90.64l2.37-.39c.24,1.2.5,2.4.78,3.59-1.8,7.87-1.48,14.92-4.94,21.67-2.87,5.98-7.87,10.32-13.72,13.27-10.43,5.35-23.25,7.1-34.81,8.11-14.49.61-30.16-.2-43.9-5.18-4.24-1.5-8.26-3.42-11.94-6.01,4.47-.2,8.73-.4,13.1.85,5.23,1.44,10.16,4.68,15.44,5.65,3.16.64,6.69-1.17,9.6-2.31.92,1.08,1.84,2.16,2.76,3.25,3.89-.49,7.63-1.35,11.12-3.2,3.19-1.45,5.71-3.46,7.67-6.38,1.43,1.28,2.99,3.04,4.84,3.64,2.32.67,4.81.82,7.21.62,3.32-.26,6.16-2.12,9.14-3.44,2.38-1.11,5-1.83,7.28-3.11,2.24-1.31,3.55-4.13,4.68-6.38,2.82-.49,5.94-1.01,8.47-2.41,2.41-1.4,3.51-4.34,3.33-7.04-.42-2.27-1.94-4.42-3.08-6.41,1.72-1.27,3.44-2.55,5.17-3.81-.18-1.53-.36-3.05-.57-4.58Z"/>
      <path class="cls-31" d="M16.4,91.36c.38,8.23-.1,15.73,3.24,23.48-1.48.56-2.96,1.13-4.44,1.7-2.28-5.05-3.5-10.53-2.7-16.07.74-3.18,2.64-6.1,3.9-9.11Z"/>
      <path class="cls-2" d="M137.56,93.84c1.65,2.52,3.59,4.43,3.69,7.62.29,5.99-1.37,13.17-4.21,18.46-4.97,8.91-13.42,13.95-22.8,17.24-14.73,5.06-31.3,5.8-46.74,5.1-13.28-1.14-26.98-3.17-38.48-10.36-6.1-3.62-10.65-9.08-13.82-15.36,1.48-.57,2.96-1.14,4.44-1.7,2.29,4.1,4.98,7.85,8.61,10.86,3.68,2.59,7.7,4.51,11.94,6.01,13.74,4.98,29.41,5.79,43.9,5.18,11.56-1.01,24.38-2.76,34.81-8.11,5.85-2.95,10.85-7.29,13.72-13.27,3.46-6.75,3.14-13.8,4.94-21.67Z"/>
      <path class="cls-7" d="M118.58,97.39l.18.75c.46,1.84.99,3.66,1.49,5.49-3.19.08-5.41-.36-8.32-1.66l.34-.79c2.14-1.21,4.25-2.46,6.31-3.79Z"/>
      <path class="cls-6" d="M34.83,98.08c1.65,1.11,3.4,2.06,5.2,2.89,1.01,3.23,2.9,6.44.67,9.6-3.53,5.21-12.51,5.41-17.31,2.01-3.68-2.52-4.74-7.48-1.7-10.95,2.87-3.33,9.14-3,13.14-3.55Z"/>
      <path class="cls-6" d="M118.76,98.14c3.71.11,7.37.51,11.05.89,1.14,1.99,2.66,4.14,3.08,6.41.18,2.7-.92,5.64-3.33,7.04-2.53,1.4-5.65,1.92-8.47,2.41-3.12-.81-7.6-1.68-9.52-4.56-1.62-2.26-.3-5.94.36-8.36,2.91,1.3,5.13,1.74,8.32,1.66-.5-1.83-1.03-3.65-1.49-5.49Z"/>
      <path class="cls-9" d="M86.36,103.56c4.57,5.78,4.9,13.53,1.58,20-1.96,2.92-4.48,4.93-7.67,6.38-5.01.54-9.71-.16-13.23-4.05-5.46-6.66-5.19-17.74,1.29-23.67,5.02-4.71,13.75-4.01,18.03,1.34Z"/>
      <path class="cls-19" d="M33.75,100.8c-2.63,1.53-5.31,2.73-8.17,3.75.13-1.26.29-2.52.46-3.77,2.57-.13,5.14-.07,7.71.02Z"/>
      <path class="cls-29" d="M86.46,121.46c-1.12,1.44-2.24,3.08-3.65,4.26-4.24,3.18-10.98,2.76-14.17-1.73-.94-1.28-.61-2.73.68-3.63,5.33-4.14,12.16-3.09,17.14,1.1Z"/>
    </g>
  </g>
</svg>