<?xml version="1.0" encoding="UTF-8"?>
<svg id="Capa_2" data-name="Capa 2" xmlns="http://www.w3.org/2000/svg" viewBox="0 0 154.11 148.1">
  <defs>
    <style>
      .cls-1 {
        fill: #39170e;
      }

      .cls-2 {
        fill: #4f2315;
      }

      .cls-3 {
        fill: #0d0704;
      }

      .cls-4 {
        fill: #e68949;
      }

      .cls-5 {
        fill: #070502;
      }

      .cls-6 {
        fill: #fb6e58;
      }

      .cls-7 {
        fill: #fc735a;
      }

      .cls-8 {
        fill: #070602;
      }

      .cls-9 {
        fill: #fdb166;
      }

      .cls-10 {
        fill: #080704;
      }

      .cls-11 {
        fill: #421d11;
      }

      .cls-12 {
        fill: #fbbc79;
      }

      .cls-13 {
        fill: #d2783d;
      }

      .cls-14 {
        fill: #aa5836;
      }

      .cls-15 {
        fill: #3a180f;
      }

      .cls-16 {
        fill: #e38d4c;
      }

      .cls-17 {
        fill: #f8a55c;
      }

      .cls-18 {
        fill: #bb6541;
      }

      .cls-19 {
        fill: #431c0f;
      }

      .cls-20 {
        fill: #c4714a;
      }
    </style>
  </defs>
  <g id="Capa_1-2" data-name="Capa 1">
    <g id="head_dead">
      <path class="cls-3" d="M77.39,0c11.32.36,22.76,1.77,33.31,6.09,16.89,6.21,31.27,18.85,38.78,35.3,3.3,7.15,4.97,15.07,4.57,22.94-.29,3.63-2.24,6.17-3.84,9.27-.28,5.29.93,10.42-.12,15.74-.34,3.77-2.39,6.41-4.13,9.58,0,5.78-.18,11.26-2.27,16.74-2.59,8.34-8.25,14.81-15.12,19.98-9.52,6.44-20.03,9.12-31.26,10.82-16.3,2.46-33.3,2.25-49.42-1.33-8.6-1.73-16.78-5.15-23.96-10.21-8.73-6.7-15.07-16.36-16.15-27.47-.32-2.9.24-5.84-.05-8.72-1.13-2.37-2.64-4.36-3.29-6.98-1.63-6.63-.4-12.69-.45-19.21-1.15-2.6-2.82-4.78-3.47-7.63-1.2-4.87-.08-10.56.99-15.38,3.77-14.73,14.46-26.75,26.75-35.2C42.71,4.23,59.98.33,77.39,0Z"/>
      <path class="cls-14" d="M83.66,4.74c-4.7,1.5-9.21,2.49-14.14,2.95-8.48.85-16.95,3.6-24.86,6.71-1.24-.79-2.47-1.58-3.73-2.33,13.32-6.72,27.99-8.52,42.73-7.33Z"/>
      <path class="cls-2" d="M83.66,4.74c7.7-.02,15.68,2.15,22.97,4.47,9.28,2.96,17.64,8.12,24.79,14.69-.55.56-1.09,1.12-1.64,1.67,2.03,7,4.07,14.16.77,21.17-2.46,4.67-8.82,6.4-13.51,7.83-.18-4.47-.62-8.6-2.82-12.59l-1.24,1.27c-5.37,5.03-11.12,9.29-18.26,11.41-7.9,2.21-15.34,4.23-23.6,2.72,2.04-5.4,5.13-10.19,6.65-15.81-5.82,3.78-10.85,8.18-17.31,10.95-9.23,4.1-20.11,5.82-30.14,4.68,1.43-5.06,3.48-9.88,5.23-14.84-3.79,3.11-6.98,6.76-10.33,10.32-4.96.56-8.71-.49-13.13-2.69-.27-3.35-.24-6.34-2.6-9,.8-1.41,1.65-2.78,2.53-4.14,5.37-2.33,8.57-6.36,12.74-10.27.28,1.85-.11,4.98,1.26,6.37,2.67,1.49,6.2.11,8.69-1.17,3.38-1.81,7.32-5.24,7.63-9.31.35-2.22-3.07-3.56-4.47-4.82,2.26-1.1,4.49-2.24,6.79-3.25,7.91-3.11,16.38-5.86,24.86-6.71,4.93-.46,9.44-1.45,14.14-2.95Z"/>
      <path class="cls-20" d="M40.93,12.07c1.26.75,2.49,1.54,3.73,2.33-2.3,1.01-4.53,2.15-6.79,3.25,1.4,1.26,4.82,2.6,4.47,4.82-.31,4.07-4.25,7.5-7.63,9.31-2.49,1.28-6.02,2.66-8.69,1.17-1.37-1.39-.98-4.52-1.26-6.37-4.17,3.91-7.37,7.94-12.74,10.27,6.59-11.13,17.12-19.65,28.91-24.78Z"/>
      <path class="cls-18" d="M51.16,22.55c.79.41,1.57.84,2.34,1.29-.52,1.83-.89,3.98-2.5,5.19-1.62,1.22-4.13,1.34-6.06,1.77.34-1.54.56-3.19,1.19-4.65,1.12-1.66,3.28-2.72,5.03-3.6Z"/>
      <path class="cls-1" d="M131.42,23.9c6.75,6.04,12.17,13.6,15.53,22.03,2.78,7.26,3.23,14.85,1.57,22.44-4.46-2.68-9.66-4.97-13.41-8.6-1.12-.94-.3-2.38-.2-3.59.69-2.82.87-5.57.78-8.46-3.24,3-6,6.03-10.02,8.03-3.46,1.91-7.09,2-10.94,1.75-.46-4.77-1.24-9.5-1.75-14.25l1.24-1.27c2.2,3.99,2.64,8.12,2.82,12.59,4.69-1.43,11.05-3.16,13.51-7.83,3.3-7.01,1.26-14.17-.77-21.17.55-.55,1.09-1.11,1.64-1.67Z"/>
      <path class="cls-15" d="M9.49,40.99c2.36,2.66,2.33,5.65,2.6,9,4.42,2.2,8.17,3.25,13.13,2.69-3.06,2.73-6.66,4.49-10.43,6.03,0-1.74,0-3.49.01-5.23-2.56,4.22-5.29,8.16-9.25,11.21-1.91-8.17-.05-16.46,3.94-23.7Z"/>
      <path class="cls-13" d="M109.39,53.7c.86,2.43,1.42,6.57,4,7.78,3.36,1.71,8,.82,11.61.48,3.47-.98,6.98,2.48,8.83,5.02,2.59,7.22,2.21,15.84,3.74,23.32.91,4.66,3.95,7.59,3.9,12.13,0,9.14-3.95,18.25-10.46,24.64-5.44,5.33-12.66,9.01-19.95,11.05-15.62,4.33-32.01,5.29-48.11,3.83-10.33-1.06-20.16-2.83-29.54-7.48-7.86-3.79-14.48-10-18.31-17.89,1.25-.78,2.5-1.55,3.77-2.28,3.99,6.62,9.06,12.2,16.19,15.49,10.25,4.68,22.2,6.41,33.37,6.92,11.85.68,23.8-.32,35.39-2.81,6.91-1.51,13.43-3.65,19.27-7.75,9.21-6.26,14.47-17.63,13.43-28.71-.76-7.53-3.31-14.99-5.03-22.36-.75-2.83-1.63-6.67-3.95-8.63-3.78-1.39-8.3-.72-12.1-2.16-2.71-1.22-5.02-3.65-7.21-5.62-10.49,5.65-22.47,8.02-34.31,7.31-3.94-.22-6.35-2.54-9.08-5.05-6.53,1.55-12.06,3.94-18.46,4.37-6.52.47-13.25-.22-19.77-.73-1.12,1.39-2.24,2.77-3.29,4.23-1.47.17-2.94.39-4.41.6.27-1.72.49-3.6,1.21-5.19,1.9-1.6,4.16-2.81,6.25-4.14,3.14,1.69,6.37,2.81,9.98,2.89,10.25.31,20.24-2.1,29.48-6.46.52,1.65.93,3.42,1.74,4.95,1.91,1.29,4.61,1.6,6.86,1.75,12.51.38,24.79-1.76,34.96-9.5Z"/>
      <path class="cls-9" d="M108.23,58.67c2.19,1.97,4.5,4.4,7.21,5.62,3.8,1.44,8.32.77,12.1,2.16,2.32,1.96,3.2,5.8,3.95,8.63.44,3.96-.08,7.79-.29,11.73-.16,3.31.58,6.31,1.27,9.52-1.02,1.31-2.06,2.61-3.09,3.91-5.01-.24-9.8-.84-14.3,1.92-2.68,1.6-4.16,4.81-3.31,7.86.96,2.14,3.4,3.72,5.11,5.26-3.02,4.41-7.2,8.08-11.62,11.03-2.59,1.74-5.43,2.01-8.45,1.81-5.5-.39-10.81,1.06-16.31.71-3.84-.24-7.29.87-10.96,1.74-6.46,1.64-14.08-.59-20.55-1.67-3.8-.84-9.03-1.39-11.93-4.15-.9-2.45-.99-5.31-1.23-7.9-2.86-.16-5.71-.35-8.55-.66l1.53-.61c3.91-.28,7.82.16,10.89-2.76,3.37-3,2.22-8.96-1.62-11.02-4.08-2.28-9.61-2.46-13.85-.49-2.04.95-3.7,2.87-3.7,5.2.21,2.03,1.06,4.06,1.75,5.98-.92.47-1.84.95-2.75,1.44-2.16-6.74-2.9-13.69-3.22-20.73.2-.92.39-1.84.56-2.76.76.12,1.53.24,2.29.36,1.46-7.3,2.17-14.84,4.16-22,1.05-1.46,2.17-2.84,3.29-4.23,6.52.51,13.25,1.2,19.77.73,6.4-.43,11.93-2.82,18.46-4.37,2.73,2.51,5.14,4.83,9.08,5.05,11.84.71,23.82-1.66,34.31-7.31Z"/>
      <path class="cls-4" d="M23.32,68.8c-1.99,7.16-2.7,14.7-4.16,22-.76-.12-1.53-.24-2.29-.36,1.26-6.97,1.14-14.01,2.04-21.04,1.47-.21,2.94-.43,4.41-.6Z"/>
      <path class="cls-19" d="M13.98,70.16c-.52,8.17.69,16.74-3.61,23.9-3.7-6.32-3.05-13.2-1.22-20,.62-2.54,2.83-2.77,4.83-3.9Z"/>
      <path class="cls-8" d="M37.18,71.51c3.7,2.01,6.63,5.6,9.89,8.28,3.07-2.72,5.95-6.21,9.55-8.21,2.7-.42,4.14,1.1,4.04,3.76-2.29,3.59-5.95,6.37-8.87,9.46,2.76,3.02,6.22,5.52,8.68,8.77.09,1.38.11,2.76.06,4.15-1.97.03-3.87-.07-5.8-.55-2.44-2.65-4.87-5.29-7.58-7.66-3.31,2.54-6.3,5.55-9.23,8.51-2.63-.14-4.34-.44-4.6-3.49,1.91-3.84,5.92-6.75,8.76-9.94-3.06-3.2-7.33-6.12-9.34-10.1.81-1.99,1.99-3.87,4.44-2.98Z"/>
      <path class="cls-5" d="M93.99,71.88c3.45,2.09,6.18,5.45,9.25,8.06,3.09-2.69,5.9-6.19,9.47-8.22,2.79-1.1,5.12,2.01,3.64,4.4-2.39,3.18-5.62,5.74-8.36,8.61,2.14,2.24,4.45,4.31,6.59,6.54,1.07,1.26,2.37,2.31,2.11,4.13-.1,2-2.85,3.8-4.5,2.29-3.23-2.26-5.87-5.37-8.86-7.95-3.18,2.62-5.95,5.96-9.4,8.19-2.49,1.06-4.99-2.06-3.74-4.23,2.15-3.43,5.57-6.16,8.36-9.07-2.74-2.8-5.91-5.34-8.3-8.44-1.5-2.2,1.08-5.78,3.74-4.31Z"/>
      <path class="cls-11" d="M140.44,74.13c1.59-.23,3.25-.27,4.86-.34,1.36,6.62,1.97,12.78-1.08,19.08-3.96-5.47-4.88-12.18-3.78-18.74Z"/>
      <path class="cls-17" d="M131.49,75.08c1.72,7.37,4.27,14.83,5.03,22.36,1.04,11.08-4.22,22.45-13.43,28.71-5.84,4.1-12.36,6.24-19.27,7.75-11.59,2.49-23.54,3.49-35.39,2.81-11.17-.51-23.12-2.24-33.37-6.92-7.13-3.29-12.2-8.87-16.19-15.49l.66-.37c.91-.49,1.83-.97,2.75-1.44,2.18,1.01,4.34,2.08,6.53,3.09l-1.53.61c2.84.31,5.69.5,8.55.66.24,2.59.33,5.45,1.23,7.9,2.9,2.76,8.13,3.31,11.93,4.15,6.47,1.08,14.09,3.31,20.55,1.67,3.67-.87,7.12-1.98,10.96-1.74,5.5.35,10.81-1.1,16.31-.71,3.02.2,5.86-.07,8.45-1.81,4.42-2.95,8.6-6.62,11.62-11.03,4.21-.2,9.63.34,13.27-2.04,2.52-1.52,3.77-4.66,3.05-7.5-.83-2.02-2.48-3.8-3.82-5.5,1.03-1.3,2.07-2.6,3.09-3.91-.69-3.21-1.43-6.21-1.27-9.52.21-3.94.73-7.77.29-11.73Z"/>
      <path class="cls-12" d="M47.15,89.51c2.71,2.37,5.14,5.01,7.58,7.66-5.61.08-11.19.9-16.81.85,2.93-2.96,5.92-5.97,9.23-8.51Z"/>
      <path class="cls-16" d="M16.31,93.2c.32,7.04,1.06,13.99,3.22,20.73l-.66.37c-1.27.73-2.52,1.5-3.77,2.28-2.27-4.71-2.91-9.93-2.44-15.11.22-3.13,2.19-5.59,3.65-8.27Z"/>
      <path class="cls-7" d="M38.08,101.8c3.84,2.06,4.99,8.02,1.62,11.02-3.07,2.92-6.98,2.48-10.89,2.76-2.19-1.01-4.35-2.08-6.53-3.09-.69-1.92-1.54-3.95-1.75-5.98,0-2.33,1.66-4.25,3.7-5.2,4.24-1.97,9.77-1.79,13.85.49Z"/>
      <path class="cls-6" d="M129.38,100.24c1.34,1.7,2.99,3.48,3.82,5.5.72,2.84-.53,5.98-3.05,7.5-3.64,2.38-9.06,1.84-13.27,2.04-1.71-1.54-4.15-3.12-5.11-5.26-.85-3.05.63-6.26,3.31-7.86,4.5-2.76,9.29-2.16,14.3-1.92Z"/>
      <path class="cls-10" d="M53.46,107.08c3.47.23,6.55,3.61,9.92,4.42,4.63-1.42,7.76-4.75,13.03-4.56,4.62.15,7.77,3.59,11.86,4.44,3.01-1.09,5.99-3.55,9.16-4.2,3.85-.12,7.04,2.88,9.88,5.1-.63,1.05-1.26,2.1-1.89,3.15-2.34-.98-4.65-2.36-7.12-2.94-3.33.48-6.48,3.93-9.94,3.9-4.16.27-7.83-3.57-12-4.22-4.43.12-9.08,4.73-13.84,4.15-3.2-.49-6.21-2.82-9.05-4.3-1.96.88-3.91,1.79-5.87,2.68-.76-.58-1.52-1.16-2.28-1.73,2.05-3.03,4.24-5.55,8.14-5.89Z"/>
    </g>
  </g>
</svg>