<?xml version="1.0" encoding="UTF-8"?>
<svg id="Capa_2" data-name="Capa 2" xmlns="http://www.w3.org/2000/svg" viewBox="0 0 152.96 148.15">
  <defs>
    <style>
      .cls-1 {
        fill: #b6623c;
      }

      .cls-2 {
        fill: #ad782d;
      }

      .cls-3 {
        fill: #411b10;
      }

      .cls-4 {
        fill: #fd6958;
      }

      .cls-5 {
        fill: #39180e;
      }

      .cls-6 {
        fill: #fd6856;
      }

      .cls-7 {
        fill: #0c0602;
      }

      .cls-8 {
        fill: #0a0a04;
      }

      .cls-9 {
        fill: #0e0703;
      }

      .cls-10 {
        fill: #fdb166;
      }

      .cls-11 {
        fill: #f9f9f9;
      }

      .cls-12 {
        fill: #a75332;
      }

      .cls-13 {
        fill: #f8f8f8;
      }

      .cls-14 {
        fill: #512416;
      }

      .cls-15 {
        fill: #492013;
      }

      .cls-16 {
        fill: #d3763c;
      }

      .cls-17 {
        fill: #c67149;
      }

      .cls-18 {
        fill: #cf773d;
      }

      .cls-19 {
        fill: #421d12;
      }

      .cls-20 {
        fill: #35160e;
      }

      .cls-21 {
        fill: #9b5030;
      }

      .cls-22 {
        fill: #e68b46;
      }

      .cls-23 {
        fill: #f8a65c;
      }
    </style>
  </defs>
  <g id="Capa_1-2" data-name="Capa 1">
    <g id="head_neutral">
      <path class="cls-9" d="M79.27,0c10.22.66,20.08,1.87,29.65,5.73,14.3,4.93,27.08,15.1,35.23,27.83,6.09,10.22,10.19,21.28,8.39,33.37-.84,3.36-3.49,5.2-2.76,8.63.59,5.5,1,10.76-.33,16.21-.73,2.66-2.37,4.54-3.55,6.92-.19,2.23.13,4.5.01,6.74-.57,11.57-6.97,22.63-16.27,29.41-7.62,5.55-17.14,8.89-26.36,10.53-16.95,3.51-34.67,3.66-51.7.59-12.16-2.32-25.05-6.87-33.59-16.26-6.1-6.28-10-14.57-11.19-23.22-.45-3.07.62-6.85-1.21-9.4-4.64-7.05-2.89-16.53-2.57-24.47-.81-2.46-2.22-4.55-2.63-7.18-1.18-7.2.47-15.04,3.22-21.72,5.25-12.83,14.77-23.08,26.23-30.67C44.44,3.57,62.02-.2,79.27,0Z"/>
      <path class="cls-21" d="M90.48,5.64c-12.2,2.2-24.22,1.19-36.2,5.06-.06-1.22-.12-2.43-.18-3.65,12.16-3.09,24.01-3.48,36.38-1.41Z"/>
      <path class="cls-14" d="M90.48,5.64c11.24,1.16,22.22,5.54,31.7,11.6-2.29,3.48-3.22,6.16-2.79,10.31-1.77,2.58-3.8,4.15-6.56,5.63,1.25,1.21,2.48,2.43,3.72,3.65-1.2-.26-2.4-.53-3.6-.79-3.07,4.23-8.16,6.73-12.93,8.59-2.93,1.13-5.45.23-8.31-.59-4.6-1.44-9.37-2.39-14.13-3.1l-.74.54c-6.56,5.14-12.98,9.91-20.97,12.66-4.86,1.75-9.86-1.51-14.79.25-3.55,1.17-7.03,2.36-10.75,2.92.4-5.42,2.81-9.87,4.92-14.74-1.58,1.2-3.18,2.39-4.67,3.7-4.9-1.88-8.5.29-13.3.85-2.11-.6-4.04-2.03-5.98-3.05-1.84,1.68-3.54,3.53-5.11,5.47,1.33-4.68,3.03-9.14,5.84-13.15l.15,1.84c4.53-3.4,8.42-7.46,12.12-11.73.28,2.1.4,4.67,1.61,6.46,3.02,1.63,7.37-.13,10.07-1.77,3.38-2.13,7-5.81,5.93-10.18-1.18-1.35-2.76-2.43-4.18-3.51,5.36-2.65,10.83-5.03,16.55-6.8,11.98-3.87,24-2.86,36.2-5.06Z"/>
      <path class="cls-17" d="M54.1,7.05c.06,1.22.12,2.43.18,3.65-5.72,1.77-11.19,4.15-16.55,6.8,1.42,1.08,3,2.16,4.18,3.51,1.07,4.37-2.55,8.05-5.93,10.18-2.7,1.64-7.05,3.4-10.07,1.77-1.21-1.79-1.33-4.36-1.61-6.46-.77-.74-1.55-1.48-2.34-2.2,8.86-8.41,20.35-14.25,32.14-17.25Z"/>
      <path class="cls-15" d="M122.18,17.24c2.01,1.33,3.86,2.82,5.7,4.37-.7,4.5,1.85,7.43,2.48,11.88.64,4.96-.19,10.5-4.19,13.92-2.72,2.57-6.01,3.45-9.53,4.37-1.46-2.82-2.94-5.62-4.5-8.39-3.66,2.93-7.4,6.16-11.49,8.45-9.47,4.99-20.03,7.16-30.66,5.33,2.31-5.25,5.16-10.16,6.85-15.69l.74-.54c4.76.71,9.53,1.66,14.13,3.1,2.86.82,5.38,1.72,8.31.59,4.77-1.86,9.86-4.36,12.93-8.59,1.2.26,2.4.53,3.6.79-1.24-1.22-2.47-2.44-3.72-3.65,2.76-1.48,4.79-3.05,6.56-5.63-.43-4.15.5-6.83,2.79-10.31Z"/>
      <path class="cls-1" d="M52.36,22.17c.18,1.69,1.37,3.97.06,5.38-1.85,2.64-4.59,2.53-7.47,3.1.47-1.62.8-3.45,1.66-4.91,1.42-1.65,3.85-2.58,5.75-3.57Z"/>
      <path class="cls-20" d="M127.88,21.61c7.04,5.37,12.52,12.91,16.43,20.79,3.46,7.67,5.79,16.69,3.42,25.01-5.23-2.7-10.42-5.35-15.14-8.91.74-3.05,1.39-6.12,1.96-9.2-2.57,1.93-5.02,4.53-7.96,5.86-4.06.71-8.41.03-12.54.27-1.35-3.96-1.85-7.86-1.91-12.04,1.56,2.77,3.04,5.57,4.5,8.39,3.52-.92,6.81-1.8,9.53-4.37,4-3.42,4.83-8.96,4.19-13.92-.63-4.45-3.18-7.38-2.48-11.88Z"/>
      <path class="cls-12" d="M21.96,24.3c.79.72,1.57,1.46,2.34,2.2-3.7,4.27-7.59,8.33-12.12,11.73l-.15-1.84c2.78-4.41,6.12-8.52,9.93-12.09Z"/>
      <path class="cls-19" d="M11.3,44.07c1.94,1.02,3.87,2.45,5.98,3.05,4.8-.56,8.4-2.73,13.3-.85-4.24,4.62-8.45,8.87-14.08,11.8-.62-1.8-1.24-3.6-1.87-5.4-4.28,3.82-6.26,8.97-9.98,13.21-.63-5.59-.25-11,1.54-16.34,1.57-1.94,3.27-3.79,5.11-5.47Z"/>
      <path class="cls-2" d="M108.91,52.98c.13,1.24.25,2.48.38,3.72-1.47-.07-2.94-.15-4.41-.24,1.33-1.17,2.68-2.33,4.03-3.48Z"/>
      <path class="cls-16" d="M65.35,56.31c.04,1.08.08,2.16.13,3.24-3.89,1.71-7.52,3.58-11.75,4.37-5.09.94-10.31,1.63-15.48,1.78-4.36.16-8.36-1.47-12.61-1.73-1.43,1.27-2.52,3.04-3.49,4.68-.57.15-1.15.3-1.72.46-.82-1-1.65-2-2.49-2.99.89-3.22,4.84-4.95,7.3-7,2.54,2.07,5.06,3.57,8.42,3.8,11.05,1.04,21.75-2.02,31.69-6.61Z"/>
      <path class="cls-10" d="M65.48,59.55c.17.74.35,1.49.55,2.23,1.17,1.64,2.4,2.93,4.45,3.4,7.88,2.19,17.18.47,24.91-1.69,3.17-.86,6.56-2.17,9.85-2.27,4.09.19,8.06,2.36,12.18,2.76,2.99.37,6.12-.05,9.06.56,2.36,1.87,3.57,5.43,4.42,8.23,1.5,5.73,2.11,11.64,3.65,17.37,1.48,5.52,1.88,10.95.99,16.62-.53-.82-1.06-1.63-1.61-2.44-1.69-2.21-3.35-4.48-6.12-5.38-3.86-1.18-8.45-.92-12,1.08-2.8,1.59-4.81,4.77-4.16,8.05.78,2.26,3,4.13,4.59,5.87-3.13,5.1-7.33,8.04-13.27,8.95-5.56.55-10.86,1.72-16.5,1.11-4.52-.55-8.04,2.43-12.65,2.2-6.04-.14-11.68.47-17.29-1.11-4.84-1.33-9.57-2.66-14.01-4.99-4.79-2.8-9.97-1.19-14.49-4.81,2.44-.55,4.9-1.02,7.32-1.62,4.32-1.19,8.56-6.17,5.29-10.51-4.94-5.54-12.03-5-18.52-2.9.25-.79.5-1.57.74-2.36-2-.94-4-1.88-6.04-2.75.33-3.1.9-6.15,1.56-9.19,1.31-5.93,1.72-11.56,3.77-17.31.97-1.64,2.06-3.41,3.49-4.68,4.25.26,8.25,1.89,12.61,1.73,5.17-.15,10.39-.84,15.48-1.78,4.23-.79,7.86-2.66,11.75-4.37Z"/>
      <path class="cls-18" d="M101.52,59.92c4.68.04,9.21.92,13.82,1.62,3.99.61,7.72-.96,11.58-.81,2.97,1.81,6.92,4.69,7.51,8.35,1.57,6.95,1.56,14.23,3.04,21.18,1.07,5.08,4.28,8.09,3.97,13.17-.58,9.35-4.38,18.47-11.59,24.63-6.55,5.84-14.45,9.05-22.88,11.13-14.4,3.45-29.57,4.11-44.28,2.71-13.02-1.4-26.86-4.2-37.4-12.47-6.57-4.98-11.07-12.01-13.19-19.95.83-.74,1.66-1.49,2.48-2.23.8,1.11,1.6,2.22,2.34,3.37,2.07,4.53,4.21,8.8,8,12.16,8.57,7.93,19.12,10.9,30.41,12.54,9.73,1.23,20.12,2.35,29.88,1.14,10.08-1.28,19.61-2.15,29.11-5.96,6.34-2.52,12.38-5.89,16.31-11.66,2.54-3.67,3.9-7.77,4.91-12.08.89-5.67.49-11.1-.99-16.62-1.54-5.73-2.15-11.64-3.65-17.37-.85-2.8-2.06-6.36-4.42-8.23-2.94-.61-6.07-.19-9.06-.56-4.12-.4-8.09-2.57-12.18-2.76-3.29.1-6.68,1.41-9.85,2.27-7.73,2.16-17.03,3.88-24.91,1.69-2.05-.47-3.28-1.76-4.45-3.4,7.33,1.54,14.75,2.03,22.14.56,4.86-.8,8.67-2.7,13.35-2.42Z"/>
      <path class="cls-5" d="M13.19,64.15c.37,4.57.12,9.08-.47,13.62-.59,4.45-.67,9.08-1.73,13.45-.58,1.51-.5,3.03-2.51,3.13-2.25-3.98-2.51-8.31-2.11-12.78.8-6.67,1.32-12.82,6.82-17.42Z"/>
      <path class="cls-22" d="M17.94,66.12c.84.99,1.67,1.99,2.49,2.99.57-.16,1.15-.31,1.72-.46-2.05,5.75-2.46,11.38-3.77,17.31-.66,3.04-1.23,6.09-1.56,9.19-.62,5.15-.73,10.33.1,15.47-.74-1.15-1.54-2.26-2.34-3.37-.82.74-1.65,1.49-2.48,2.23-.54-3.08-1.07-6.56-.34-9.64,1.1-3.14,2.96-5.83,3.64-9.16,1.78-8.02,1.16-16.4,2.54-24.56Z"/>
      <path class="cls-7" d="M43.55,69.63c3.78-1.49,8.56-.6,11.84,1.7,6.14,4.45,7.94,12.33,6.16,19.45-1.63,6.79-7.99,12.14-15.11,11.57-6.55-.54-11.58-5.88-12.85-12.15-2.09-8.25,2.01-17.27,9.96-20.57Z"/>
      <path class="cls-7" d="M99.58,69.74c4.72-1.84,10-.66,13.76,2.63,6.07,4.95,7.39,14.55,4.35,21.47-2.71,6.31-10.16,10.01-16.78,7.96-5.69-1.61-9.59-6.71-10.69-12.38-1.22-7.73,1.53-16.63,9.36-19.68Z"/>
      <path class="cls-11" d="M43.82,72.11c1.96-.67,4.17-.36,5.57,1.26,1.95,1.92,1.88,5.29.17,7.34-2.17,3.12-7.87,3.93-9.84.16-1.83-3.64.43-7.59,4.1-8.76Z"/>
      <path class="cls-13" d="M98.69,72.73c2.7-1.6,6.03-1.02,7.67,1.74,1.92,3.24-.23,7.46-3.51,8.75-2.45,1.13-5.71-.11-7.07-2.37-.89-3.19-.32-6.57,2.91-8.12Z"/>
      <path class="cls-3" d="M140.69,73.87c1.49-.13,2.94-.1,4.44-.09,1.44,7.22,2.61,13.85-1.72,20.39-3-6.36-3.72-13.39-2.72-20.3Z"/>
      <path class="cls-23" d="M16.82,95.15c2.04.87,4.04,1.81,6.04,2.75-.24.79-.49,1.57-.74,2.36-.72,3.1-2.88,6.82-.3,9.62,3.33,4.09,8.7,4.18,13.53,3.79-2.42.6-4.88,1.07-7.32,1.62,4.52,3.62,9.7,2.01,14.49,4.81,4.44,2.33,9.17,3.66,14.01,4.99,5.61,1.58,11.25.97,17.29,1.11,4.61.23,8.13-2.75,12.65-2.2,5.64.61,10.94-.56,16.5-1.11,5.94-.91,10.14-3.85,13.27-8.95,4.61-.07,10.31.63,14.26-2.2,2.37-1.5,2.69-4.94,3.43-7.42.55.81,1.08,1.62,1.61,2.44-1.01,4.31-2.37,8.41-4.91,12.08-3.93,5.77-9.97,9.14-16.31,11.66-9.5,3.81-19.03,4.68-29.11,5.96-9.76,1.21-20.15.09-29.88-1.14-11.29-1.64-21.84-4.61-30.41-12.54-3.79-3.36-5.93-7.63-8-12.16-.83-5.14-.72-10.32-.1-15.47Z"/>
      <path class="cls-6" d="M40.64,103.16c3.27,4.34-.97,9.32-5.29,10.51-4.83.39-10.2.3-13.53-3.79-2.58-2.8-.42-6.52.3-9.62,6.49-2.1,13.58-2.64,18.52,2.9Z"/>
      <path class="cls-4" d="M127.81,98.94c2.77.9,4.43,3.17,6.12,5.38-.74,2.48-1.06,5.92-3.43,7.42-3.95,2.83-9.65,2.13-14.26,2.2-1.59-1.74-3.81-3.61-4.59-5.87-.65-3.28,1.36-6.46,4.16-8.05,3.55-2,8.14-2.26,12-1.08Z"/>
      <path class="cls-8" d="M63.07,104.12c1.85,1.59,3.34,3.85,5.39,5.15,3.82,2.21,8.47,2.48,12.6.98,3.82-1.25,5.41-5.03,9.29-6.36-.43,2.63-.73,4.95-2.93,6.72-6.68,5.64-18.98,5.2-24.75-1.56-1.2-1.34-2.55-4.97.4-4.93Z"/>
    </g>
  </g>
</svg>