<?xml version="1.0" encoding="UTF-8"?>
<svg id="Capa_2" data-name="Capa 2" xmlns="http://www.w3.org/2000/svg" viewBox="0 0 153.84 148.05">
  <defs>
    <style>
      .cls-1 {
        fill: #461f13;
      }

      .cls-2 {
        fill: #bf6741;
      }

      .cls-3 {
        fill: #411c11;
      }

      .cls-4 {
        fill: #f8a65d;
      }

      .cls-5 {
        fill: #fc6a57;
      }

      .cls-6 {
        fill: #fc6a56;
      }

      .cls-7 {
        fill: #0e0703;
      }

      .cls-8 {
        fill: #32150e;
      }

      .cls-9 {
        fill: #e42e24;
      }

      .cls-10 {
        fill: #ac5a38;
      }

      .cls-11 {
        fill: #401c10;
      }

      .cls-12 {
        fill: #c01d1b;
      }

      .cls-13 {
        fill: #d1793e;
      }

      .cls-14 {
        fill: #502415;
      }

      .cls-15 {
        fill: #0a0602;
      }

      .cls-16 {
        fill: #451e12;
      }

      .cls-17 {
        fill: #753a23;
      }

      .cls-18 {
        fill: #c77149;
      }

      .cls-19 {
        fill: #0c0601;
      }

      .cls-20 {
        fill: #fdb268;
      }
    </style>
  </defs>
  <g id="Capa_1-2" data-name="Capa 1">
    <g id="head_happy">
      <path class="cls-7" d="M77.28,0c13.97.46,28.36,3.11,40.87,9.56,14.35,7.52,26.85,20.24,32.42,35.63,2.23,6.39,3.78,13.52,3.11,20.31-.28,3.26-2.15,5.32-3.47,8.13-.19,5.91,1.06,12.09-.49,18.33-.73,2.83-2.51,4.61-4.04,6.96-.44,3.39-.03,6.84-.67,10.23-1.66,9.02-6.35,17.68-13.36,23.66-7.82,7.08-19.05,10.77-29.26,12.67-11.57,2.43-23.34,2.94-35.13,2.34-13.95-1.22-27.5-3.29-39.68-10.68-10.8-6.69-19.01-17.85-20.1-30.73-.43-3.58,1.03-7.09-1.2-9.95-4.35-6.61-3.15-14.59-2.66-22.04.39-2.28-1.4-4.01-2.21-6.16-2.45-5.72-1.22-12.75.06-18.63,3.06-11.97,10.85-22.87,20.35-30.64C36.84,5.93,57.62-.15,77.28,0Z"/>
      <path class="cls-10" d="M79.54,4.48c-2.19.88-4.31,1.92-6.5,2.8-7.14,1.02-14.46,2-21.38,4.14-1.52-.76-3.03-1.51-4.58-2.2,10.42-3.98,21.38-5.07,32.46-4.74Z"/>
      <path class="cls-17" d="M79.54,4.48c3.45-.05,6.78.49,10.18.95-5.51,1.84-10.93,1.94-16.68,1.85,2.19-.88,4.31-1.92,6.5-2.8Z"/>
      <path class="cls-14" d="M89.72,5.43c17.8,1.99,35.08,10.43,46.79,24.14-1.47-.21-2.93-.43-4.4-.59.21,4.12,1.13,8.74.33,12.79-1.29,5.66-5.69,10.73-11.25,12.54-2.73,1.02-5.37-.81-7.8-1.83-.53-3.22-1.03-6.44-1.72-9.63-5.29,4.03-9.89,8.16-16.09,10.84-8.24,3.66-16.66,3.91-25.52,3.48,2.43-5,5.39-9.47,6.67-14.97-5.84,2.98-10.3,7.66-16.21,10.45-5.82,2.84-12.73,3.99-19.09,4.94-3.78.59-7.52.26-11.28-.35,1.45-5.48,3.96-10.46,6.04-15.7-3.95,3.65-7.55,7.69-11.66,11.14-2.66-.87-5.4-1.64-7.98-2.75-3.21-1.34-5.77-4.43-8.36-6.73.67-1.28,1.41-2.51,2.14-3.76l.05,1.74c4.47-4.49,8.29-9.51,13.12-13.67.68,1.83,1.25,3.95,2.41,5.53,5.72,1.92,14.35-3.45,15.79-9.19,1.1-3.02-2.36-4.62-4.14-6.37,4.66-2.04,9.33-4.39,14.1-6.06,6.92-2.14,14.24-3.12,21.38-4.14,5.75.09,11.17,0,16.68-1.85Z"/>
      <path class="cls-18" d="M47.08,9.22c1.55.69,3.06,1.44,4.58,2.2-4.77,1.67-9.44,4.02-14.1,6.06,1.78,1.75,5.24,3.35,4.14,6.37-1.44,5.74-10.07,11.11-15.79,9.19-1.16-1.58-1.73-3.7-2.41-5.53-4.83,4.16-8.65,9.18-13.12,13.67l-.05-1.74c1.85-3.37,3.98-6.57,6.39-9.57,7.41-9.72,19.04-16.46,30.36-20.65Z"/>
      <path class="cls-2" d="M51.79,22.64c.91.71,1.82,1.43,2.71,2.15-1.12,1.65-2.24,3.82-3.95,4.92-1.7.77-3.8.78-5.62,1.03.44-1.67.69-3.62,1.59-5.11,1.19-1.61,3.44-2.37,5.27-2.99Z"/>
      <path class="cls-8" d="M132.11,28.98c1.47.16,2.93.38,4.4.59,2.82,3.2,5.11,6.79,7.08,10.57-2.07-.46-4.15-.93-6.23-1.31.78,6.65,2.55,13.28,5.17,19.45,1.31,3.22,3.77,5.2,6.41,7.29-.19.72-.39,1.44-.6,2.16-5.48-2.35-10.64-5.01-15.03-9.13.89-3.33,1.64-6.68,2.27-10.07-3.07,2.54-6.09,5.71-9.66,7.51-3.02,1.37-6.83,1.87-10.02.86-1.86-.52-1.95-2.86-2.51-4.42,2.43,1.02,5.07,2.85,7.8,1.83,5.56-1.81,9.96-6.88,11.25-12.54.8-4.05-.12-8.67-.33-12.79Z"/>
      <path class="cls-16" d="M137.36,38.83c2.08.38,4.16.85,6.23,1.31,3.95,7.42,7.32,17,5.35,25.43-2.64-2.09-5.1-4.07-6.41-7.29-2.62-6.17-4.39-12.8-5.17-19.45Z"/>
      <path class="cls-3" d="M8.19,43.2c2.59,2.3,5.15,5.39,8.36,6.73,2.58,1.11,5.32,1.88,7.98,2.75-2.95,2.4-6.22,4.24-9.58,6-.02-1.68-.04-3.35-.05-5.02-2.62,4.28-5.58,8.03-9.62,11.07-1.77-7.39-.3-14.78,2.91-21.53Z"/>
      <path class="cls-13" d="M108.34,53.41c1.47,3.06,1.97,7.17,5.74,8.22,4.81,1.82,8.84-.14,13.51-.04,2.45,1.27,5.52,3.48,6.61,6.08,1.94,7.86,1.75,16.28,3.8,24.13.81,3.21,2.92,6.37,3,9.64.04,8.52-2.62,16.94-8.37,23.34-7.38,8.52-17.36,12.49-28.11,14.9-17.31,3.65-35.56,3.88-52.94.49-8.72-1.68-17.78-4.77-25.05-9.98-7.05-5.27-12.72-13.21-13.93-22.08-.79-4.4-.86-8.25,1.59-12.17,2.23,5.08,2.46,10.44,3.93,15.69,2.01,6.91,7.23,12.05,13.13,15.84,7.46,4.79,16.43,6.64,25.07,7.96,14.36,1.93,28.88,2.12,43.13-.8,10.53-1.81,20.36-5.32,28.2-12.82,4.8-4.47,6.97-11.5,8.19-17.76,1.68-8.99-2.76-17.9-4.21-26.96-.72-3.26-.91-8.05-3.37-10.53-4.01-1.8-9.44-.56-13.56-2.59-2.7-1.43-5.01-3.94-7.41-5.84-4.82,2.14-9.19,4.78-14.43,5.91-6.34,1.42-13.3,2.61-19.78,1.65-3.69-.52-6.23-2.58-9.12-4.7-10.47,4.26-22.33,6.17-33.54,4.33-2.91-.39-5.27-.59-7.12,2.12-2.96,4.68-3.02,11.42-3.98,16.79-.73-.59-1.46-1.18-2.19-1.77.43-5.27.52-10.64,1.41-15.85.02-3.2,4.45-4.77,6.94-5.81,3.32.45,6.3,2.28,9.77,2.33,10.45.26,20.85-1.44,30.01-6.71.28,1.61.44,3.45,1.16,4.93,3.7,1.99,8.78,1.9,12.88,1.88,10.73-.26,20.44-3.35,29.04-9.82Z"/>
      <path class="cls-20" d="M107.29,58.13c2.4,1.9,4.71,4.41,7.41,5.84,4.12,2.03,9.55.79,13.56,2.59,2.46,2.48,2.65,7.27,3.37,10.53-1.59,1.94-3.26,4.02-4.37,6.28-1.52,3.09-2,6.66-3.44,9.76-2.52.98-5.35,1.24-7.98,1.8,3.48,1.26,6.88,1.11,10.51,1.08,2.4-.33,4.22,2.75,5.47,4.44-4.38-1.28-8.58-2.75-13.2-1.66-3.74.88-7.12,3.63-7.39,7.69.13,2.3,1.84,4.6,2.89,6.6-2.26,1.26-4.89,3.26-7.53,3.46-3.23-.62-6.2-2.12-9.53-2.45.87-3.47,1.56-7.59.6-11.09-1.66-2.9-4.93-3.39-7.96-3.8-8-.69-16.1-.61-24.12-.18-2.66.24-5.66.46-8.09,1.64-2.37,1.24-2.78,4.37-2.66,6.77.53,6.09,3.23,12.07,7.63,16.35-1.1,1.92-2.31,4.39-4.33,5.44-3.38-.72-6.61-2.59-9.74-4.02-2.14.67-4.29,1.31-6.46,1.9.3-.9.59-1.8.88-2.7-6.41-1.73-9.27-6.83-14.89-9.89,3.81-.16,8.5-.23,11.53-2.89,2.38-2,3.4-5.31,1.83-8.13-2.31-3.97-7.65-5.28-11.94-5-4.02.22-7.78,2.05-9.33,5.96-.56,1.28-1.09,2.58-1.63,3.87-.42-2.17-1.03-4.47-.96-6.7.48-1.65,1.41-3.22,2.22-4.74-1.19-1.71-2.42-3.4-3.66-5.06.65-3.1.94-6.21,1.15-9.36.73.59,1.46,1.18,2.19,1.77.96-5.37,1.02-12.11,3.98-16.79,1.85-2.71,4.21-2.51,7.12-2.12,11.21,1.84,23.07-.07,33.54-4.33,2.89,2.12,5.43,4.18,9.12,4.7,6.48.96,13.44-.23,19.78-1.65,5.24-1.13,9.61-3.77,14.43-5.91Z"/>
      <path class="cls-1" d="M13.21,70.09c-.08,7.56.84,17.63-3.68,24.1-2.27-6.06-2.89-12.87-1.63-19.21.48-3.02,3.04-3.5,5.31-4.89Z"/>
      <path class="cls-11" d="M144.52,72.88c2.44,7.16,3.09,14.78-1.12,21.44-3.14-6.51-3.21-13.23-3.1-20.29,1.41-.4,2.8-.8,4.22-1.15Z"/>
      <path class="cls-15" d="M45.31,74.17c7.27-.13,15.05,5.33,16.59,12.57.39,2.28.49,4.89-2.54,5-2.08-1.66-3.56-3.98-5.56-5.84-2.39-2.29-5.94-3.4-9.21-2.96-6.12.99-7.93,5.39-11.62,9.51-2.85,1.09-3.85-1.56-3.57-3.93,1.08-7.62,8.29-13.9,15.91-14.35Z"/>
      <path class="cls-15" d="M107.29,74.12c7.93.37,15.18,6.75,16.7,14.5.32,2.52-.93,4.35-3.59,4.34-2.18-2.03-3.6-4.91-5.79-6.86-3.29-2.77-7.89-3.96-12.02-2.42-4.11,1.31-6.45,5.66-9.36,8.68-1.58-1.6-3.22-2.22-2.73-4.81,1.36-7.57,9.07-13.77,16.79-13.43Z"/>
      <path class="cls-4" d="M131.63,77.09c1.45,9.06,5.89,17.97,4.21,26.96-1.22,6.26-3.39,13.29-8.19,17.76-7.84,7.5-17.67,11.01-28.2,12.82-14.25,2.92-28.77,2.73-43.13.8-8.64-1.32-17.61-3.17-25.07-7.96-5.9-3.79-11.12-8.93-13.13-15.84-1.47-5.25-1.7-10.61-3.93-15.69.65-1.35,1.25-2.72,1.79-4.12,1.24,1.66,2.47,3.35,3.66,5.06-.81,1.52-1.74,3.09-2.22,4.74-.07,2.23.54,4.53.96,6.7.54-1.29,1.07-2.59,1.63-3.87.09,1.74.09,3.76.82,5.37,1.75,2.12,4.7,3.41,7.09,4.69,5.62,3.06,8.48,8.16,14.89,9.89-.29.9-.58,1.8-.88,2.7,2.17-.59,4.32-1.23,6.46-1.9,3.13,1.43,6.36,3.3,9.74,4.02,2.02-1.05,3.23-3.52,4.33-5.44,5.2,4,11.58,6.27,18.16,4.91,7.71-1.41,13.66-7.48,16.44-14.6,3.33.33,6.3,1.83,9.53,2.45,2.64-.2,5.27-2.2,7.53-3.46,6.29,1.12,12.34,2.68,17.55-2.21,3.17-3.07,1.36-6.92.15-10.42-1.25-1.69-3.07-4.77-5.47-4.44-3.63.03-7.03.18-10.51-1.08,2.63-.56,5.46-.82,7.98-1.8,1.44-3.1,1.92-6.67,3.44-9.76,1.11-2.26,2.78-4.34,4.37-6.28Z"/>
      <path class="cls-5" d="M29.34,98.49c4.29-.28,9.63,1.03,11.94,5,1.57,2.82.55,6.13-1.83,8.13-3.03,2.66-7.72,2.73-11.53,2.89-2.39-1.28-5.34-2.57-7.09-4.69-.73-1.61-.73-3.63-.82-5.37,1.55-3.91,5.31-5.74,9.33-5.96Z"/>
      <path class="cls-19" d="M65.58,99.02c8.02-.43,16.12-.51,24.12.18,3.03.41,6.3.9,7.96,3.8.96,3.5.27,7.62-.6,11.09-2.78,7.12-8.73,13.19-16.44,14.6-6.58,1.36-12.96-.91-18.16-4.91-4.4-4.28-7.1-10.26-7.63-16.35-.12-2.4.29-5.53,2.66-6.77,2.43-1.18,5.43-1.4,8.09-1.64Z"/>
      <path class="cls-6" d="M118.62,98.79c4.62-1.09,8.82.38,13.2,1.66,1.21,3.5,3.02,7.35-.15,10.42-5.21,4.89-11.26,3.33-17.55,2.21-1.05-2-2.76-4.3-2.89-6.6.27-4.06,3.65-6.81,7.39-7.69Z"/>
      <path class="cls-12" d="M73.23,111.41c6-.05,11.83-.59,16.45,3.94-5.49.18-10.98-.6-16.46-.27-4.35.27-7.12,2.85-10.38,5.39-.67-1.46-2.29-2.86-1.04-4.43,2.48-3.53,7.41-4.44,11.43-4.63Z"/>
      <path class="cls-9" d="M73.22,115.08c5.48-.33,10.97.45,16.46.27.77.72,1.53,1.44,2.28,2.17-3.98,7.19-12.45,10.7-20.36,8.6-3.58-.93-6.17-3.14-8.76-5.65,3.26-2.54,6.03-5.12,10.38-5.39Z"/>
    </g>
  </g>
</svg>