<?xml version="1.0" encoding="UTF-8"?>
<svg id="Capa_2" data-name="Capa 2" xmlns="http://www.w3.org/2000/svg" viewBox="0 0 159.54 158.3">
  <defs>
    <style>
      .cls-1 {
        fill: #fdbe02;
      }

      .cls-2 {
        fill: #0b0703;
      }

      .cls-3 {
        fill: #fdb400;
      }

      .cls-4 {
        fill: #fc6101;
      }

      .cls-5 {
        fill: #fd9813;
      }

      .cls-6 {
        fill: #e21f00;
      }

      .cls-7 {
        fill: #c41400;
      }

      .cls-8 {
        fill: #f6f6f6;
      }

      .cls-9 {
        fill: #f9a050;
      }

      .cls-10 {
        fill: #fd6903;
      }

      .cls-11 {
        fill: #fe6502;
      }

      .cls-12 {
        fill: #fc5c01;
      }

      .cls-13 {
        fill: #fd9325;
      }

      .cls-14 {
        fill: #fa5b02;
      }

      .cls-15 {
        fill: #fc6654;
      }

      .cls-16 {
        fill: #0d0900;
      }

      .cls-17 {
        fill: #fca632;
      }

      .cls-18 {
        fill: #fa6603;
      }

      .cls-19 {
        fill: #de2b1f;
      }

      .cls-20 {
        fill: #c41701;
      }

      .cls-21 {
        fill: #b81601;
      }

      .cls-22 {
        fill: #fda18f;
      }

      .cls-23 {
        fill: #fea898;
      }

      .cls-24 {
        fill: #563001;
      }

      .cls-25 {
        fill: #f69530;
      }

      .cls-26 {
        fill: #feb402;
      }

      .cls-27 {
        fill: #f38605;
      }

      .cls-28 {
        fill: #180602;
      }

      .cls-29 {
        fill: #fcb063;
      }

      .cls-30 {
        fill: #180a03;
      }

      .cls-31 {
        fill: #c01d17;
      }

      .cls-32 {
        fill: #310705;
      }

      .cls-33 {
        fill: #fba64c;
      }

      .cls-34 {
        fill: #fba238;
      }

      .cls-35 {
        fill: #f9a24f;
      }

      .cls-36 {
        fill: #d97929;
      }

      .cls-37 {
        fill: #f5f5f5;
      }

      .cls-38 {
        fill: #fc6858;
      }

      .cls-39 {
        fill: #dc6e01;
      }

      .cls-40 {
        fill: #fb4101;
      }

      .cls-41 {
        fill: #ef3200;
      }

      .cls-42 {
        fill: #401e02;
      }

      .cls-43 {
        fill: #fcfcfc;
      }

      .cls-44 {
        fill: #481a0c;
      }

      .cls-45 {
        fill: #451b0e;
      }

      .cls-46 {
        fill: #fc7202;
      }

      .cls-47 {
        fill: #d6741e;
      }

      .cls-48 {
        fill: #f8a60b;
      }

      .cls-49 {
        fill: #361503;
      }

      .cls-50 {
        fill: #fb8303;
      }

      .cls-51 {
        fill: #d61c00;
      }

      .cls-52 {
        fill: #0c0601;
      }

      .cls-53 {
        fill: #0c0702;
      }
    </style>
  </defs>
  <g id="Capa_1-2" data-name="Capa 1">
    <g id="head_burning">
      <path class="cls-32" d="M109.91,6.1c6.12,5.26,9.85,11.92,13.76,18.84,2.28-3.16,1.98-6.37,2.52-10,1.56-1.74,2.7-.27,4.37.41,6.82,4,12.16,10.6,15.15,17.87,1.56,3.78,1.4,7.49,1.6,11.49,1.68-.66,3.34-1.34,5.02-1.98,6.22,7.54,8.07,18.8,6.86,28.25-1.84-2.33-3.47-4.77-4.69-7.47.08-6.11-.96-11.1-3.2-16.75-2.66,2.13-5.35,4.2-8.18,6.09-2.18-5.49.23-10.44-.96-16-.36-1.75-.97-3.38-1.66-5.02-2.19-5.44-6.11-9.29-10.43-13.08-.69,2.54-1.09,5.72-2.7,7.86-1.57,1.76-5.22,3.29-7.16,1.31-1.84-2.3-2.89-5.31-4.28-7.91-2.49-5.03-6.16-9.26-10.44-12.86-1.17-1-2.36-1.97-3.58-2.92-.58,2.05-.98,4.14-1.3,6.25-1.71,2.39-3.4,4.85-6.05,6.27-4.22,2.24-9.18,2.67-13.86,2.98-.41-1.95-.81-3.9-1.19-5.85.93-1.9,1.85-3.8,2.77-5.71-8.47.08-17.07,2.09-24.8,5.52-6.13,2.89-11.52,7.06-15.06,12.92-2.01,3.41-4.2,6.45-7.15,9.13-4.34-3.6-4.13-8.09-5.06-13.18-7.16,8.26-13.68,17.9-14.15,29.19-.11,2.94-.09,5.88-.1,8.82-.34-.77-.67-1.54-1.01-2.31-1.24-3.76-2.65-7.42-4.71-10.83-2.38,4.75-4.26,9.94-4.92,15.23-.63,5.02,1.6,9.97,3.96,14.27-2.03,1.45-4.09,2.85-6.19,4.19-2.63-4.65-3.56-10.27-2.87-15.55.73-5.32,2.66-10.6,4.48-15.64,1.06-3.03,2.85-5.58,4.86-8.05,1.29.58,2.56,1.18,3.84,1.78,2.8-8.4,7.35-16.14,13.47-22.55,1.98-2.14,4.35-3.36,7.08-4.29.31,4.18.38,8.25,1.87,12.23,2.58-3.18,4.37-6.81,7.12-9.88,4.72-5.48,11.79-9.13,18.53-11.46,7.98-2.42,17.04-3.9,25.3-2.29-.89,3.54-2.12,6.97-2.83,10.56,4.58.29,8.69-1.71,11.56-5.23C97.73,7.67,97.67,3.61,98.22,0c4.53-.02,8.4,3.33,11.69,6.1Z"/>
      <path class="cls-40" d="M101.91,4.23c1.22.95,2.41,1.92,3.58,2.92.66,7.14,6.26,9.22,9.19,15.15,2.46,4.88,3.77,10.35,5.76,15.44,4.66-3.53,8.34-7.92,12.16-12.3,2.54,5.91,3.98,12.08,5.06,18.41-.11,1.6-.23,3.2-.28,4.8-2.5-3.14-5.15-6.24-7.87-9.2-.99,3.11-1.85,6.26-2.78,9.39-1.48-2.58-3.12-5.08-4.86-7.49-3.49-4.24-8.09-4.14-12.91-5.85-.52-.93-.99-1.88-1.43-2.84-1.31-3.19-2.81-6.29-4.7-9.18-1.76,2.05-3.31,4.11-5.23,6.02-2.82-.8-6.12-2.02-9.08-1.68-4.47.66-8.69,3.58-13.1,4.39-2.41-1.71-4.13-4.46-6.58-6.1-2.67-1.46-6.27-1.36-9.2-.85-3.92,4.08-6.99,8.84-8.44,14.35-.32,1.16-.64,2.32-.95,3.49-.84-.86-1.68-1.72-2.52-2.58-1.6,2.34-3.12,4.74-4.59,7.16-2.85-1.84-5.62-3.77-8.31-5.84-.43.49-.86.99-1.3,1.48-3.63,4.45-9.24,9.57-10.19,15.42-.83,4.08.85,7.22,2.53,10.79-1.02,1.93-2.11,3.81-3.49,5.52-1.97-3.78-4.03-7.56-6.12-11.27.11.86.24,1.71.39,2.57-1.63.91-3.23,1.88-4.83,2.85.04,2.22.07,4.45.11,6.68-1.91-2.43-3.64-5.07-3.67-8.28-.01-4.14,1.66-8.3,3.09-12.13,1.2.92,2.42,1.84,3.6,2.79.34.77.67,1.54,1.01,2.31.01-2.94-.01-5.88.1-8.82.87.21,1.74.42,2.61.63,1.08-4.07,1.94-8.23,3.29-12.21,1.24-3.56,3.2-6.5,5.23-9.64,1.15,2.42,2.29,4.84,3.39,7.28,2.89.23,5.89,1.11,8.44-.74,6-3.83,5.8-11.03,11.2-15.6,7.46-6.25,16.17-7.47,25.51-8.51.36,3.58.98,7.05,2.06,10.48,4.62-.82,8.99-2.36,13.52-3.55,3.09-.83,6.33-2.41,8.37-4.93.73-1.28.68-3.05.93-4.48.32-2.11.72-4.2,1.3-6.25Z"/>
      <path class="cls-6" d="M82.28,8.17c-.92,1.91-1.84,3.81-2.77,5.71-.84-.28-1.67-.56-2.51-.83.25,3.46.54,6.93.79,10.39-1.08-3.43-1.7-6.9-2.06-10.48-9.34,1.04-18.05,2.26-25.51,8.51-5.4,4.57-5.2,11.77-11.2,15.6-2.55,1.85-5.55.97-8.44.74-1.1-2.44-2.24-4.86-3.39-7.28-2.03,3.14-3.99,6.08-5.23,9.64-1.35,3.98-2.21,8.14-3.29,12.21-.87-.21-1.74-.42-2.61-.63.47-11.29,6.99-20.93,14.15-29.19.93,5.09.72,9.58,5.06,13.18,2.95-2.68,5.14-5.72,7.15-9.13,3.54-5.86,8.93-10.03,15.06-12.92,7.73-3.43,16.33-5.44,24.8-5.52Z"/>
      <path class="cls-51" d="M105.49,7.15c4.28,3.6,7.95,7.83,10.44,12.86,1.39,2.6,2.44,5.61,4.28,7.91,1.94,1.98,5.59.45,7.16-1.31,1.61-2.14,2.01-5.32,2.7-7.86,4.32,3.79,8.24,7.64,10.43,13.08-2.35,3.66-2.24,7.76-2.84,12.02-1.08-6.33-2.52-12.5-5.06-18.41-3.82,4.38-7.5,8.77-12.16,12.3-1.99-5.09-3.3-10.56-5.76-15.44-2.93-5.93-8.53-8.01-9.19-15.15Z"/>
      <path class="cls-21" d="M100.61,10.48c-.25,1.43-.2,3.2-.93,4.48-2.04,2.52-5.28,4.1-8.37,4.93-4.53,1.19-8.9,2.73-13.52,3.55-.25-3.46-.54-6.93-.79-10.39.84.27,1.67.55,2.51.83.38,1.95.78,3.9,1.19,5.85,4.68-.31,9.64-.74,13.86-2.98,2.65-1.42,4.34-3.88,6.05-6.27Z"/>
      <path class="cls-1" d="M102.83,23.48c1.89,2.89,3.39,5.99,4.7,9.18.28,3.73.41,7.88-.69,11.49-1.28,4.1-4.64,7.14-7.97,9.65-6.36,2.25-8.49,8.13-15.05,9.23-4.95.84-10.39.9-15.21-.64-5.89-1.99-7.65-7.73-14.04-8.62-2.76-4.74-3.69-8.64-3.37-14.16,1.45-5.51,4.52-10.27,8.44-14.35,1.42,6.76,3.01,13.12,7.55,18.54,3.35,3.14,7.15,5.14,11.11,7.37,2.21-5.86,4.21-11.43,8.84-15.89,3.33-2.23,7-3.78,10.46-5.78,1.92-1.91,3.47-3.97,5.23-6.02Z"/>
      <path class="cls-12" d="M68.84,26.11c2.45,1.64,4.17,4.39,6.58,6.1,4.41-.81,8.63-3.73,13.1-4.39,2.96-.34,6.26.88,9.08,1.68-3.46,2-7.13,3.55-10.46,5.78-5.65,2.16-11.32,2.68-17.28,3.21-.9,1.77-1.78,3.54-2.67,5.31-4.54-5.42-6.13-11.78-7.55-18.54,2.93-.51,6.53-.61,9.2.85Z"/>
      <path class="cls-11" d="M107.53,32.66c.44.96.91,1.91,1.43,2.84,4.82,1.71,9.42,1.61,12.91,5.85-1.32,4.2-2.45,8.32-4.87,12.06-6.1-.63-11.99,1.2-18.13.39,3.33-2.51,6.69-5.55,7.97-9.65,1.1-3.61.97-7.76.69-11.49Z"/>
      <path class="cls-20" d="M140.5,31.83c.69,1.64,1.3,3.27,1.66,5.02,1.19,5.56-1.22,10.51.96,16,2.83-1.89,5.52-3.96,8.18-6.09,2.24,5.65,3.28,10.64,3.2,16.75-1.56,5.92-4.71,11.91-9.87,15.44-2.15,1.58-4.17.89-6.58.63,2.27-1.2,4.52-2.34,6.67-3.76,5.17-5.19,8.65-11.83,6.26-19.26-3.75,2.98-7.91,5.57-10.1,9.95l-.79,1.47c-.02-.83-.06-1.66-.1-2.49-.21-5.75-.6-11.39-2.61-16.84.05-1.6.17-3.2.28-4.8.6-4.26.49-8.36,2.84-12.02Z"/>
      <path class="cls-46" d="M87.14,35.28c-4.63,4.46-6.63,10.03-8.84,15.89-3.96-2.23-7.76-4.23-11.11-7.37.89-1.77,1.77-3.54,2.67-5.31,5.96-.53,11.63-1.05,17.28-3.21Z"/>
      <path class="cls-10" d="M51.2,39.61c-.32,5.52.61,9.42,3.37,14.16-5.54,3.31-12.95,2.36-18.48-.49-.54-3.41-1.46-6.69-2.56-9.96.44-.49.87-.99,1.3-1.48,2.69,2.07,5.46,4,8.31,5.84,1.47-2.42,2.99-4.82,4.59-7.16.84.86,1.68,1.72,2.52,2.58.31-1.17.63-2.33.95-3.49Z"/>
      <path class="cls-4" d="M129.51,39.45c2.72,2.96,5.37,6.06,7.87,9.2,2.01,5.45,2.4,11.09,2.61,16.84-1.65,3.81-3.7,7.4-5.12,11.32-1.35-2.36-.75-4.5-.79-7.03-1.94-.87-4.09-1.33-6.1-2.02.95-3.1,2.28-6.41,1.87-9.71-.41-3.2-1.68-6.34-3.12-9.21.93-3.13,1.79-6.28,2.78-9.39Z"/>
      <path class="cls-3" d="M121.87,41.35c1.74,2.41,3.38,4.91,4.86,7.49,1.44,2.87,2.71,6.01,3.12,9.21.41,3.3-.92,6.61-1.87,9.71-2.05-1.27-3.4-3.1-4.81-5.01-2.25-3.1-4.74-5.72-6.17-9.34,2.42-3.74,3.55-7.86,4.87-12.06Z"/>
      <path class="cls-26" d="M33.53,43.32c1.1,3.27,2.02,6.55,2.56,9.96-.11.97-.24,1.94-.38,2.91-.91,1.8-1.85,3.54-2.54,5.45-.61,1.56-1.13,3.3-2.07,4.7-1.53,1.32-3.48,2.19-5.23,3.19-1.68-3.57-3.36-6.71-2.53-10.79.95-5.85,6.56-10.97,10.19-15.42Z"/>
      <path class="cls-7" d="M10.24,47.43c2.06,3.41,3.47,7.07,4.71,10.83-1.18-.95-2.4-1.87-3.6-2.79-1.43,3.83-3.1,7.99-3.09,12.13.03,3.21,1.76,5.85,3.67,8.28,1.8,1.65,3.73,3.17,5.6,4.76-4.07.55-5.64-.91-8.25-3.71-2.36-4.3-4.59-9.25-3.96-14.27.66-5.29,2.54-10.48,4.92-15.23Z"/>
      <path class="cls-50" d="M36.09,53.28c5.53,2.85,12.94,3.8,18.48.49,6.39.89,8.15,6.63,14.04,8.62,4.82,1.54,10.26,1.48,15.21.64,6.56-1.1,8.69-6.98,15.05-9.23,6.14.81,12.03-1.02,18.13-.39,1.43,3.62,3.92,6.24,6.17,9.34,1.41,1.91,2.76,3.74,4.81,5.01,2.01.69,4.16,1.15,6.1,2.02.04,2.53-.56,4.67.79,7.03,1.29,2.8,2.98,5.75,3.67,8.76,1.03,4.81,1.17,9.84,2.29,14.63.72,3.12,2.39,5.58,3.64,8.46.08.84.15,1.68.22,2.51-1.48-.46-2.95-.93-4.43-1.41-1.55-5.34-3.12-10.57-3.88-16.11-.94-5.61-2.14-10.83-5.51-15.54-2.44-3.41-6.24-5.55-9.5-8.11.35-1.02,1.04-2.16.91-3.25-.58-2.46-2.98-4.11-4.86-5.57.59,2.58,1.41,5.11,2.38,7.58-1.9-1.3-4.14-2.85-6.46-3.19-3.06-.24-6.12,1.65-8.64,3.21-5.96,1.33-12.08,1.59-17.74,3.44-3.03.93-6.4,2.37-9.59,2.39-3.38-.11-6.9-1.82-10.21-2.6-3.75-.94-7.95-.41-11.58-1.56-3.81-1.29-7.27-4.07-10.57-6.31,5.96-.05,10.83,3.26,16.1,5.66.72-.85,1.43-1.7,2.14-2.56-5.35-3.69-11.23-7.2-16.96-10.28-1.32,2.26-2.31,4.64-3.16,7.1-.92.67-1.81,1.36-2.71,2.04-1.02.74-2.04,1.48-3.06,2.21-2.87-4.02-2.2-7.57-1.65-12.12.14-.97.27-1.94.38-2.91Z"/>
      <path class="cls-24" d="M35.71,56.19c-.55,4.55-1.22,8.1,1.65,12.12l-.54.34c-.84.15-1.68.3-2.53.44-.65-2.46-1.18-4.9-1.12-7.45.69-1.91,1.63-3.65,2.54-5.45Z"/>
      <path class="cls-41" d="M150.98,56.56c2.39,7.43-1.09,14.07-6.26,19.26.53-2.8,1.04-5.59,1.54-8.39-1.79-.33-3.58-.66-5.38-.92,2.19-4.38,6.35-6.97,10.1-9.95Z"/>
      <path class="cls-16" d="M46.29,56.96c5.73,3.08,11.61,6.59,16.96,10.28-.71.86-1.42,1.71-2.14,2.56-5.27-2.4-10.14-5.71-16.1-5.66l-1.88-.08c.85-2.46,1.84-4.84,3.16-7.1Z"/>
      <path class="cls-16" d="M110.38,57.34c.57,1.82,1.13,3.65,1.69,5.48-6.38,1.91-12.47,4.55-18.76,6.69-.3-.95-.59-1.89-.89-2.83,5.85-3.33,11.92-6.38,17.96-9.34Z"/>
      <path class="cls-27" d="M33.17,61.64c-.06,2.55.47,4.99,1.12,7.45.85-.14,1.69-.29,2.53-.44-4.1,3.03-9.78,4.53-13.24,8.21-2.77,5.09-1.86,12.09-3.35,17.72-1.29,6.74-3.77,12.34-2.62,19.4-.69.18-1.38.37-2.06.57-.59,1.81-1.03,3.64-1.4,5.51-.56-3.26-1.42-7.03-.64-10.28,1.12-3.46,3.24-6.33,3.86-10.02,1.1-6.53,1.01-13.3,2.3-19.81.35-1.97,1.51-3.38,2.71-4.9,1.38-1.71,2.47-3.59,3.49-5.52,1.75-1,3.7-1.87,5.23-3.19.94-1.4,1.46-3.14,2.07-4.7Z"/>
      <path class="cls-42" d="M117.42,61.18c1.88,1.46,4.28,3.11,4.86,5.57.13,1.09-.56,2.23-.91,3.25l-1.57-1.24c-.97-2.47-1.79-5-2.38-7.58Z"/>
      <path class="cls-30" d="M16.26,63.78c2.09,3.71,4.15,7.49,6.12,11.27-1.2,1.52-2.36,2.93-2.71,4.9-1.29,6.51-1.2,13.28-2.3,19.81-.62,3.69-2.74,6.56-3.86,10.02-.78,3.25.08,7.02.64,10.28,1.76,8.74,8.29,16.34,15.44,21.34,6.35,4.13,14.09,7.28,21.54,8.67,18.34,4.01,37.68,3.76,56.08.26,2.73,1.39,5.52,2.62,8.45,3.5-20.46,5.21-42.01,5.77-62.79,2.17-12.17-2.53-23.49-6.42-32.5-15.36-6.31-6.57-11.49-15.75-11.79-25.02-.3-2.26-.09-4.87-1.53-6.72-1.34-2.12-2.68-3.99-3.06-6.55-.72-5.76-.36-11.39.5-17.11.3-1.36-.86-2.9-1.4-4.12,2.1-1.34,4.16-2.74,6.19-4.19,2.61,2.8,4.18,4.26,8.25,3.71.6-2.2,1.68-4.6,1.63-6.91-.49-2.53-1.69-4.94-2.51-7.38-.15-.86-.28-1.71-.39-2.57Z"/>
      <path class="cls-28" d="M154.5,63.51c1.22,2.7,2.85,5.14,4.69,7.47-.44,3.26-1.34,6.37-3.29,9.07-1.11,1.91-2.82,3.16-2.45,5.55.34,5.72,1,10.94-.57,16.6-.73,2.34-2.11,4.17-3.08,6.36.24,4.59.7,9.04-.21,13.6-.42-1.9-.92-3.78-1.41-5.66-.89,1.99-1.78,3.97-2.71,5.94-.06-.7-.11-1.4-.15-2.11.15-3.93.67-7.94-.85-11.67-1.25-2.88-2.92-5.34-3.64-8.46-1.12-4.79-1.26-9.82-2.29-14.63-.69-3.01-2.38-5.96-3.67-8.76,1.42-3.92,3.47-7.51,5.12-11.32.04.83.08,1.66.1,2.49-1.35,3.95-2.96,7.28-2.04,11.6,2.41.26,4.43.95,6.58-.63,5.16-3.53,8.31-9.52,9.87-15.44Z"/>
      <path class="cls-5" d="M43.13,64.06l1.88.08c3.3,2.24,6.76,5.02,10.57,6.31,3.63,1.15,7.83.62,11.58,1.56,3.31.78,6.83,2.49,10.21,2.6,3.19-.02,6.56-1.46,9.59-2.39,5.66-1.85,11.78-2.11,17.74-3.44-5.77,5.39-12.2,3.24-18.95,6.37-3.35,1.34-5.94,3.48-9.73,2.75-5.27-.92-10.45-1.92-15.81-2.3-2.53-1.13-5.07-2.24-7.67-3.22-4.31-1.85-7.56-4.94-12.12-6.28.9-.68,1.79-1.37,2.71-2.04Z"/>
      <path class="cls-34" d="M113.34,65.57c2.32.34,4.56,1.89,6.46,3.19l1.57,1.24c3.26,2.56,7.06,4.7,9.5,8.11,3.37,4.71,4.57,9.93,5.51,15.54-.88-1.38-1.83-2.72-2.87-3.98-1.37-.13-2.74-.17-4.11-.23-1.76-4.83-4.3-9.23-8.42-12.42-5.65-4.56-13.86-6.38-20.66-3.44-3.54,1.41-6.26,3.92-8.63,6.84-3.23-.42-6.35-.42-9.55.21-5.4,1.15-10.86.4-16.25,1.73-1.59-2.5-3.54-4.72-5.68-6.76,5.36.38,10.54,1.38,15.81,2.3,3.79.73,6.38-1.41,9.73-2.75,6.75-3.13,13.18-.98,18.95-6.37,2.52-1.56,5.58-3.45,8.64-3.21Z"/>
      <path class="cls-18" d="M16.65,66.35c.82,2.44,2.02,4.85,2.51,7.38.05,2.31-1.03,4.71-1.63,6.91-1.87-1.59-3.8-3.11-5.6-4.76-.04-2.23-.07-4.46-.11-6.68,1.6-.97,3.2-1.94,4.83-2.85Z"/>
      <path class="cls-17" d="M40.42,66.1c4.56,1.34,7.81,4.43,12.12,6.28-6.71-1.17-13.69,1.14-18.53,5.86-3.53,3.55-5.35,7.94-6.67,12.68-2.39,1.19-4.74,2.45-7.11,3.66,1.49-5.63.58-12.63,3.35-17.72,3.46-3.68,9.14-5.18,13.24-8.21l.54-.34c1.02-.73,2.04-1.47,3.06-2.21Z"/>
      <path class="cls-14" d="M140.88,66.51c1.8.26,3.59.59,5.38.92-.5,2.8-1.01,5.59-1.54,8.39-2.15,1.42-4.4,2.56-6.67,3.76-.92-4.32.69-7.65,2.04-11.6l.79-1.47Z"/>
      <path class="cls-2" d="M52.54,72.38c2.6.98,5.14,2.09,7.67,3.22,2.14,2.04,4.09,4.26,5.68,6.76,2.36,6.87,1.59,15.86-3.27,21.51-2.31,2.79-5.37,3.56-8.7,4.5-1.76-1.17-4.07-2.3-5.3-4.06-3.27-4.82-2.66-11.82,1.56-15.89,2.89-3.07,8.2-3.6,11.64-1.21,2.06,1.58,3.27,4.48,4.58,6.68-.37-3.91-.19-7.37-2.53-10.74-3.28-5.09-8.49-8.05-14.55-8.25-6.83-.25-13.33,4.31-16.53,10.14-3.83,7.49-2.88,16.8,2.77,23.14-1.03-.24-2.06-.46-3.09-.67-4.32-4.95-5.46-10.11-5.13-16.59,1.32-4.74,3.14-9.13,6.67-12.68,4.84-4.72,11.82-7.03,18.53-5.86Z"/>
      <path class="cls-53" d="M120.98,77.02c4.12,3.19,6.66,7.59,8.42,12.42,1.09,7.63-.21,12.64-5.14,18.49-1.04.17-2.08.36-3.13.59,2.22-2.79,4.19-5.51,5.06-9.03,2.04-8.19-1.9-17.25-9.07-21.59-2.45-1.38-5.3-2.39-8.07-2.87-6.65-.87-13.52,2.62-16.91,8.38-1.6,2.84-2.02,5.93-2.36,9.12,2.22-2.62,3.28-5.63,6.93-6.47,4.37-1.08,8.28.89,10.76,4.47,2.66,3.8,2.79,9.54.22,13.42-1.28,2.03-3.9,3.09-5.91,4.28-3.75-1.07-7.06-2.32-9.22-5.8-3.9-6.72-4.84-15.05-.87-22.01,2.37-2.92,5.09-5.43,8.63-6.84,6.8-2.94,15.01-1.12,20.66,3.44Z"/>
      <path class="cls-43" d="M49.32,74.9c6.06.2,11.27,3.16,14.55,8.25,2.34,3.37,2.16,6.83,2.53,10.74-1.31-2.2-2.52-5.1-4.58-6.68-3.44-2.39-8.75-1.86-11.64,1.21-4.22,4.07-4.83,11.07-1.56,15.89,1.23,1.76,3.54,2.89,5.3,4.06-4.29,1.23-8.57,2.18-13.06,1.97-1.8-.65-3.55-1.41-5.3-2.16-5.65-6.34-6.6-15.65-2.77-23.14,3.2-5.83,9.7-10.39,16.53-10.14Z"/>
      <path class="cls-43" d="M109.05,75.03c2.77.48,5.62,1.49,8.07,2.87,7.17,4.34,11.11,13.4,9.07,21.59-.87,3.52-2.84,6.24-5.06,9.03-1.68.79-3.37,1.58-5.11,2.27-5.09.5-9.49-.99-14.24-2.56,2.01-1.19,4.63-2.25,5.91-4.28,2.57-3.88,2.44-9.62-.22-13.42-2.48-3.58-6.39-5.55-10.76-4.47-3.65.84-4.71,3.85-6.93,6.47.34-3.19.76-6.28,2.36-9.12,3.39-5.76,10.26-9.25,16.91-8.38Z"/>
      <path class="cls-29" d="M91.69,80.42c-3.97,6.96-3.03,15.29.87,22.01,2.16,3.48,5.47,4.73,9.22,5.8,4.75,1.57,9.15,3.06,14.24,2.56-1.27,2.47-3.51,5.58-2.38,8.44,1.34,3.86,4.99,4.92,8.55,5.85,1.38.35,2.76.7,4.14,1.05-5.13,3.15-10.44,4.28-16.37,4.94-.13,1.64-.27,3.27-.4,4.91-.65.51-1.3,1.03-1.95,1.54-.93-.68-1.86-1.36-2.79-2.04,2.77-14.44-8.18-28.57-22.59-30.33-11.42-1.62-22.48,4.4-27.78,14.54-2.46,4.55-3,9.47-2.88,14.57l-.95,1.45c-.23-1.91-.43-3.81-.61-5.72-4.49,3.59-8.58,5.95-14.38,6.72-1.61-3.92-5.03-7.52-2.69-11.79,3.31-.71,7.26-1.52,8.97-4.82,1.82-3.38.06-6.51-1.05-9.76,4.49.21,8.77-.74,13.06-1.97,3.33-.94,6.39-1.71,8.7-4.5,4.86-5.65,5.63-14.64,3.27-21.51,5.39-1.33,10.85-.58,16.25-1.73,3.2-.63,6.32-.63,9.55-.21Z"/>
      <path class="cls-44" d="M10.34,82.73c1.43.54,2.84,1.21,4.23,1.86-.09,7.49.27,14.48-4.03,21.01-3.82-7.07-3.54-15.7-.2-22.87Z"/>
      <path class="cls-45" d="M147.3,82.61c2.96,6.38,3.8,15.9-.66,21.78-3.07-6.79-3.55-14.08-2.87-21.42,1.18-.15,2.35-.27,3.53-.36Z"/>
      <path class="cls-8" d="M54.68,87.85c2.37-.4,4.36.19,4.58,2.9.6,3.15-4.22,6.11-6.44,3.42-2.26-2.05-.92-5.64,1.86-6.32Z"/>
      <path class="cls-8" d="M95.82,87.96c1.9-.35,3.82-.55,4.89,1.42,1.77,3.21-1.79,7.33-5.13,5.4-2.91-1.1-2.46-6.04.24-6.82Z"/>
      <path class="cls-35" d="M133.51,89.67c1.04,1.26,1.99,2.6,2.87,3.98.76,5.54,2.33,10.77,3.88,16.11.14,7.37-1.67,14.61-6.29,20.45-4.4,5.45-10.65,9.46-17.35,11.44-4.53-.29-8.95-1.23-13.44-1.75.62-1.45,1.17-2.92,1.64-4.42.93.68,1.86,1.36,2.79,2.04.65-.51,1.3-1.03,1.95-1.54.13-1.64.27-3.27.4-4.91,5.93-.66,11.24-1.79,16.37-4.94-1.38-.35-2.76-.7-4.14-1.05,4.03-.29,8.9-.7,11.93-3.69,2.96-2.83,3.19-8.66-.46-11.03-2.57-1.61-5.85-2.21-8.83-2.48l-.57.05c4.93-5.85,6.23-10.86,5.14-18.49,1.37.06,2.74.1,4.11.23Z"/>
      <path class="cls-33" d="M27.34,90.92c-.33,6.48.81,11.64,5.13,16.59l-1.91.35c-2.84-.47-5.47-.65-7.47-2.98-2.81-3-2.58-6.47-2.86-10.3,2.37-1.21,4.72-2.47,7.11-3.66Z"/>
      <path class="cls-13" d="M20.23,94.58c.28,3.83.05,7.3,2.86,10.3,2,2.33,4.63,2.51,7.47,2.98-1.38.46-2.72,1-4.04,1.61-1.26.61-2.45,1.31-3.63,2.07-1.13,1.26-2.17,2.61-3.15,4-.35,1.43-.62,2.88-.83,4.33-.45-1.96-.92-3.92-1.3-5.89-1.15-7.06,1.33-12.66,2.62-19.4Z"/>
      <path class="cls-52" d="M82.23,105.15c14.41,1.76,25.36,15.89,22.59,30.33-.47,1.5-1.02,2.97-1.64,4.42-1.38,1.74-2.79,3.45-4.29,5.09-.92.39-1.83.77-2.75,1.16-.94.37-1.89.72-2.86,1.04-8.87.05-17.74.28-26.6-.04-2.06-.27-4.1-.67-6.12-1.12-.91-.32-1.82-.64-2.72-.98-3.04-3.29-4.93-6.52-6.27-10.79-.12-5.1.42-10.02,2.88-14.57,5.3-10.14,16.36-16.16,27.78-14.54Z"/>
      <path class="cls-38" d="M30.56,107.86l1.91-.35c1.03.21,2.06.43,3.09.67,1.75.75,3.5,1.51,5.3,2.16,1.11,3.25,2.87,6.38,1.05,9.76-1.71,3.3-5.66,4.11-8.97,4.82-3.33-.24-7.2-.71-9.79-3.03-1.68-1.6-2.46-4.28-3.41-6.35.98-1.39,2.02-2.74,3.15-4,.6,1.44,1.2,2.89,1.8,4.33,2.69-1.46,5-3.08,7.2-5.2-1.78-.45-3.56-.88-5.37-1.2,1.32-.61,2.66-1.15,4.04-1.61Z"/>
      <path class="cls-37" d="M92.58,111.83c-5.44,1.45-10.64.98-16.2.84-4.02-.26-7.97-.09-11.97-.68,7.91-6.74,19.99-6.08,28.17-.16Z"/>
      <path class="cls-15" d="M124.26,107.93l.57-.05c2.98.27,6.26.87,8.83,2.48,3.65,2.37,3.42,8.2.46,11.03-3.03,2.99-7.9,3.4-11.93,3.69-3.56-.93-7.21-1.99-8.55-5.85-1.13-2.86,1.11-5.97,2.38-8.44,1.74-.69,3.43-1.48,5.11-2.27,1.05-.23,2.09-.42,3.13-.59Z"/>
      <path class="cls-47" d="M144.47,108.66c1.52,3.73,1,7.74.85,11.67-1.66,5.09-3.36,10.19-6.88,14.34-5.01,5.77-11.63,9.88-18.89,12.22-5.25.49-10.52,1.07-15.79,1.29-2.8.18-5.16-.87-7.62-2.03.92-.39,1.83-.77,2.75-1.16,6.28.17,11.88-1.23,17.73-3.34,6.7-1.98,12.95-5.99,17.35-11.44,4.62-5.84,6.43-13.08,6.29-20.45,1.48.48,2.95.95,4.43,1.41-.07-.83-.14-1.67-.22-2.51Z"/>
      <path class="cls-23" d="M26.52,109.47c1.81.32,3.59.75,5.37,1.2-2.2,2.12-4.51,3.74-7.2,5.2-.6-1.44-1.2-2.89-1.8-4.33,1.18-.76,2.37-1.46,3.63-2.07Z"/>
      <path class="cls-22" d="M124.95,111.35c-2.38,1.65-4.84,3.09-7.41,4.4-.35-1.04-.69-2.08-1.01-3.12,3.13-2.51,4.67-2.21,8.42-1.28Z"/>
      <path class="cls-36" d="M15.55,114.55c.68-.2,1.37-.39,2.06-.57.38,1.97.85,3.93,1.3,5.89,1.19,7.61,6.25,12.66,12.19,17.02,4.38,3.05,9.95,4.54,15.03,6.03,3.83,1.15,7.75,1.63,11.71,2.13.9.34,1.81.66,2.72.98-3.16,1.32-6.2,2.87-9.43,4.04-7.45-1.39-15.19-4.54-21.54-8.67-7.15-5-13.68-12.6-15.44-21.34.37-1.87.81-3.7,1.4-5.51Z"/>
      <path class="cls-9" d="M19.74,115.54c.95,2.07,1.73,4.75,3.41,6.35,2.59,2.32,6.46,2.79,9.79,3.03-2.34,4.27,1.08,7.87,2.69,11.79,5.8-.77,9.89-3.13,14.38-6.72.18,1.91.38,3.81.61,5.72l.95-1.45c1.34,4.27,3.23,7.5,6.27,10.79-3.96-.5-7.88-.98-11.71-2.13-5.08-1.49-10.65-2.98-15.03-6.03-5.94-4.36-11-9.41-12.19-17.02.21-1.45.48-2.9.83-4.33Z"/>
      <path class="cls-49" d="M148.18,116.5c.49,1.88.99,3.76,1.41,5.66-1.45,8.31-5.97,15.85-12.41,21.26-6.06,5.12-13.92,8.38-21.52,10.41-2.93-.88-5.72-2.11-8.45-3.5,4.21-.83,8.31-2,12.34-3.44,7.26-2.34,13.88-6.45,18.89-12.22,3.52-4.15,5.22-9.25,6.88-14.34.04.71.09,1.41.15,2.11.93-1.97,1.82-3.95,2.71-5.94Z"/>
      <path class="cls-31" d="M83.44,126.35c5.95.14,12.91,3.12,15.32,8.92,1.04,2.39-.92,4.66-2.1,6.6-1.36-3.96-1.58-9.7-6.28-11.2-10.59-3.47-21.45-1.74-31.46,2.74,1.8-2.45,3.67-4.62,6.65-5.63,5.55-1.86,12.07-1.56,17.87-1.43Z"/>
      <path class="cls-19" d="M90.38,130.67c4.7,1.5,4.92,7.24,6.28,11.2-2.61,1.38-5.32,2.33-8.3,2.36-6.58.15-13.38.13-19.95-.06-3.64-.18-7.42-.88-9.57-4.15-1.51-2.16-.47-4.33.08-6.61,10.01-4.48,20.87-6.21,31.46-2.74Z"/>
      <path class="cls-25" d="M103.18,139.9c4.49.52,8.91,1.46,13.44,1.75-5.85,2.11-11.45,3.51-17.73,3.34,1.5-1.64,2.91-3.35,4.29-5.09Z"/>
      <path class="cls-39" d="M60.56,146.03c2.02.45,4.06.85,6.12,1.12-.85.37-1.69.76-2.53,1.15,6.38.66,12.82.8,19.24.75,3.46,0,6.66-.66,9.89-1.86.97-.32,1.92-.67,2.86-1.04,2.46,1.16,4.82,2.21,7.62,2.03,5.27-.22,10.54-.8,15.79-1.29-4.03,1.44-8.13,2.61-12.34,3.44-18.4,3.5-37.74,3.75-56.08-.26,3.23-1.17,6.27-2.72,9.43-4.04Z"/>
      <path class="cls-48" d="M66.68,147.15c8.86.32,17.73.09,26.6.04-3.23,1.2-6.43,1.86-9.89,1.86-6.42.05-12.86-.09-19.24-.75.84-.39,1.68-.78,2.53-1.15Z"/>
    </g>
  </g>
</svg>