<?xml version="1.0" encoding="UTF-8"?>
<svg id="Capa_2" data-name="Capa 2" xmlns="http://www.w3.org/2000/svg" viewBox="0 0 153.76 148.12">
  <defs>
    <style>
      .cls-1 {
        fill: #d77a3e;
      }

      .cls-2 {
        fill: #fc6b59;
      }

      .cls-3 {
        fill: #3d1a10;
      }

      .cls-4 {
        fill: #f8a65d;
      }

      .cls-5 {
        fill: #f4f4f4;
      }

      .cls-6 {
        fill: #512415;
      }

      .cls-7 {
        fill: #bfbcb7;
      }

      .cls-8 {
        fill: #0e0703;
      }

      .cls-9 {
        fill: #faf9f9;
      }

      .cls-10 {
        fill: #fc6a58;
      }

      .cls-11 {
        fill: #ba623b;
      }

      .cls-12 {
        fill: #fdb166;
      }

      .cls-13 {
        fill: #ad5937;
      }

      .cls-14 {
        fill: #d8d4d3;
      }

      .cls-15 {
        fill: #401b10;
      }

      .cls-16 {
        fill: #cc764d;
      }

      .cls-17 {
        fill: #f8f8f8;
      }

      .cls-18 {
        fill: #783720;
      }

      .cls-19 {
        fill: #f7f7f7;
      }

      .cls-20 {
        fill: #d1793e;
      }

      .cls-21 {
        fill: #32150d;
      }

      .cls-22 {
        fill: #421d12;
      }

      .cls-23 {
        fill: #0d0b06;
      }

      .cls-24 {
        fill: #bf643d;
      }

      .cls-25 {
        fill: #441e12;
      }

      .cls-26 {
        fill: #0d0703;
      }
    </style>
  </defs>
  <g id="Capa_1-2" data-name="Capa 1">
    <g id="head_focused">
      <path class="cls-8" d="M77.42,0c11.22.41,22.89,1.78,33.29,6.21,18.56,6.65,34.67,22.12,40.84,40.99,1.89,6.3,2.96,13.49,1.6,19.98-.48,2.95-3.49,5.32-3.05,8.25.26,5.37.9,10.95-.52,16.24-.76,2.74-2.35,4.76-3.59,7.23-.22,2.19-.04,4.42-.18,6.61-.96,11.77-6.88,22.92-16.5,29.87-5.77,4.1-12.59,6.86-19.39,8.73-16.84,4.03-34.56,5.16-51.73,2.77-11.67-1.85-22.93-4.38-32.57-11.59-7.85-6.3-14.6-14.19-16.82-24.25-1.14-4.01-.62-7.95-1.01-12-1.22-2.2-2.74-3.92-3.49-6.39-1.85-6.76-.99-13.12-.34-19.93-1.51-3.13-3.48-5.63-3.84-9.26-.82-10.47,2.8-21.17,8.31-29.97C17.39,20.81,30.04,10.85,44.82,5.89,55.25,1.85,66.29.3,77.42,0Z"/>
      <path class="cls-13" d="M80.71,4.5c-1.85.92-3.65,1.94-5.52,2.85-10.87.39-21.15,3.4-31.25,7.25-1.25-.84-2.49-1.68-3.77-2.48,12.55-5.77,26.77-8.3,40.54-7.62Z"/>
      <path class="cls-18" d="M80.71,4.5c3.42.05,6.76.58,10.14,1.09-5.19,1.83-10.21,2-15.66,1.76,1.87-.91,3.67-1.93,5.52-2.85Z"/>
      <path class="cls-6" d="M90.85,5.59c6.66.81,13.22,2.62,19.49,4.97,8.69,3.46,16.62,9.03,23.22,15.64-.66.77-1.31,1.55-1.95,2.34,1.25,5.28,2.26,10.18.08,15.42-2.84,6.21-8.68,10.77-15.54,11.56-.74-4.42-1.72-8.68-3-12.97-.52.5-1.04,1-1.56,1.49-3.98,3.79-8.03,7.2-13.12,9.4-8.52,3.61-17.8,4.83-26.99,3.94,2.57-5.22,5.17-10.35,6.74-15.99-6.78,4.47-12.54,9.66-20.26,12.58-8.44,2.95-17.66,3.97-26.56,3.12,1.72-5.54,4.55-10.5,6.8-15.82-2.81,2.26-5.54,4.57-8.12,7.08-1.66-.17-3.39-.42-5.06-.32-2.31,1.99-3.58,5.1-5.92,6.99-1.48.4-2.6-1.66-3.65-2.46-1.13-.36-2.27-.7-3.41-1.04-.28-2.12-.55-4.24-.89-6.34-1.44.41-2.85.89-4.27,1.36,1.24-3.5,2.88-6.69,4.95-9.75,4.96-1.26,7.78-6,12.19-9.02.49,1.8.73,4.04,1.85,5.57,3.91,1.41,8.24-.73,11.35-3.05,2.53-1.95,5.26-5.08,4.93-8.49-.9-1.79-2.99-3.05-4.49-4.32,2.09-.99,4.15-1.98,6.28-2.88,10.1-3.85,20.38-6.86,31.25-7.25,5.45.24,10.47.07,15.66-1.76Z"/>
      <path class="cls-16" d="M40.17,12.12c1.28.8,2.52,1.64,3.77,2.48-2.13.9-4.19,1.89-6.28,2.88,1.5,1.27,3.59,2.53,4.49,4.32.33,3.41-2.4,6.54-4.93,8.49-3.11,2.32-7.44,4.46-11.35,3.05-1.12-1.53-1.36-3.77-1.85-5.57,3.21-2.58,6.25-5.49,9-8.55-.13-1.02-.28-2.03-.46-3.03,2.47-1.5,4.98-2.88,7.61-4.07Z"/>
      <path class="cls-11" d="M32.56,16.19c.18,1,.33,2.01.46,3.03-2.75,3.06-5.79,5.97-9,8.55-4.41,3.02-7.23,7.76-12.19,9.02,4.95-8.73,12.18-15.46,20.73-20.6Z"/>
      <path class="cls-24" d="M53.55,23.28c-.36,1.82-.35,4.18-1.87,5.47-1.6,1.64-4.34,1.54-6.47,1.89.78-2.29,1.08-4.69,3.19-6.17,1.35-1.07,3.5-.99,5.15-1.19Z"/>
      <path class="cls-21" d="M133.56,26.2c2.13,2.1,4.07,4.42,5.76,6.89.28,2.21.43,4.45.59,6.67-.84.25-1.67.49-2.51.73.86,5.19,1.62,10.73,3.45,15.67,1.51,3.88,3.64,7.54,5.99,10.97-3.72-1.61-7.36-2.91-10.31-5.83-1.19-1.29-2.52-2.66-2.11-4.57.57-3.45,1.37-6.8,1.39-10.32-3.8,4.16-6.26,8.78-11.91,10.66-2.57.87-6.73,1.95-9.11.16-1.88-4.02-2.14-8.88-3.2-13.19.52-.49,1.04-.99,1.56-1.49,1.28,4.29,2.26,8.55,3,12.97,6.86-.79,12.7-5.35,15.54-11.56,2.18-5.24,1.17-10.14-.08-15.42.64-.79,1.29-1.57,1.95-2.34Z"/>
      <path class="cls-22" d="M139.32,33.09c7.55,9.65,11.96,22.59,9.17,34.79l-1.65-.75c-2.35-3.43-4.48-7.09-5.99-10.97-1.83-4.94-2.59-10.48-3.45-15.67.84-.24,1.67-.48,2.51-.73-.16-2.22-.31-4.46-.59-6.67Z"/>
      <path class="cls-3" d="M11.15,45.18c.34,2.1.61,4.22.89,6.34,1.14.34,2.28.68,3.41,1.04,1.05.8,2.17,2.86,3.65,2.46,2.34-1.89,3.61-5,5.92-6.99,1.67-.1,3.4.15,5.06.32-4.2,4.62-8.57,8.26-14.42,10.62-.45-1.55-.9-3.11-1.35-4.67-3.14,3.65-5.71,7.7-8.72,11.44-1.64-6.7-.99-12.76,1.29-19.2,1.42-.47,2.83-.95,4.27-1.36Z"/>
      <path class="cls-1" d="M108.63,54.44c1.1,2.22,1.81,5.46,3.81,7.02,4.46,2.66,10.03.44,14.8.44,3.2,1.33,7.46,3.98,7.66,7.85.96,5.26,1.47,10.61,1.82,15.95-.78.08-1.55.17-2.32.26-1.04-4.15-1.72-8.36-2.52-12.56-.67-2.27-1.45-5.34-3.36-6.89-4.41-1.51-9.96.04-14.39-1.79-2.36-1.31-4.21-3.74-6.16-5.58-4.68,1.68-9.03,3.93-13.94,5-7.34,1.73-15.98,3.04-23.37,1.07-2.19-.45-3.57-3.13-4.89-4.77-7.5,2.89-15.26,4.85-23.31,5.23-4.96.2-10.14-.63-15.04-1.36-3.18,3.89-5.78,7.95-6.36,13.06-.4,4.3-.75,7.96-3.57,11.44.33-7,.59-13.94,1.65-20.91.24-4.47,3.91-5.56,7.44-7.05,4.02.76,7.61,2.49,11.84,2.35,9.97-.25,19.86-2.43,28.59-7.4,0,1.93.02,3.86.07,5.79,6.76,2.29,13.59,1.96,20.56,1.06,7.87-.98,14.51-3.71,20.99-8.21Z"/>
      <path class="cls-12" d="M107.97,59.14c1.95,1.84,3.8,4.27,6.16,5.58,4.43,1.83,9.98.28,14.39,1.79,1.91,1.55,2.69,4.62,3.36,6.89-1.52,2.9-3.18,5.7-5.2,8.29-.18-2.41.22-6.01-1.81-7.75-3.58-.42-7.43.47-10.97.99-8.83,1.55-17.72,2.63-26.55,4.1.53,4.05,1.79,7.93,2.44,11.96.74,4.1,2.36,7.8,5.83,10.28,3.34,2.62,7.23,3,11.33,2.57,2.29-.13,4.57-.31,6.83-.72-.32,2.26-1.25,5.17-.44,7.37,1.77,3.76,6.16,4.59,9.89,5.01,1.07.11,2.14.21,3.21.3-1.99.53-4.2.92-6.02,1.92-2.76,1.65-5.12,4.35-8.15,5.58-3.06,1.2-6.4,1.77-9.57,2.62-5.85,1.49-11.31,2.94-17.4,2.09-6.9-1.17-12.49,1.57-19.81,1.96-5.97.46-10.79-1.54-16.49-2.83-4.19-1.07-8.08-1.4-11.33-4.53-3.17-2.95-7.03-3.46-8.75-7.1,4.39-.29,9.63-.05,12.36-4.19,1.92-2.6.24-6.08-.47-8.84,1.94.37,3.88.53,5.85.71,2.87.3,5.68,1.14,8.5.13,4.77-1.58,8.23-5.78,9.24-10.66.92-4.55,1.98-9.14,2.52-13.74-8.28-1.31-16.58-2.42-24.82-3.98-4.17-.82-8.36-1.33-12.62-1.3-.81,3.89-.77,7.88-1.31,11.83-.62,4.93,1.43,8.76,3.62,12.97-3.51.51-6.7,1.65-10.03,2.82-1.7-2.06-4.89-4.35-3.99-7.34.79-3.7,4.75-6.72,7.38-9.22-2-2.22-3.72-4.22-4.09-7.33.58-5.11,3.18-9.17,6.36-13.06,4.9.73,10.08,1.56,15.04,1.36,8.05-.38,15.81-2.34,23.31-5.23,1.32,1.64,2.7,4.32,4.89,4.77,7.39,1.97,16.03.66,23.37-1.07,4.91-1.07,9.26-3.32,13.94-5Z"/>
      <path class="cls-15" d="M14.12,65.07c.24,6.72-.13,13.54-.96,20.22-.39,3.16-1.56,6.04-2.87,8.92-1.7-3.08-3.04-6.14-2.92-9.73.2-7.25,1.07-14.3,6.75-19.41Z"/>
      <path class="cls-26" d="M42.1,74.94c8.24,1.56,16.54,2.67,24.82,3.98-.54,4.6-1.6,9.19-2.52,13.74-1.01,4.88-4.47,9.08-9.24,10.66-2.82,1.01-5.63.17-8.5-.13-5.98-4.6-7.73-10.55-6.39-17.87.26-1.26.57-2.52.87-3.77-3.14-.4-6.27-.86-9.42-1.2l-.67,1.44c-1.67,6.16-.76,12.67,3.24,17.74-.83-.39-1.66-.75-2.5-1.09-2.19-4.21-4.24-8.04-3.62-12.97.54-3.95.5-7.94,1.31-11.83,4.26-.03,8.45.48,12.62,1.3Z"/>
      <path class="cls-26" d="M124.87,73.94c2.03,1.74,1.63,5.34,1.81,7.75.37,6.39-.35,11.19-3.55,16.77-.46.12-.92.26-1.38.41l-.5.19c2.52-4.65,4.21-9.34,3.38-14.72-.23-1.23-.48-2.46-.74-3.68-3.06.3-6.11.59-9.18.78l.34,1.52c1.07,5.52.85,11.07-2.23,15.92-1.48,2.29-3.6,3.56-5.87,4.96-4.1.43-7.99.05-11.33-2.57-3.47-2.48-5.09-6.18-5.83-10.28-.65-4.03-1.91-7.91-2.44-11.96,8.83-1.47,17.72-2.55,26.55-4.1,3.54-.52,7.39-1.41,10.97-.99Z"/>
      <path class="cls-4" d="M131.88,73.4c.8,4.2,1.48,8.41,2.52,12.56.77-.09,1.54-.18,2.32-.26.05.85.1,1.71.14,2.56-.11,7.93.83,15-2,22.63-2.73,8.96-10.32,15.6-18.63,19.37-8.65,3.65-18.61,4.91-27.87,6.03-11.69,1.47-23.81.65-35.38-1.38-8.12-1.59-17.04-4.2-23.73-9.24-5.88-4.46-10.2-11.05-11.7-18.31-.89-4.1-1.53-8.25-2.52-12.34.94-2.03,1.67-4.12,2.46-6.21,2.82-3.48,3.17-7.14,3.57-11.44.37,3.11,2.09,5.11,4.09,7.33-2.63,2.5-6.59,5.52-7.38,9.22-.9,2.99,2.29,5.28,3.99,7.34-.46,2.71-1.97,6.71-.29,9.16,1.65,2.4,4.92,3.79,7.45,5.09,1.72,3.64,5.58,4.15,8.75,7.1,3.25,3.13,7.14,3.46,11.33,4.53,5.7,1.29,10.52,3.29,16.49,2.83,7.32-.39,12.91-3.13,19.81-1.96,6.09.85,11.55-.6,17.4-2.09,3.17-.85,6.51-1.42,9.57-2.62,3.03-1.23,5.39-3.93,8.15-5.58,1.82-1,4.03-1.39,6.02-1.92-1.07-.09-2.14-.19-3.21-.3,2.96-.71,6.32-1.59,8.77-3.46,3.71-2.93,2.83-9.7-1.45-11.66-2.29-1.1-4.9-1.63-7.42-1.92,3.2-5.58,3.92-10.38,3.55-16.77,2.02-2.59,3.68-5.39,5.2-8.29Z"/>
      <path class="cls-25" d="M145.16,73.59c1.66,6.98,2.25,13.86-1.09,20.48-3.6-4.81-3.87-10.67-3.29-16.43-.03-2.22,2.81-3.03,4.38-4.05Z"/>
      <path class="cls-7" d="M31.72,80.35c3.15.34,6.28.8,9.42,1.2-.3,1.25-.61,2.51-.87,3.77-2.85-1.94-5.86-2.89-9.22-3.53l.67-1.44Z"/>
      <path class="cls-14" d="M123.89,80.66c.26,1.22.51,2.45.74,3.68-3.19-.5-6.39-.92-9.58-1.38l-.34-1.52c3.07-.19,6.12-.48,9.18-.78Z"/>
      <path class="cls-9" d="M31.05,81.79c3.36.64,6.37,1.59,9.22,3.53-1.34,7.32.41,13.27,6.39,17.87-1.97-.18-3.91-.34-5.85-.71-2.22-.87-4.39-1.9-6.52-2.95-4-5.07-4.91-11.58-3.24-17.74Z"/>
      <path class="cls-17" d="M115.05,82.96c3.19.46,6.39.88,9.58,1.38.83,5.38-.86,10.07-3.38,14.72-2.5,1.34-4.88,2.87-7.47,4.06-2.26.41-4.54.59-6.83.72,2.27-1.4,4.39-2.67,5.87-4.96,3.08-4.85,3.3-10.4,2.23-15.92Z"/>
      <path class="cls-5" d="M56.76,84.62c2.58-.38,5.51.65,5.34,3.7-.45,3.8-6.33,4.06-7.76.88-1.09-1.85.65-3.98,2.42-4.58Z"/>
      <path class="cls-19" d="M92.87,84.99c1.95-.34,4.96-1.12,6.1,1.07.54,1.66.49,3.86-1.15,4.89-1.82.58-4.63.71-5.73-1.2-.75-1.42-.36-3.63.78-4.76Z"/>
      <path class="cls-20" d="M136.86,88.26c1.14,5.71,5.12,9.62,4.6,15.15-.44,8.82-3.93,17.59-10.34,23.77-6.83,6.92-16.84,10.72-26.19,12.64-12.4,2.71-24.91,3.17-37.55,2.49-12.01-.94-24.29-2.92-34.96-8.83-8.08-4.22-14.75-11.5-17.94-20.07-1.98-6.26-3.21-12.5.55-18.39.99,4.09,1.63,8.24,2.52,12.34,1.5,7.26,5.82,13.85,11.7,18.31,6.69,5.04,15.61,7.65,23.73,9.24,11.57,2.03,23.69,2.85,35.38,1.38,9.26-1.12,19.22-2.38,27.87-6.03,8.31-3.77,15.9-10.41,18.63-19.37,2.83-7.63,1.89-14.7,2-22.63Z"/>
      <path class="cls-2" d="M31.79,98.44c.84.34,1.67.7,2.5,1.09,2.13,1.05,4.3,2.08,6.52,2.95.71,2.76,2.39,6.24.47,8.84-2.73,4.14-7.97,3.9-12.36,4.19-2.53-1.3-5.8-2.69-7.45-5.09-1.68-2.45-.17-6.45.29-9.16,3.33-1.17,6.52-2.31,10.03-2.82Z"/>
      <path class="cls-10" d="M121.25,99.06l.5-.19c.46-.15.92-.29,1.38-.41,2.52.29,5.13.82,7.42,1.92,4.28,1.96,5.16,8.73,1.45,11.66-2.45,1.87-5.81,2.75-8.77,3.46-3.73-.42-8.12-1.25-9.89-5.01-.81-2.2.12-5.11.44-7.37,2.59-1.19,4.97-2.72,7.47-4.06Z"/>
      <path class="cls-23" d="M87.6,110.33c1.91.54,5.97,1.24,3.78,3.93-3.26.18-6.67-.63-9.92-.92-5.75-.63-11.84.74-17.74,1.17-.04-1.03-.08-2.07-.12-3.1,7.73-2.01,16.11-2.09,24-1.08Z"/>
    </g>
  </g>
</svg>