<?xml version="1.0" encoding="UTF-8"?>
<svg id="Capa_2" data-name="Capa 2" xmlns="http://www.w3.org/2000/svg" viewBox="0 0 87.35 150.37">
  <defs>
    <style>
      .cls-1 {
        fill: #0c0907;
      }

      .cls-2 {
        fill: #797c9b;
      }

      .cls-3 {
        fill: #2f3250;
      }

      .cls-4 {
        fill: #242743;
      }

      .cls-5 {
        fill: #5b5e86;
      }

      .cls-6 {
        fill: #44476c;
      }

      .cls-7 {
        fill: #22243f;
      }

      .cls-8 {
        fill: #1b1e33;
      }

      .cls-9 {
        fill: #393f64;
      }
    </style>
  </defs>
  <g id="Capa_1-2" data-name="Capa 1">
    <g id="leg_upper">
      <path class="cls-1" d="M59.37,2.57c8.65,3.33,16.58,9.7,21.02,17.92,5.3,9.07,6.8,20.7,6.96,31.04-.14,15.94-2.89,32.09-6.2,47.65-1.75,9.29-4.09,18.48-6.56,27.61-1.73,5.35-2.83,10.88-7.07,14.87-6.55,6.15-15.61,8.2-24.33,8.67-8.39.26-17.42-.88-25.02-4.6-5.99-3.12-11.55-7.57-13.71-14.22C1.29,122.17.86,111.32.12,101.53c-.02-10-.46-20.12.5-30.09.31-12.29,1.35-24.67,3.77-36.74,1.79-8.55,4.75-16.84,10.91-23.26C26.34-.02,44.74-2.66,59.37,2.57Z"/>
      <path class="cls-5" d="M60.75,7.71c-1.85.55-3.65,1.2-5.53,1.69-9.69-2.01-19.58-1.41-28.24,3.71-8.37,4.65-13.06,12.97-14.68,22.22-1.38,1.26-2.84,2.43-4.35,3.54.82-4.85,1.75-9.6,3.63-14.17,3.61-9.11,11.56-16.31,20.99-19.01,9.3-2.58,19.34-1.83,28.18,2.02Z"/>
      <path class="cls-6" d="M60.75,7.71c8.58,3.27,14.99,10.72,18.2,19.19-4.43-1.5-6.58-4.89-9.67-8.1-3.95-4.33-8.81-6.96-14.06-9.4,1.88-.49,3.68-1.14,5.53-1.69Z"/>
      <path class="cls-3" d="M55.22,9.4c5.25,2.44,10.11,5.07,14.06,9.4-.7,3.09-1.1,6.16-.74,9.33.59,5.87,1.01,11.74,1.01,17.64-2.5,25.92-8.16,51.64-15.23,76.67-2.82,4.72-6.07,9.7-11.76,11.08-6.54,1.54-15.3,1.6-19.75-4.36-3.52-4.5-4.86-10.66-5.66-16.19-1.04-7.44-1.76-14.92-1.8-22.44-.05-10.41-.46-20.62.2-31.01.4-7.71,1.61-14.76.55-22.5-1.25-.61-2.52-1.17-3.8-1.69,1.62-9.25,6.31-17.57,14.68-22.22,8.66-5.12,18.55-5.72,28.24-3.71Z"/>
      <path class="cls-2" d="M27.74,15.89c2.27-.51,4.87.58,5.57,2.92.8,3.52-1.24,7.56-4.26,9.44-2.67,1.7-6.35,1.58-7.92-1.52-1.99-4.35,2.26-10.01,6.61-10.84Z"/>
      <path class="cls-4" d="M69.28,18.8c3.09,3.21,5.24,6.6,9.67,8.1,2.5,5.56,3.49,11.49,3.86,17.55.93,12.54-.9,24.32-2.72,36.68-1.67,11.59-4.73,23.22-7.44,34.66-1.7,6.73-2.75,13.06-5.99,19.31-.96-.34-1.92-.68-2.88-1.02,2.08-6.53,4.2-13.01,5.53-19.74,2.03-9.86,5.12-19.4,6.6-29.38,2.52-12.05,5.23-23.26,3.76-35.73-1.02-7.06-1.22-13.85-4.57-20.14-3.06,4.81-4.14,11.16-5.55,16.68,0-5.9-.42-11.77-1.01-17.64-.36-3.17.04-6.24.74-9.33Z"/>
      <path class="cls-8" d="M75.1,29.09c3.35,6.29,3.55,13.08,4.57,20.14,1.47,12.47-1.24,23.68-3.76,35.73-1.48,9.98-4.57,19.52-6.6,29.38-1.33,6.73-3.45,13.21-5.53,19.74.96.34,1.92.68,2.88,1.02-5.33,7.8-14.47,9.26-23.24,9.81-10.23.7-20.24-.97-28.51-7.37,9.04-.75,16.16,4.64,25.2,3.77,3.08-.31,7.61-.76,9.83-3.11,2.45-4.74,2.76-10.66,4.38-15.76,7.07-25.03,12.73-50.75,15.23-76.67,1.41-5.52,2.49-11.87,5.55-16.68Z"/>
      <path class="cls-9" d="M12.3,35.33c-2.58,14.29-3.66,28.7-4.18,43.2-.25,17.33-1.12,33.84,3.52,50.77-.66.84-1.32,1.68-1.98,2.51-4.79-12.04-4.69-26.47-5.35-39.28.01-17.86.5-36.04,3.64-53.66,1.51-1.11,2.97-2.28,4.35-3.54Z"/>
      <path class="cls-7" d="M12.3,35.33c1.28.52,2.55,1.08,3.8,1.69,1.06,7.74-.15,14.79-.55,22.5-.66,10.39-.25,20.6-.2,31.01.04,7.52.76,15,1.8,22.44.8,5.53,2.14,11.69,5.66,16.19,4.45,5.96,13.21,5.9,19.75,4.36,5.69-1.38,8.94-6.36,11.76-11.08-1.62,5.1-1.93,11.02-4.38,15.76-2.22,2.35-6.75,2.8-9.83,3.11-9.04.87-16.16-4.52-25.2-3.77-2.06-1.65-3.79-3.54-5.25-5.73.66-.83,1.32-1.67,1.98-2.51-4.64-16.93-3.77-33.44-3.52-50.77.52-14.5,1.6-28.91,4.18-43.2Z"/>
    </g>
  </g>
</svg>