<?xml version="1.0" encoding="UTF-8"?>
<svg id="Capa_2" data-name="Capa 2" xmlns="http://www.w3.org/2000/svg" viewBox="0 0 71.68 149.9">
  <defs>
    <style>
      .cls-1 {
        fill: #feedc2;
      }

      .cls-2 {
        fill: #0d0906;
      }

      .cls-3 {
        fill: #ee9652;
      }

      .cls-4 {
        fill: #df8340;
      }

      .cls-5 {
        fill: #e98e4a;
      }

      .cls-6 {
        fill: #f8ca79;
      }

      .cls-7 {
        fill: #d47b3f;
      }

      .cls-8 {
        fill: #fdb062;
      }
    </style>
  </defs>
  <g id="Capa_1-2" data-name="Capa 1">
    <g id="leg_lower">
      <path class="cls-2" d="M36.74,0c12.35.23,24.08,7.73,29.36,18.9,7.12,13.54,5.93,30.94,4.46,45.69-1.92,18.36-5.81,36.59-10.3,54.48-2.44,7.76-3.57,16.33-9.39,22.4-4.76,5.85-12.85,8.13-20.09,8.43-7.33-.12-15.71-2.11-21.01-7.51-5.13-4.99-7.12-12.11-8-19.01C.69,114.44.3,105.42.05,96.42c-.04-17.6-.37-34.7,1.24-52.22.81-9.64,2.16-20.43,7.5-28.74C14.66,5.88,25.54-.02,36.74,0Z"/>
      <path class="cls-6" d="M46.89,6.19c-11.1.15-23.12,3.12-31.89,10.21-1.24.93-2.5,1.85-3.73,2.8C17.72,6.49,33.74.75,46.89,6.19Z"/>
      <path class="cls-8" d="M46.89,6.19c4.98,1.77,8.89,5.14,12.31,9.08-1.42.15-2.83.29-4.24.48,1.7,5.59,3.7,10.99,4.55,16.81,1.67,10.13.47,19.79-.6,29.9-1.2,10.1-2.72,20.15-5.03,30.07-1.94,8.4-3.74,17.07-6.85,25.13-2.17,5.52-5.78,11.01-11.32,13.58-4.71,2.01-10.61,1.57-15.18-.63-3.92-1.94-5.88-5.86-7.5-9.7-2.74-10.68-2.61-22.31-2.96-33.29.25-5.75.48-11.48.52-17.24.16-8.13,1.32-16.15,1.66-24.28.24-7.23,1.41-13.7.54-20.87-5.65,8.41-4.3,16.7-7.57,26.17.72-10.36,1.11-22.84,6.05-32.2,1.23-.95,2.49-1.87,3.73-2.8,8.77-7.09,20.79-10.06,31.89-10.21Z"/>
      <path class="cls-1" d="M23.14,14.62c2.7-.9,5.66.19,6.33,3.13.75,4.1-2.56,8.6-6.28,10.07-2.73,1.19-5.67-.94-6.01-3.75-.47-3.96,2.12-8.23,5.96-9.45Z"/>
      <path class="cls-3" d="M54.96,15.75c1.41-.19,2.82-.33,4.24-.48,2.93,3.77,4.75,8.09,6.12,12.63-1.27-.85-2.53-1.69-3.81-2.5-.87,2.33-1.54,4.72-2,7.16-.85-5.82-2.85-11.22-4.55-16.81Z"/>
      <path class="cls-5" d="M12.79,25.23c.87,7.17-.3,13.64-.54,20.87-.34,8.13-1.5,16.15-1.66,24.28-.04,5.76-.27,11.49-.52,17.24-.96-11.03.87-20.71-2.88-31.33-2.31,11.13-.33,22.33-2.68,33.39-.38-12.73-.36-25.58.71-38.28,3.27-9.47,1.92-17.76,7.57-26.17Z"/>
      <path class="cls-7" d="M61.51,25.4c1.28.81,2.54,1.65,3.81,2.5,1.49,5.7,2.24,11.57,2.22,17.45-.07,14.51-2.13,28.51-4.86,42.71-2.01,11.31-4.74,22.49-7.59,33.6-1.73,5.88-3.75,13.39-8.4,17.64-5.02,4.36-12.5,5.75-18.97,5.3-5.61-.26-11.03-2.07-15.04-6.13-3.48-3.46-5.21-7.92-6.01-12.69.53-2.17,1.19-4.33,1.82-6.47,1.51.53,3.03,1.06,4.54,1.6,1.62,3.84,3.58,7.76,7.5,9.7,4.57,2.2,10.47,2.64,15.18.63,5.54-2.57,9.15-8.06,11.32-13.58,3.11-8.06,4.91-16.73,6.85-25.13,2.31-9.92,3.83-19.97,5.03-30.07,1.07-10.11,2.27-19.77.6-29.9.46-2.44,1.13-4.83,2-7.16Z"/>
      <path class="cls-4" d="M7.19,56.29c3.75,10.62,1.92,20.3,2.88,31.33.35,10.98.22,22.61,2.96,33.29-1.51-.54-3.03-1.07-4.54-1.6-.63,2.14-1.29,4.3-1.82,6.47-1.99-11.86-2.17-24.09-2.16-36.1,2.35-11.06.37-22.26,2.68-33.39Z"/>
    </g>
  </g>
</svg>