<?xml version="1.0" encoding="UTF-8"?>
<svg id="Capa_2" data-name="Capa 2" xmlns="http://www.w3.org/2000/svg" viewBox="0 0 141.64 114.88">
  <defs>
    <style>
      .cls-1 {
        fill: #08070a;
      }

      .cls-2 {
        fill: #141523;
      }

      .cls-3 {
        fill: #505a81;
      }

      .cls-4 {
        fill: #2a2e4b;
      }

      .cls-5 {
        fill: #41476c;
      }

      .cls-6 {
        fill: #101120;
      }

      .cls-7 {
        fill: #0d0906;
      }

      .cls-8 {
        fill: #41486a;
      }

      .cls-9 {
        fill: #282c4a;
      }

      .cls-10 {
        fill: #34395c;
      }

      .cls-11 {
        fill: #1f223a;
      }

      .cls-12 {
        fill: #424971;
      }

      .cls-13 {
        fill: #2a2f4b;
      }

      .cls-14 {
        fill: #2d3150;
      }

      .cls-15 {
        fill: #3f4a74;
      }

      .cls-16 {
        fill: #2f3351;
      }

      .cls-17 {
        fill: #282b47;
      }

      .cls-18 {
        fill: #16182c;
      }

      .cls-19 {
        fill: #363f65;
      }
    </style>
  </defs>
  <g id="Capa_1-2" data-name="Capa 1">
    <g id="shorts">
      <path class="cls-7" d="M79.66.16c7.16.56,14.25.92,21.32,2.21,6.59,1.25,12.98,2.42,18.84,5.85,3.67,2.08,6.6,5.3,7.56,9.49,1.16,5.11,1.57,10.42,2.43,15.59.8,5.11,2.68,9.96,3.72,15.04,2.38,10.78,4.92,21.54,6.98,32.38.86,4.25,1.61,9.08.74,13.37-1.73,5.74-7.06,10.11-12.27,12.68-11.37,5.84-24.62,8.21-37.34,7.33-5.1-.52-11.63-1.57-15.46-5.25-3.78-3.79-3.52-10.76-4.73-15.73-1.08,4.27-1.06,9.16-2.88,13.17-2.65,4.95-8.42,6.54-13.52,7.61-12.38,2.18-25.49.65-37.24-3.7-5.41-2.24-11.25-5.37-14.98-9.98-3.5-4.53-2.9-9.38-2.57-14.75,1.29-11.43,3.43-22.56,5.04-33.9.99-6.77,2.68-13.33,3.07-20.2.61-4.92.85-10.22,2.47-14.93,1.89-5.09,6.28-7.8,11.09-9.75C32.16,2.93,42.72,1.25,53.57.66,62.15-.34,71,.08,79.66.16Z"/>
      <path class="cls-15" d="M92.66,5.29c8.11,1,16.96,2.37,24.32,6.06-1.02.96-1.98,1.97-2.94,2.99-7.04-3.38-14.41-4.56-22.12-5.26-15.36-2.15-31.15-1.83-46.52.11-5.71.5-11.23,1.9-16.66,3.69-1.46.46-2.93.91-4.4,1.35-1.34-.73-2.67-1.46-4.01-2.18,8.88-4.67,20.03-6.02,29.9-7.15,14.08-1.26,28.37-1.06,42.43.39Z"/>
      <path class="cls-18" d="M91.92,9.08c-1.47.14-2.94.31-4.41.5,3.08.87,6.17,1.69,9.27,2.51-2.07,2.32-4.13,4.66-6.19,6.98-.48-.66-.96-1.32-1.44-1.98-1.74,1.57-2.86,3.27-5.45,3.26-10,.3-20.03-.19-30.04.1-2.23-.04-5.21.3-7.21-.88-2.3-1.54-3.84-4.48-5.3-6.77,1.5.65,2.99,1.32,4.49,2,.37-1.2.75-2.4,1.13-3.6,1.69-.58,3.38-1.16,5.07-1.75-2.14-.11-4.3-.24-6.44-.26,15.37-1.94,31.16-2.26,46.52-.11Z"/>
      <path class="cls-6" d="M45.4,9.19c2.14.02,4.3.15,6.44.26-1.69.59-3.38,1.17-5.07,1.75-.38,1.2-.76,2.4-1.13,3.6-1.5-.68-2.99-1.35-4.49-2,1.46,2.29,3,5.23,5.3,6.77,2,1.18,4.98.84,7.21.88,10.01-.29,20.04.2,30.04-.1,2.59.01,3.71-1.69,5.45-3.26.48.66.96,1.32,1.44,1.98,2.06-2.32,4.12-4.66,6.19-6.98-3.1-.82-6.19-1.64-9.27-2.51,1.47-.19,2.94-.36,4.41-.5,7.71.7,15.08,1.88,22.12,5.26l1.12,1.34c-2.55,1.72-5.01,3.38-7.96,4.36-11.33,3.62-22.85,5.29-34.68,6.26-6.83.51-13.06-1.34-19.82-1.5-3.27-.15-6.64-.03-9.88-.51-2.9-.41-5.52-2.53-8.08-3.9-2.46-1.39-5.14-1.84-7.86-2.45.63-1.68,1.25-3.37,1.86-5.06,5.43-1.79,10.95-3.19,16.66-3.69Z"/>
      <path class="cls-3" d="M116.98,11.35c2.36,1.24,4.23,3.03,5.98,5-.14,1.25-.28,2.5-.41,3.75-5.81,4.72-11.63,7.52-18.88,9.35-2.39.6-4.79,1.08-7.22,1.5-6.19.96-12.42,1.84-18.68,2.26l-1.01.05c-6.02.18-12.09.17-18.12-.05-7.61-.25-14.92-2.06-22.51-2.66-.68,4.42-1.34,8.84-1.99,13.27-.82.31-1.65.62-2.47.93.28-5.26.38-10.52.4-15.78-4.91-2.1-9.81-4.14-14.47-6.76-1.17-.65-2.32-1.33-3.49-1.99.67-4.31,2.58-6.12,6.22-8.17,1.34.72,2.67,1.45,4.01,2.18-.4,1.28-.85,2.59-1.07,3.92,1.31,3.14,5.96,4.7,8.94,5.71,16.03,4.7,33.88,4.93,50.45,4.09,8.58-.74,17.35-2.15,25.49-5.07,3.4-1.55,7.33-2.68,7.01-7.2l-1.12-1.34c.96-1.02,1.92-2.03,2.94-2.99Z"/>
      <path class="cls-1" d="M28.74,12.88c-.61,1.69-1.23,3.38-1.86,5.06,2.72.61,5.4,1.06,7.86,2.45,2.56,1.37,5.18,3.49,8.08,3.9,3.24.48,6.61.36,9.88.51,6.76.16,12.99,2.01,19.82,1.5,11.83-.97,23.35-2.64,34.68-6.26,2.95-.98,5.41-2.64,7.96-4.36.32,4.52-3.61,5.65-7.01,7.2-8.14,2.92-16.91,4.33-25.49,5.07-16.57.84-34.42.61-50.45-4.09-2.98-1.01-7.63-2.57-8.94-5.71.22-1.33.67-2.64,1.07-3.92,1.47-.44,2.94-.89,4.4-1.35Z"/>
      <path class="cls-9" d="M122.96,16.35c1.52,5.97,2.14,12.1,2.74,18.06-1.23.67-2.47,1.34-3.71,2.01-.42-2.88-.8-5.79-1.4-8.64-1.85.38-3.69.84-5.52,1.28-.06,3.81-.14,7.63-.22,11.44-2.58,1.06-5.17,2.05-7.81,2.95-.73-2.01-1.46-4.03-2.18-6.05-.41,2.47-.82,4.93-1.26,7.38.2-5.11.16-10.22.07-15.33,7.25-1.83,13.07-4.63,18.88-9.35.13-1.25.27-2.5.41-3.75Z"/>
      <path class="cls-12" d="M14.11,20.22c1.17.66,2.32,1.34,3.49,1.99-.9,4.77-1.48,9.58-2.49,14.32-.9-.71-1.8-1.43-2.7-2.15.45-4.71.78-9.52,1.7-14.16Z"/>
      <path class="cls-17" d="M17.6,22.21c4.66,2.62,9.56,4.66,14.47,6.76-.02,5.26-.12,10.52-.4,15.78-5.99-1.81-11.67-4.26-16.56-8.22,1.01-4.74,1.59-9.55,2.49-14.32Z"/>
      <path class="cls-2" d="M120.59,27.78c.6,2.85.98,5.76,1.4,8.64,1.24-.67,2.48-1.34,3.71-2.01.12.86.25,1.72.4,2.58-1.25,1.29-2.46,2.64-3.74,3.9-2.18,1.37-4.46,2.52-6.82,3.53-11.69,4.88-23.66,6.42-36.17,7.6-11.67.69-23.57.58-35.13-1.28-7.51-1.19-14.86-2.66-21.89-5.65-2.21-.93-4.36-1.95-6.43-3.18-1.36-1.19-2.66-2.48-3.96-3.74.18-1.26.32-2.53.45-3.79.9.72,1.8,1.44,2.7,2.15,4.89,3.96,10.57,6.41,16.56,8.22,4.48,1.41,9.02,1.94,13.68,2.43,1.43.15,2.87.31,4.3.47,9,1.11,17.95,1.4,26.99.67.14-5.02.14-10.04.12-15.06l1.01-.05c.58,4.95.94,9.92,1.25,14.89,8.12.04,15.7-2.27,23.65-3.26l.93-.06c.44-2.45.85-4.91,1.26-7.38.72,2.02,1.45,4.04,2.18,6.05,2.64-.9,5.23-1.89,7.81-2.95.08-3.81.16-7.63.22-11.44,1.83-.44,3.67-.9,5.52-1.28Z"/>
      <path class="cls-8" d="M103.67,29.45c.09,5.11.13,10.22-.07,15.33l-.93.06c-2.9-3.37-2.85-8.6-3.67-12.85-.85-.35-1.7-.7-2.55-1.04,2.43-.42,4.83-.9,7.22-1.5Z"/>
      <path class="cls-4" d="M58.64,33.21c6.03.22,12.1.23,18.12.05.02,5.02.02,10.04-.12,15.06-9.04.73-17.99.44-26.99-.67-.1-2.65-.27-5.29-.51-7.93-3.15,1.77-3.14,4.25-3.79,7.46-4.66-.49-9.2-1.02-13.68-2.43.82-.31,1.65-.62,2.47-.93.65-4.43,1.31-8.85,1.99-13.27,7.59.6,14.9,2.41,22.51,2.66Z"/>
      <path class="cls-13" d="M96.45,30.95c.85.34,1.7.69,2.55,1.04.82,4.25.77,9.48,3.67,12.85-7.95.99-15.53,3.3-23.65,3.26-.31-4.97-.67-9.94-1.25-14.89,6.26-.42,12.49-1.3,18.68-2.26Z"/>
      <path class="cls-10" d="M126.1,36.99c3.38,10.55,5.26,21.39,7.78,32.17,1.42,7.36,3.63,15.16,3.48,22.66-1.53-1.64-3.04-3.03-3.7-5.27-1.49-5.16-2.04-10.59-3.25-15.83-2.34-10.36-3.5-20.11-8.05-29.83,1.28-1.26,2.49-2.61,3.74-3.9Z"/>
      <path class="cls-19" d="M11.96,38.17c1.3,1.26,2.6,2.55,3.96,3.74-2.8,10.74-4.19,21.92-5.92,32.89-1.27,7.3-.38,13.89-4.38,20.3-1.02-3.15-1.17-6.32-.81-9.59,1.71-15.83,4.53-31.63,7.15-47.34Z"/>
      <path class="cls-5" d="M49.14,39.72c.24,2.64.41,5.28.51,7.93-1.43-.16-2.87-.32-4.3-.47.65-3.21.64-5.69,3.79-7.46Z"/>
      <path class="cls-11" d="M122.36,40.89c4.55,9.72,5.71,19.47,8.05,29.83,1.21,5.24,1.76,10.67,3.25,15.83.66,2.24,2.17,3.63,3.7,5.27-2.23,5.29-7,7.82-11.72,10.55-5.22,2.95-10.55,4.72-16.5,5.49-7.71.98-16.34,1.85-23.97.04-2.97-.79-5.87-1.72-7.14-4.82-1.5-3.74-2.52-8.21-1.96-12.24,1.49-2,3.71-3.55,5.63-5.12-8.41.73-16.66,1.13-25.06.01,3.25,1.7,6.51,3.37,9.82,4.97,0,4.3.46,9.69-2.05,13.43-1.92,2.82-6.32,3.83-9.47,4.48-9.47,1.54-19.73,1.45-28.93-1.55-8.01-2.52-15.38-4.67-20.39-11.96,4-6.41,3.11-13,4.38-20.3,1.73-10.97,3.12-22.15,5.92-32.89,2.07,1.23,4.22,2.25,6.43,3.18-1.34,3.85-2.18,7.65-2.63,11.7-.96,8.25-2.27,16.94-1.74,25.23.38,4.7,1.62,9.53,5.6,12.47,3.46,2.52,8.59,3.06,12.74,3.56,4.9.42,11.05.87,15.53-1.48,2.89-1.45,3.94-4.07,5.44-6.73-3.22-2.59-6.18-5.36-8.87-8.5,5.93.16,11.78,1.33,17.7,1.52,4.33.21,8.16-2.23,12.26-1.38,4.28.73,8.42.2,12.71-.02-2.21,2.8-4.57,5.18-7.33,7.43.85,2.27,1.52,6.2,3.78,7.42,4.2,1.3,8.65,1.56,12.85,2.98-4.35,1.26-8.79,1.72-13.28,2.08,1.46,1.57,2.43,3.39,4.75,3.69,12.21,1.61,24.67-.33,34.68-7.88.07-1.49.14-2.99.2-4.49-6.89,3.25-13.5,6.07-21.33,5.64,4.37-2.31,9.07-3.68,13.6-5.6,2.43-1.18,5.11-2.4,5.51-5.41.86-5.19-.49-11.05-1.64-16.13-2.18-8.98-4.45-17.99-7.34-26.77,2.36-1.01,4.64-2.16,6.82-3.53Z"/>
      <path class="cls-16" d="M115.54,44.42c2.89,8.78,5.16,17.79,7.34,26.77,1.15,5.08,2.5,10.94,1.64,16.13-.4,3.01-3.08,4.23-5.51,5.41-4.53,1.92-9.23,3.29-13.6,5.6,7.83.43,14.44-2.39,21.33-5.64-.06,1.5-.13,3-.2,4.49-10.01,7.55-22.47,9.49-34.68,7.88-2.32-.3-3.29-2.12-4.75-3.69,4.49-.36,8.93-.82,13.28-2.08-4.2-1.42-8.65-1.68-12.85-2.98-2.26-1.22-2.93-5.15-3.78-7.42,2.76-2.25,5.12-4.63,7.33-7.43-4.29.22-8.43.75-12.71.02-4.1-.85-7.93,1.59-12.26,1.38-5.92-.19-11.77-1.36-17.7-1.52,2.69,3.14,5.65,5.91,8.87,8.5-1.5,2.66-2.55,5.28-5.44,6.73-4.48,2.35-10.63,1.9-15.53,1.48-4.15-.5-9.28-1.04-12.74-3.56-3.98-2.94-5.22-7.77-5.6-12.47-.53-8.29.78-16.98,1.74-25.23.45-4.05,1.29-7.85,2.63-11.7,7.03,2.99,14.38,4.46,21.89,5.65,11.56,1.86,23.46,1.97,35.13,1.28,12.51-1.18,24.48-2.72,36.17-7.6Z"/>
      <path class="cls-14" d="M15.35,95.41c6.27.69,11.35,3.29,17.57,4.62,7.86,1.81,14.94.78,23.15,1.55-4.87,5.36-11.57,5.99-18.36,4.87-6.51-1.21-13.36-2.77-19.26-5.87-2.3-1.2-2.75-2.72-3.1-5.17Z"/>
    </g>
  </g>
</svg>