<?xml version="1.0" encoding="UTF-8"?>
<svg id="Capa_2" data-name="Capa 2" xmlns="http://www.w3.org/2000/svg" viewBox="0 0 136.38 154.5">
  <defs>
    <style>
      .cls-1 {
        fill: #e32f4f;
      }

      .cls-2 {
        fill: #fdfbfa;
      }

      .cls-3 {
        fill: #fb4162;
      }

      .cls-4 {
        fill: #ca2746;
      }

      .cls-5 {
        fill: #0d0806;
      }

      .cls-6 {
        fill: #e42e50;
      }

      .cls-7 {
        fill: #f53f67;
      }

      .cls-8 {
        fill: #f33859;
      }

      .cls-9 {
        fill: #fa6889;
      }

      .cls-10 {
        fill: #fd7f98;
      }

      .cls-11 {
        fill: #bb213e;
      }

      .cls-12 {
        fill: #feefe9;
      }

      .cls-13 {
        fill: #f96286;
      }
    </style>
  </defs>
  <g id="Capa_1-2" data-name="Capa 1">
    <g id="torso">
      <path class="cls-5" d="M70.65,0c12.45.27,26.19,2.39,37.1,8.73,7.59,4.36,12.35,11.44,15.53,19.42,3.92,10.73,5.54,21.43,7.59,32.57,2.29,10.86,3.57,22,4.8,33.03,1.12,12.42,1.79,27.13-4.89,38.23-4.92,8.63-13.35,13.26-22.34,16.67-16,5.52-34.04,6.47-50.82,5.53-10.03-.91-19.58-1.85-29.1-5.4-8.39-3.06-16.99-8.17-22.13-15.65C2.16,126.94-.03,119.34,0,111.86c-.12-12.56,1.66-25.26,3.79-37.62,2.06-13.35,4.74-26.84,8.32-39.87,2.99-11.08,9.29-20.96,19.64-26.43C43.4,1.87,57.66-.02,70.65,0Z"/>
      <path class="cls-9" d="M86.77,5.63c8.48,1.45,18.03,4.5,24.3,10.66-6.04-.67-11.02-3.89-17-5.1-16.5-3.9-34.88-4.29-51.07,1.18-3.01.76-3.16,2.91-4.22,5.34-1.17-.59-2.33-1.18-3.49-1.78.1-.7.19-1.41.29-2.12-1.35-.41-2.69-.81-4.05-1.18,7.2-4.38,15.18-6.47,23.47-7.58,10.55-1.66,21.27-1.28,31.77.58Z"/>
      <path class="cls-3" d="M94.07,11.19c5.98,1.21,10.96,4.43,17,5.1,6.37,5.58,8.97,13.4,11.01,21.36-.32,1.1-.65,2.19-1,3.28-2.34-4.89-3.87-10.23-6.56-14.92-1.41-2.55-3.64-4-6.03-5.53.52,3.12,1.21,6.18,2.22,9.18-2.73,9.19-1.58,19.78.73,28.95.34,5.91-1.74,12.11-2.64,17.95-.19,1.73,1.17,3.48,1.35,5.23-.31,1.3-.88,2.56-1.37,3.81.89,1.2,1.79,2.38,2.7,3.57-.37,2.41-.76,4.81-1.17,7.21-1.61,1.27-3.22,2.55-4.83,3.83,1,0,2,.02,3,.03-3.34,4.69-7.52,8.34-11.83,12.07-.98-.72-1.96-1.45-2.93-2.17-.46,1.93-.87,3.87-1.25,5.82-1.82-.93-3.65-1.86-5.49-2.77.84,1.31,1.68,2.6,2.53,3.9-.4.6-.8,1.2-1.19,1.8-1.11-.26-2.28-.44-3.33-.87-1.01-.89-1.67-2.22-2.44-3.31-3.44,1.8-4.21,4.83-6.09,7.93-.69,1.62-2.8,1.5-4.28,1.75-5.7.69-10.87-1.42-16.53-.32-3.26.44-6,1.46-9.27.6-2.79-.72-5.69-1.42-8.28-2.69-2.81-1.6-5.18-3.9-7.94-5.61-3.37-2.14-6.71-4.29-9.86-6.75.61-.66,1.22-1.32,1.83-1.98-1.49-2.98-3.2-5.76-5.46-8.22-.56-12.19,1.03-24.76,2.7-36.82.66-5.35-.77-9.98-1.71-15.13.28-2.58.53-5.16.88-7.73,1.48-5.07,3.33-9.86,6.36-14.24,1.8,1.89,2.86,3.84,3.76,6.28.91,3.22,3.73,4.54,6.9,4.25,5.42-.77,10.4-6.54,9.45-12.09-.66-3.15-4.02-4.26-6.48-5.68l.25-.55c1.06-2.43,1.21-4.58,4.22-5.34,16.19-5.47,34.57-5.08,51.07-1.18Z"/>
      <path class="cls-10" d="M31.53,12.63c1.36.37,2.7.77,4.05,1.18-.1.71-.19,1.42-.29,2.12,1.16.6,2.32,1.19,3.49,1.78l-.25.55c-2.02,1.1-4.33,1.93-6.16,3.33-1.59,1.36-2.86,3.16-4.19,4.76-1.54-2.75-2.27-5.7-2.88-8.77,1.91-1.85,3.94-3.59,6.23-4.95Z"/>
      <path class="cls-13" d="M25.3,17.58c.61,3.07,1.34,6.02,2.88,8.77.14,1.82.26,3.63.48,5.43-.9-2.44-1.96-4.39-3.76-6.28-3.03,4.38-4.88,9.17-6.36,14.24-.46.68-.92,1.35-1.4,2.01-.68-1.02-1.36-2.05-2.04-3.07,2.02-7.84,4.52-15.1,10.2-21.1Z"/>
      <path class="cls-2" d="M38.53,18.26c2.46,1.42,5.82,2.53,6.48,5.68.95,5.55-4.03,11.32-9.45,12.09-3.17.29-5.99-1.03-6.9-4.25-.22-1.8-.34-3.61-.48-5.43,1.33-1.6,2.6-3.4,4.19-4.76,1.83-1.4,4.14-2.23,6.16-3.33Z"/>
      <path class="cls-6" d="M108.49,20.48c2.39,1.53,4.62,2.98,6.03,5.53,2.69,4.69,4.22,10.03,6.56,14.92.35-1.09.68-2.18,1-3.28,2.58,9.23,3.88,18.62,5.58,28.03,2.11,13.44,4.52,27.56,4.53,41.18-.15,7.82-1.2,17.16-5.76,23.78-5.35,7.69-13.79,11.95-22.62,14.37-10.49,2.91-21.27,4.44-32.16,4.38-15.14.39-30.72-1.19-44.98-6.54-7.58-2.87-14.05-7.78-18.24-14.78.77-.83,1.54-1.64,2.35-2.43l.54-.45c1.68,3.3,3.33,6.38,6.36,8.65,4.7,3.57,10.44,5.93,15.86,8.18,7.65,3.1,15.37,3.67,23.5,4.44,9.86.88,19.65.42,29.48-.62,8.33-.86,16.62-3.51,24.3-6.8,7.29-3.11,13.72-9.34,15.93-17.08,2.02-6.99,2.16-14.66,1.65-21.86-.66-9.03-1.55-18.03-3.06-26.97-1.51-8.68-2.39-17.11-5.57-25.41.1,6.48.83,12.89,1.4,19.34.46,5.07-.15,10.02-.68,15.05-1.96-10.81-2.38-21.72-4.81-32.42-1.56-6.79-2.59-13.46-4.97-20.03-1.01-3-1.7-6.06-2.22-9.18Z"/>
      <path class="cls-8" d="M110.71,29.66c2.38,6.57,3.41,13.24,4.97,20.03,2.43,10.7,2.85,21.61,4.81,32.42.71,9.12.92,19.19-1.61,28.06-2.22,7.49-7.02,14.12-13.78,18.14-6.37,4.02-13.47,5.91-20.87,6.98-13.41,2.14-27.28,1.43-40.5-1.53-10.44-2.39-20.27-8.03-25.07-17.98-1.08-3.12-1.81-6.36-2.2-9.64.03-2.25.16-4.48.21-6.72,2.26,2.46,3.97,5.24,5.46,8.22-.61.66-1.22,1.32-1.83,1.98,3.15,2.46,6.49,4.61,9.86,6.75,2.76,1.71,5.13,4.01,7.94,5.61,2.59,1.27,5.49,1.97,8.28,2.69,3.27.86,6.01-.16,9.27-.6,5.66-1.1,10.83,1.01,16.53.32,1.48-.25,3.59-.13,4.28-1.75,1.88-3.1,2.65-6.13,6.09-7.93.77,1.09,1.43,2.42,2.44,3.31,1.05.43,2.22.61,3.33.87.39-.6.79-1.2,1.19-1.8-.85-1.3-1.69-2.59-2.53-3.9,1.84.91,3.67,1.84,5.49,2.77.38-1.95.79-3.89,1.25-5.82.97.72,1.95,1.45,2.93,2.17,4.31-3.73,8.49-7.38,11.83-12.07-1-.01-2-.02-3-.03,1.61-1.28,3.22-2.56,4.83-3.83.41-2.4.8-4.8,1.17-7.21-.91-1.19-1.81-2.37-2.7-3.57.49-1.25,1.06-2.51,1.37-3.81-.18-1.75-1.54-3.5-1.35-5.23.9-5.84,2.98-12.04,2.64-17.95-2.31-9.17-3.46-19.76-.73-28.95Z"/>
      <path class="cls-7" d="M15.1,38.68c.68,1.02,1.36,2.05,2.04,3.07.48-.66.94-1.33,1.4-2.01-.35,2.57-.6,5.15-.88,7.73-3.39,10.75-5.1,21.8-6.82,32.92-1.27,8.77-2.31,17.64-3.03,26.47-.56,6.5.79,12.69,2.97,18.78-.81.79-1.58,1.6-2.35,2.43-3.47-6.9-4.67-14.54-4.23-22.21.61-11.85,2.65-23.65,4.38-35.38,1.9-10.64,3.78-21.34,6.52-31.8Z"/>
      <path class="cls-12" d="M27.11,39.27c2.46-1.12,4.68,1.11,4.49,3.56-.19,2.16-2.84,4.95-4.98,3.05-2.64-1.6-2.05-5.26.49-6.61Z"/>
      <path class="cls-1" d="M17.66,47.47c.94,5.15,2.37,9.78,1.71,15.13-1.67,12.06-3.26,24.63-2.7,36.82-.05,2.24-.18,4.47-.21,6.72-1.06-6.39-.32-12.81-1.07-19.19-.32-3.1-2.48-4.55-4.55-6.56,1.72-11.12,3.43-22.17,6.82-32.92Z"/>
      <path class="cls-11" d="M119.77,47.72c3.18,8.3,4.06,16.73,5.57,25.41,1.51,8.94,2.4,17.94,3.06,26.97.51,7.2.37,14.87-1.65,21.86-2.21,7.74-8.64,13.97-15.93,17.08-7.68,3.29-15.97,5.94-24.3,6.8-9.83,1.04-19.62,1.5-29.48.62-8.13-.77-15.85-1.34-23.5-4.44-5.42-2.25-11.16-4.61-15.86-8.18-3.03-2.27-4.68-5.35-6.36-8.65,4.13-2.85,5.6-4.69,7.34-9.41,4.8,9.95,14.63,15.59,25.07,17.98,13.22,2.96,27.09,3.67,40.5,1.53,7.4-1.07,14.5-2.96,20.87-6.98,6.76-4.02,11.56-10.65,13.78-18.14,2.53-8.87,2.32-18.94,1.61-28.06.53-5.03,1.14-9.98.68-15.05-.57-6.45-1.3-12.86-1.4-19.34Z"/>
      <path class="cls-4" d="M10.84,80.39c2.07,2.01,4.23,3.46,4.55,6.56.75,6.38,0,12.8,1.07,19.19.39,3.28,1.12,6.52,2.2,9.64-1.74,4.72-3.21,6.56-7.34,9.41l-.54.45c-2.18-6.09-3.53-12.28-2.97-18.78.72-8.83,1.76-17.7,3.03-26.47Z"/>
    </g>
  </g>
</svg>