<?xml version="1.0" encoding="UTF-8"?>
<svg id="Capa_2" data-name="Capa 2" xmlns="http://www.w3.org/2000/svg" viewBox="0 0 259.79 139.98">
  <defs>
    <style>
      .cls-1 {
        fill: #fc9c05;
      }

      .cls-2 {
        fill: #84b31e;
      }

      .cls-3 {
        fill: #7d7472;
      }

      .cls-4 {
        fill: #554b50;
      }

      .cls-5 {
        fill: #cac0b6;
      }

      .cls-6 {
        fill: #5c514e;
      }

      .cls-7 {
        fill: #f9f49b;
      }

      .cls-8 {
        fill: #483f44;
      }

      .cls-9 {
        fill: #fcb00d;
      }

      .cls-10 {
        fill: #756b6a;
      }

      .cls-11 {
        fill: #b9b1aa;
      }

      .cls-12 {
        fill: #361c12;
      }

      .cls-13 {
        fill: #feb10a;
      }

      .cls-14 {
        fill: #998e8a;
      }

      .cls-15 {
        fill: #9a908c;
      }

      .cls-16 {
        fill: #658f07;
      }

      .cls-17 {
        fill: #6aa211;
      }

      .cls-18 {
        fill: #736869;
      }

      .cls-19 {
        fill: #f9df34;
      }

      .cls-20 {
        fill: #8f8582;
      }

      .cls-21 {
        fill: #9a918d;
      }

      .cls-22 {
        fill: #4b4345;
      }

      .cls-23 {
        fill: #0e0b0a;
      }

      .cls-24 {
        fill: #5c5152;
      }

      .cls-25 {
        fill: #f9f4ab;
      }

      .cls-26 {
        fill: #3b5a0c;
      }

      .cls-27 {
        fill: #4e4549;
      }

      .cls-28 {
        fill: #7aaa08;
      }

      .cls-29 {
        fill: #e78800;
      }

      .cls-30 {
        fill: #ccc1b8;
      }

      .cls-31 {
        fill: #bab0a8;
      }

      .cls-32 {
        fill: #a0958f;
      }

      .cls-33 {
        fill: #fdc61f;
      }

      .cls-34 {
        fill: #a89f9b;
      }

      .cls-35 {
        fill: #675d5d;
      }

      .cls-36 {
        fill: #241301;
      }

      .cls-37 {
        fill: #746b6b;
      }

      .cls-38 {
        fill: #fca308;
      }

      .cls-39 {
        fill: #fdca27;
      }

      .cls-40 {
        fill: #6d9e04;
      }

      .cls-41 {
        fill: #a89d98;
      }

      .cls-42 {
        fill: #564c50;
      }

      .cls-43 {
        fill: #629110;
      }

      .cls-44 {
        fill: #453d41;
      }

      .cls-45 {
        fill: #fed744;
      }

      .cls-46 {
        fill: #629208;
      }

      .cls-47 {
        fill: #675d5e;
      }

      .cls-48 {
        fill: #433633;
      }

      .cls-49 {
        fill: #f99b01;
      }

      .cls-50 {
        fill: #e77a01;
      }

      .cls-51 {
        fill: #a29993;
      }

      .cls-52 {
        fill: #150c05;
      }

      .cls-53 {
        fill: #978d89;
      }

      .cls-54 {
        fill: #df8202;
      }

      .cls-55 {
        fill: #f9f2a7;
      }

      .cls-56 {
        fill: #d46f02;
      }

      .cls-57 {
        fill: #756c6b;
      }

      .cls-58 {
        fill: #5e5153;
      }

      .cls-59 {
        fill: #f1e064;
      }

      .cls-60 {
        fill: #786d6d;
      }

      .cls-61 {
        fill: #3b6008;
      }

      .cls-62 {
        fill: #756c6d;
      }

      .cls-63 {
        fill: #7b7374;
      }

      .cls-64 {
        fill: #fdba13;
      }

      .cls-65 {
        fill: #f9f5a6;
      }

      .cls-66 {
        fill: #648d0f;
      }

      .cls-67 {
        fill: #fdd437;
      }

      .cls-68 {
        fill: #342c30;
      }

      .cls-69 {
        fill: #faf89a;
      }

      .cls-70 {
        fill: #5e5a58;
      }

      .cls-71 {
        fill: #786f70;
      }

      .cls-72 {
        fill: #fdd030;
      }

      .cls-73 {
        fill: #fbf068;
      }

      .cls-74 {
        fill: #44373b;
      }

      .cls-75 {
        fill: #5d9209;
      }

      .cls-76 {
        fill: #fdc41d;
      }

      .cls-77 {
        fill: #fdd02e;
      }

      .cls-78 {
        fill: #524a4a;
      }

      .cls-79 {
        fill: #faf29c;
      }

      .cls-80 {
        fill: #7f7674;
      }

      .cls-81 {
        fill: #4d444a;
      }

      .cls-82 {
        fill: #f8f3a3;
      }

      .cls-83 {
        fill: #857876;
      }

      .cls-84 {
        fill: #c65f00;
      }

      .cls-85 {
        fill: #a59c97;
      }

      .cls-86 {
        fill: #7b6f6f;
      }

      .cls-87 {
        fill: #837976;
      }

      .cls-88 {
        fill: #61585d;
      }

      .cls-89 {
        fill: #6b6064;
      }

      .cls-90 {
        fill: #b6aea7;
      }

      .cls-91 {
        fill: #fef5ae;
      }

      .cls-92 {
        fill: #fba006;
      }

      .cls-93 {
        fill: #625351;
      }

      .cls-94 {
        fill: #d56700;
      }

      .cls-95 {
        fill: #ba6101;
      }

      .cls-96 {
        fill: #4d4545;
      }

      .cls-97 {
        fill: #8e8684;
      }

      .cls-98 {
        fill: #211101;
      }

      .cls-99 {
        fill: #e8d041;
      }

      .cls-100 {
        fill: #6c6364;
      }

      .cls-101 {
        fill: #fed030;
      }

      .cls-102 {
        fill: #b85c01;
      }

      .cls-103 {
        fill: #aca29b;
      }

      .cls-104 {
        fill: #fee667;
      }

      .cls-105 {
        fill: #9b9290;
      }

      .cls-106 {
        fill: #c56000;
      }

      .cls-107 {
        fill: #6c6365;
      }

      .cls-108 {
        fill: #8b827f;
      }

      .cls-109 {
        fill: #fcd337;
      }

      .cls-110 {
        fill: #c86400;
      }

      .cls-111 {
        fill: #c1b7ae;
      }

      .cls-112 {
        fill: #fda405;
      }

      .cls-113 {
        fill: #a99f9a;
      }

      .cls-114 {
        fill: #a29894;
      }

      .cls-115 {
        fill: #575053;
      }

      .cls-116 {
        fill: #4d4248;
      }

      .cls-117 {
        fill: #edcf4c;
      }

      .cls-118 {
        fill: #fca607;
      }

      .cls-119 {
        fill: #fdbe16;
      }

      .cls-120 {
        fill: #fdc21d;
      }

      .cls-121 {
        fill: #371f14;
      }

      .cls-122 {
        fill: #fdb815;
      }

      .cls-123 {
        fill: #b1a8a4;
      }

      .cls-124 {
        fill: #f9f7bf;
      }

      .cls-125 {
        fill: #e8d14c;
      }

      .cls-126 {
        fill: #fee460;
      }

      .cls-127 {
        fill: #fdd63d;
      }

      .cls-128 {
        fill: #405e09;
      }

      .cls-129 {
        fill: #da6e00;
      }

      .cls-130 {
        fill: #413636;
      }

      .cls-131 {
        fill: #fdc61b;
      }

      .cls-132 {
        fill: #fecf34;
      }

      .cls-133 {
        fill: #83a12e;
      }

      .cls-134 {
        fill: #fdc010;
      }

      .cls-135 {
        fill: #bb5b00;
      }

      .cls-136 {
        fill: #fb9a03;
      }
    </style>
  </defs>
  <g id="Capa_1-2" data-name="Capa 1">
    <g id="logo_climby">
      <path class="cls-23" d="M114.86.04c7.69-.17,15.08.1,22.1,3.63,3.34,1.54,6.2,3.79,9.35,5.63,1.8.27,3.68.17,5.5.19,8.14-.05,16.07,1.18,24.09,2.09,7.08-1.07,12.89-4.56,20.5-2.31,6.06,1.74,8.31,6.65,12.96,10.01,5.1,1.43,9.99,1.27,14.76,4.23,3.67,2.25,5.52,5.71,7.21,9.53-.9.4-1.8.79-2.71,1.17l-.55.23c-.98-2-1.99-4.03-3.1-5.96-3.25-3.03-7.56-3.97-11.79-4.8-7.43-1.55-14.84-1.71-21.93,1.35.75-.9,1.33-1.79,2.5-2.17,3.56-1.19,7.3-1.79,10.89-2.87-2.07-2.15-4.23-4.62-6.97-5.93-6.28-3.6-12.8-1.38-19.07.9-.67.26-1.33.51-1.99.77-8.4-2.02-17.19-2.54-25.79-2.76-5.39-.66-8.78,4.1-12.57,7.1,1.16-2.79,2.5-5.24,4.26-7.69-1.78-1.58-3.56-3.23-5.52-4.57-.57-.32-1.14-.63-1.73-.92-5.16-3.01-10.59-3.16-16.4-3.41-6.99-.21-13.92.56-20.68,2.35-1.24-.86-2.47-1.73-3.74-2.55C101.12,1.4,107.9.09,114.86.04Z"/>
      <path class="cls-52" d="M94.44,3.28c1.27.82,2.5,1.69,3.74,2.55-3.8,1.23-8.26,2.32-11.43,4.82-3.5,3.12-6.24,7.2-8.54,11.26-.7,1.3-1.33,2.63-1.92,3.98-2.03,6-4.83,11.37-1.16,17.39,2.03,2.4,4.76,3.44,7.71,4.25.82,1.87,1.6,3.91,2.81,5.56,1.31.79,3.09.85,4.57,1.17.34-1.81.66-3.63,1.08-5.43.43-1.25.92-2.48,1.4-3.72,5.04-.97,9.98-1.76,15.14-1.13,4.37.82,7.7-1.1,11.88-2.2,3,.11,6.05.41,9.04.72.94,1.14,1.88,2.27,2.75,3.47,1.76,2.81,3.48,5.65,5.34,8.4,1.06-2.28,2.07-4.58,3.1-6.87,1.21-2.32,2.46-5.56,5.38-6.04,5.53-.97,11.23-.51,16.51,1.42,3.23,1.3,5.77-.23,8.95-.95,3.31-.58,7.75.03,10.7-1.56,3.44-3.41,2.67-10.46,2.12-14.81,1.73.28,3.45.58,5.16.98-3.15,4.36-3.04,9.36-3.68,14.51,4.41.75,8.64,2.25,13.02,3.03,3.59-.02,7.1-1.45,10.73-1.51,3.99-.35,7.66.67,11.31,2.14,1.74,3.75,3.6,7.43,5.59,11.06,1.95-2.1,4.91-4.46,5.67-7.29.18-4.73-1.85-9.65-2.79-14.27.91-.38,1.81-.77,2.71-1.17,1.82-.6,4.94-3.2,6.49-1.27,3.5,4.21,2.52,8.68,3.11,13.54,4.07,2.47,10.55,4.07,13.27,8.14,2.4,4.35.52,7.62-1.8,11.39,1.1,1.23,2.51,2.47,3.22,3.98,2.19,5.37,4.71,9.84,4.07,15.89-.16,3.19-2.64,4.8-3.23,7.86-.91,4-1.5,8.07-1.49,12.18-.05,4.26-.07,8.24-2.05,12.14-2,4.09-5.55,6.01-9.37,8.11,1.18,2.35,2.84,4.93,2.7,7.63-.43,1.68-1.73,2.63-3.45,2.57-2.78-.08-5.68-1.16-8.28-2.12-.9,1.97-1.76,4.54-3.54,5.88-1.59.77-2.93,1.67-4.52.36-2.71-1.61-2.43-5.13-2.9-7.83-7.3,1.45-15.13,2.12-22.55,1.67-4.11-.18-7.51-1.94-11.32-3.19-3.28-.01-6.56.47-9.85.5-2.53-.1-4.48,1.59-6.82,2.55-5.27,2.29-11.53,2.19-17.16,2.16-4.99-.05-10.04.2-15-.25-3.09-.27-5.98-1.34-9-1.88-2.36.35-4.63,1.19-7,1.57-3.83.82-7.15-.06-10.99-.15-8.02-.27-17.16.24-25.19-1.61-2.91-.59-4.94-2.63-7.86-1.18-3.55,1.4-7.2,1.51-10.96,1.36-5.11-.23-10.28.18-15.27-1.14-1.83-.42-3.42-1.05-5.33-.8-9.33,1.35-18.68-.07-27.41-3.51-7.6-1.66-14.66-5.61-17.33-13.32-.94-4.94-.69-10.2.9-14.99-1.23-1.16-2.42-2.34-3.59-3.55.22-1.88.67-3.78.65-5.67-1.24-2.54-2.44-4.66-2.48-7.58,1.97-.43,3.95-.83,5.94-1.18-.85-5.32-1.2-10.31,1.2-15.32,1.89-3.24,5.59-5.62,8.45-8-2.56-9.77.56-19.98,6.83-27.66,6.22-7.5,14.31-11.97,23.09-15.83,6.65-2.86,13.88-4.11,21.09-3.27,4.25.54,7.21,2.89,10.57,5.32,2.17-3.11,3.96-6.1,7.05-8.41,3-2.42,6.52-3.87,10.22-4.85Z"/>
      <path class="cls-30" d="M118.86,3.48c5.81.25,11.24.4,16.4,3.41-3.85-.04-7.57-.4-11.38-.95-7.63-1.19-15.82,1.12-23.43,2.44-4.09.68-7.66,2.27-11.15,4.44,3.64.14,7.28.37,10.9.87-1.56,2.65-3.44,6.87-6.61,7.83-2.79.85-4.92-3.34-6.48-5.09-2.63,2.86-5.01,4.69-8.9,5.48,2.3-4.06,5.04-8.14,8.54-11.26,3.17-2.5,7.63-3.59,11.43-4.82,6.76-1.79,13.69-2.56,20.68-2.35Z"/>
      <path class="cls-103" d="M123.88,5.94c3.81.55,7.53.91,11.38.95.59.29,1.16.6,1.73.92-.63,2.36-.97,4.93-1.99,7.15-3.03,3.08-7.47,4.99-11.24,6.99l-.69.35c-6.03.22-11.69-.87-17.75.19-5.52.99-11.08,1.66-16.6,2.67-1.3-.76-2.6-1.52-3.94-2.21-2.87.85-5.65,1.98-8.49,2.94.59-1.35,1.22-2.68,1.92-3.98,3.89-.79,6.27-2.62,8.9-5.48,1.56,1.75,3.69,5.94,6.48,5.09,3.17-.96,5.05-5.18,6.61-7.83-3.62-.5-7.26-.73-10.9-.87,3.49-2.17,7.06-3.76,11.15-4.44,7.61-1.32,15.8-3.63,23.43-2.44Z"/>
      <path class="cls-100" d="M136.99,7.81c1.96,1.34,3.74,2.99,5.52,4.57-1.76,2.45-3.1,4.9-4.26,7.69-1.32,1.46-2.7,2.87-4.1,4.26-3.48,1.76-6.3,3.29-10.22,1.7-.08-1.36-.14-2.72-.17-4.08,3.77-2,8.21-3.91,11.24-6.99,1.02-2.22,1.36-4.79,1.99-7.15Z"/>
      <path class="cls-113" d="M197.67,14.06l-.43.78c-4.24,1.98-9.71,1.73-14.32,1.81-1.46-.5-2.89-1.09-4.32-1.69,6.27-2.28,12.79-4.5,19.07-.9Z"/>
      <path class="cls-111" d="M150.82,12.97c8.6.22,17.39.74,25.79,2.76.48.68.96,1.37,1.44,2.06-6.47.26-12.79-.81-19.22-1.04-4.82-.19-7.91,2.85-11.62,5.38-5.43,4.01-11.51,6.66-17.82,8.94,1.34-2.42,2.95-4.66,4.76-6.74,1.4-1.39,2.78-2.8,4.1-4.26,3.79-3,7.18-7.76,12.57-7.1Z"/>
      <path class="cls-22" d="M197.67,14.06c2.74,1.31,4.9,3.78,6.97,5.93-3.59,1.08-7.33,1.68-10.89,2.87-1.17.38-1.75,1.27-2.5,2.17l-.47.62-.49,1.3-1.52-.41c-1.71-.4-3.43-.7-5.16-.98-1.38-2.13-2.96-4.09-4.48-6.19-.36-.53-.71-1.06-1.08-1.58-.48-.69-.96-1.38-1.44-2.06.66-.26,1.32-.51,1.99-.77,1.43.6,2.86,1.19,4.32,1.69,1.08,2.04,2.19,4.07,3.29,6.09,2.57-.8,5.39-1.52,7.7-2.9,1.66-.98,2.43-3.39,3.33-5l.43-.78Z"/>
      <path class="cls-19" d="M66.16,14.76c-3.89.91-7.8,1.77-11.68,2.74-5.76,1.43-10.41,4.84-15.99,7.53-4.62,2.14-7.39,4.54-10.35,8.67-2.95,3.8-4.6,7.75-8.74,10.43,2.14-9.14,8.48-15.76,16.24-20.58,8.69-5.46,20.09-10.36,30.52-8.79Z"/>
      <path class="cls-134" d="M66.16,14.76c2.75.32,4.94,1.56,7.34,2.82-3.26.6-6.17.42-8.71,2.84-2.78,3.72-5.12,7.85-7.81,11.64-4.87,2.86-9.96,5.31-14.84,8.16-3.14,2.19-5.82,5.37-9.15,7.21-2.97,1.5-6.83,1.56-10.05,2.35-2.19.18-3.06,2.45-4.32,3.94-.01-3.17.08-6.5.78-9.59,4.14-2.68,5.79-6.63,8.74-10.43,1.66,1.69,2.58,4.26,5.38,3.57,4.88-1.16,6.73-4.89,8.17-9.29-1.06-.99-2.13-1.97-3.2-2.95,5.58-2.69,10.23-6.1,15.99-7.53,3.88-.97,7.79-1.83,11.68-2.74Z"/>
      <path class="cls-10" d="M197.24,14.84c-.9,1.61-1.67,4.02-3.33,5-2.31,1.38-5.13,2.1-7.7,2.9-1.1-2.02-2.21-4.05-3.29-6.09,4.61-.08,10.08.17,14.32-1.81Z"/>
      <path class="cls-51" d="M158.83,16.75c6.43.23,12.75,1.3,19.22,1.04.37.52.72,1.05,1.08,1.58.23,2.09.47,4.18.83,6.25.02,1.41.02,2.82.01,4.23-2.91.22-5.81.29-8.72.4-4.11-.43-6.47,3.86-9.6,6-5.4.16-10.58.21-15.82,1.78-1.77.38-4.14,1.39-5.9.63-3.95-1.54-7.41-4.8-10.54-7.59,6.31-2.28,12.39-4.93,17.82-8.94,3.71-2.53,6.8-5.57,11.62-5.38Z"/>
      <path class="cls-95" d="M73.5,17.58c.42,1.2,1.02,2.16.55,3.46-1.52,4.73-3.22,9.4-4.51,14.21-2.49.45-5.39.51-7.67,1.65-2.67,1.9-4.44,5.31-6.24,8-4.61.18-9.08.36-13.48,1.86.02-2.18.03-4.36,0-6.54,4.88-2.85,9.97-5.3,14.84-8.16,1.84-.72,4.27-1.07,5.79-2.38,1.53-2.64,1.64-6.28,2.02-9.26,2.54-2.42,5.45-2.24,8.71-2.84Z"/>
      <path class="cls-35" d="M179.13,19.37c1.52,2.1,3.1,4.06,4.48,6.19.55,4.35,1.32,11.4-2.12,14.81-2.95,1.59-7.39.98-10.7,1.56,2.13-.79,4.24-1.64,6.28-2.62,1.61-1.89,3.43-4.13,3.85-6.65.27-2.28-.52-4.8-.96-7.04-.36-2.07-.6-4.16-.83-6.25Z"/>
      <path class="cls-54" d="M64.79,20.42c-.38,2.98-.49,6.62-2.02,9.26-1.52,1.31-3.95,1.66-5.79,2.38,2.69-3.79,5.03-7.92,7.81-11.64Z"/>
      <path class="cls-5" d="M105.32,22.49c6.06-1.06,11.72.03,17.75-.19-.2,1.44-.36,2.89-.52,4.34-4.57-.55-8.87-1.2-13.49-.61-5.67.78-11.26,2.28-16.61,4.3-1.26-1.28-2.46-2.6-3.58-4.01l-.15-1.16c5.52-1.01,11.08-1.68,16.6-2.67Z"/>
      <path class="cls-3" d="M123.07,22.3l.69-.35c.03,1.36.09,2.72.17,4.08.54,1.8,1.22,3.56,1.81,5.34-7.46,2.43-14.36,6.71-20.97,10.85,1.01.6,2.04,1.18,3.07,1.76-5.16-.63-10.1.16-15.14,1.13-2.37.25-4.76.32-7.14.24,2.81-4.84,4.66-9.9,6.89-15.02,5.35-2.02,10.94-3.52,16.61-4.3,4.62-.59,8.92.06,13.49.61.16-1.45.32-2.9.52-4.34Z"/>
      <path class="cls-87" d="M84.78,22.95c1.34.69,2.64,1.45,3.94,2.21l.15,1.16c-.12,6.62-3.34,12.38-3.31,19.03-3.6-.22-6.95-1.21-10.43-2.07-3.67-6.02-.87-11.39,1.16-17.39,2.84-.96,5.62-2.09,8.49-2.94Z"/>
      <path class="cls-11" d="M213.18,23.68c-5.68,1.65-10.59,4.86-16.46,6.04-2.11-1.17-4.02-2.62-5.94-4.07l.47-.62c7.09-3.06,14.5-2.9,21.93-1.35Z"/>
      <path class="cls-96" d="M134.15,24.33c-1.81,2.08-3.42,4.32-4.76,6.74-.78,3.68-.66,7.67-.63,11.43-2.99-.31-6.04-.61-9.04-.72,2.27-2.31,4.89-4.64,6.51-7.46-.07-.99-.24-1.97-.49-2.95-.59-1.78-1.27-3.54-1.81-5.34,3.92,1.59,6.74.06,10.22-1.7Z"/>
      <path class="cls-41" d="M213.18,23.68c4.23.83,8.54,1.77,11.79,4.8-.3,1.45-.6,2.89-.93,4.32-5.04,1.03-9.2-1.62-14.19-1.25-1.25.06-2.5.14-3.75.25.21,2.73.41,5.47.59,8.2-1.44-2.23-2.78-4.6-4.49-6.64-1.38-1.6-3.66-2.59-5.48-3.64,5.87-1.18,10.78-4.39,16.46-6.04Z"/>
      <path class="cls-91" d="M38.49,25.03c1.07.98,2.14,1.96,3.2,2.95-1.44,4.4-3.29,8.13-8.17,9.29-2.8.69-3.72-1.88-5.38-3.57,2.96-4.13,5.73-6.53,10.35-8.67Z"/>
      <path class="cls-108" d="M179.96,25.62c.44,2.24,1.23,4.76.96,7.04-.42,2.52-2.24,4.76-3.85,6.65-5.23-.6-10.26-2.06-15.42-3.06,3.13-2.14,5.49-6.43,9.6-6,2.91-.11,5.81-.18,8.72-.4.01-1.41.01-2.82-.01-4.23Z"/>
      <path class="cls-53" d="M190.78,25.65c1.92,1.45,3.83,2.9,5.94,4.07,1.82,1.05,4.1,2.04,5.48,3.64,1.71,2.04,3.05,4.41,4.49,6.64-.18-2.73-.38-5.47-.59-8.2,1.25-.11,2.5-.19,3.75-.25,4.99-.37,9.15,2.28,14.19,1.25-.83,5.2-4.99,7.29-9.5,8.86-3.26,1.1-6.64-.04-9.95-.43-2.59-.42-5.25-.17-7.82-.6-3.84-3.7-5.87-8.42-6.48-13.68l.49-1.3Z"/>
      <path class="cls-32" d="M88.87,26.32c1.12,1.41,2.32,2.73,3.58,4.01-2.23,5.12-4.08,10.18-6.89,15.02-.03-6.65,3.19-12.41,3.31-19.03Z"/>
      <path class="cls-47" d="M188.77,26.54l1.52.41c.61,5.26,2.64,9.98,6.48,13.68,2.57.43,5.23.18,7.82.6,3.31.39,6.69,1.53,9.95.43,4.51-1.57,8.67-3.66,9.5-8.86.33-1.43.63-2.87.93-4.32,1.11,1.93,2.12,3.96,3.1,5.96-.84.36-1.68.72-2.5,1.11-.12,2.68.01,5.39.08,8.08-1.83.37-3.67.73-5.5,1.08-3.65-1.47-7.32-2.49-11.31-2.14-3.63.06-7.14,1.49-10.73,1.51-4.38-.78-8.61-2.28-13.02-3.03.64-5.15.53-10.15,3.68-14.51Z"/>
      <path class="cls-60" d="M129.39,31.07c3.13,2.79,6.59,6.05,10.54,7.59,1.76.76,4.13-.25,5.9-.63,5.24-1.57,10.42-1.62,15.82-1.78,5.16,1,10.19,2.46,15.42,3.06-2.04.98-4.15,1.83-6.28,2.62-3.18.72-5.72,2.25-8.95.95-5.28-1.93-10.98-2.39-16.51-1.42-2.92.48-4.17,3.72-5.38,6.04-2.78-.68-5.58-1.27-8.44-1.53-.87-1.2-1.81-2.33-2.75-3.47-.03-3.76-.15-7.75.63-11.43Z"/>
      <path class="cls-20" d="M125.74,31.37c.25.98.42,1.96.49,2.95-1.62,2.82-4.24,5.15-6.51,7.46-4.18,1.1-7.51,3.02-11.88,2.2-1.03-.58-2.06-1.16-3.07-1.76,6.61-4.14,13.51-8.42,20.97-10.85Z"/>
      <path class="cls-61" d="M235.9,33.19c2.39,3.75,2.47,6.98,1.93,11.28-1.25.39-2.5.78-3.75,1.17-.45-2.77-1.26-5.78-.97-8.58.55-1.46,1.81-2.69,2.79-3.87Z"/>
      <path class="cls-78" d="M225.57,35.55c.82-.39,1.66-.75,2.5-1.11l.55-.23c.94,4.62,2.97,9.54,2.79,14.27-.76,2.83-3.72,5.19-5.67,7.29-1.99-3.63-3.85-7.31-5.59-11.06,1.83-.35,3.67-.71,5.5-1.08-.07-2.69-.2-5.4-.08-8.08Z"/>
      <path class="cls-29" d="M42.14,40.22c.04,2.18.03,4.36,0,6.54-3.46,1.35-7.05,3-9.94,5.35-3.48,2.76-6.2,6.46-9.41,9.7-1.89-2.5-3.34-5.05-4.18-8.09,1.26-1.49,2.13-3.76,4.32-3.94,3.22-.79,7.08-.85,10.05-2.35,3.33-1.84,6.01-5.02,9.15-7.21Z"/>
      <path class="cls-93" d="M72.21,41.12c-2.76.54-5.52,1.07-8.28,1.59-.49,2.13-.98,4.27-1.47,6.41-1.29-.95-2.59-1.89-3.88-2.84.81-1.62,1.52-3.62,2.85-4.89,3.18-2.25,7.51-2.57,10.78-.27Z"/>
      <path class="cls-83" d="M72.21,41.12c.91,1.38,1.77,2.8,2.64,4.21-4.16,1.19-8.28,2.47-12.39,3.79.49-2.14.98-4.28,1.47-6.41,2.76-.52,5.52-1.05,8.28-1.59Z"/>
      <path class="cls-6" d="M75.13,43.28c3.48.86,6.83,1.85,10.43,2.07,2.38.08,4.77.01,7.14-.24-.48,1.24-.97,2.47-1.4,3.72-2.82-.44-5.65-.82-8.46-1.3-2.95-.81-5.68-1.85-7.71-4.25Z"/>
      <path class="cls-7" d="M160.1,45.37c-.86.74-1.73,1.48-2.59,2.23-3.11.12-6.32.08-9.38.66-2.04.13-2.9,2.97-3.85,4.45-1.25,2.59-2.34,5.26-3.58,7.86-1.08,2.04-2.12,4.09-3.12,6.17-.27-.44-.53-.89-.79-1.33,2.8-5,4.45-11.04,6.46-16.38.53-1.32,1.1-2.76,2.15-3.76,4.53-1.44,10.08-.58,14.7.1Z"/>
      <path class="cls-55" d="M127.26,46.79c-2.87,1.51-5.99,2.88-8.53,4.92-2.41,1.88-2.75,5.57-3.48,8.37-.54-.05-1.07-.09-1.61-.13.17-4-.59-8.71.84-12.49,3.28-2.26,9.27-2.62,12.78-.67Z"/>
      <path class="cls-58" d="M131.51,45.97c2.86.26,5.66.85,8.44,1.53-1.03,2.29-2.04,4.59-3.1,6.87-1.86-2.75-3.58-5.59-5.34-8.4Z"/>
      <path class="cls-104" d="M160.1,45.37l.19,1.4-.11,1.8h-.99c-2.01,0-4.01,0-6.02.11-1.13,2.06-2.09,4.14-3.09,6.26-1.94-.71-3.88-1.46-5.8-2.23.95-1.48,1.81-4.32,3.85-4.45,3.06-.58,6.27-.54,9.38-.66.86-.75,1.73-1.49,2.59-2.23Z"/>
      <path class="cls-65" d="M170.79,45.45c6.13-.46,12.34-.41,18.48-.03-.09.75-.17,1.5-.25,2.26-4.68.13-9.61.11-14.21.99-2.34.95-4.75,2.7-6.14,4.84-1.26,2.54-1.78,5.52-2.45,8.27-.14-4.4-.57-8.79-.75-13.19.56-2.43,3.2-2.91,5.32-3.14Z"/>
      <path class="cls-59" d="M189.27,45.42c3.92.49,7.56,2.22,10.15,5.26-8.22-1.64-16.18-3.16-24.61-2.01,4.6-.88,9.53-.86,14.21-.99.08-.76.16-1.51.25-2.26Z"/>
      <path class="cls-77" d="M108.32,47.28c.14.65.29,1.29.43,1.93-.48,3.78-.78,7.55-.59,11.37.02,1.77.01,3.55.01,5.32-3.28-.77-5.8-.75-9.1-.09-.45,5.59-.96,11.11-2.48,16.53-.85-6.11-1.29-12.25-1.54-18.41.43.07.86.15,1.29.23.45-3.7.47-7.94,2.93-10.95,1.71-2.48,5-2.91,7.69-3.74.32-.6.63-1.2.94-1.79-2.42-.14-4.83-.26-7.26-.23,2.56-.24,5.11-.23,7.68-.17Z"/>
      <path class="cls-109" d="M127.26,46.79c3.05,5.23,5.31,10.94,8.13,16.31-3.36-.94-6.01-2.86-8.84-4.8-2.24-1.74-5.77-.88-8.22-.08-2.06,3.73-2.03,8.8-2.6,12.97-.66-.06-1.32-.13-1.98-.19-.16-3.67-.1-7.37-.11-11.05.54.04,1.07.08,1.61.13.73-2.8,1.07-6.49,3.48-8.37,2.54-2.04,5.66-3.41,8.53-4.92Z"/>
      <path class="cls-136" d="M160.29,46.77c1.13,7.46.75,15.19.47,22.71-1.01,6.86-1.13,13.8-2.16,20.65-3.58.35-7.14.76-10.69,1.28l-.17-1.48c.52-3.24,1.31-6.44,2.05-9.64,2.99.41,5.99.75,8.98,1.07.15-3.34.28-6.68.4-10.02.42-7.6.26-15.19,1.01-22.77l.11-1.8Z"/>
      <path class="cls-25" d="M208.79,46.32c3.58-.03,6.7-1.03,9.21,2.18-2.24.43-4.62.71-6.75,1.53-1.56.97-2.63,2.84-3.78,4.25-1.48-1.62-3-3.21-4.44-4.86l-.38-1.7c2-.71,4.02-1.27,6.14-1.4Z"/>
      <path class="cls-48" d="M82.84,47.53c2.81.48,5.64.86,8.46,1.3-.42,1.8-.74,3.62-1.08,5.43-1.48-.32-3.26-.38-4.57-1.17-1.21-1.65-1.99-3.69-2.81-5.56Z"/>
      <path class="cls-82" d="M100.64,47.45c2.43-.03,4.84.09,7.26.23-.31.59-.62,1.19-.94,1.79-2.69.83-5.98,1.26-7.69,3.74-2.46,3.01-2.48,7.25-2.93,10.95-.43-.08-.86-.16-1.29-.23-.06-4.61-1.12-9.47-.45-14.02.88-2.24,4.02-2.12,6.04-2.46Z"/>
      <path class="cls-79" d="M57.35,50.04c-5.74,4.03-12.7,3.66-18.51,7.54-2.81,1.87-4.55,4.52-6.26,7.35-.78-.24-1.53-.5-2.27-.79-1.03-.48-2.03-1.01-3.05-1.51,5.44-9.94,19.12-16.56,30.09-12.59Z"/>
      <path class="cls-127" d="M153.17,48.68c2.01-.11,4.01-.11,6.02-.11-.49,2.49-.23,4.77-2.27,6.56-2.37,2.17-5.1,4.48-8.17,5.57-2.05-.35-4.07-1.24-5.99-2.01-.7.61-1.39,1.24-2.06,1.88,1.24-2.6,2.33-5.27,3.58-7.86,1.92.77,3.86,1.52,5.8,2.23,1-2.12,1.96-4.2,3.09-6.26Z"/>
      <path class="cls-33" d="M159.19,48.57h.99c-.75,7.58-.59,15.17-1.01,22.77-2.11-.07-4.43-.3-6.5.18-2.1.73-3.82,2.84-5.41,4.32.12-2.51.11-5.01-.08-7.52-.68,1-1.34,2.01-1.97,3.03-6.27-.36-12.49-1.17-18.75-1.59l-.2.65-.29.93c-.46,1.3-.94,2.59-1.42,3.88-2.4-.96-4.81-1.87-7.22-2.77-.79,1.39-1.59,2.79-2.38,4.17-.35-.99-.69-1.98-1-2.99-.08-.88-.15-1.75-.2-2.63.66.06,1.32.13,1.98.19.57-4.17.54-9.24,2.6-12.97,2.45-.8,5.98-1.66,8.22.08,2.83,1.94,5.48,3.86,8.84,4.8.45.78.92,1.55,1.4,2.31.26.44.52.89.79,1.33,1-2.08,2.04-4.13,3.12-6.17.67-.64,1.36-1.27,2.06-1.88,1.92.77,3.94,1.66,5.99,2.01,3.07-1.09,5.8-3.4,8.17-5.57,2.04-1.79,1.78-4.07,2.27-6.56Z"/>
      <path class="cls-67" d="M165.47,48.59c.18,4.4.61,8.79.75,13.19.67-2.75,1.19-5.73,2.45-8.27,1.39-2.14,3.8-3.89,6.14-4.84,8.43-1.15,16.39.37,24.61,2.01l.8,1.02c-.89,2.83-1.46,6.72-3.59,8.88-2.94,1.79-7,2.01-10.34,2.64-.12-1.8,1-5.03-.99-6.01-1.76-1.1-4.5-.63-6.51-.78-.08,2.64-.13,5.28-.15,7.91,1.43.88,2.84,1.77,4.25,2.69-5.12-.21-9.91-1.16-14.77-2.72-.43,6.04-1.69,11.88-2.82,17.8l-.14.93c-.07-11.44-.59-23.05.31-34.45Z"/>
      <path class="cls-72" d="M218,48.5c1.88,5.22,3.89,10.39,5.94,15.55l.48,1.36c-4.22-2.54-8.76-2.94-13.5-3.7-2.75-.4-4.07-2.68-5.71-4.66-.94-2.5-1.58-5.03-2.18-7.63,1.44,1.65,2.96,3.24,4.44,4.86,1.15-1.41,2.22-3.28,3.78-4.25,2.13-.82,4.51-1.1,6.75-1.53Z"/>
      <path class="cls-69" d="M237.05,48.63c4.23.86,7.81,2.98,11.29,5.45-3.47-.38-6.92-.93-10.38-1.42-1.59,1.19-3.06,2.5-4.46,3.9-2.9,3.1-5.69,6.25-9.08,8.85l-.48-1.36c4.68-4.9,8.41-10.57,13.11-15.42Z"/>
      <path class="cls-101" d="M57.35,50.04c.58.18,1.15.37,1.71.58-2.92,3.72-5.04,7.49-9.07,10.2-3.28,2.18-6.25,4.4-8.42,7.77l-.93,1.23c-2.97,2.11-6.14,2-9.62,2.17-.58-1.97-1.15-3.94-1.77-5.9.35-.65.7-1.3,1.06-1.95.74.29,1.49.55,2.27.79,3,.5,5.56-.05,8.36-1.08-.67-2.1-1.33-4.2-2.1-6.27,5.81-3.88,12.77-3.51,18.51-7.54Z"/>
      <path class="cls-124" d="M79.37,49.24l-.49,2.04c-3.53,1.23-6.67,2.54-9.42,5.15-.78.08-1.46.2-2.23.4-.98,7.62-1.03,15.39-.62,23.06-.51-8.54-1.5-16.69-1.36-25.22,0-.95.16-1.86.46-2.72,3.32-2.87,9.52-2.37,13.66-2.71Z"/>
      <path class="cls-122" d="M79.37,49.24l.51,1.54c-.65,10.76.2,21.47-.28,32.23-3.13.44-9.06-.48-10.06,3.46-.66,1.41-1.16,2.88-1.59,4.37-.57-3.35-.93-6.72-1.26-10.11.61,1.08,1.26,2.13,1.91,3.18.28-3.87.49-7.74.67-11.62,3.13.18,6.27.31,9.41.44.21-3.65.38-7.29.36-10.94-.02-3.51-.21-7.01-.16-10.51l.49-2.04Z"/>
      <path class="cls-49" d="M108.75,49.21c1.78,9.11,1.38,18.78,1.54,28.04-1.34,5.03-1.89,10.04-2.05,15.23-3.58.71-6.93.98-10.59.82-.39-2.73-.55-5.51-.82-8.26.89-1.23,1.78-2.45,2.68-3.68,2.64-.28,5.29-.55,7.93-.82,1.17-6.82,1.49-13.07.72-19.96-.19-3.82.11-7.59.59-11.37Z"/>
      <path class="cls-131" d="M59.06,50.62c.73.6,1.4,1.26,1.99,1.97-.7,3.75-1.21,7.87-2.89,11.32-3.18.41-6.6-.14-9.75.46-2.54.64-4.88,2.54-6.84,4.22,2.17-3.37,5.14-5.59,8.42-7.77,4.03-2.71,6.15-6.48,9.07-10.2Z"/>
      <path class="cls-92" d="M79.88,50.78c.44,1.29.81,2.6.97,3.96.84,9.45.19,19.13,1.66,28.51-.61.49-1.22.98-1.82,1.48,2.32.38,4.98.88,7.3.41,1.95-.47,3.84-1.64,5.59-2.6.15.75.31,1.5.45,2.26-.32,2.92-.8,5.85-1.27,8.76-7.66,2.11-15.61,2.04-23.27,4.01-.63-2.22-1.16-4.46-1.54-6.73.43-1.49.93-2.96,1.59-4.37,1-3.94,6.93-3.02,10.06-3.46.48-10.76-.37-21.47.28-32.23Z"/>
      <path class="cls-45" d="M78.88,51.28c-.05,3.5.14,7,.16,10.51-.52-.76-1.05-1.52-1.58-2.27-1.52.62-3.04,1.25-4.56,1.87-1.15-1.65-2.29-3.3-3.44-4.96,2.75-2.61,5.89-3.92,9.42-5.15Z"/>
      <path class="cls-64" d="M200.22,51.7c1.72,3.15,2.01,6.85.73,10.21-.96,2.39-3.19,4.34-4.97,6.16,2.43,1.91,4.76,3.89,6.56,6.44-3.42,4.89-8.24,5.31-13.33,8.23.1-1.02.2-2.04.24-3.06-.54-2.22-1.4-4.3-2.28-6.4-3.11-.74-6.17-1.11-9.37-.97-.75,3.01-1.21,6.08-1.63,9.15-2.7-.83-5.4-1.64-8.11-2.44-.66,1.52-1.33,3.03-2.01,4.54l-.75-1.45c1.13-5.92,2.39-11.76,2.82-17.8,4.86,1.56,9.65,2.51,14.77,2.72-1.41-.92-2.82-1.81-4.25-2.69,2.57-.23,5.11-.66,7.65-1.12,3.34-.63,7.4-.85,10.34-2.64,2.13-2.16,2.7-6.05,3.59-8.88Z"/>
      <path class="cls-50" d="M61.05,52.59c.92,5.16,1.09,10.32-1.06,15.21-3.87-.67-7.96-2.45-11.79-.79-5.88,2.35-8.74,8.64-7.55,14.75-1.45-3.97-1.04-7.94,0-11.94l.93-1.23c1.96-1.68,4.3-3.58,6.84-4.22,3.15-.6,6.57-.05,9.75-.46,1.68-3.45,2.19-7.57,2.89-11.32Z"/>
      <path class="cls-132" d="M237.96,52.66c3.46.49,6.91,1.04,10.38,1.42l1.48.77c-1.25,1.05-2.46,2.13-3.66,3.23-2.68,1.13-5.38,1.97-8.15,2.84-1.5-1.45-3.01-2.91-4.51-4.36,1.4-1.4,2.87-2.71,4.46-3.9Z"/>
      <path class="cls-94" d="M249.82,54.85c-.11,1.98-.1,3.72-1.58,5.25-5.25,5.74-10.88,11.18-16.55,16.51-1.1,1.12-2.46,2.31-3.07,3.77-1.54,5.12-1.24,10.93-3.1,15.94-.7,2.35-2.71,1.69-4.65,1.8-3.5-.37-6.81-.9-9.43-3.47,3.8-.54,7.6-.46,11.42-.2,1.41-4.22,2.03-8.58,2.96-12.91.87-3.99,3.38-6.88,6.18-9.69,5.43-3.9,9.77-8.79,14.16-13.77,1.2-1.1,2.41-2.18,3.66-3.23Z"/>
      <path class="cls-39" d="M67.23,56.83c.77-.2,1.45-.32,2.23-.4,1.15,1.66,2.29,3.31,3.44,4.96,1.52-.62,3.04-1.25,4.56-1.87.53.75,1.06,1.51,1.58,2.27.02,3.65-.15,7.29-.36,10.94-3.14-.13-6.28-.26-9.41-.44-.18,3.88-.39,7.75-.67,11.62-.65-1.05-1.3-2.1-1.91-3.18l-.08-.84c-.41-7.67-.36-15.44.62-23.06Z"/>
      <path class="cls-121" d="M85.14,55.96c2.09-.1,5.45-.03,5.8,2.66,1.63,6.74,1.78,13.96,1.75,20.88-2.26.16-4.53.33-6.79.49-.66-7.89-1.75-16.15-.76-24.03Z"/>
      <path class="cls-36" d="M178.79,56.43c2.01.15,4.75-.32,6.51.78,1.99.98.87,4.21.99,6.01-2.54.46-5.08.89-7.65,1.12.02-2.63.07-5.27.15-7.91Z"/>
      <path class="cls-76" d="M205.21,57.05c1.64,1.98,2.96,4.26,5.71,4.66,4.74.76,9.28,1.16,13.5,3.7,3.39-2.6,6.18-5.75,9.08-8.85,1.5,1.45,3.01,2.91,4.51,4.36,2.77-.87,5.47-1.71,8.15-2.84-4.39,4.98-8.73,9.87-14.16,13.77-4.93,2.32-10.14,3.55-15.47,4.53-1.16,5.71-2.38,11.3-4.9,16.6.41-4.76,1.15-9.5,1.51-14.26.18-2.19-.92-4.5-1.73-6.51-2.24-4.98-4.27-10.06-6.2-15.16Z"/>
      <path class="cls-126" d="M38.84,57.58c.77,2.07,1.43,4.17,2.1,6.27-2.8,1.03-5.36,1.58-8.36,1.08,1.71-2.83,3.45-5.48,6.26-7.35Z"/>
      <path class="cls-119" d="M108.16,60.58c.77,6.89.45,13.14-.72,19.96-2.64.27-5.29.54-7.93.82-.9,1.23-1.79,2.45-2.68,3.68-.09-.9-.17-1.8-.24-2.7,1.52-5.42,2.03-10.94,2.48-16.53,3.3-.66,5.82-.68,9.1.09,0-1.77,0-3.55-.01-5.32Z"/>
      <path class="cls-57" d="M17.71,61.39c1.15,1.48,2.51,2.94,3.37,4.62.09,3.56-1.04,7.14-1.24,10.71-.46.54-.92,1.08-1.37,1.62-1.7-.94-3.41-1.91-5.17-2.73-1.26,1.8-2.43,3.67-3.63,5.5-1.31-3.92-1.55-7.57-.44-11.57,2.22-.68,4.84-1.28,6.75-2.66.33-1.49.23-3.06.14-4.58.53-.3,1.06-.61,1.59-.91Z"/>
      <path class="cls-123" d="M16.12,62.3c.09,1.52.19,3.09-.14,4.58-1.91,1.38-4.53,1.98-6.75,2.66,1.42-3.49,3.63-5.47,6.89-7.24Z"/>
      <path class="cls-73" d="M27.26,62.63c1.02.5,2.02,1.03,3.05,1.51-.36.65-.71,1.3-1.06,1.95-2.21,4.91-2.96,10.3-5.27,15.2-.64-6.54-.06-12.9,3.28-18.66Z"/>
      <path class="cls-120" d="M29.25,66.09c.62,1.96,1.19,3.93,1.77,5.9,3.48-.17,6.65-.06,9.62-2.17-1.03,4-1.44,7.97,0,11.94.81,1.71,1.8,3.23,2.67,4.9.54,1.24,1,2.53,1.46,3.8-2.73-.26-5.32-.25-7.72-1.78-3.56-2.25-6.64-5.32-9.99-7.89.53,3.28,1.17,6.55,1.8,9.81-1.1-.51-2.2-1.02-3.3-1.53-.81-2.56-1.45-5.1-1.59-7.78,2.31-4.9,3.06-10.29,5.27-15.2Z"/>
      <path class="cls-128" d="M249.77,67.15c2.29,2.24,5.04,4.5,6.06,7.65.98,3.15.78,6.8.88,10.07-2.84-5.36-6-10.16-10.52-14.26,1.19-1.16,2.38-2.31,3.58-3.46Z"/>
      <path class="cls-56" d="M147.18,68.32c.19,2.51.2,5.01.08,7.52-.15-1.02-.32-2.05-.51-3.07-2.48,3.95-3.92,8.88-7.03,12.33-1.55.28-3.15.31-4.67-.1-2.85-2.29-4.66-6.08-6.63-9.13-.24,1.14-.48,2.29-.72,3.43-.52.96-1.04,1.91-1.56,2.87-.13-3.62-.38-7.2-.17-10.83l.29-.93c2.59,3.18,4.53,6.75,6.91,10.06,1.29,1.75,3.07,2.41,5.19,1.9,3.25-2.52,4.81-7.51,6.85-11.02.63-1.02,1.29-2.03,1.97-3.03Z"/>
      <path class="cls-13" d="M126.46,69.76c6.26.42,12.48,1.23,18.75,1.59-2.04,3.51-3.6,8.5-6.85,11.02-2.12.51-3.9-.15-5.19-1.9-2.38-3.31-4.32-6.88-6.91-10.06l.2-.65Z"/>
      <path class="cls-84" d="M160.76,69.48c.66,8.06.89,16.27.08,24.32-4,.43-7.95.39-11.95.06-.34-.81-.66-1.63-.98-2.45,3.55-.52,7.11-.93,10.69-1.28,1.03-6.85,1.15-13.79,2.16-20.65Z"/>
      <path class="cls-9" d="M159.17,71.34c-.12,3.34-.25,6.68-.4,10.02-2.99-.32-5.99-.66-8.98-1.07-.74,3.2-1.53,6.4-2.05,9.64-.46-4.7-.29-9.38-.48-14.09,1.59-1.48,3.31-3.59,5.41-4.32,2.07-.48,4.39-.25,6.5-.18Z"/>
      <path class="cls-12" d="M49.22,72.08c4.35-.69,9.04.13,13.42.39.42,3.47.77,6.94,1.04,10.41-4.26.79-8.48,2.2-12.79,2.61-2.99.26-7.14-1.95-6.7-5.43.17-2.95,1.68-7.41,5.03-7.98Z"/>
      <path class="cls-38" d="M125.97,71.34c-.21,3.63.04,7.21.17,10.83-.46,3.1-.92,6.2-1.4,9.3-3.43.28-6.86.53-10.28.79-.27-6.21-.23-12.43-.51-18.63.31,1.01.65,2,1,2.99.79-1.38,1.59-2.78,2.38-4.17,2.41.9,4.82,1.81,7.22,2.77.48-1.29.96-2.58,1.42-3.88Z"/>
      <path class="cls-118" d="M232,71.85c-2.8,2.81-5.31,5.7-6.18,9.69-.93,4.33-1.55,8.69-2.96,12.91-3.82-.26-7.62-.34-11.42.2l.19-1.67c2.52-5.3,3.74-10.89,4.9-16.6,5.33-.98,10.54-2.21,15.47-4.53Z"/>
      <path class="cls-1" d="M177.8,72.31c3.2-.14,6.26.23,9.37.97-2.68.2-5.32.3-7.99.63-.15,2.98-.12,5.99-.04,8.98l.06,1.05c3.41.21,6.77-.04,10.01-1.2,5.09-2.92,9.91-3.34,13.33-8.23.41,1.65.72,3.32.95,5-2.72,3.04-5.34,8.25-9.46,9.39-6.68,2.03-14.26,1.93-21.16,1.51-2.65-.2-5.05.23-7.56,1.06-.09-2.81-.2-5.61-.15-8.43l.14-.93.75,1.45c.68-1.51,1.35-3.02,2.01-4.54,2.71.8,5.41,1.61,8.11,2.44.42-3.07.88-6.14,1.63-9.15Z"/>
      <path class="cls-98" d="M179.18,73.91c2.67-.33,5.31-.43,7.99-.63.88,2.1,1.74,4.18,2.28,6.4-3.17,2.91-6.22,3.04-10.31,3.21-.08-2.99-.11-6,.04-8.98Z"/>
      <path class="cls-70" d="M13.3,75.61c1.76.82,3.47,1.79,5.17,2.73.45-.54.91-1.08,1.37-1.62-.07,4.09.18,8.18.25,12.26-1.47-1.64-2.88-3.44-4.57-4.85-1.71-1.31-3.94-2.05-5.85-3.02,1.2-1.83,2.37-3.7,3.63-5.5Z"/>
      <path class="cls-116" d="M242.97,74.47c3-.05,5.81,2.12,7.96,4.02-4.38-.41-7.87-1.35-11.41,1.97-2.24,2.03-4.49,4.56-5.57,7.42-.97,2.53-.54,5.59-.33,8.24-1.01.36-2.01.72-3.02,1.07.08-5.08-.28-10.42,3.04-14.64,2.5-3.14,5.62-6.42,9.33-8.08Z"/>
      <path class="cls-129" d="M110.29,77.25c.49,6.2,1.03,12.34.46,18.56-3.91.83-7.81,1.09-11.81,1-.44-1.17-.89-2.33-1.29-3.51,3.66.16,7.01-.11,10.59-.82.16-5.19.71-10.2,2.05-15.23Z"/>
      <path class="cls-97" d="M250.93,78.49c.51.74,1,1.49,1.48,2.26-1,4.01-1.82,7.65-5.14,10.42-2.55,2.26-5.52,2.05-8.69,2.22-.33-4.41.41-8.58.94-12.93,3.54-3.32,7.03-2.38,11.41-1.97Z"/>
      <path class="cls-102" d="M127.7,79.3c.19,4.58.91,9.66-.07,14.17-.12.77-.59,1.32-1.41,1.66-2.65.81-7.14.87-9.81.11-1.14-.18-1.46-2.1-1.95-2.98,3.42-.26,6.85-.51,10.28-.79.48-3.1.94-6.2,1.4-9.3.52-.96,1.04-1.91,1.56-2.87Z"/>
      <path class="cls-125" d="M189.45,79.68c-.04,1.02-.14,2.04-.24,3.06-3.24,1.16-6.6,1.41-10.01,1.2l-.06-1.05c4.09-.17,7.14-.3,10.31-3.21Z"/>
      <path class="cls-106" d="M203.49,79.51c-.37,4.52-1.73,8.61-5.7,11.17-6.96,4.61-16.86,4.17-24.86,3.8-3.07-.06-5.22-1.17-7.62-3.01,2.51-.83,4.91-1.26,7.56-1.06,6.9.42,14.48.52,21.16-1.51,4.12-1.14,6.74-6.35,9.46-9.39Z"/>
      <path class="cls-112" d="M27.07,80.79c3.35,2.57,6.43,5.64,9.99,7.89,2.4,1.53,4.99,1.52,7.72,1.78,3.56.23,7.39.74,10.91.17,3.07-.54,5.29-2.25,7.76-4.01.3.72.58,1.43.85,2.16.15,2.3.45,4.96-.28,7.17-3.31,3.05-8.61,4.23-12.92,5.07-7.11,1.31-12.74-1.13-19.58-2.28-2.6-2.82-4.54-6.11-5.95-9.67,1.1.51,2.2,1.02,3.3,1.53-.63-3.26-1.27-6.53-1.8-9.81Z"/>
      <path class="cls-18" d="M239.52,80.46c-.53,4.35-1.27,8.52-.94,12.93l.25.66c-1.73.71-3.46,1.42-5.21,2.07-.21-2.65-.64-5.71.33-8.24,1.08-2.86,3.33-5.39,5.57-7.42Z"/>
      <path class="cls-81" d="M252.41,80.75c1.2,5.09.41,9.91-.4,14.96-1.01,7,.82,14.55-3.41,20.8-3.08,4.29-7.54,4.94-12.43,5.5-.11-.99-.21-1.99-.32-2.99,2.48-2.05,4.65-4.23,6.55-6.83-.67.3-1.33.61-2,.92-.53-2.11-1.07-4.22-1.63-6.32.73-1.23,1.45-2.48,2.24-3.69,1.6-2.36,3.25-4.68,4.81-7.06-1.4-.38-2.81-.76-4.22-1.15-.93-.26-1.85-.54-2.77-.84l-.25-.66c3.17-.17,6.14.04,8.69-2.22,3.32-2.77,4.14-6.41,5.14-10.42Z"/>
      <path class="cls-43" d="M6.17,83.65c1.59,1.05,2.8,2.8,4.03,4.25,1.64-1.23,3.29-2.43,4.96-3.63.58,1.5,1.24,3.03,1.6,4.59-.22,2.09-2.66,3.66-4.4,4.49-2.63,1.07-5.65,2.11-8.19.24-.34-2.1,3.09-3.07,4.45-4.15-1.78-.99-3.53-1.97-5.19-3.14-.32-.97-.62-1.94-.91-2.91,1.21.05,2.46.05,3.65.26Z"/>
      <path class="cls-117" d="M82.51,83.25c3.66-.63,7.35-.95,11.07-.71-1.75.96-3.64,2.13-5.59,2.6-2.32.47-4.98-.03-7.3-.41.6-.5,1.21-.99,1.82-1.48Z"/>
      <path class="cls-135" d="M94.03,84.8c.92,3.97,1,7.98.94,12.03-6.84,1.71-14.06,2.57-21.07,3.05-2.1.26-3.02-1.05-4.41-2.31,7.66-1.97,15.61-1.9,23.27-4.01.47-2.91.95-5.84,1.27-8.76Z"/>
      <path class="cls-99" d="M63.45,86.62c-2.47,1.76-4.69,3.47-7.76,4.01-3.52.57-7.35.06-10.91-.17-.46-1.27-.92-2.56-1.46-3.8,3.43,1.27,6.5,2.52,10.24,1.78,3.57-.58,6.46-2.6,9.89-1.82Z"/>
      <path class="cls-110" d="M64.3,88.78c1.13,3.08,2.12,6.59,1.92,9.9-3.91,4.41-11.76,5.53-17.33,6.21-6.52.61-12.92-1.16-17.37-6.15,6.84,1.15,12.47,3.59,19.58,2.28,4.31-.84,9.61-2.02,12.92-5.07.73-2.21.43-4.87.28-7.17Z"/>
      <path class="cls-130" d="M143.6,89.68c.68,2.87,1.21,5.78,1.76,8.67-1.32.12-2.64.25-3.95.38.28-1.09.56-2.18.84-3.27-1.9.19-3.94.25-5.77.85-1.74,1.6-3.02,3.82-4.44,5.72-5.44,3.29-10.92,2.17-17.04,2.94-6.3.74-12.55,1.4-18.91,1.27-2.58-.45-5.12-1.07-7.69-1.55,3.9-.96,7.56-2.16,11.62-2.11,4.48.02,8.87-.33,13.31-.88,4.8-.58,10.53.37,15.02-1.43,3.45-1.26,3.86-5.7,4.94-8.74,3.63-.05,6.88-.73,10.31-1.85Z"/>
      <path class="cls-74" d="M206.9,90.62c.75,3.91,3.72,9.3,1.94,13.15-1.49-2.08-2.99-4.11-4.86-5.87-6.36,2.59-12.48,5.17-19.43,5.69-1.44.08-2.88.16-4.31.21-.61.71-1.22,1.42-1.82,2.13-.8-1.51-1.68-3-2.54-4.49,6.32-.83,13.19-.45,19.26-2.37,4.98-1.63,8.04-5.03,11.76-8.45Z"/>
      <path class="cls-85" d="M20.83,91.08c1.83,3.66,3.59,7.26,5.96,10.62-.75.63-1.46,1.28-2.16,1.96-1.47,1.44-2.91,2.93-4.34,4.41-3.6-2.97-7.49-5.35-12.01-6.64,2.58-5.58,7.44-7.62,12.55-10.35Z"/>
      <path class="cls-133" d="M245.82,96.04c-1.56,2.38-3.21,4.7-4.81,7.06-.59-1.39-1.22-2.82-1.58-4.28.59-1.36,1.4-2.65,2.17-3.93,1.41.39,2.82.77,4.22,1.15Z"/>
      <path class="cls-24" d="M136.48,96.31c1.83-.6,3.87-.66,5.77-.85-.28,1.09-.56,2.18-.84,3.27,1.31-.13,2.63-.26,3.95-.38,3.12,1.26,6.01,2.45,9.46,2.11,3.58-.17,7.28-1.67,10.82-1.32,4.21.73,8.15,1.4,10.4,5.46-3.74-.9-7.81-2.12-11.68-1.8-3.69.3-7.59,1.09-11.31.64-4.41-.54-8.4-3.5-12.66-4.11-2.8-.24-5.88,1.53-8.35,2.7,1.42-1.9,2.7-4.12,4.44-5.72Z"/>
      <path class="cls-2" d="M238.21,95.49c-.21,2.5-.19,5.28-1.05,7.66-2.4,3.11-5.59,5.56-8.1,8.61-1.31-4.42-1.04-6.82.58-11.1,2.81-1.82,5.58-3.65,8.57-5.17Z"/>
      <path class="cls-86" d="M203.98,97.9c1.87,1.76,3.37,3.79,4.86,5.87-2.94,1.59-5.98,2.93-9.09,4.15-4.19.98-7.37.9-11.01-1.52-1.44-.89-2.81-1.85-4.19-2.81,6.95-.52,13.07-3.1,19.43-5.69Z"/>
      <path class="cls-15" d="M140.39,99.33c4.26.61,8.25,3.57,12.66,4.11,3.72.45,7.62-.34,11.31-.64,3.87-.32,7.94.9,11.68,1.8.3.66.58,1.33.84,2-1.78,2.83-3.39,5.76-4.95,8.72-4.02-1.85-7.43-2.63-11.89-2.25-4.71.15-9.4.46-14.08,1.02-3.46.34-7.48.86-10.76-.57-2.63-1.08-4.41-3.9-6.21-6-.8.89-1.55,1.81-2.3,2.73-1.49-.04-2.97-.1-4.45-.16.52.9,1.05,1.8,1.57,2.7-5.71.29-11.41.6-17.12.6-.28-.75-.57-1.5-.85-2.25l-.37.16c-7.03,3.46-14.1,3.53-21.77,4-1.17-.59-2.27-1.38-3.36-2.11.87-1.7,1.75-3.4,2.62-5.1,4.38-.65,8.68-1.58,13.13-1.85,6.36.13,12.61-.53,18.91-1.27,6.12-.77,11.6.35,17.04-2.94,2.47-1.17,5.55-2.94,8.35-2.7Z"/>
      <path class="cls-16" d="M213.18,100.94c2.62.06,4.5.56,4.5,3.6-1.18,2.58-3.77,2-6.15,2.55.45-2.11.85-4.14,1.65-6.15Z"/>
      <path class="cls-26" d="M229.64,100.66c-1.62,4.28-1.89,6.68-.58,11.1.15.62.29,1.25.43,1.87-1.7.44-3.39.89-5.07,1.35-.58-.97-1.13-1.95-1.67-2.93,1.25-.63,2.49-1.26,3.74-1.89-.85-2.23-1.7-4.45-2.66-6.63,2.04-.74,3.97-1.73,5.81-2.87Z"/>
      <path class="cls-71" d="M8.28,101.43c4.52,1.29,8.41,3.67,12.01,6.64,1.43-1.48,2.87-2.97,4.34-4.41-3.41,4.72-3.41,9.72-4.12,15.27-2.92-1.06-5.8-2.2-8.65-3.43-.59.5-1.18.99-1.77,1.48-3.12-4.67-3.34-10.26-1.81-15.55Z"/>
      <path class="cls-115" d="M26.79,101.7c5.11,5.26,11.11,8.71,18.47,9.63.18.88.35,1.76.51,2.64l-1.6.31c-2.71-.75-5.5-1.59-8-2.87-3.15-1.62-5.75-4.39-8.47-6.65-2.41,2.06-3.92,3.68-4.08,7.04.88,3.8,2.3,7.3,5.37,9.87,2.95,2.64,7,2.83,10.71,3.55.44.64.87,1.28,1.31,1.92-4.23-.15-8.71-.41-12.76-1.75-3-.84-4.01-4.11-5.46-6.52-.77,1.27-1.54,2.55-2.31,3.83-3.85-1.29-7.43-2.85-10.39-5.72.59-.49,1.18-.98,1.77-1.48,2.85,1.23,5.73,2.37,8.65,3.43.71-5.55.71-10.55,4.12-15.27.7-.68,1.41-1.33,2.16-1.96Z"/>
      <path class="cls-66" d="M220.81,103.51c1.01-.02,2.01,0,3.02.02.96,2.18,1.81,4.4,2.66,6.63-1.25.63-2.49,1.26-3.74,1.89-1.64-.82-3.27-1.63-4.91-2.45.95-2.04,1.88-4.11,2.97-6.09Z"/>
      <path class="cls-88" d="M180.24,103.8c.44,2.05.75,4.7,2.17,6.32,2.39.76,5.11.74,7.6.92-.36,5.29-2.38,8.78-6.16,12.36-3.41-3.78-3.02-7.98-3.85-12.66-.32-1.64-.94-3.26-1.58-4.81.6-.71,1.21-1.42,1.82-2.13Z"/>
      <path class="cls-21" d="M180.24,103.8c1.43-.05,2.87-.13,4.31-.21,1.38.96,2.75,1.92,4.19,2.81.45,1.54.89,3.08,1.27,4.64-2.49-.18-5.21-.16-7.6-.92-1.42-1.62-1.73-4.27-2.17-6.32Z"/>
      <path class="cls-34" d="M27.7,104.76c2.72,2.26,5.32,5.03,8.47,6.65,2.5,1.28,5.29,2.12,8,2.87-3.32.72-6.64,1.74-10.06,1.17-3.56-.6-7.12-2.35-10.49-3.65.16-3.36,1.67-4.98,4.08-7.04Z"/>
      <path class="cls-27" d="M88.4,104.69c2.57.48,5.11,1.1,7.69,1.55-4.45.27-8.75,1.2-13.13,1.85-.62.07-1.23.14-1.84.2-2.88.03-5.73.16-8.57.59,1.36,1.05,2.74,2.07,4.15,3.06l.61.44c-.84.41-1.68.82-2.52,1.24l1.47.72c-3.22.21-6.45.4-9.65.85,1.91-.93,3.75-1.94,5.61-2.97-1.99-1-3.36-2.43-5.75-1.77-5.35,1.34-11.48,2.76-15.92,6.17-1.17-1.26-2.36-2.51-3.54-3.77,1.48,4.59,2.34,8.89,1.74,13.75-2.58.25-5.15.49-7.74.54-.44-.64-.87-1.28-1.31-1.92,1.98-1.36,4.81-2.62,6.07-4.71.65-2.02.25-4.47,0-6.54-.16-.88-.33-1.76-.51-2.64,7.79-.09,14.96-2.03,22.14-4.9,6.78-1.57,14.07-.51,21-1.74Z"/>
      <path class="cls-8" d="M199.75,107.92c-2.84,1.15-5.68,2.32-8.54,3.44-.75,4.11-.95,9.03-3.02,12.71-1.78,2.25-6.48,1.65-9.08,1.95.67-5.18,1.47-10.03.89-15.28.83,4.68.44,8.88,3.85,12.66,3.78-3.58,5.8-7.07,6.16-12.36-.38-1.56-.82-3.1-1.27-4.64,3.64,2.42,6.82,2.5,11.01,1.52Z"/>
      <path class="cls-90" d="M128.99,107.52c1.8,2.1,3.58,4.92,6.21,6,3.28,1.43,7.3.91,10.76.57,4.68-.56,9.37-.87,14.08-1.02-3.16,2.54-6.06,4.9-10.28,5.25-4.72.43-10.6.83-14.88-1.56-2.45-1.26-4.79-2.73-7.22-4.03-.32-.83-.64-1.65-.97-2.48.75-.92,1.5-1.84,2.3-2.73Z"/>
      <path class="cls-4" d="M176.88,106.6c1.31,4.04,1.2,8.21.34,12.33-3.92,4.53-8.52,8.22-13.33,11.75-7.01.04-14.05.07-21.07-.04-2.54-.15-5.88-.17-7.94-1.87-2.53-2.08-4.61-4.77-6.84-7.16.11,2.65.23,5.3.36,7.95-8.34,1.5-16.16.35-24.54.19-5.37-.28-11.81-.03-16.81-2.18-2.48-1.01-3.31-3.3-4.33-5.57,3.26,2.15,6.2,4.22,10.17,4.83,6.2.94,12.69.36,18.96.57,4.17-.04,8.83.42,12.86-.77,1.3-.31,1.9-1.9,2.08-3.09.37-2.84-.66-5.93-1.78-8.51-.39-.75-.79-1.5-1.2-2.24-.52-.9-1.05-1.8-1.57-2.7,1.48.06,2.96.12,4.45.16.33.83.65,1.65.97,2.48,1.65,4.39,3.36,10.05,7.04,13.17,2.69,2.06,6.85,2.43,10.1,3.05,5.04.71,11.13,1.78,15.95-.27,5.36-2.15,6.27-7.86,11.9-9.46-.23-1.3-.48-2.6-.72-3.9,1.56-2.96,3.17-5.89,4.95-8.72Z"/>
      <path class="cls-105" d="M81.12,108.29c-1.51,1.18-2.96,2.43-4.42,3.65-1.41-.99-2.79-2.01-4.15-3.06,2.84-.43,5.69-.56,8.57-.59Z"/>
      <path class="cls-37" d="M81.12,108.29c.61-.06,1.22-.13,1.84-.2-.87,1.7-1.75,3.4-2.62,5.1,1.09.73,2.19,1.52,3.36,2.11,4.64,1.47,9.5,2.27,14.22,3.47,3.3.9,6.47.44,9.77-.12,5.99-1.1,11.66-1.07,17.32-3.62,1.12,2.58,2.15,5.67,1.78,8.51-.18,1.19-.78,2.78-2.08,3.09-4.03,1.19-8.69.73-12.86.77-6.27-.21-12.76.37-18.96-.57-3.97-.61-6.91-2.68-10.17-4.83-1.45-3.79-1.57-7.37-5.41-9.62l-.61-.44c1.46-1.22,2.91-2.47,4.42-3.65Z"/>
      <path class="cls-17" d="M238.77,106.79c.56,2.1,1.1,4.21,1.63,6.32-2.95,1.46-5.93,2.71-9.07,3.7.33-2.1.38-5.02,1.8-6.72,1.48-1.51,3.77-2.34,5.64-3.3Z"/>
      <path class="cls-114" d="M205.84,108.36c4.08-.93,8.03,1.9,11.28,4.01.63.87,1.26,1.74,1.88,2.62-3.83.94-7.75,1.45-11.57,2.41-2.54.58-4.48,2.86-6.36,4.57-3.2-2.68-5.76-5.8-8.01-9.31,4.07-1.87,8.38-3.45,12.78-4.3Z"/>
      <path class="cls-14" d="M66.47,110.45c2.39-.66,3.76.77,5.75,1.77-1.86,1.03-3.7,2.04-5.61,2.97-5.36,2.06-10.18,2.95-15.95,2.49l-.11-1.06c4.44-3.41,10.57-4.83,15.92-6.17Z"/>
      <path class="cls-31" d="M105.47,111.3l.37-.16c.28.75.57,1.5.85,2.25,5.71,0,11.41-.31,17.12-.6.41.74.81,1.49,1.2,2.24-5.66,2.55-11.33,2.52-17.32,3.62-3.3.56-6.47,1.02-9.77.12-4.72-1.2-9.58-2-14.22-3.47,7.67-.47,14.74-.54,21.77-4Z"/>
      <path class="cls-63" d="M23.62,111.8c3.37,1.3,6.93,3.05,10.49,3.65,3.42.57,6.74-.45,10.06-1.17l1.6-.31c.25,2.07.65,4.52,0,6.54-1.26,2.09-4.09,3.35-6.07,4.71-3.71-.72-7.76-.91-10.71-3.55-3.07-2.57-4.49-6.07-5.37-9.87Z"/>
      <path class="cls-62" d="M127.66,112.73c2.43,1.3,4.77,2.77,7.22,4.03,4.28,2.39,10.16,1.99,14.88,1.56,4.22-.35,7.12-2.71,10.28-5.25,4.46-.38,7.87.4,11.89,2.25.24,1.3.49,2.6.72,3.9-5.63,1.6-6.54,7.31-11.9,9.46-4.82,2.05-10.91.98-15.95.27-3.25-.62-7.41-.99-10.1-3.05-3.68-3.12-5.39-8.78-7.04-13.17Z"/>
      <path class="cls-89" d="M193.06,112.66c2.25,3.51,4.81,6.63,8.01,9.31,2.13,1.79,4.34,3.39,6.59,5.01-5.71,1.16-10.34-1-15.35-3.4.24-3.64.53-7.28.75-10.92Z"/>
      <path class="cls-80" d="M217.12,112.37c1.36.54,2.74,1.05,4.1,1.6-.55,2.84-.11,7.44-3.07,8.99-3.21,1.86-6.96,2.9-10.49,4.02-2.25-1.62-4.46-3.22-6.59-5.01,1.88-1.71,3.82-3.99,6.36-4.57,3.82-.96,7.74-1.47,11.57-2.41-.62-.88-1.25-1.75-1.88-2.62Z"/>
      <path class="cls-42" d="M221.22,113.97c3.11,2.84,2.46,8.63,2.91,12.56-8.36,2.58-17.18,3.27-25.8,1.7-2.89-.83-5.96-.89-6.02-4.65,5.01,2.4,9.64,4.56,15.35,3.4,3.53-1.12,7.28-2.16,10.49-4.02,2.96-1.55,2.52-6.15,3.07-8.99Z"/>
      <path class="cls-40" d="M229.49,113.63c.46,2.5-.2,3.91-1.44,6.04-1.28-1.51-2.55-3.03-3.63-4.69,1.68-.46,3.37-.91,5.07-1.35Z"/>
      <path class="cls-107" d="M66.61,115.19c3.2-.45,6.43-.64,9.65-.85l1.85.6c-.11,3.21.3,7.12-1.06,10.08-5.99,2.33-13.17,1.7-19.51,2.92-1.52-.26-4.03-.5-4.8-2.06-1.28-2.46-1.68-5.49-2.08-8.2,5.77.46,10.59-.43,15.95-2.49Z"/>
      <path class="cls-44" d="M78.11,114.94c1.07,4,1.91,8.04,2.58,12.13-7.09,2.76-15.7,1.68-23.15.87,6.34-1.22,13.52-.59,19.51-2.92,1.36-2.96.95-6.87,1.06-10.08Z"/>
      <path class="cls-68" d="M177.22,118.93c-.66,2.84-1.37,6.56-3.49,8.69-2.48,2.33-6.59,2.81-9.84,3.06,4.81-3.53,9.41-7.22,13.33-11.75Z"/>
      <path class="cls-28" d="M232.23,118.7c-.03,2.59-.12,5.17-.26,7.75-1.12.12-2.24.25-3.36.37-.99-2.16-1.75-4.32-2.01-6.69,1.87-.52,3.75-.98,5.63-1.43Z"/>
      <path class="cls-46" d="M239.79,125.79c2.77,1.53,3.26,4.06,4.23,6.82-3.59-.43-7.23-.59-10.03-3.19-.28-1.15-.13-2.15.43-3.01.92-2.12,3.77-1.55,5.37-.62Z"/>
      <path class="cls-75" d="M229.07,127.61c1.28,1.33,3.06,3.11,2.88,5.1-.13,2.26-2.62,4.04-4.09,5.54-.68-1.69-1.69-3.53-1.81-5.37.2-1.96,1.79-3.82,3.02-5.27Z"/>
    </g>
  </g>
</svg>