<?xml version="1.0" encoding="UTF-8"?>
<svg id="Capa_2" data-name="Capa 2" xmlns="http://www.w3.org/2000/svg" viewBox="0 0 115.46 137.47">
  <defs>
    <style>
      .cls-1 {
        fill: #c6a47f;
      }

      .cls-2 {
        fill: #fae7c9;
      }

      .cls-3 {
        fill: #f9e6c5;
      }

      .cls-4 {
        fill: #f8e4c4;
      }

      .cls-5 {
        fill: #fdfaf0;
      }

      .cls-6 {
        fill: #150e09;
      }

      .cls-7 {
        fill: #ebd3b1;
      }

      .cls-8 {
        fill: #100b05;
      }

      .cls-9 {
        fill: #faedd6;
      }

      .cls-10 {
        fill: #c2a17d;
      }

      .cls-11 {
        fill: #dcc1a0;
      }

      .cls-12 {
        fill: #c7a782;
      }

      .cls-13 {
        fill: #fbedd2;
      }

      .cls-14 {
        fill: #f5e0be;
      }

      .cls-15 {
        fill: #ccc9c3;
      }

      .cls-16 {
        fill: #e4c9a8;
      }

      .cls-17 {
        fill: #c6a57f;
      }

      .cls-18 {
        fill: #140b03;
      }

      .cls-19 {
        fill: #8b7158;
      }

      .cls-20 {
        fill: #d1b18b;
      }

      .cls-21 {
        fill: #fbeacc;
      }

      .cls-22 {
        fill: #f9e8c9;
      }

      .cls-23 {
        fill: #130b03;
      }

      .cls-24 {
        fill: #b4b2aa;
      }

      .cls-25 {
        fill: #d8b997;
      }
    </style>
  </defs>
  <g id="Capa_1-2" data-name="Capa 1">
    <g id="skull">
      <path class="cls-6" d="M70.61,1.27c12.87,2.25,24.76,8.86,32.66,19.37,5.86,8.01,8.49,17.82,8.12,27.69.34,9.58-2.59,19.09-8.78,26.46,3.18,1.29,6.07,2.48,7.87,5.6,2.25,3.51.59,7.47,3.21,10.84,2.95,4.11,1.97,10.27-1.16,14.01-2.04,2.44-5.12,3.15-8.01,4.09,2.58,3.44,4.21,6.55,3.52,11.03-.47,5.34-5.38,5.88-6.87,10.55-2.24,6.62-11.67,7.85-17.18,5.03-4.2-2.13-5.15-5.84-7.81-9.23-3.63-2.5-7.95-4.08-11.89-6.06-2.06-.86-4.35-2.28-6.59-2.4-5.73,2.15-11.38,4.74-16.91,7.36-4.14,1.57-4.08,6.4-7.79,9.13-4.55,3.22-11.71,3.82-16.39.56-3.11-2.14-3.1-5.66-5.91-8.07-2.39-2.24-4.31-4.44-4.34-7.92-.32-3.81,1.38-6.65,3.69-9.46-3.01-1.28-5.81-2.47-7.89-5.13C.1,102.1-.22,98.87.12,95.65c.62-3.18,3.31-5.08,3.29-8.37.29-2.62.25-4.99,1.91-7.21,1.8-2.49,4.42-3.3,7.13-4.44C.38,63.01-.35,41.52,7.96,26.69,15.16,13.47,28.39,4.86,42.9,1.65c9.19-1.81,18.5-2.41,27.71-.38Z"/>
      <path class="cls-5" d="M62.52,3.73c10.59.5,21.19,4.21,29.63,10.65-2.79-1.02-5.58-2.05-8.36-3.13-5.5-2.14-11.3-2.79-17.28-4.06-5.06-1.07-10.17-1.5-15.3-.6-5.79.85-11,3.01-16.4,5.1,3.16,1.24,5.9,2.7,8.64,4.71-2.83,5.03-5.33,9.62-11.02,11.85-2.63,1.01-7.19,2.06-9.09-.75-1-2.33-.14-5.67-.05-8.17-3.84,2.86-7.93,5.13-9.8,9.8-1.68,4.12-2.89,8.08-6.25,11.23l-.12-.98c1.54-9.01,6.84-16.94,13.52-22.99C32.2,6.38,47.49,2.68,62.52,3.73Z"/>
      <path class="cls-21" d="M66.51,7.19c5.98,1.27,11.78,1.92,17.28,4.06,2.78,1.08,5.57,2.11,8.36,3.13,3.04,2.2,5.69,5.03,8.01,7.95-2.26-.61-4.52-1.23-6.8-1.76.97,4.36,3.42,8.29,4.23,12.64-.26,4.11-6.38,5.18-9.41,6.44-5.78-4.93-14.85-4.29-19.91,1.37-2.04,2.16-1.99,4.72-2.31,7.5-.33,3.86-.59,7.72,1.05,11.34,1.51,3.38,4.63,5.68,7.76,7.47-2.46,1.72-4.93,3.41-7.42,5.09-1.15,0-2.31.01-3.46.02,3.36,3.06,6.43,4.7,10.76,6.02-5.94,2.16-12.11,2.35-18.2,3.74-2.97.52-4.31,3.82-5.89,6.07-.91-.82-1.78-1.66-2.66-2.5-1.71.98-3.49,2.11-5.37,2.71-2.88-.64-5.63-2.26-8.3-3.52.11-1.64.31-3.26.56-4.88.17-1.08.35-2.15.52-3.23-6.32-1.82-13.11-3.47-17.73-8.52-3.16-3.68-4.85-8.82-6.17-13.42-.44-4.28-.52-8.6-.84-12.89-1.01.17-2.02.34-3.02.5-.11-.72-.21-1.44-.31-2.16,3.36-3.15,4.57-7.11,6.25-11.23,1.87-4.67,5.96-6.94,9.8-9.8-.09,2.5-.95,5.84.05,8.17,1.9,2.81,6.46,1.76,9.09.75,5.69-2.23,8.19-6.82,11.02-11.85-2.74-2.01-5.48-3.47-8.64-4.71,5.4-2.09,10.61-4.25,16.4-5.1,5.13-.9,10.24-.47,15.3.6Z"/>
      <path class="cls-14" d="M93.36,20.57c2.28.53,4.54,1.15,6.8,1.76,1.98,2.69,3.6,5.61,4.9,8.68-1.5.35-2.99.69-4.48,1.09.35,4.26,1.41,8.29,2.19,12.47.06,8.46-1.92,16.99-7.21,23.74-4.55,5.4-11.82,6.7-18.23,8.66-1.44,3.36-2.89,9.82-6.87,10.95-1.96-.46-3.84-1.44-5.68-2.27-2.06,1.79-4.35,4.55-7.25,4.64-2.61.31-4.84-.61-6.97-2.02,1.58-2.25,2.92-5.55,5.89-6.07,6.09-1.39,12.26-1.58,18.2-3.74-4.33-1.32-7.4-2.96-10.76-6.02,1.15-.01,2.31-.02,3.46-.02,2.49-1.68,4.96-3.37,7.42-5.09,4.71,1.12,9.78,1.05,13.73-2.09,4.2-3.14,5.85-8.85,5.24-13.88-.6-4.04-3.02-6.6-4.94-9.98l-.62-1.73c3.03-1.26,9.15-2.33,9.41-6.44-.81-4.35-3.26-8.28-4.23-12.64Z"/>
      <path class="cls-16" d="M100.58,32.1c1.49-.4,2.98-.74,4.48-1.09.29.68.56,1.37.82,2.06-1.63,3.67-2.74,7.49-3.11,11.5-.78-4.18-1.84-8.21-2.19-12.47Z"/>
      <path class="cls-1" d="M105.88,33.07c2.43,6.33,2.64,13.61,1.88,20.28-.82,6.29-3.11,12.97-7.3,17.83-5.39,5.84-13.56,9.59-21.59,8.7-.09,3.03.22,6.43-1.79,8.96-1.9,2.52-5.15,3.49-8.2,3.23-1.53-.51-2.72-2.13-3.9-3.21-1.2,1.76-2.1,4.28-4.46,4.68-2.69.62-5.97.47-8.57-.43-1.57-1-2.57-3.01-3.61-4.52-1.24,1.2-2.49,2.87-4.11,3.49-4.96.75-9.35-1.92-10-7.12,2.67,1.26,5.42,2.88,8.3,3.52,1.88-.6,3.66-1.73,5.37-2.71.88.84,1.75,1.68,2.66,2.5,2.13,1.41,4.36,2.33,6.97,2.02,2.9-.09,5.19-2.85,7.25-4.64,1.84.83,3.72,1.81,5.68,2.27,3.98-1.13,5.43-7.59,6.87-10.95,6.41-1.96,13.68-3.26,18.23-8.66,5.29-6.75,7.27-15.28,7.21-23.74.37-4.01,1.48-7.83,3.11-11.5Z"/>
      <path class="cls-25" d="M39.56,37.37c2.48,1.04,3.88,3.56,5.31,5.7-2.88-2-5.65-3.89-9.27-4.15-4.78-.35-9.13,1.58-11.95,5.46-2.71,3.48-3.28,7.53-3.11,11.83-.7.77-1.4,1.55-2.1,2.32-.05-3.2-.29-6.75.51-9.85.85-3.07,2.6-5.91,4.82-8.17,3.96-4.07,10.58-5.21,15.79-3.14Z"/>
      <path class="cls-11" d="M88.18,39.65l.62,1.73c-4.45-1.37-8.32-3.52-13.11-2.12-4.84,1.29-7.62,4.97-9.73,9.26.32-2.78.27-5.34,2.31-7.5,5.06-5.66,14.13-6.3,19.91-1.37Z"/>
      <path class="cls-7" d="M7.12,39.38l.12.98c.1.72.2,1.44.31,2.16,1-.16,2.01-.33,3.02-.5.32,4.29.4,8.61.84,12.89-1.31,1.49-2.61,2.99-3.9,4.5-1.85-6.79-1.96-13.17-.39-20.03Z"/>
      <path class="cls-23" d="M35.6,38.92c3.62.26,6.39,2.15,9.27,4.15,2.8,3.95,4.05,8.41,2.88,13.22-1.56,7.73-9.73,13.17-17.47,11.26-5.42-1.25-8.9-6.01-9.74-11.34-.17-4.3.4-8.35,3.11-11.83,2.82-3.88,7.17-5.81,11.95-5.46Z"/>
      <path class="cls-18" d="M75.69,39.26c4.79-1.4,8.66.75,13.11,2.12,1.92,3.38,4.34,5.94,4.94,9.98.61,5.03-1.04,10.74-5.24,13.88-3.95,3.14-9.02,3.21-13.73,2.09-3.13-1.79-6.25-4.09-7.76-7.47-1.64-3.62-1.38-7.48-1.05-11.34,2.11-4.29,4.89-7.97,9.73-9.26Z"/>
      <path class="cls-20" d="M11.41,54.91c1.32,4.6,3.01,9.74,6.17,13.42,4.62,5.05,11.41,6.7,17.73,8.52-.17,1.08-.35,2.15-.52,3.23-2.74-.21-5.35-.19-8.03-.91-9.45-2.48-17.15-10.14-19.25-19.76,1.29-1.51,2.59-3.01,3.9-4.5Z"/>
      <path class="cls-8" d="M57.47,62.02c2.25.79,3.7,2.65,4.54,4.81.8,2.41,1.73,4.81.27,7.18-2.02.41-3.91-.17-5.94-.28-2.15-.06-4.04.79-6.08-.05-.9-3.55.4-7.25,2.69-9.98,1.16-1.32,2.75-2.02,4.52-1.68Z"/>
      <path class="cls-22" d="M103.92,78.96c1.99.55,3.1,2.37,4.26,3.93-1.68,2.71-3.34,5.44-5.09,8.11,1.85,1.04,4.3,1.93,5.63,3.62.87,3.16-2.31,6.27-5.34,6.51-3.54.21-7.21-2.28-10.72-2.58-2.38.1-4.8.99-7.06,1.7-5.45,1.85-11.01,3.35-16.42,5.34-3.34-1.35-6.69-2.68-9.99-4.1,9.59-4.08,19.22-6.81,28.55-12.02,2.19-1.75,3.08-4.96,4.97-7.07,2.74-3.01,7.21-4.75,11.21-3.44Z"/>
      <path class="cls-13" d="M19.61,80.75c.77,2.46,1.9,4.91,2.36,7.45-2.9,6.54-9.7,9.65-16.45,10.73-.78.14-1.55.29-2.33.43.28-2.09.3-5.03,1.92-6.57,1.63-2.08,4.73-1.09,7.06-1.17-.98-.51-1.95-1.02-2.92-1.53-4.21-1.96-2.58-7.46.51-9.61,3.22-2.1,6.59-1.05,9.85.27Z"/>
      <path class="cls-3" d="M19.61,80.75c4.96,2.83,4.73,8.64,10.02,10.58,8.75,4.23,18.07,7.3,27.13,10.81,7.61,3.06,15.36,5.73,22.98,8.78-1.77.99-3.54,1.98-5.31,2.97-.08,1.18-.17,2.37-.25,3.56-6.64-2.72-13.16-5.57-20.03-7.69-6.99-2.15-13.66-5.12-20.6-7.42-3.79-1.2-7.46-3.15-11.34-3.94-3.55.28-6.91,3.16-10.6,3.16-2.13-.34-4.22-1.61-6.09-2.63,6.75-1.08,13.55-4.19,16.45-10.73-.46-2.54-1.59-4.99-2.36-7.45Z"/>
      <path class="cls-17" d="M108.18,82.89c.29,2.29-.01,4.69.43,6.94,1.25,2.47,3.83,4.48,3.58,7.48-.15,5.11-4.68,8.52-9.6,8.32-4.11.05-6.49-2.71-10.02-4.07-6.38,1.03-12.55,4.54-19.05,5.23-1.47.01-2.97-.72-4.34-1.2,5.41-1.99,10.97-3.49,16.42-5.34,2.26-.71,4.68-1.6,7.06-1.7,3.51.3,7.18,2.79,10.72,2.58,3.03-.24,6.21-3.35,5.34-6.51-1.33-1.69-3.78-2.58-5.63-3.62,1.75-2.67,3.41-5.4,5.09-8.11Z"/>
      <path class="cls-19" d="M83.05,85.66c1.33-.18,2.66-.3,4.01-.35-1.82,1.83-3.36,2.68-5.82,3.46.55-1.07,1.15-2.11,1.81-3.11Z"/>
      <path class="cls-12" d="M22.21,98.4c3.88.79,7.55,2.74,11.34,3.94,6.94,2.3,13.61,5.27,20.6,7.42,6.87,2.12,13.39,4.97,20.03,7.69.8.34,1.59.68,2.38,1.04,1.94.98,3.77,1.87,5.11,3.65,1.77,2.13,3.08,5.23,5.37,6.81,2.56,1.35,5.59-.09,8.17-.77.07-2.02.14-4.04.23-6.06,2.79-1.48,5.4-3.1,7.96-4.94.57.35,1.14.69,1.71,1.04-.75,3.06-1.9,4.43-4.32,6.31-2.9,1.95-2.68,5.77-5.13,7.9-4.31,2.92-11.4,1.41-13.61-3.47-1.51-2.52-1.77-5.08-4.76-6.32-16.54-7.93-33.65-14.28-51.04-20.07-1.56-.33-3.36-1.35-4.81-.26-3.52,1.95-6.16,4.38-10.52,3.57-4.17-.64-6.27-2.64-7.73-6.52.78-.14,1.55-.29,2.33-.43,1.87,1.02,3.96,2.29,6.09,2.63,3.69,0,7.05-2.88,10.6-3.16Z"/>
      <path class="cls-24" d="M93.52,105.8c-3.68,1.92-6.57,4.42-10.9,2.72,3.47-1.74,6.94-3.1,10.9-2.72Z"/>
      <path class="cls-15" d="M21.12,106.19c3.96-.19,7.18.2,10.02,3.19-3.85.27-6.85-1.22-10.02-3.19Z"/>
      <path class="cls-10" d="M54.96,114.67c-5.72,3.16-11.87,5.4-17.66,8.39-3.72,1.52-3.71,6.61-6.92,9.06-3.38,2.39-8.44,2.93-11.87.32-1.98-1.78-1.85-5.45-3.93-7.13-1.62-1.46-3.23-2.92-4.72-4.53,3.44.03,6.77.66,10.15,1.24-.9,1.49-1.8,2.99-2.7,4.48,2.29,2.09,3.83,3.84,7.26,3.12,5.55-.37,5.79-6.94,10.07-9.22,4.07-2.11,8.36-3.73,12.32-6.08-2.52-1.56-5.07-3.06-7.63-4.56,5.11-.95,11.01,3.03,15.63,4.91Z"/>
      <path class="cls-9" d="M94.69,109.71c2.89-.18,5.3.99,7.67,2.51-1.95.93-3.98,2.1-6.07,2.67-3.63.85-7.79.06-11.45.88-2.81.65-5.55,1.76-8.28,2.72-.79-.36-1.58-.7-2.38-1.04.08-1.19.17-2.38.25-3.56,1.77-.99,3.54-1.98,5.31-2.97,1.91.7,3.86,1.48,5.86,1.85,2.97-.73,6.02-2.85,9.09-3.06Z"/>
      <path class="cls-2" d="M20.55,110.05c2.73.38,5.43,2.02,8.09,2.78,3.63-.43,7.2-2.01,10.69-3.07,2.56,1.5,5.11,3,7.63,4.56-3.96,2.35-8.25,3.97-12.32,6.08-4.28,2.28-4.52,8.85-10.07,9.22-3.43.72-4.97-1.03-7.26-3.12.9-1.49,1.8-2.99,2.7-4.48-3.38-.58-6.71-1.21-10.15-1.24.16-2.29-.15-5.03,1.29-6.92,2.06-3.08,5.87-4.11,9.4-3.81Z"/>
      <path class="cls-4" d="M102.36,112.22c1.53,1.76,2.11,3.8,2.75,6-.57-.35-1.14-.69-1.71-1.04-2.56,1.84-5.17,3.46-7.96,4.94-.09,2.02-.16,4.04-.23,6.06-2.58.68-5.61,2.12-8.17.77-2.29-1.58-3.6-4.68-5.37-6.81-1.34-1.78-3.17-2.67-5.11-3.65,2.73-.96,5.47-2.07,8.28-2.72,3.66-.82,7.82-.03,11.45-.88,2.09-.57,4.12-1.74,6.07-2.67Z"/>
    </g>
  </g>
</svg>